<?xml version="1.0" encoding="UTF-8"?>
<svg id="uuid-2d5b7fba-093d-4e09-8c6b-048d348c0836" data-name="Capa 1" xmlns="http://www.w3.org/2000/svg" viewBox="0 0 210 104">
  <defs>
    <style>
      .uuid-5e31bb67-d026-4896-900f-670212423e16 {
        fill: #323232;
      }

      .uuid-730d1f5a-f13f-4630-8a08-ec8e86afe791 {
        fill: #444;
      }

      .uuid-084f2f0b-395b-475b-80a0-432f664aceb8 {
        fill: #e6e6e6;
      }

      .uuid-9834864e-47e2-4476-92b9-8dec331ee7f8 {
        fill: #f6f6f6;
      }

      .uuid-7dcf330f-8108-49a3-aedd-a1aa2bff8c12 {
        fill: #606060;
      }

      .uuid-c8003941-f5ee-419c-987c-ec05f651b747 {
        fill: #a0a0a0;
      }

      .uuid-92f19092-3307-4824-a2cf-27666dcd1780 {
        fill: #c6c6c6;
      }

      .uuid-f7c553bf-d651-41ce-9987-2426d4eccc13 {
        fill: #fafafa;
      }

      .uuid-735614ef-17af-45d5-9ac5-0d85697c3299 {
        fill: red;
      }

      .uuid-d413caab-61b0-42d9-9909-9933ac671115 {
        fill: #ededed;
      }
    </style>
  </defs>
  <path class="uuid-7dcf330f-8108-49a3-aedd-a1aa2bff8c12" d="M170.03,40.13c-.23-.29-5.75-7.19-6.71-8.54-.1-.15-.21-.29-.31-.42-.86-1.17-1.6-2.19-1.37-4.58.27-2.84,2.96-4.9,4.6-5.53.13-.05.29-.11.45-.18,1.6-.65,4.58-1.86,8.4-1.46,4.34.46,8.24,2.97,10.18,5.27,1.55,1.83,2.78,4.11,3.87,6.11.38.7.74,1.36,1.07,1.93l-1.38.81c-.35-.6-.71-1.27-1.1-1.98-1.05-1.94-2.23-4.13-3.68-5.84-1.74-2.05-5.23-4.3-9.13-4.71-3.42-.36-6.16.75-7.63,1.35-.17.07-.33.14-.47.19-1.37.53-3.39,2.19-3.58,4.19-.17,1.79.29,2.42,1.06,3.48.1.14.21.29.32.44.93,1.32,6.59,8.4,6.65,8.47l-1.25,1Z"/>
  <path class="uuid-c8003941-f5ee-419c-987c-ec05f651b747" d="M23.66,90.65c-1.38,0-2.71-.17-3.72-1.03-1.26-1.08-1.68-2.25-2.13-3.5-.05-.14-.1-.29-.16-.44l-6.55-17.77c-.13-.29-.61-1.46-.61-2.98,0-1.82.62-3.12.89-3.59.29-.52,9.71-16.91,10.11-17.61l.03-.05c.1-.16,1.03-1.53,2.45-1.88,1.51-.38,2.91-.12,3.94.73,1.08.88,1.35,1.59,1.73,3,.33,1.25,3.34,12.48,3.34,12.48,0,.02.78,2.72,3.01,4.32,2.32,1.67,3.67,1.74,6.5,1.74,2.91,0,66.44-.02,67.18-.02,1.56-.02,3.76-.38,4.7-3.2,1.09-3.28-1.43-5.29-3.08-5.96l-12.46-5.08c-.05-.02-4.19-1.73-9.11-1.41-2.53.16-7.58,1.22-12.93,2.34-1.58.33-3.21.67-4.84,1-2.27.46-4.04.85-5.47,1.16-3.27.71-4.77,1.03-6.21.99-2.77-.09-5.76-.82-8.81-5.55-1.77-2.74-3.29-5.07-4.4-6.77-.82-1.26-1.45-2.22-1.84-2.83v-.02c-.96-1.48-2.93-4.55-.47-7.71,2.27-2.92,4.55-2.6,7.71-2.15.23.03.46.07.7.1,1.28.18,9.4,1.31,40.84,5.72l1.8.25s.04,0,.08.01c.87.15,5.44.78,9.61-1.53,2.86-1.59,4.13-3.02,6.22-5.38.69-.78,1.47-1.66,2.42-2.67,1.24-1.32,2.85-3.04,4.4-4.71,3.33-3.57,6.48-6.95,7.18-7.58l.2-.18c1.41-1.29,4.73-4.31,9.86-4.64,2.48-.16,3.89-.13,4.92-.1.15,0,.29,0,.43,0,2.15.04,5.4,1.7,5.55,6.11.14,4.03.2,14.99.23,20.26,0,1.46.01,2.52.02,2.76,0,.45.15,4.47,2.73,7.92,2.35,3.14,4.38,4.25,9.17,6.42,3.92,1.77,10.09,4.6,12.72,5.8.64.29,1.08.5,1.24.57l.04.02c1.37.63,3.37,1.26,4.95-.39,1.52-1.59,1.5-3.26-.07-5.58-.24-.35-.89-1.31-1.77-2.6-3.16-4.65-9.05-13.3-9.51-14.01-.04-.06-.09-.13-.14-.21-.8-1.17-3.22-4.74-1.02-8.75,1.06-1.93,2.95-3.41,5.47-4.27,1.88-.64,4.14-.93,6.21-.8,4.38.28,7.91,2.59,11.1,7.29.9,1.33,2.21,3.25,3.67,5.39,4.22,6.19,9.47,13.9,10.04,14.83l.06.1c2.59,4.16,4.01,8.55,4.22,13.04.33,7.06-1.82,13.55-6.22,18.76-3.74,4.43-10.47,9.71-21.34,9.71-3.58,0-24.04,0-48.85.02-44.45.02-102.42.04-103.37.04-.39,0-.79.02-1.22.03-.45.02-.9.03-1.35.03ZM23.45,44.91c-.51.88-9.8,17.06-10.08,17.56-.14.25-.59,1.15-.59,2.47,0,1.14.41,2.04.41,2.05l.04.09,6.57,17.82c.06.15.11.3.16.45.4,1.11.66,1.85,1.46,2.53.65.56,2.1.5,3.49.45.43-.02.87-.03,1.3-.03.96,0,58.93-.02,103.38-.04h0c24.82,0,45.28-.02,48.86-.02,9.99,0,16.17-4.84,19.59-8.89,4.02-4.76,5.98-10.7,5.68-17.18-.19-4.1-1.5-8.11-3.88-11.94l-.06-.1c-.55-.89-6.01-8.9-9.99-14.75-1.46-2.14-2.77-4.07-3.67-5.39-3.63-5.34-7.08-6.15-9.35-6.29-2.65-.17-7.64.46-9.53,3.89-1.53,2.78.18,5.29.91,6.36.06.09.12.18.16.25.45.7,6.55,9.66,9.49,13.97.88,1.29,1.53,2.25,1.77,2.6,2.18,3.21,2.12,6.05-.17,8.45-1.32,1.38-3.7,2.65-7.55.89l-.04-.02c-.16-.07-.6-.28-1.25-.57-2.63-1.21-8.8-4.03-12.71-5.8-5.08-2.29-7.41-3.58-10.06-7.13-2.95-3.95-3.17-8.4-3.18-9.25,0-.26,0-1.26-.02-2.79-.03-5.26-.09-16.19-.23-20.19-.13-3.79-3.18-3.9-3.31-3.9-.14,0-.29,0-.44-.01-.98-.02-2.33-.06-4.72.1-4.33.28-7.12,2.82-8.46,4.05l-.2.19c-.63.57-4.03,4.22-7.04,7.44-1.55,1.67-3.16,3.39-4.41,4.72-.92.98-1.69,1.85-2.37,2.62-2.1,2.37-3.62,4.09-6.83,5.86-4.72,2.62-9.69,2.03-11.11,1.78l-1.8-.25c-31.43-4.41-39.55-5.55-40.83-5.72-.25-.03-.48-.07-.71-.1-3-.43-4.13-.59-5.58,1.29-1.36,1.75-.54,3.33.57,5.07v.02c.4.61,1.02,1.56,1.84,2.81,1.11,1.7,2.63,4.03,4.41,6.78,2.83,4.37,5.41,4.45,6.96,4.5,1.17.04,2.57-.27,5.66-.94,1.44-.31,3.22-.7,5.5-1.16,1.62-.33,3.25-.67,4.83-1,5.67-1.18,10.56-2.21,13.25-2.38,5.48-.35,9.95,1.5,10.14,1.58l12.44,5.07c3.1,1.26,5.8,4.55,4.39,8.81-.71,2.14-2.47,4.7-6.85,4.77-.75,0-64.29.02-67.19.03-2.99,0-4.96-.1-7.83-2.17-2.9-2.08-3.85-5.44-3.88-5.58,0,0-3.01-11.24-3.34-12.48-.31-1.17-.42-1.37-.97-1.82-.58-.48-1.38-.41-1.94-.27-.42.11-.89.63-1.08.89Z"/>
  <g>
    <circle class="uuid-730d1f5a-f13f-4630-8a08-ec8e86afe791" cx="16.85" cy="95.58" r="3.92"/>
    <path class="uuid-92f19092-3307-4824-a2cf-27666dcd1780" d="M15.62,96.77h1.05v-2.33l-.94.21v-.67l1.63-.37v3.14h.96v.67h-2.7v-.67Z"/>
  </g>
  <g>
    <circle class="uuid-730d1f5a-f13f-4630-8a08-ec8e86afe791" cx="3.92" cy="63.83" r="3.92"/>
    <path class="uuid-92f19092-3307-4824-a2cf-27666dcd1780" d="M4.55,62.99c0-.27-.2-.47-.55-.47s-.62.2-.81.53l-.57-.36c.29-.53.76-.84,1.38-.84.75,0,1.23.45,1.23,1.1,0,1.15-1.24,1.24-1.67,2.09h1.75v.66h-2.65v-.52c.59-1.31,1.88-1.46,1.88-2.18Z"/>
  </g>
  <g>
    <circle class="uuid-730d1f5a-f13f-4630-8a08-ec8e86afe791" cx="27.91" cy="35.18" r="3.92"/>
    <path class="uuid-92f19092-3307-4824-a2cf-27666dcd1780" d="M26.54,36.33l.53-.31c.19.32.44.49.84.49s.72-.23.72-.58c0-.33-.27-.59-.63-.59h-.45v-.57h.45c.33,0,.52-.19.52-.48s-.22-.48-.6-.48c-.34,0-.59.15-.78.47l-.53-.31c.3-.49.75-.77,1.37-.77.72,0,1.22.45,1.22,1.05,0,.39-.21.69-.46.81.35.17.58.53.58.92,0,.65-.54,1.15-1.39,1.15-.63,0-1.11-.29-1.38-.79Z"/>
  </g>
  <g>
    <circle class="uuid-730d1f5a-f13f-4630-8a08-ec8e86afe791" cx="40.13" cy="57.27" r="3.92"/>
    <path class="uuid-92f19092-3307-4824-a2cf-27666dcd1780" d="M38.74,57.78l1.04-2.41h.72l-1.01,2.33h.95v-.87h.7v.87h.55v.65h-.55v.79h-.7v-.79h-1.7v-.56Z"/>
  </g>
  <g>
    <circle class="uuid-730d1f5a-f13f-4630-8a08-ec8e86afe791" cx="107.98" cy="59.13" r="3.92"/>
    <path class="uuid-92f19092-3307-4824-a2cf-27666dcd1780" d="M106.64,60.28l.58-.36c.17.31.42.48.79.48.43,0,.71-.26.71-.66s-.26-.67-.73-.67c-.29,0-.51.11-.69.3l-.46-.3.37-1.85h2.01v.66h-1.48l-.14.71c.15-.06.3-.09.48-.09.83,0,1.32.54,1.32,1.26s-.53,1.3-1.43,1.3c-.59,0-1.08-.28-1.34-.78Z"/>
  </g>
  <g>
    <circle class="uuid-730d1f5a-f13f-4630-8a08-ec8e86afe791" cx="92.29" cy="53.72" r="3.92"/>
    <path class="uuid-92f19092-3307-4824-a2cf-27666dcd1780" d="M90.95,54.31c0-.3.12-.6.31-.86l1.24-1.63h.85l-.92,1.17h.04c.7,0,1.3.55,1.3,1.34,0,.74-.6,1.33-1.41,1.33s-1.42-.61-1.42-1.35ZM93.07,54.3c0-.39-.3-.7-.71-.7s-.73.31-.73.71.29.69.72.69.71-.31.71-.7Z"/>
  </g>
  <g>
    <circle class="uuid-730d1f5a-f13f-4630-8a08-ec8e86afe791" cx="61.06" cy="45.69" r="3.92"/>
    <path class="uuid-92f19092-3307-4824-a2cf-27666dcd1780" d="M61.66,44.46h-1.92v-.67h2.69v.56l-1.54,3.2h-.74l1.51-3.09Z"/>
  </g>
  <g>
    <circle class="uuid-730d1f5a-f13f-4630-8a08-ec8e86afe791" cx="39.5" cy="26.42" r="3.92"/>
    <path class="uuid-92f19092-3307-4824-a2cf-27666dcd1780" d="M38.24,27.21c0-.38.21-.72.55-.92-.22-.1-.44-.42-.44-.81,0-.6.5-1.03,1.22-1.03s1.22.43,1.22,1.03c0,.39-.2.69-.44.81.33.17.55.53.55.92,0,.65-.54,1.15-1.34,1.15s-1.34-.5-1.34-1.15ZM40.22,27.17c0-.34-.27-.59-.65-.59s-.65.26-.65.59c0,.36.27.59.65.59s.65-.23.65-.59ZM40.12,25.53c0-.28-.2-.48-.55-.48s-.55.19-.55.48.2.48.55.48.55-.19.55-.48Z"/>
  </g>
  <g>
    <circle class="uuid-730d1f5a-f13f-4630-8a08-ec8e86afe791" cx="100.42" cy="28.37" r="3.92"/>
    <path class="uuid-92f19092-3307-4824-a2cf-27666dcd1780" d="M101.9,27.74c0,.3-.12.6-.31.86l-1.24,1.63h-.85l.92-1.17h-.04c-.7,0-1.3-.55-1.3-1.34,0-.74.6-1.33,1.41-1.33s1.42.61,1.42,1.35ZM99.77,27.75c0,.4.3.7.71.7s.73-.31.73-.71-.29-.69-.72-.69-.71.31-.71.7Z"/>
  </g>
  <g>
    <circle class="uuid-730d1f5a-f13f-4630-8a08-ec8e86afe791" cx="127.93" cy="4.22" r="3.92"/>
    <g>
      <path class="uuid-92f19092-3307-4824-a2cf-27666dcd1780" d="M125.15,5.41h1.05v-2.33l-.94.22v-.67l1.63-.37v3.15h.96v.67h-2.7v-.67Z"/>
      <path class="uuid-92f19092-3307-4824-a2cf-27666dcd1780" d="M128.17,4.78v-1.17c0-.83.6-1.38,1.38-1.38s1.38.55,1.38,1.38v1.17c0,.83-.6,1.38-1.38,1.38s-1.38-.55-1.38-1.38ZM130.24,4.76v-1.12c0-.45-.26-.74-.69-.74s-.69.29-.69.74v1.12c0,.45.26.73.69.73s.69-.28.69-.73Z"/>
    </g>
  </g>
  <g>
    <circle class="uuid-730d1f5a-f13f-4630-8a08-ec8e86afe791" cx="149.81" cy="5.33" r="3.92"/>
    <g>
      <path class="uuid-92f19092-3307-4824-a2cf-27666dcd1780" d="M147.03,6.53h1.05v-2.33l-.94.22v-.67l1.63-.37v3.15h.96v.67h-2.7v-.67Z"/>
      <path class="uuid-92f19092-3307-4824-a2cf-27666dcd1780" d="M150.13,6.53h1.05v-2.33l-.94.22v-.67l1.63-.37v3.15h.96v.67h-2.7v-.67Z"/>
    </g>
  </g>
  <g>
    <circle class="uuid-730d1f5a-f13f-4630-8a08-ec8e86afe791" cx="140.5" cy="46.4" r="3.92"/>
    <g>
      <path class="uuid-92f19092-3307-4824-a2cf-27666dcd1780" d="M137.72,47.59h1.05v-2.33l-.94.22v-.67l1.63-.37v3.15h.96v.67h-2.7v-.67Z"/>
      <path class="uuid-92f19092-3307-4824-a2cf-27666dcd1780" d="M142.68,45.56c0-.27-.2-.47-.55-.47s-.62.2-.81.54l-.57-.36c.28-.53.76-.84,1.38-.84.75,0,1.23.45,1.23,1.1,0,1.15-1.24,1.24-1.67,2.09h1.75v.66h-2.65v-.52c.59-1.31,1.88-1.46,1.88-2.18Z"/>
    </g>
  </g>
  <g>
    <circle class="uuid-730d1f5a-f13f-4630-8a08-ec8e86afe791" cx="183.61" cy="64.34" r="3.92"/>
    <g>
      <path class="uuid-92f19092-3307-4824-a2cf-27666dcd1780" d="M180.83,65.54h1.05v-2.33l-.94.21v-.67l1.63-.37v3.14h.96v.67h-2.7v-.67Z"/>
      <path class="uuid-92f19092-3307-4824-a2cf-27666dcd1780" d="M183.8,65.5l.53-.31c.19.32.44.49.84.49s.71-.23.71-.58c0-.33-.27-.59-.63-.59h-.45v-.57h.45c.33,0,.52-.19.52-.48s-.22-.48-.6-.48c-.34,0-.59.15-.79.46l-.53-.31c.3-.49.75-.77,1.37-.77.72,0,1.22.45,1.22,1.05,0,.39-.22.69-.47.81.35.17.58.54.58.92,0,.64-.54,1.14-1.39,1.14-.63,0-1.11-.29-1.38-.79Z"/>
    </g>
  </g>
  <g>
    <circle class="uuid-730d1f5a-f13f-4630-8a08-ec8e86afe791" cx="166.33" cy="14.47" r="3.92"/>
    <g>
      <path class="uuid-92f19092-3307-4824-a2cf-27666dcd1780" d="M163.55,15.66h1.05v-2.33l-.94.22v-.67l1.63-.37v3.15h.96v.67h-2.7v-.67Z"/>
      <path class="uuid-92f19092-3307-4824-a2cf-27666dcd1780" d="M166.48,14.98l1.04-2.41h.72l-1.01,2.33h.95v-.87h.7v.87h.55v.65h-.55v.78h-.7v-.78h-1.7v-.56Z"/>
    </g>
  </g>
  <g>
    <circle class="uuid-730d1f5a-f13f-4630-8a08-ec8e86afe791" cx="206.08" cy="84.29" r="3.92"/>
    <g>
      <path class="uuid-92f19092-3307-4824-a2cf-27666dcd1780" d="M203.3,85.49h1.05v-2.33l-.94.21v-.67l1.63-.37v3.14h.96v.67h-2.7v-.67Z"/>
      <path class="uuid-92f19092-3307-4824-a2cf-27666dcd1780" d="M206.29,85.45l.58-.36c.17.31.42.48.79.48.43,0,.71-.26.71-.66s-.26-.67-.73-.67c-.29,0-.51.11-.69.3l-.46-.3.37-1.85h2.01v.66h-1.48l-.14.71c.15-.06.3-.09.48-.09.83,0,1.32.54,1.32,1.26s-.53,1.3-1.43,1.3c-.59,0-1.08-.28-1.34-.78Z"/>
    </g>
  </g>
  <g>
    <rect class="uuid-084f2f0b-395b-475b-80a0-432f664aceb8" x="26.06" y="51.61" width="11.53" height=".73" transform="translate(-19.43 19.01) rotate(-25.78)"/>
    <path class="uuid-735614ef-17af-45d5-9ac5-0d85697c3299" d="M45.11,43.18h-10.14l-.03.03v8.76h10.17v-8.79Z"/>
    <g>
      <path class="uuid-d413caab-61b0-42d9-9909-9933ac671115" d="M36.64,48.7h1.17v-2.35h-1.17v-.83h3.24v.83h-1.18v2.35h1.18v.83h-3.24v-.83Z"/>
      <path class="uuid-d413caab-61b0-42d9-9909-9933ac671115" d="M40.5,48.7h1.49v-2.1c0-.07-.02-.13-.05-.17-.03-.04-.08-.06-.16-.06-.04,0-.08,0-.13.02-.05.01-.11.04-.17.06l-.89.29v-.83l.81-.29c.12-.04.23-.08.34-.1s.22-.04.32-.04c.17,0,.31.04.43.11.12.07.22.18.28.32s.09.29.09.47v2.33h1.32v.83h-3.7v-.83Z"/>
    </g>
  </g>
  <g>
    <rect class="uuid-084f2f0b-395b-475b-80a0-432f664aceb8" x="67.75" y="29.86" width="12.21" height=".73" transform="translate(31.45 97.83) rotate(-80.16)"/>
    <path class="uuid-735614ef-17af-45d5-9ac5-0d85697c3299" d="M80.2,18.57h-10.14l-.03.03v7.93h10.17v-7.96Z"/>
    <g>
      <path class="uuid-d413caab-61b0-42d9-9909-9933ac671115" d="M71.33,23.63h1.17v-2.35h-1.17v-.83h3.24v.83h-1.18v2.35h1.18v.83h-3.24v-.83Z"/>
      <path class="uuid-d413caab-61b0-42d9-9909-9933ac671115" d="M75.67,24.32c-.18-.09-.32-.21-.42-.36-.09-.16-.14-.34-.14-.55,0-.3.09-.54.27-.73.18-.19.48-.33.9-.41l1.27-.27c.12-.02.21-.05.28-.08.07-.03.11-.07.14-.12.03-.04.05-.11.05-.18,0-.11-.04-.2-.13-.25s-.22-.08-.41-.08h-.92c-.17,0-.3.04-.39.13-.09.09-.13.21-.13.37v.15h-.89v-.24c0-.26.06-.48.17-.67.11-.18.27-.33.49-.43.21-.1.47-.15.78-.15h.88c.47,0,.83.1,1.08.3s.37.49.37.86c0,.22-.04.41-.11.56-.07.15-.18.27-.33.37-.15.09-.34.16-.58.21l-1.5.3c-.13.03-.23.07-.29.12-.07.05-.1.12-.1.2s.03.15.09.2c.06.04.15.07.27.07h2.53v.83h-2.57c-.25,0-.47-.04-.65-.13Z"/>
    </g>
  </g>
  <g>
    <rect class="uuid-084f2f0b-395b-475b-80a0-432f664aceb8" x="141.24" y="37.53" width="12.82" height=".73" transform="translate(-.07 .27) rotate(-.11)"/>
    <g>
      <path class="uuid-735614ef-17af-45d5-9ac5-0d85697c3299" d="M161.71,33.4h-10.94l-.03.03v8.96h10.97v-9Z"/>
      <g>
        <path class="uuid-d413caab-61b0-42d9-9909-9933ac671115" d="M152.43,38.92h1.17v-2.35h-1.17v-.83h3.24v.83h-1.18v2.35h1.18v.83h-3.24v-.83Z"/>
        <path class="uuid-d413caab-61b0-42d9-9909-9933ac671115" d="M156.87,39.59c-.21-.1-.38-.25-.49-.43-.11-.19-.17-.41-.17-.67v-.51h.9v.43c0,.16.05.28.14.37.09.09.22.13.38.13h1.03c.15,0,.26-.03.34-.1.08-.06.12-.16.12-.29,0-.12-.04-.21-.12-.28-.08-.06-.19-.09-.34-.09h-1.11v-.83h1.07c.14,0,.26-.03.34-.1.08-.06.12-.16.12-.29,0-.12-.04-.21-.12-.28-.08-.06-.19-.09-.34-.09h-1c-.16,0-.29.04-.38.13-.09.09-.14.21-.14.37v.26h-.89v-.34c0-.26.06-.48.17-.67s.27-.33.49-.43c.21-.1.47-.15.77-.15h1.01c.27,0,.5.04.7.13s.35.21.46.38c.11.17.16.36.16.59,0,.2-.04.38-.14.53-.09.15-.23.27-.42.37.21.1.37.22.46.37.09.14.14.32.14.54s-.05.42-.16.59c-.11.17-.27.29-.47.38-.2.09-.44.13-.71.13h-1.03c-.3,0-.56-.05-.77-.15Z"/>
      </g>
    </g>
  </g>
  <g>
    <g>
      <line class="uuid-d413caab-61b0-42d9-9909-9933ac671115" x1="129.65" y1="95.07" x2="129.67" y2="86.31"/>
      <rect class="uuid-084f2f0b-395b-475b-80a0-432f664aceb8" x="125.28" y="90.33" width="8.76" height=".73" transform="translate(38.67 220.14) rotate(-89.87)"/>
    </g>
    <g>
      <path class="uuid-735614ef-17af-45d5-9ac5-0d85697c3299" d="M134.74,94.1h-10.98l-.03.03v8.7h11.02v-8.74Z"/>
      <g>
        <path class="uuid-d413caab-61b0-42d9-9909-9933ac671115" d="M126.97,96.87c.09-.19.23-.33.42-.42.19-.09.42-.14.71-.14h1.98v.83h-1.92c-.11,0-.2.01-.26.04-.06.03-.11.08-.14.14-.03.06-.04.15-.04.26v.32h2.26v.83h-2.26v1.58h-.89v-2.73c0-.29.05-.52.14-.71Z"/>
        <path class="uuid-d413caab-61b0-42d9-9909-9933ac671115" d="M133.62,100.31h-1.67c-.29,0-.53-.05-.71-.14-.19-.09-.33-.23-.42-.42s-.14-.43-.14-.71v-2.73h.89v2.73c0,.11.01.2.04.26.03.07.07.11.14.14.07.03.15.04.26.04h1.61v.83Z"/>
      </g>
      <g>
        <g>
          <rect class="uuid-f7c553bf-d651-41ce-9987-2426d4eccc13" x="124.6" y="97.01" width=".88" height="5.83"/>
          <rect x="124.6" y="97.98" width=".88" height=".97"/>
          <rect x="124.6" y="99.93" width=".88" height=".97"/>
          <rect x="124.6" y="101.87" width=".88" height=".97"/>
          <rect class="uuid-f7c553bf-d651-41ce-9987-2426d4eccc13" x="123.72" y="97.01" width=".88" height="5.83"/>
          <rect x="123.72" y="97.01" width=".88" height=".97"/>
          <rect x="123.72" y="98.95" width=".88" height=".97"/>
          <rect x="123.72" y="100.9" width=".88" height=".97"/>
        </g>
        <g>
          <rect class="uuid-f7c553bf-d651-41ce-9987-2426d4eccc13" x="124.6" y="94.1" width=".88" height="2.91"/>
          <rect x="124.6" y="94.1" width=".88" height=".97"/>
          <rect x="124.6" y="96.04" width=".88" height=".97"/>
          <rect class="uuid-f7c553bf-d651-41ce-9987-2426d4eccc13" x="123.72" y="94.1" width=".88" height="2.91"/>
          <rect x="123.72" y="95.07" width=".88" height=".97"/>
        </g>
      </g>
    </g>
  </g>
  <g>
    <rect class="uuid-d413caab-61b0-42d9-9909-9933ac671115" x="80.85" y="86.08" width=".73" height="9.41" transform="translate(-2.89 2.67) rotate(-1.85)"/>
    <g>
      <path class="uuid-9834864e-47e2-4476-92b9-8dec331ee7f8" d="M85.82,94.36h-8.62l-.03.03v7.38h8.65v-7.41Z"/>
      <path class="uuid-5e31bb67-d026-4896-900f-670212423e16" d="M79.53,99.4h2.69c.14,0,.25-.03.33-.09.08-.06.12-.15.12-.27,0-.11-.03-.19-.1-.24-.07-.06-.17-.11-.31-.15l-1.69-.45c-.39-.09-.67-.25-.86-.47-.18-.22-.28-.52-.28-.88,0-.26.06-.5.19-.71.13-.21.31-.37.54-.49.23-.12.51-.18.83-.18h2.58v1.02h-2.58c-.14,0-.26.03-.33.09-.08.06-.12.15-.12.27s.03.2.1.25c.06.06.17.11.31.15l1.68.44c.39.09.68.25.86.48s.28.52.28.88c0,.27-.06.51-.19.71-.13.21-.31.37-.54.49-.23.12-.51.18-.83.18h-2.69v-1.02Z"/>
    </g>
  </g>
</svg>