<?xml version="1.0" encoding="UTF-8"?>
<svg id="uuid-184d6eaa-bb4e-413e-a9a8-aa949a7a03d6" data-name="Capa 1" xmlns="http://www.w3.org/2000/svg" viewBox="0 0 210 150">
  <defs>
    <style>
      .uuid-e058f702-196e-4d91-b906-16a429ae85d1 {
        fill: #323232;
      }

      .uuid-9b14075d-730c-4dc2-a579-98eb54314415 {
        fill: #444;
      }

      .uuid-0db80eb0-4602-415e-b837-24c0af1d2f71 {
        fill: #e6e6e6;
      }

      .uuid-9f6fd4e9-58d2-4964-b389-9fcf886bfa2d {
        fill: #f6f6f6;
      }

      .uuid-514fa32a-a433-4b69-98c3-4aa8622151f4 {
        fill: #606060;
      }

      .uuid-6f516376-2be8-4a5c-897c-9b5c5a61026f {
        fill: #a0a0a0;
      }

      .uuid-a5853f40-090b-4fa6-8021-7342f735825e {
        fill: #c6c6c6;
      }

      .uuid-6299cf61-f283-4dbc-8230-f61b44d4305b {
        fill: #fafafa;
      }

      .uuid-d771657e-4e14-4ef8-bb9f-f02162a98504 {
        fill: red;
      }

      .uuid-433a6b47-7d0a-4adb-91e8-a3d4915ab584 {
        fill: #ededed;
      }
    </style>
  </defs>
  <path class="uuid-514fa32a-a433-4b69-98c3-4aa8622151f4" d="M38.43,20.25l-.25-1.43c3.91-.69,6.18-3.54,6.66-4.81.68-1.79.12-3.21-1.93-4.9-1.82-1.5-5.42-3.48-8.2-4.5-3.61-1.33-5.98-2.09-9.19-1.11-3.45,1.06-6.47,3.78-8.41,5.87-2.12,2.3-3.43,4.38-3.44,4.4l-1.23-.77c.22-.35,5.49-8.69,12.66-10.89,3.58-1.1,6.21-.3,10.12,1.13,2.96,1.09,6.67,3.13,8.63,4.74,2.52,2.08,3.27,4.15,2.36,6.53-.68,1.8-3.4,4.95-7.76,5.72Z"/>
  <path class="uuid-6f516376-2be8-4a5c-897c-9b5c5a61026f" d="M191.99,139.27c-1.26,0-2.59-.16-4-.5-4.46-1.09-25.4-7.66-48.07-15.46-28.5-9.8-63.11-21.17-64.37-21.57-.42-.11-1.64-.52-2.25-1.82-.6-1.27-.4-2.93.59-4.94.16-.4,2.03-5.12,2.14-5.4.02-.06.05-.13.08-.2.34-.85.69-1.74-2.66-4.08-5.14-3.6-13.8-10.37-14.36-10.81-.37-.25-4.63-2.98-9.12-.67-3.48,1.79-7.59,3.97-10.04,5.27-1.8.95-2.04,1.08-2.14,1.12l-.07.03c-1.77.78-3.61,1.17-6.68-2.47-4.75-5.63-13.22-16.72-16.53-27.76-3.5-11.68-5.05-27.09-5.05-28.5,0-4.68,1.93-8.77,5.43-11.53,4.01-3.15,9.49-4.1,15.46-2.66,7.01,1.69,11.77,4.8,12.42,8.13.29,1.47-.29,2.85-1.59,3.79-1.01.73-2.25,1.11-3.34,1.45-.6.19-1.17.36-1.54.55-1.96,1.01-2.55,1.8-2.14,4.5,1.85,12.28,5.82,33.83,5.86,34.05v.07s.33,2.44,1.97,3.38c1.02.59,2.43.52,4.17-.22,6.46-2.73,15.57-10.39,17.41-14.64.88-2.03,2.69-11.42,3.31-14.87v-.03c.04-.15.82-3.68,3.53-4.76,1.67-.67,3.6-.26,5.73,1.2,1.24.85,2.37,1.59,3.36,2.25,5.86,3.87,8.29,5.47,9.46,12.26.53,3.05,1.45,8.28,2.27,12.89.9,5.11,1.68,9.53,1.77,10.12.69,4.65,4.14,6.78,6.91,7.75,7.53,2.64,15.65,5.14,16.09,5.27.32.08,7.79,1.93,12.34-3.36,3.19-3.71,6.29-7.46,7.61-9.07.39-.47.63-.77.7-.84,1.2-1.38,3.42-3.95,7.83-.23.98.83,3.45,2.77,6.86,5.46,5.26,4.15,12.45,9.83,20.44,16.3,2.44,1.98,5.66,4.47,8.19,6.42,1.24.95,2.5,1.92,3.77,2.9,4.43,3.4,9.02,6.92,12.32,9.6,8.98,7.28,12.69,12.49,9.46,22.4-1.06,3.26-5.75,9.23-13.53,9.23ZM53.75,70.81c3.64,0,6.38,1.87,6.54,1.98l.05.04c.09.07,9.05,7.1,14.3,10.77,4.33,3.03,4.05,4.89,3.4,6.54-.02.06-.05.12-.07.18-.02.05-2.13,5.41-2.2,5.55-.69,1.39-.89,2.51-.59,3.17.23.5.74.66.89.69.27.07,36.27,11.9,64.53,21.62,22.62,7.78,43.47,14.32,47.89,15.41,1.26.31,2.45.45,3.54.45,7.28,0,10.95-6.04,11.52-7.8,2.63-8.08.74-12.42-8.8-20.15-3.28-2.66-7.85-6.17-12.28-9.57-1.27-.97-2.54-1.95-3.77-2.9h0c-2.54-1.95-5.76-4.45-8.23-6.45-7.97-6.46-15.16-12.14-20.42-16.28-3.43-2.7-5.9-4.66-6.91-5.5-2.85-2.4-3.77-1.34-4.93,0-.06.07-.29.35-.66.8-1.33,1.61-4.43,5.37-7.64,9.1-5.49,6.38-14.11,4.1-14.47,4h-.03c-.08-.03-8.45-2.6-16.19-5.31-3.31-1.16-7.43-3.73-8.28-9.4-.09-.57-.9-5.18-1.76-10.07-.82-4.61-1.74-9.85-2.27-12.9-1.02-5.9-2.77-7.05-8.56-10.88-1-.66-2.14-1.41-3.39-2.27-1.53-1.05-2.81-1.38-3.79-.98-1.62.65-2.22,3.08-2.26,3.26-.14.76-2.31,12.67-3.44,15.3-2.03,4.71-11.55,12.79-18.51,15.73-2.38,1.01-4.41,1.04-6.03.1-2.42-1.41-2.91-4.48-2.96-4.89-.16-.9-4.04-21.98-5.86-34.09-.51-3.42.33-5.16,3.24-6.65.53-.27,1.18-.48,1.87-.69.94-.29,2-.62,2.74-1.15.65-.47.9-1.02.76-1.7-.3-1.52-2.92-4.6-10.87-6.51-5.33-1.28-10.19-.48-13.69,2.28-2.99,2.35-4.64,5.87-4.64,9.9,0,1.31,1.59,16.64,4.96,27.9,1.37,4.58,5.29,14.19,16.12,27.02,2.33,2.76,3.14,2.4,4.26,1.91l.06-.03c.14-.07,1.01-.53,2.01-1.06,2.46-1.3,6.56-3.48,10.06-5.28,1.65-.85,3.27-1.15,4.74-1.15Z"/>
  <g>
    <circle class="uuid-9b14075d-730c-4dc2-a579-98eb54314415" cx="139.52" cy="59.29" r="3.55"/>
    <path class="uuid-a5853f40-090b-4fa6-8021-7342f735825e" d="M138.41,60.37h.95v-2.1l-.85.19v-.6l1.48-.33v2.85h.87v.61h-2.45v-.61Z"/>
  </g>
  <g>
    <circle class="uuid-9b14075d-730c-4dc2-a579-98eb54314415" cx="121.45" cy="74.86" r="3.55"/>
    <path class="uuid-a5853f40-090b-4fa6-8021-7342f735825e" d="M120.77,75.39c.18-.18.4-.36.66-.55.21-.15.36-.28.45-.38.09-.1.14-.22.14-.36,0-.13-.04-.23-.13-.31s-.21-.12-.36-.12-.29.04-.42.13c-.12.08-.23.2-.32.36l-.52-.33c.13-.25.3-.43.52-.57.21-.13.46-.2.74-.2.22,0,.42.04.59.13.17.08.3.2.39.35.09.15.14.32.14.52s-.04.36-.11.5c-.07.14-.16.26-.27.35-.11.1-.25.21-.42.33-.19.13-.33.25-.45.35-.11.1-.2.22-.27.36h1.58v.59h-2.39v-.47c.12-.28.27-.5.45-.68Z"/>
  </g>
  <g>
    <circle class="uuid-9b14075d-730c-4dc2-a579-98eb54314415" cx="99.64" cy="68.47" r="3.55"/>
    <path class="uuid-a5853f40-090b-4fa6-8021-7342f735825e" d="M98.91,70.05c-.21-.12-.38-.3-.5-.53l.48-.28c.09.15.19.26.31.33.12.07.27.11.44.11.19,0,.34-.05.46-.14s.18-.22.18-.38-.06-.28-.17-.38c-.11-.1-.25-.15-.41-.15h-.41v-.52h.41c.15,0,.26-.04.35-.12s.13-.18.13-.32-.05-.23-.14-.31c-.1-.08-.23-.12-.4-.12-.3,0-.54.14-.71.42l-.48-.28c.28-.46.69-.69,1.24-.69.21,0,.41.04.57.12.17.08.3.2.39.34.09.14.14.31.14.49,0,.17-.04.32-.12.45-.08.13-.18.22-.3.28.16.08.29.2.38.35.1.15.14.31.14.48,0,.2-.05.37-.16.53-.1.16-.25.28-.44.37-.19.09-.41.14-.66.14-.28,0-.53-.06-.75-.19Z"/>
  </g>
  <g>
    <circle class="uuid-9b14075d-730c-4dc2-a579-98eb54314415" cx="92.71" cy="37.04" r="3.55"/>
    <path class="uuid-a5853f40-090b-4fa6-8021-7342f735825e" d="M91.45,37.5l.94-2.18h.65l-.92,2.1h.86v-.79h.63v.79h.5v.59h-.5v.71h-.63v-.71h-1.54v-.51Z"/>
  </g>
  <g>
    <circle class="uuid-9b14075d-730c-4dc2-a579-98eb54314415" cx="68.25" cy="23.4" r="3.55"/>
    <path class="uuid-a5853f40-090b-4fa6-8021-7342f735825e" d="M67.53,24.98c-.21-.12-.37-.3-.49-.53l.53-.33c.15.29.39.43.71.43.2,0,.35-.05.47-.16.12-.11.18-.25.18-.43s-.06-.33-.17-.44-.28-.17-.48-.17c-.24,0-.45.09-.62.27l-.42-.27.33-1.67h1.82v.6h-1.34l-.13.64c.13-.06.28-.08.44-.08.25,0,.46.05.64.15.18.1.32.23.41.41.1.17.15.37.15.59s-.05.42-.16.6c-.1.18-.25.32-.45.42-.2.1-.43.16-.69.16s-.51-.06-.72-.18Z"/>
  </g>
  <g>
    <circle class="uuid-9b14075d-730c-4dc2-a579-98eb54314415" cx="57.87" cy="44.96" r="3.55"/>
    <path class="uuid-a5853f40-090b-4fa6-8021-7342f735825e" d="M57.29,46.56c-.2-.11-.35-.26-.46-.45s-.17-.39-.17-.61c0-.27.09-.53.28-.78l1.12-1.47h.77l-.83,1.06h.04c.21,0,.41.05.59.16s.32.25.43.43c.11.18.16.39.16.62s-.05.42-.17.61c-.11.18-.26.33-.46.44-.2.11-.41.16-.65.16s-.46-.05-.65-.17ZM58.4,45.93c.12-.12.18-.27.18-.45s-.06-.33-.18-.45-.28-.18-.46-.18-.34.06-.47.19c-.13.12-.19.28-.19.46s.06.32.18.44c.12.12.28.18.47.18s.35-.06.47-.18Z"/>
  </g>
  <g>
    <circle class="uuid-9b14075d-730c-4dc2-a579-98eb54314415" cx="45.39" cy="57.13" r="3.55"/>
    <path class="uuid-a5853f40-090b-4fa6-8021-7342f735825e" d="M45.93,56.02h-1.74v-.6h2.44v.51l-1.39,2.89h-.67l1.37-2.8Z"/>
  </g>
  <g>
    <circle class="uuid-9b14075d-730c-4dc2-a579-98eb54314415" cx="39.89" cy="26.05" r="3.55"/>
    <path class="uuid-a5853f40-090b-4fa6-8021-7342f735825e" d="M39.33,27.67c-.18-.09-.33-.22-.43-.37-.1-.16-.15-.33-.15-.53,0-.17.04-.33.13-.48.09-.15.21-.26.37-.35-.1-.05-.2-.14-.28-.28-.08-.14-.12-.29-.12-.45,0-.18.05-.34.14-.48.09-.14.22-.25.39-.33.17-.08.36-.12.57-.12s.41.04.57.12c.17.08.3.19.39.33.09.14.14.3.14.48,0,.17-.04.32-.11.45-.08.13-.17.22-.28.28.15.08.27.2.36.35.09.15.14.31.14.48,0,.19-.05.37-.15.53-.1.16-.25.28-.43.37-.18.09-.39.14-.63.14s-.45-.04-.63-.14ZM40.38,27.12c.11-.1.16-.23.16-.39s-.06-.28-.17-.38c-.11-.1-.25-.15-.42-.15s-.31.05-.42.16c-.11.1-.17.23-.17.38,0,.16.05.29.16.39.11.1.25.15.42.15s.31-.05.42-.15ZM40.32,25.56c.09-.08.13-.18.13-.32s-.04-.23-.13-.31c-.09-.08-.21-.12-.36-.12s-.28.04-.36.12c-.09.08-.13.18-.13.31s.04.24.13.32.21.12.36.12.28-.04.36-.12Z"/>
  </g>
  <g>
    <circle class="uuid-9b14075d-730c-4dc2-a579-98eb54314415" cx="51.41" cy="14.1" r="3.55"/>
    <path class="uuid-a5853f40-090b-4fa6-8021-7342f735825e" d="M52.11,12.47c.2.11.35.26.46.45s.17.39.17.61c0,.27-.09.53-.28.78l-1.12,1.47h-.77l.83-1.06h-.04c-.21,0-.41-.05-.59-.16s-.32-.25-.43-.43c-.11-.18-.16-.39-.16-.62s.06-.42.17-.61c.11-.18.26-.33.46-.44.2-.11.41-.16.65-.16s.46.06.65.17ZM51,13.1c-.12.12-.18.27-.18.45s.06.33.18.45c.12.12.28.18.46.18s.34-.06.47-.19c.13-.12.19-.28.19-.46s-.06-.32-.18-.44-.28-.18-.47-.18-.35.06-.47.18Z"/>
  </g>
  <g>
    <circle class="uuid-9b14075d-730c-4dc2-a579-98eb54314415" cx="10.28" cy="6.3" r="3.55"/>
    <g>
      <path class="uuid-a5853f40-090b-4fa6-8021-7342f735825e" d="M7.76,7.38h.95v-2.1l-.85.19v-.6l1.48-.33v2.85h.87v.61h-2.45v-.61Z"/>
      <path class="uuid-a5853f40-090b-4fa6-8021-7342f735825e" d="M11.11,7.9c-.19-.11-.34-.25-.45-.44-.11-.19-.16-.41-.16-.65v-1.06c0-.24.05-.46.16-.65.11-.19.26-.34.45-.44.19-.11.4-.16.63-.16s.45.05.64.16.34.25.45.44c.11.19.16.4.16.65v1.06c0,.25-.05.46-.16.65-.11.19-.26.33-.45.44s-.4.16-.64.16-.44-.05-.63-.16ZM12.2,7.27c.11-.12.17-.28.17-.48v-1.01c0-.21-.06-.37-.17-.49s-.26-.18-.46-.18-.34.06-.46.18c-.11.12-.17.28-.17.49v1.01c0,.2.05.36.17.48.11.12.26.18.46.18s.34-.06.46-.18Z"/>
    </g>
  </g>
  <g>
    <circle class="uuid-9b14075d-730c-4dc2-a579-98eb54314415" cx="22.1" cy="42.21" r="3.55"/>
    <g>
      <path class="uuid-a5853f40-090b-4fa6-8021-7342f735825e" d="M19.58,43.29h.95v-2.1l-.85.19v-.6l1.48-.33v2.85h.87v.61h-2.45v-.61Z"/>
      <path class="uuid-a5853f40-090b-4fa6-8021-7342f735825e" d="M22.38,43.29h.95v-2.1l-.85.19v-.6l1.48-.33v2.85h.87v.61h-2.45v-.61Z"/>
    </g>
  </g>
  <g>
    <circle class="uuid-9b14075d-730c-4dc2-a579-98eb54314415" cx="34.35" cy="86.39" r="3.55"/>
    <g>
      <path class="uuid-a5853f40-090b-4fa6-8021-7342f735825e" d="M31.83,87.47h.95v-2.1l-.85.19v-.6l1.48-.33v2.85h.87v.61h-2.45v-.61Z"/>
      <path class="uuid-a5853f40-090b-4fa6-8021-7342f735825e" d="M35.07,86.92c.18-.18.4-.36.66-.55.21-.15.36-.28.45-.38.09-.1.14-.22.14-.36,0-.13-.04-.23-.13-.31s-.21-.12-.36-.12-.29.04-.42.13c-.12.08-.23.2-.32.36l-.52-.33c.13-.25.3-.43.52-.57.21-.13.46-.2.74-.2.22,0,.42.04.59.13.17.08.3.2.39.35.09.15.14.32.14.52s-.04.36-.11.5c-.07.14-.16.26-.27.35-.11.1-.25.21-.42.33-.19.13-.33.25-.45.35-.11.1-.2.22-.27.36h1.58v.59h-2.39v-.47c.12-.28.27-.5.45-.68Z"/>
    </g>
  </g>
  <g>
    <circle class="uuid-9b14075d-730c-4dc2-a579-98eb54314415" cx="53.42" cy="78.64" r="3.55"/>
    <g>
      <path class="uuid-a5853f40-090b-4fa6-8021-7342f735825e" d="M50.91,79.72h.95v-2.1l-.85.19v-.6l1.48-.33v2.85h.87v.61h-2.45v-.61Z"/>
      <path class="uuid-a5853f40-090b-4fa6-8021-7342f735825e" d="M54.09,80.21c-.21-.12-.38-.3-.5-.53l.48-.28c.09.15.19.26.31.33.12.07.27.11.44.11.19,0,.34-.05.46-.14s.18-.22.18-.38-.06-.28-.17-.38c-.11-.1-.25-.15-.41-.15h-.41v-.52h.41c.15,0,.26-.04.35-.12s.13-.18.13-.32-.05-.23-.14-.31c-.1-.08-.23-.12-.4-.12-.3,0-.54.14-.71.42l-.48-.28c.28-.46.69-.69,1.24-.69.21,0,.41.04.57.12.17.08.3.2.39.34.09.14.14.31.14.49,0,.17-.04.32-.12.45-.08.13-.18.22-.3.28.16.08.29.2.38.35.1.15.14.31.14.48,0,.2-.05.37-.16.53-.1.16-.25.28-.44.37-.19.09-.41.14-.66.14-.28,0-.53-.06-.75-.19Z"/>
    </g>
  </g>
  <g>
    <circle class="uuid-9b14075d-730c-4dc2-a579-98eb54314415" cx="69.77" cy="89.69" r="3.55"/>
    <g>
      <path class="uuid-a5853f40-090b-4fa6-8021-7342f735825e" d="M67.25,90.77h.95v-2.1l-.85.19v-.6l1.48-.33v2.85h.87v.61h-2.45v-.61Z"/>
      <path class="uuid-a5853f40-090b-4fa6-8021-7342f735825e" d="M69.91,90.16l.94-2.18h.65l-.92,2.1h.86v-.79h.63v.79h.5v.59h-.5v.71h-.63v-.71h-1.54v-.51Z"/>
    </g>
  </g>
  <g>
    <circle class="uuid-9b14075d-730c-4dc2-a579-98eb54314415" cx="82.06" cy="95.43" r="3.55"/>
    <g>
      <path class="uuid-a5853f40-090b-4fa6-8021-7342f735825e" d="M79.54,96.51h.95v-2.1l-.85.19v-.6l1.48-.33v2.85h.87v.61h-2.45v-.61Z"/>
      <path class="uuid-a5853f40-090b-4fa6-8021-7342f735825e" d="M82.74,97.01c-.21-.12-.37-.3-.49-.53l.53-.33c.15.29.39.43.71.43.2,0,.35-.05.47-.16.12-.11.18-.25.18-.43s-.06-.33-.17-.44-.28-.17-.48-.17c-.24,0-.45.09-.62.27l-.42-.27.33-1.67h1.82v.6h-1.34l-.13.64c.13-.06.28-.08.44-.08.25,0,.46.05.64.15.18.1.32.23.41.41.1.17.15.37.15.59s-.05.42-.16.6c-.1.18-.25.32-.45.42-.2.1-.43.16-.69.16s-.51-.06-.72-.18Z"/>
    </g>
  </g>
  <g>
    <circle class="uuid-9b14075d-730c-4dc2-a579-98eb54314415" cx="195.03" cy="144.83" r="3.55"/>
    <g>
      <path class="uuid-a5853f40-090b-4fa6-8021-7342f735825e" d="M192.51,145.91h.95v-2.1l-.85.19v-.6l1.48-.33v2.85h.87v.61h-2.45v-.61Z"/>
      <path class="uuid-a5853f40-090b-4fa6-8021-7342f735825e" d="M195.84,146.43c-.2-.11-.35-.26-.46-.45s-.17-.39-.17-.61c0-.27.09-.53.28-.78l1.12-1.47h.77l-.83,1.06h.04c.21,0,.41.05.59.16s.32.25.43.43c.11.18.16.39.16.62s-.05.42-.17.61c-.11.18-.26.33-.46.44-.2.11-.41.16-.65.16s-.46-.05-.65-.17ZM196.96,145.81c.12-.12.18-.27.18-.45s-.06-.33-.18-.45-.28-.18-.46-.18-.34.06-.47.19c-.13.12-.19.28-.19.46s.06.32.18.44c.12.12.28.18.47.18s.35-.06.47-.18Z"/>
    </g>
  </g>
  <g>
    <circle class="uuid-9b14075d-730c-4dc2-a579-98eb54314415" cx="205.45" cy="108.43" r="3.55"/>
    <g>
      <path class="uuid-a5853f40-090b-4fa6-8021-7342f735825e" d="M202.93,109.51h.95v-2.1l-.85.19v-.6l1.48-.33v2.85h.87v.61h-2.45v-.61Z"/>
      <path class="uuid-a5853f40-090b-4fa6-8021-7342f735825e" d="M207.39,107.32h-1.74v-.6h2.44v.51l-1.39,2.89h-.67l1.37-2.8Z"/>
    </g>
  </g>
  <g>
    <g>
      <line class="uuid-433a6b47-7d0a-4adb-91e8-a3d4915ab584" x1="182.59" y1="91.99" x2="177.14" y2="98.85"/>
      <rect class="uuid-0db80eb0-4602-415e-b837-24c0af1d2f71" x="175.49" y="95.06" width="8.76" height=".73" transform="translate(-6.74 176.86) rotate(-51.52)"/>
    </g>
    <g>
      <path class="uuid-d771657e-4e14-4ef8-bb9f-f02162a98504" d="M192.51,84.88h-10.98l-.03.03v8.7h11.02v-8.74Z"/>
      <g>
        <path class="uuid-433a6b47-7d0a-4adb-91e8-a3d4915ab584" d="M184.74,87.65c.09-.19.23-.33.42-.42.19-.09.42-.14.71-.14h1.98v.83h-1.92c-.11,0-.2.01-.26.04-.06.03-.11.08-.14.14-.03.06-.04.15-.04.26v.32h2.26v.83h-2.26v1.58h-.89v-2.73c0-.29.05-.52.14-.71Z"/>
        <path class="uuid-433a6b47-7d0a-4adb-91e8-a3d4915ab584" d="M191.4,91.09h-1.67c-.29,0-.53-.05-.71-.14-.19-.09-.33-.23-.42-.42s-.14-.43-.14-.71v-2.73h.89v2.73c0,.11.01.2.04.26.03.07.07.11.14.14.07.03.15.04.26.04h1.61v.83Z"/>
      </g>
      <g>
        <g>
          <rect class="uuid-6299cf61-f283-4dbc-8230-f61b44d4305b" x="182.37" y="87.79" width=".88" height="5.83"/>
          <rect x="182.37" y="88.76" width=".88" height=".97"/>
          <rect x="182.37" y="90.7" width=".88" height=".97"/>
          <rect x="182.37" y="92.65" width=".88" height=".97"/>
          <rect class="uuid-6299cf61-f283-4dbc-8230-f61b44d4305b" x="181.49" y="87.79" width=".88" height="5.83"/>
          <rect x="181.49" y="87.79" width=".88" height=".97"/>
          <rect x="181.49" y="89.73" width=".88" height=".97"/>
          <rect x="181.49" y="91.68" width=".88" height=".97"/>
        </g>
        <g>
          <rect class="uuid-6299cf61-f283-4dbc-8230-f61b44d4305b" x="182.37" y="84.88" width=".88" height="2.91"/>
          <rect x="182.37" y="84.88" width=".88" height=".97"/>
          <rect x="182.37" y="86.82" width=".88" height=".97"/>
          <rect class="uuid-6299cf61-f283-4dbc-8230-f61b44d4305b" x="181.49" y="84.88" width=".88" height="2.91"/>
          <rect x="181.49" y="85.85" width=".88" height=".97"/>
        </g>
      </g>
    </g>
  </g>
  <g>
    <rect class="uuid-0db80eb0-4602-415e-b837-24c0af1d2f71" x="67.56" y="41.31" width=".73" height="11.53" transform="translate(5.98 101.78) rotate(-76.17)"/>
    <path class="uuid-d771657e-4e14-4ef8-bb9f-f02162a98504" d="M81.54,44.79h-10.14l-.03.03v8.76h10.17v-8.79Z"/>
    <g>
      <path class="uuid-433a6b47-7d0a-4adb-91e8-a3d4915ab584" d="M73.07,50.31h1.17v-2.35h-1.17v-.83h3.24v.83h-1.18v2.35h1.18v.83h-3.24v-.83Z"/>
      <path class="uuid-433a6b47-7d0a-4adb-91e8-a3d4915ab584" d="M76.92,50.31h1.49v-2.1c0-.07-.02-.13-.05-.17-.03-.04-.08-.06-.16-.06-.04,0-.08,0-.13.02-.05.01-.11.04-.17.06l-.89.29v-.83l.81-.29c.12-.04.23-.08.34-.1s.22-.04.32-.04c.17,0,.31.04.43.11.12.07.22.18.28.32s.09.29.09.47v2.33h1.32v.83h-3.7v-.83Z"/>
    </g>
  </g>
  <g>
    <rect class="uuid-0db80eb0-4602-415e-b837-24c0af1d2f71" x="69.53" y="104.28" width="12.82" height=".73" transform="translate(-47.26 143.85) rotate(-71.69)"/>
    <g>
      <path class="uuid-d771657e-4e14-4ef8-bb9f-f02162a98504" d="M79.54,104.86h-10.94l-.03.03v8.96h10.97v-9Z"/>
      <g>
        <path class="uuid-433a6b47-7d0a-4adb-91e8-a3d4915ab584" d="M70.26,110.39h1.17v-2.35h-1.17v-.83h3.24v.83h-1.18v2.35h1.18v.83h-3.24v-.83Z"/>
        <path class="uuid-433a6b47-7d0a-4adb-91e8-a3d4915ab584" d="M74.69,111.06c-.21-.1-.38-.25-.49-.43-.11-.19-.17-.41-.17-.67v-.51h.9v.43c0,.16.05.28.14.37.09.09.22.13.38.13h1.03c.15,0,.26-.03.34-.1.08-.06.12-.16.12-.29,0-.12-.04-.21-.12-.28-.08-.06-.19-.09-.34-.09h-1.11v-.83h1.07c.14,0,.26-.03.34-.1.08-.06.12-.16.12-.29,0-.12-.04-.21-.12-.28-.08-.06-.19-.09-.34-.09h-1c-.16,0-.29.04-.38.13-.09.09-.14.21-.14.37v.26h-.89v-.34c0-.26.06-.48.17-.67s.27-.33.49-.43c.21-.1.47-.15.77-.15h1.01c.27,0,.5.04.7.13s.35.21.46.38c.11.17.16.36.16.59,0,.2-.04.38-.14.53-.09.15-.23.27-.42.37.21.1.37.22.46.37.09.14.14.32.14.54s-.05.42-.16.59c-.11.17-.27.29-.47.38-.2.09-.44.13-.71.13h-1.03c-.3,0-.56-.05-.77-.15Z"/>
      </g>
    </g>
  </g>
  <g>
    <rect class="uuid-0db80eb0-4602-415e-b837-24c0af1d2f71" x="5.07" y="44.46" width="12.21" height=".73" transform="translate(-8.97 3.25) rotate(-11.85)"/>
    <path class="uuid-d771657e-4e14-4ef8-bb9f-f02162a98504" d="M11.17,42.11H1.03l-.03.03v7.93h10.17v-7.96Z"/>
    <g>
      <path class="uuid-433a6b47-7d0a-4adb-91e8-a3d4915ab584" d="M2.3,47.16h1.17v-2.35h-1.17v-.83h3.24v.83h-1.18v2.35h1.18v.83h-3.24v-.83Z"/>
      <path class="uuid-433a6b47-7d0a-4adb-91e8-a3d4915ab584" d="M6.65,47.86c-.18-.09-.32-.21-.42-.36-.09-.16-.14-.34-.14-.55,0-.3.09-.54.27-.73.18-.19.48-.33.9-.41l1.27-.27c.12-.02.21-.05.28-.08.07-.03.11-.07.14-.12.03-.04.05-.11.05-.18,0-.11-.04-.2-.13-.25s-.22-.08-.41-.08h-.92c-.17,0-.3.04-.39.13-.09.09-.13.21-.13.37v.15h-.89v-.24c0-.26.06-.48.17-.67.11-.18.27-.33.49-.43.21-.1.47-.15.78-.15h.88c.47,0,.83.1,1.08.3s.37.49.37.86c0,.22-.04.41-.11.56-.07.15-.18.27-.33.37-.15.09-.34.16-.58.21l-1.5.3c-.13.03-.23.07-.29.12-.07.05-.1.12-.1.2s.03.15.09.2c.06.04.15.07.27.07h2.53v.83h-2.57c-.25,0-.47-.04-.65-.13Z"/>
    </g>
  </g>
  <g>
    <rect class="uuid-433a6b47-7d0a-4adb-91e8-a3d4915ab584" x="142.34" y="125.89" width="9.41" height=".73" transform="translate(-24.1 217.19) rotate(-68.63)"/>
    <g>
      <path class="uuid-9f6fd4e9-58d2-4964-b389-9fcf886bfa2d" d="M149.82,127.5h-8.62l-.03.03v7.38h8.65v-7.41Z"/>
      <path class="uuid-e058f702-196e-4d91-b906-16a429ae85d1" d="M143.52,132.54h2.69c.14,0,.25-.03.33-.09.08-.06.12-.15.12-.27,0-.11-.03-.19-.1-.24-.07-.06-.17-.11-.31-.15l-1.69-.45c-.39-.09-.67-.25-.86-.47-.18-.22-.28-.52-.28-.88,0-.26.06-.5.19-.71.13-.21.31-.37.54-.49.23-.12.51-.18.83-.18h2.58v1.02h-2.58c-.14,0-.26.03-.33.09-.08.06-.12.15-.12.27s.03.2.1.25c.06.06.17.11.31.15l1.68.44c.39.09.68.25.86.48s.28.52.28.88c0,.27-.06.51-.19.71-.13.21-.31.37-.54.49-.23.12-.51.18-.83.18h-2.69v-1.02Z"/>
    </g>
  </g>
</svg>