<?xml version="1.0" encoding="UTF-8"?>
<svg id="uuid-7700d484-5636-4b5c-8c1e-c34aae9d8c72" data-name="Capa 1" xmlns="http://www.w3.org/2000/svg" viewBox="0 0 210 188">
  <defs>
    <style>
      .uuid-a6e82a00-b414-4ca9-925d-ab96bca1c7e9 {
        fill: #323232;
      }

      .uuid-99fb5406-5ed7-4747-90a4-772311e5c1bc {
        fill: #444;
      }

      .uuid-a4a20d1e-c991-47ce-93e0-8d96a4493fa2 {
        fill: #e6e6e6;
      }

      .uuid-efc4c69b-675b-4054-b807-fbf0f4c0d101 {
        fill: #f6f6f6;
      }

      .uuid-238bbd32-85da-473e-8bf1-17a6caef0a2c {
        fill: #606060;
      }

      .uuid-be4f0aac-6a3d-4a97-abd4-ddab5f0456db {
        fill: #a0a0a0;
      }

      .uuid-b549a9c7-1725-4b44-a6af-89aa41daa59c {
        fill: #c6c6c6;
      }

      .uuid-67f20798-9566-4231-9194-433bbef9f6ac {
        fill: #fafafa;
      }

      .uuid-68015ee1-d4d2-4814-8519-35bc217c012d {
        fill: red;
      }

      .uuid-bfc1a934-1479-4c3b-baba-2802c4c4be91 {
        fill: #ededed;
      }
    </style>
  </defs>
  <path class="uuid-238bbd32-85da-473e-8bf1-17a6caef0a2c" d="M194.98,58.48c-4.19,0-8.64-1.89-10.57-4.59-2.08-2.93-2.45-7.26-1.59-9.59.71-1.94,3.62-6.68,4.71-8.47l.24-.4,1.22.74-.25.4c-.97,1.58-3.92,6.41-4.59,8.21-.64,1.74-.51,5.58,1.41,8.27,1.86,2.61,6.5,4.34,10.57,3.93,4.66-.47,5.91-4.96,5.96-5.15.33-1.23.1-5.18-.02-6.6-.05-.48-1.26-12.07-1.42-14.91l1.43-.08c.16,2.8,1.4,14.74,1.42,14.86.05.56.43,5.41-.02,7.1-.56,2.09-2.7,5.76-7.2,6.21-.43.04-.87.06-1.31.06Z"/>
  <path class="uuid-be4f0aac-6a3d-4a97-abd4-ddab5f0456db" d="M23.98,179.62c-2.98,0-5.52-1.81-6.95-2.83-.26-.18-.48-.34-.66-.46-1.23-.79-4.01-3.24-5.79-6.81-2.24-4.49-2.01-9.13.64-13.4,5.79-9.32,13.08-18.15,15.18-20.63l.06-.08c.52-.62.96-1.17,1.35-1.66,1.75-2.17,2.63-3.26,5.26-4.17,2.88-.99,11.78-4.46,19.64-7.53,5.94-2.32,11.56-4.51,13.85-5.35,1.05-.38,2.15-.58,3.17-.73.93-.14,2.56-.25,4.45-.38,3.43-.24,8.61-.6,10.01-1.25,1.82-.85,3.65-1.68,5.42-2.48,4.88-2.22,9.49-4.31,10.65-5.38,3.44-3.16,5.8-6.36,7.17-21.46,1.33-14.64,1.96-21.17,3.04-22.67.98-1.36,2.54-1.45,3.91-1.53,1.6-.09,2.62-.21,3.29-1.36.45-.78.84-1.46,1.18-2.06,2.21-3.88,2.68-4.69,6.7-8.2,1.11-.97,4.56-3.51,10.52-7.76l.59.83-.59-.83c14.87-10.6,40.95-28.61,41.54-29.01.32-.21.64-.44.97-.67,2.52-1.77,5.66-3.98,9.2-.91,2.96,2.57,9.16,8.52,12.37,11.66,1.13,1.1,1.77,2.01,1.95,3.62.14,1.29.26,3.07.32,4.87.05,1.37.14,3.02.23,4.75.15,2.76.31,5.62.31,7.79,0,4.08-1.54,7.16-4.47,8.93-3.09,1.87-8.76,1.37-12.28-2.35-3.64-3.85-3.89-8.15-.7-12.12,3.67-4.56,4.02-6.92,3.91-7.92-.06-.55-.29-.97-.68-1.28-.45-.35-.96-.66-1.67-.54-.92.16-2.5,1.08-4.76,4.6-2.02,3.15-3.64,7.02-5.21,10.76-1.62,3.87-3.15,7.52-4.89,9.63-.37.45-1.41,1.85-2.86,3.78-3.64,4.87-10.41,13.95-17.12,22.15-5.52,6.74-9.88,11.84-13.39,15.93-2.41,2.81-4.49,5.24-6.34,7.49-.64.78-1.41,1.41-2.3,1.88-.66.35-3.57,1.84-6.93,3.58-5.08,2.61-11.4,5.87-12.02,6.22-6.29,3.53-6.85,8.47-7.88,17.44-.21,1.84-.45,3.92-.76,6.14-.12.84-.22,1.73-.32,2.66-.53,4.81-1.13,10.27-4.96,12.99-2.43,1.73-5.75,2.09-10.15,1.09-6.9-1.56-9.8-1.42-15.07-1.16-2.35.12-5.27.26-9.2.28-4.47.03-9.82-.5-14.12-.93-3.61-.36-7.02-.69-8.14-.5-3.85.66-4.84,3.42-5.91,7.56-.32,1.25-.64,2.69-.97,4.22-1.29,5.92-2.75,12.63-6.13,14.54-1.26.71-2.49.99-3.65.99ZM184.09,11.37c-1.3,0-2.63.86-4.33,2.06-.33.23-.67.47-1.01.7-.59.39-26.53,18.31-41.49,28.97-5.83,4.15-9.31,6.72-10.36,7.64-3.76,3.28-4.1,3.87-6.27,7.67-.35.61-.74,1.29-1.19,2.07-1.25,2.16-3.38,2.29-4.94,2.38-1.21.07-1.98.14-2.37.69-.8,1.16-1.71,11.12-2.66,21.66-1.44,15.84-4.03,19.3-7.82,22.78-1.34,1.23-5.12,2.98-11.19,5.73-1.76.8-3.59,1.63-5.4,2.47-1.61.75-5.64,1.09-10.74,1.44-1.85.13-3.44.24-4.29.37-1.06.16-1.94.32-2.77.63-2.27.83-7.87,3.02-13.8,5.33-7.88,3.08-16.8,6.56-19.72,7.56-2.08.71-2.64,1.42-4.33,3.51-.4.49-.85,1.05-1.38,1.69l-.07.08c-2.07,2.46-9.29,11.19-15,20.39-2.29,3.69-2.48,7.53-.55,11.41,1.63,3.28,4.28,5.49,5.07,6.01.22.14.46.31.73.51,1.9,1.35,5.07,3.61,8.42,1.72,2.59-1.46,4-7.97,5.14-13.2.34-1.55.65-3.01.99-4.3,1.77-6.84,4.02-8.46,7.54-9.07,1.39-.24,4.45.06,8.68.48,4.25.42,9.55.94,13.91.92,3.89-.02,6.78-.16,9.11-.28,5.45-.27,8.45-.42,15.62,1.21,3.8.86,6.59.61,8.51-.76,3.08-2.19,3.63-7.17,4.12-11.55.11-.95.2-1.85.33-2.72.31-2.19.53-4.17.75-6.08,1.03-9.01,1.71-14.96,8.91-19,.65-.37,6.73-3.49,12.09-6.25,3.36-1.73,6.27-3.23,6.92-3.57.65-.34,1.21-.8,1.67-1.36,1.86-2.27,3.95-4.71,6.37-7.53,3.5-4.08,7.86-9.17,13.36-15.89,6.68-8.17,13.44-17.21,17.07-22.07,1.52-2.03,2.52-3.38,2.92-3.86,1.55-1.87,3.02-5.39,4.58-9.12,1.53-3.65,3.26-7.78,5.37-11.07,2.17-3.38,4.17-5.18,6.14-5.52,1.7-.29,2.88.64,3.27.95.82.65,1.33,1.56,1.45,2.65.27,2.34-1.19,5.51-4.34,9.43-2.54,3.16-2.34,6.33.59,9.43,2.94,3.11,7.66,3.26,9.74,2,2.31-1.4,3.48-3.81,3.48-7.18,0-2.12-.16-4.94-.31-7.68-.1-1.75-.19-3.4-.23-4.8-.06-1.75-.17-3.47-.31-4.71-.11-1.02-.45-1.51-1.35-2.39-3.2-3.13-9.36-9.04-12.28-11.58-.82-.72-1.59-1.02-2.36-1.02Z"/>
  <g>
    <circle class="uuid-99fb5406-5ed7-4747-90a4-772311e5c1bc" cx="184.51" cy="3.69" r="3.5"/>
    <path class="uuid-b549a9c7-1725-4b44-a6af-89aa41daa59c" d="M183.41,4.76h.93v-2.08l-.84.19v-.6l1.46-.33v2.81h.86v.6h-2.41v-.6Z"/>
  </g>
  <g>
    <circle class="uuid-99fb5406-5ed7-4747-90a4-772311e5c1bc" cx="206.5" cy="21.51" r="3.5"/>
    <path class="uuid-b549a9c7-1725-4b44-a6af-89aa41daa59c" d="M207.06,20.75c0-.24-.18-.42-.49-.42s-.55.18-.73.48l-.51-.32c.25-.48.68-.75,1.23-.75.67,0,1.1.4,1.1.98,0,1.02-1.1,1.11-1.49,1.86h1.56v.59h-2.36v-.47c.52-1.17,1.68-1.31,1.68-1.95Z"/>
  </g>
  <g>
    <circle class="uuid-99fb5406-5ed7-4747-90a4-772311e5c1bc" cx="202.23" cy="61.2" r="3.5"/>
    <path class="uuid-b549a9c7-1725-4b44-a6af-89aa41daa59c" d="M201.01,62.23l.47-.28c.17.29.39.44.75.44s.64-.2.64-.52c0-.3-.24-.52-.57-.52h-.4v-.51h.4c.3,0,.47-.17.47-.43s-.2-.43-.53-.43c-.3,0-.53.13-.7.42l-.47-.28c.26-.44.67-.68,1.22-.68.64,0,1.09.4,1.09.94,0,.35-.19.61-.42.72.31.16.52.48.52.82,0,.58-.48,1.02-1.24,1.02-.57,0-.99-.26-1.23-.71Z"/>
  </g>
  <g>
    <circle class="uuid-99fb5406-5ed7-4747-90a4-772311e5c1bc" cx="178.69" cy="50.02" r="3.5"/>
    <path class="uuid-b549a9c7-1725-4b44-a6af-89aa41daa59c" d="M177.45,50.48l.93-2.15h.64l-.9,2.08h.85v-.78h.62v.78h.49v.58h-.49v.7h-.62v-.7h-1.52v-.5Z"/>
  </g>
  <g>
    <circle class="uuid-99fb5406-5ed7-4747-90a4-772311e5c1bc" cx="188.77" cy="21.51" r="3.5"/>
    <path class="uuid-b549a9c7-1725-4b44-a6af-89aa41daa59c" d="M187.58,22.54l.52-.32c.15.28.37.43.7.43.38,0,.64-.23.64-.59s-.23-.6-.65-.6c-.25,0-.45.1-.61.27l-.41-.26.33-1.65h1.79v.59h-1.32l-.12.63c.13-.06.27-.08.43-.08.74,0,1.18.48,1.18,1.13s-.47,1.16-1.28,1.16c-.53,0-.96-.25-1.19-.7Z"/>
  </g>
  <g>
    <circle class="uuid-99fb5406-5ed7-4747-90a4-772311e5c1bc" cx="110.78" cy="122.52" r="3.5"/>
    <path class="uuid-b549a9c7-1725-4b44-a6af-89aa41daa59c" d="M111.31,121.42h-1.71v-.6h2.4v.5l-1.38,2.85h-.66l1.35-2.76Z"/>
  </g>
  <g>
    <circle class="uuid-99fb5406-5ed7-4747-90a4-772311e5c1bc" cx="101.9" cy="157.1" r="3.5"/>
    <path class="uuid-b549a9c7-1725-4b44-a6af-89aa41daa59c" d="M100.77,157.81c0-.34.19-.64.49-.82-.2-.09-.39-.38-.39-.72,0-.54.45-.92,1.09-.92s1.09.38,1.09.92c0,.35-.18.61-.39.72.29.16.49.48.49.82,0,.58-.48,1.02-1.19,1.02s-1.19-.45-1.19-1.02ZM102.54,157.77c0-.3-.24-.53-.58-.53s-.58.23-.58.53c0,.32.24.53.58.53s.58-.21.58-.53ZM102.45,156.31c0-.25-.18-.42-.49-.42s-.49.17-.49.42.18.43.49.43.49-.17.49-.43Z"/>
  </g>
  <g>
    <circle class="uuid-99fb5406-5ed7-4747-90a4-772311e5c1bc" cx="41.27" cy="158.1" r="3.5"/>
    <path class="uuid-b549a9c7-1725-4b44-a6af-89aa41daa59c" d="M42.58,157.54c0,.27-.1.53-.28.77l-1.1,1.45h-.76l.82-1.05h-.04c-.62,0-1.16-.49-1.16-1.19,0-.66.53-1.19,1.26-1.19s1.27.54,1.27,1.21ZM40.68,157.56c0,.35.26.63.63.63s.65-.28.65-.63-.26-.62-.64-.62-.64.28-.64.62Z"/>
  </g>
  <g>
    <circle class="uuid-99fb5406-5ed7-4747-90a4-772311e5c1bc" cx="28.82" cy="184.31" r="3.5"/>
    <g>
      <path class="uuid-b549a9c7-1725-4b44-a6af-89aa41daa59c" d="M26.34,185.37h.93v-2.08l-.84.19v-.6l1.46-.33v2.81h.86v.6h-2.41v-.6Z"/>
      <path class="uuid-b549a9c7-1725-4b44-a6af-89aa41daa59c" d="M29.04,184.81v-1.04c0-.74.54-1.23,1.23-1.23s1.23.49,1.23,1.23v1.04c0,.74-.54,1.23-1.23,1.23s-1.23-.49-1.23-1.23ZM30.88,184.79v-1c0-.4-.23-.66-.61-.66s-.61.25-.61.66v1c0,.4.23.65.61.65s.61-.25.61-.65Z"/>
    </g>
  </g>
  <g>
    <circle class="uuid-99fb5406-5ed7-4747-90a4-772311e5c1bc" cx="3.5" cy="163.73" r="3.5"/>
    <g>
      <path class="uuid-b549a9c7-1725-4b44-a6af-89aa41daa59c" d="M1.02,164.8h.93v-2.08l-.84.19v-.6l1.46-.33v2.81h.86v.6H1.02v-.6Z"/>
      <path class="uuid-b549a9c7-1725-4b44-a6af-89aa41daa59c" d="M3.79,164.8h.93v-2.08l-.84.19v-.6l1.46-.33v2.81h.86v.6h-2.41v-.6Z"/>
    </g>
  </g>
  <g>
    <circle class="uuid-99fb5406-5ed7-4747-90a4-772311e5c1bc" cx="28.87" cy="125.13" r="3.5"/>
    <g>
      <path class="uuid-b549a9c7-1725-4b44-a6af-89aa41daa59c" d="M26.39,126.2h.93v-2.08l-.84.19v-.6l1.46-.33v2.81h.86v.6h-2.41v-.6Z"/>
      <path class="uuid-b549a9c7-1725-4b44-a6af-89aa41daa59c" d="M30.81,124.38c0-.24-.18-.42-.49-.42s-.55.18-.73.48l-.51-.32c.25-.48.68-.75,1.23-.75.67,0,1.1.41,1.1.98,0,1.02-1.1,1.11-1.49,1.86h1.56v.59h-2.36v-.47c.52-1.17,1.68-1.31,1.68-1.95Z"/>
    </g>
  </g>
  <g>
    <circle class="uuid-99fb5406-5ed7-4747-90a4-772311e5c1bc" cx="67.03" cy="110.81" r="3.5"/>
    <g>
      <path class="uuid-b549a9c7-1725-4b44-a6af-89aa41daa59c" d="M64.54,111.88h.93v-2.08l-.84.19v-.6l1.46-.33v2.81h.86v.6h-2.41v-.6Z"/>
      <path class="uuid-b549a9c7-1725-4b44-a6af-89aa41daa59c" d="M67.19,111.84l.47-.28c.17.29.39.44.75.44s.64-.2.64-.52c0-.3-.24-.52-.57-.52h-.4v-.51h.4c.3,0,.47-.17.47-.43s-.2-.42-.53-.42c-.3,0-.53.13-.7.42l-.47-.28c.26-.44.67-.69,1.22-.69.64,0,1.09.4,1.09.94,0,.35-.19.61-.42.72.31.16.52.48.52.82,0,.58-.48,1.02-1.24,1.02-.57,0-.99-.26-1.23-.71Z"/>
    </g>
  </g>
  <g>
    <circle class="uuid-99fb5406-5ed7-4747-90a4-772311e5c1bc" cx="82.09" cy="109.07" r="3.5"/>
    <g>
      <path class="uuid-b549a9c7-1725-4b44-a6af-89aa41daa59c" d="M79.61,110.14h.93v-2.08l-.84.19v-.6l1.46-.33v2.81h.86v.6h-2.41v-.6Z"/>
      <path class="uuid-b549a9c7-1725-4b44-a6af-89aa41daa59c" d="M82.23,109.53l.93-2.15h.64l-.9,2.08h.85v-.78h.62v.78h.49v.58h-.49v.7h-.62v-.7h-1.52v-.5Z"/>
    </g>
  </g>
  <g>
    <circle class="uuid-99fb5406-5ed7-4747-90a4-772311e5c1bc" cx="98.12" cy="100.58" r="3.5"/>
    <g>
      <path class="uuid-b549a9c7-1725-4b44-a6af-89aa41daa59c" d="M95.64,101.64h.93v-2.08l-.84.19v-.6l1.46-.33v2.81h.86v.6h-2.41v-.6Z"/>
      <path class="uuid-b549a9c7-1725-4b44-a6af-89aa41daa59c" d="M98.31,101.61l.52-.32c.15.28.37.42.7.42.38,0,.64-.23.64-.59s-.23-.6-.65-.6c-.25,0-.45.1-.61.27l-.41-.26.33-1.65h1.79v.59h-1.32l-.12.63c.13-.06.27-.08.43-.08.74,0,1.18.48,1.18,1.12s-.47,1.16-1.28,1.16c-.53,0-.96-.25-1.19-.7Z"/>
    </g>
  </g>
  <g>
    <circle class="uuid-99fb5406-5ed7-4747-90a4-772311e5c1bc" cx="106.01" cy="58.79" r="3.5"/>
    <g>
      <path class="uuid-b549a9c7-1725-4b44-a6af-89aa41daa59c" d="M103.53,59.86h.93v-2.08l-.84.19v-.6l1.46-.33v2.81h.86v.6h-2.41v-.6Z"/>
      <path class="uuid-b549a9c7-1725-4b44-a6af-89aa41daa59c" d="M106.2,59.32c0-.27.1-.53.28-.77l1.11-1.45h.76l-.82,1.05h.04c.62,0,1.16.49,1.16,1.19,0,.66-.53,1.19-1.25,1.19s-1.27-.54-1.27-1.21ZM108.1,59.31c0-.35-.26-.63-.63-.63s-.65.28-.65.63.26.62.64.62.64-.27.64-.62Z"/>
    </g>
  </g>
  <g>
    <circle class="uuid-99fb5406-5ed7-4747-90a4-772311e5c1bc" cx="122.5" cy="65.8" r="3.5"/>
    <g>
      <path class="uuid-b549a9c7-1725-4b44-a6af-89aa41daa59c" d="M120.01,66.86h.93v-2.08l-.84.19v-.6l1.46-.33v2.81h.86v.6h-2.41v-.6Z"/>
      <path class="uuid-b549a9c7-1725-4b44-a6af-89aa41daa59c" d="M124.41,64.7h-1.71v-.6h2.4v.5l-1.38,2.85h-.66l1.35-2.76Z"/>
    </g>
  </g>
  <g>
    <circle class="uuid-99fb5406-5ed7-4747-90a4-772311e5c1bc" cx="118.18" cy="48.36" r="3.5"/>
    <g>
      <path class="uuid-b549a9c7-1725-4b44-a6af-89aa41daa59c" d="M115.7,49.42h.93v-2.08l-.84.19v-.6l1.46-.33v2.81h.86v.6h-2.41v-.6Z"/>
      <path class="uuid-b549a9c7-1725-4b44-a6af-89aa41daa59c" d="M118.43,49.07c0-.34.19-.64.49-.82-.2-.09-.39-.38-.39-.72,0-.54.45-.92,1.09-.92s1.09.38,1.09.92c0,.35-.18.61-.39.72.29.16.49.48.49.82,0,.58-.48,1.02-1.19,1.02s-1.19-.45-1.19-1.02ZM120.2,49.03c0-.3-.24-.53-.58-.53s-.58.23-.58.53c0,.32.24.53.58.53s.58-.21.58-.53ZM120.11,47.57c0-.25-.18-.43-.49-.43s-.49.17-.49.43.18.43.49.43.49-.17.49-.43Z"/>
    </g>
  </g>
  <g>
    <circle class="uuid-99fb5406-5ed7-4747-90a4-772311e5c1bc" cx="135.09" cy="108.05" r="3.5"/>
    <path class="uuid-b549a9c7-1725-4b44-a6af-89aa41daa59c" d="M133.89,108.57c0-.27.1-.54.28-.77l1.11-1.45h.76l-.82,1.05h.04c.62,0,1.16.49,1.16,1.19,0,.66-.53,1.19-1.25,1.19s-1.27-.54-1.27-1.21ZM135.79,108.56c0-.35-.26-.63-.63-.63s-.65.28-.65.63.26.62.64.62.64-.27.64-.62Z"/>
  </g>
  <g>
    <rect class="uuid-a4a20d1e-c991-47ce-93e0-8d96a4493fa2" x="25.7" y="127.01" width=".73" height="12.82" transform="translate(-97.72 77.23) rotate(-54.54)"/>
    <g>
      <path class="uuid-68015ee1-d4d2-4814-8519-35bc217c012d" d="M21.55,124.42h-10.94l-.03.03v8.96h10.97v-9Z"/>
      <g>
        <path class="uuid-bfc1a934-1479-4c3b-baba-2802c4c4be91" d="M12.27,129.94h1.17v-2.35h-1.17v-.83h3.24v.83h-1.18v2.35h1.18v.83h-3.24v-.83Z"/>
        <path class="uuid-bfc1a934-1479-4c3b-baba-2802c4c4be91" d="M16.7,130.61c-.21-.1-.38-.25-.49-.43-.11-.19-.17-.41-.17-.67v-.51h.9v.43c0,.16.05.28.14.37.09.09.22.13.38.13h1.03c.15,0,.26-.03.34-.1.08-.06.12-.16.12-.29,0-.12-.04-.21-.12-.28-.08-.06-.19-.09-.34-.09h-1.11v-.83h1.07c.14,0,.26-.03.34-.1.08-.06.12-.16.12-.29,0-.12-.04-.21-.12-.28-.08-.06-.19-.09-.34-.09h-1c-.16,0-.29.04-.38.13-.09.09-.14.21-.14.37v.26h-.89v-.34c0-.26.06-.48.17-.67s.27-.33.49-.43c.21-.1.47-.15.77-.15h1.01c.27,0,.5.04.7.13s.35.21.46.38c.11.17.16.36.16.59,0,.2-.04.38-.14.53-.09.15-.23.27-.42.37.21.1.37.22.46.37.09.14.14.32.14.54s-.05.42-.16.59c-.11.17-.27.29-.47.38-.2.09-.44.13-.71.13h-1.03c-.3,0-.56-.05-.77-.15Z"/>
      </g>
    </g>
  </g>
  <g>
    <rect class="uuid-a4a20d1e-c991-47ce-93e0-8d96a4493fa2" x="103.58" y="134.04" width=".73" height="12.21" transform="translate(-51.99 218.43) rotate(-80.1)"/>
    <path class="uuid-68015ee1-d4d2-4814-8519-35bc217c012d" d="M114.68,136.5h-10.14l-.03.03v7.93h10.17v-7.96Z"/>
    <g>
      <path class="uuid-bfc1a934-1479-4c3b-baba-2802c4c4be91" d="M105.81,141.56h1.17v-2.35h-1.17v-.83h3.24v.83h-1.18v2.35h1.18v.83h-3.24v-.83Z"/>
      <path class="uuid-bfc1a934-1479-4c3b-baba-2802c4c4be91" d="M110.16,142.25c-.18-.09-.32-.21-.42-.36-.09-.16-.14-.34-.14-.55,0-.3.09-.54.27-.73.18-.19.48-.33.9-.41l1.27-.27c.12-.02.21-.05.28-.08.07-.03.11-.07.14-.12.03-.04.05-.11.05-.18,0-.11-.04-.2-.13-.25s-.22-.08-.41-.08h-.92c-.17,0-.3.04-.39.13-.09.09-.13.21-.13.37v.15h-.89v-.24c0-.26.06-.48.17-.67.11-.18.27-.33.49-.43.21-.1.47-.15.78-.15h.88c.47,0,.83.1,1.08.3s.37.49.37.86c0,.22-.04.41-.11.56-.07.15-.18.27-.33.37-.15.09-.34.16-.58.21l-1.5.3c-.13.03-.23.07-.29.12-.07.05-.1.12-.1.2s.03.15.09.2c.06.04.15.07.27.07h2.53v.83h-2.57c-.25,0-.47-.04-.65-.13Z"/>
    </g>
  </g>
  <g>
    <polygon class="uuid-bfc1a934-1479-4c3b-baba-2802c4c4be91" points="150.6 89.07 150.11 89.62 142.14 83.31 142.63 82.76 150.6 89.07"/>
    <g>
      <path class="uuid-efc4c69b-675b-4054-b807-fbf0f4c0d101" d="M158.14,86.17h-8.62l-.03.03v7.38h8.65v-7.41Z"/>
      <path class="uuid-a6e82a00-b414-4ca9-925d-ab96bca1c7e9" d="M151.85,91.21h2.69c.14,0,.25-.03.33-.09.08-.06.12-.15.12-.27,0-.11-.03-.19-.1-.24-.07-.06-.17-.11-.31-.15l-1.69-.45c-.39-.09-.67-.25-.86-.47-.18-.22-.28-.52-.28-.88,0-.26.06-.5.19-.71.12-.21.3-.37.54-.49.23-.12.51-.18.83-.18h2.58v1.02h-2.58c-.14,0-.26.03-.33.09-.08.06-.12.15-.12.27s.03.2.1.25.17.11.31.15l1.69.44c.39.09.68.25.86.48s.28.52.28.88c0,.27-.06.51-.19.71-.13.21-.31.37-.54.49-.23.12-.51.18-.83.18h-2.69v-1.02Z"/>
    </g>
  </g>
  <g>
    <polygon class="uuid-a4a20d1e-c991-47ce-93e0-8d96a4493fa2" points="179.47 58.41 169 50.86 169.43 50.42 179.9 57.98 179.47 58.41"/>
    <path class="uuid-68015ee1-d4d2-4814-8519-35bc217c012d" d="M182.16,55.57h-10.14l-.03.03v8.76h10.17v-8.79Z"/>
    <g>
      <path class="uuid-bfc1a934-1479-4c3b-baba-2802c4c4be91" d="M173.68,61.09h1.17v-2.35h-1.17v-.83h3.24v.83h-1.18v2.35h1.18v.83h-3.24v-.83Z"/>
      <path class="uuid-bfc1a934-1479-4c3b-baba-2802c4c4be91" d="M177.54,61.09h1.49v-2.1c0-.07-.02-.13-.05-.17-.03-.04-.08-.06-.16-.06-.04,0-.08,0-.13.02-.05.01-.11.04-.17.06l-.89.29v-.83l.81-.29c.12-.04.23-.08.34-.1s.22-.04.32-.04c.17,0,.31.04.43.11.12.07.22.18.28.32s.09.29.09.47v2.33h1.32v.83h-3.7v-.83Z"/>
    </g>
  </g>
  <g>
    <g>
      <line class="uuid-bfc1a934-1479-4c3b-baba-2802c4c4be91" x1="138.7" y1="44.85" x2="133.26" y2="36.5"/>
      <polygon class="uuid-a4a20d1e-c991-47ce-93e0-8d96a4493fa2" points="132.94 36.74 133.57 36.25 139.01 44.6 138.38 45.1 132.94 36.74"/>
    </g>
    <g>
      <path class="uuid-68015ee1-d4d2-4814-8519-35bc217c012d" d="M137.09,29.72h-10.98l-.03.03v8.7h11.02v-8.74Z"/>
      <g>
        <path class="uuid-bfc1a934-1479-4c3b-baba-2802c4c4be91" d="M129.32,32.49c.09-.19.23-.33.42-.42.19-.09.42-.14.71-.14h1.98v.83h-1.92c-.11,0-.2.01-.26.04-.06.03-.11.08-.14.14-.03.06-.04.15-.04.26v.32h2.26v.83h-2.26v1.58h-.89v-2.73c0-.29.05-.52.14-.71Z"/>
        <path class="uuid-bfc1a934-1479-4c3b-baba-2802c4c4be91" d="M135.98,35.93h-1.67c-.29,0-.53-.05-.71-.14-.19-.09-.33-.23-.42-.42s-.14-.43-.14-.71v-2.73h.89v2.73c0,.11.01.2.04.26.03.07.07.11.14.14.07.03.15.04.26.04h1.61v.83Z"/>
      </g>
      <g>
        <g>
          <rect class="uuid-67f20798-9566-4231-9194-433bbef9f6ac" x="126.95" y="32.64" width=".88" height="5.83"/>
          <rect x="126.95" y="33.61" width=".88" height=".97"/>
          <rect x="126.95" y="35.55" width=".88" height=".97"/>
          <rect x="126.95" y="37.49" width=".88" height=".97"/>
          <rect class="uuid-67f20798-9566-4231-9194-433bbef9f6ac" x="126.07" y="32.64" width=".88" height="5.83"/>
          <rect x="126.07" y="32.64" width=".88" height=".97"/>
          <rect x="126.07" y="34.58" width=".88" height=".97"/>
          <rect x="126.07" y="36.52" width=".88" height=".97"/>
        </g>
        <g>
          <rect class="uuid-67f20798-9566-4231-9194-433bbef9f6ac" x="126.95" y="29.72" width=".88" height="2.91"/>
          <rect x="126.95" y="29.72" width=".88" height=".97"/>
          <rect x="126.95" y="31.66" width=".88" height=".97"/>
          <rect class="uuid-67f20798-9566-4231-9194-433bbef9f6ac" x="126.07" y="29.72" width=".88" height="2.91"/>
          <rect x="126.07" y="30.69" width=".88" height=".97"/>
        </g>
      </g>
    </g>
  </g>
</svg>