<svg xmlns="http://www.w3.org/2000/svg" id="Capa_1" viewBox="0 0 165.02 195.68"><defs><style>.cls-1{fill:#444;}.cls-2{fill:#e6e6e6;}.cls-3{fill:#f6f6f6;}.cls-4{font-size:5px;letter-spacing:.03em;}.cls-4,.cls-5{font-family:MGPDisplayVF-Medium, 'MGP Display VF';font-variation-settings:'wght' 500, 'wdth' 100;font-weight:500;}.cls-4,.cls-6{fill:#ededed;}.cls-7{fill:#a0a0a0;}.cls-8{fill:#c6c6c6;font-family:MGPText-Bold, 'MGP Text';font-size:5.26px;font-weight:700;}.cls-9{fill:#fafafa;}.cls-10{fill:red;}.cls-5{fill:#323232;font-size:6.19px;letter-spacing:.02em;}</style></defs><path class="cls-7" d="M67.54,189.25c-2.76,0-5.41-1.25-7.08-3.33-1.53-1.83-2.24-4.21-1.97-6.67.27-2.44,1.52-4.7,3.43-6.21l.35-.21c2.27-1.63,5.08-3.52,8.01-5.48l.5-.33c2.73-1.82,5.31-3.55,7.1-4.86-.13-.18-.3-.37-.5-.58l-.07-.08c-.6-.69-1.41-1.65-1.8-3.11-.76-2.41.04-5.26,2-7.05.65-.62,3.33-3.05,7.38-6.74l8.54-7.77c10.32-9.4,23.16-21.1,29.16-26.69.16-.17.45-.74.54-1.2.38-3.48,1.96-18.23,2.58-25.3h0s-.01-.14-.21-.51c-1.29-1.98-2.75-4.04-4.25-6.16-1.79-2.51-3.68-5.18-5.3-7.79l-.08-.13c-2.59-5.14-.6-9.84.06-11.39l.54-1.36c.32-.81.64-1.64.94-2.43.07-.16.11-.27.15-.38.04-.11.08-.22.12-.33.11-.3.31-.85.31-1.03,0-.32-.22-.56-.46-.66-3.62-.1-34.05-.3-60.31-.48-17.17-.12-32-.21-33.28-.27h-.47c-.85-.02-1.75-.05-2.68-.18-3.84-.49-7.29-2.73-9.46-6.15-2.16-3.42-2.72-7.49-1.52-11.18.48-1.47,1.06-2.73,1.71-4.11.64-1.41,1.39-3.04,2.11-4.65l.79-1.75c.54-1.19,1.06-2.33,1.51-3.35.63-1.5,1.44-2.91,2.4-4.19,3.39-4.59,9.02-7.44,14.7-7.44.85-.03,1.9-.02,2.91-.01.5,0,1.01.01,1.49.01h2.74c1.48,0,3.33,0,5.1.75,2.78,1.12,4.82,3.62,5.45,6.68.6,3.1-.33,6.21-2.49,8.34l-.17.17c-.33.31-.67.62-1.21.96-1.14.75-3.83,2.08-6.72,3.49-1.77.86-3.88,1.9-4.8,2.42,10.59.26,33.87.36,54.46.45l11.03.05c13.03.06,24.29.11,30.25.21,1.56.05,3.88.05,6.33.05h1.9c3.35.03,6.51.04,7.73.15h.1s.07,0,.07,0c2.01.28,4.01,1.55,5.08,3.25.83,1.27,1.1,2.66,1.3,3.96.11.61.21,1.26.31,1.92.08.49.16.99.24,1.49l.12.81c.2,1.27.4,2.55.6,3.82.27,1.75.54,3.49.82,5.21v.16c.03.21.05.42.08.6v.09c.06.42.1.83.1,1.29.08,3.23-2.25,6.28-5.42,7.08-1.11.32-2.24.32-3.15.32h-.15c-.41-.02-.68,0-.84.02,0,.06,0,.13,0,.23-.05,3.24-.1,6.65-.14,10.28-.09,7.69-.19,13.91-.31,19-.76,15.33-5.58,30.18-13.96,42.98-.81,1.21-1.97,2.26-3.38,3.04l-.12.08c-2.24,1.08-5.61,2.63-8.92,4.14l-2.18,1.01c-1,.46-1.92.88-2.66,1.23l.11.13c.06.07.12.13.17.2.65.8,1.42,1.76,1.78,3.13.45,1.54.2,3.29-.68,4.8-.05.1-.14.24-.25.41h0s-.27.57-.27.57h-.16c-.22.26-.47.5-.76.72-.41.33-1.36,1.1-2.71,2.22-1.24,1.02-2.81,2.32-4.63,3.81-10.57,8.71-27.2,22.33-34.2,28l-.12.11c-1.51,1.12-3.35,1.71-5.31,1.71ZM62.9,174.83c-1.35,1.17-2.22,2.84-2.42,4.64-.21,1.92.33,3.76,1.53,5.19,1.31,1.63,3.37,2.6,5.53,2.6,1.51,0,2.91-.44,4.07-1.28l.06-.06c6.98-5.65,23.64-19.3,34.23-28.03,1.82-1.49,3.39-2.79,4.63-3.8,1.37-1.13,2.33-1.92,2.75-2.25.28-.22.5-.44.67-.68l.05-.07c.09-.12.16-.22.21-.32.63-1.07.81-2.29.51-3.31-.26-.99-.83-1.7-1.38-2.38l-.14-.17c-.06-.07-.12-.13-.17-.2l-.09-.1c-.48-.6-.76-.98-.76-1.46s.3-.83.58-1.02l.13-.07c.84-.4,2.1-.98,3.53-1.64l2.18-1.01c3.27-1.5,6.6-3.03,8.82-4.1l.08-.05c1.13-.63,2.06-1.46,2.68-2.4,8.18-12.5,12.9-27,13.63-41.95.12-5.06.23-11.27.31-18.96.05-3.63.1-7.05.14-10.27,0-.41.04-.74.14-1.02v-.04l.11-.26c.46-.91,1.76-.95,2.7-.91.91,0,1.81,0,2.68-.25,2.28-.57,4-2.82,3.94-5.12,0-.38-.04-.71-.08-1.09v-.1c-.03-.19-.06-.4-.08-.64v-.09c-.28-1.7-.55-3.42-.81-5.14-.2-1.27-.4-2.55-.6-3.82l-.12-.8c-.08-.49-.16-.99-.24-1.49-.1-.64-.2-1.28-.31-1.9-.18-1.16-.39-2.26-1.01-3.21-.77-1.21-2.18-2.12-3.61-2.33h-.05c-1.22-.1-4.34-.12-7.65-.13h-1.9c-2.44,0-4.79-.01-6.37-.06-5.94-.1-17.19-.15-30.21-.21l-11.03-.05c-21-.09-44.81-.19-55.11-.47l-.29-.05c-.53-.18-.99-.63-1.16-1.14l-.05-.23c-.21-.83.28-1.72.95-2.17.92-.54,3.11-1.62,5.14-2.61,2.14-1.04,5.38-2.62,6.52-3.37.39-.24.61-.45.91-.73l.11-.1c1.71-1.69,2.43-4.13,1.96-6.56-.49-2.39-2.08-4.35-4.25-5.23-1.42-.6-2.9-.6-4.34-.6h-2.74c-.49,0-1,0-1.51-.01-.99-.01-2.01-.02-2.85,0-5.09,0-10.1,2.54-13.13,6.64-.87,1.15-1.59,2.42-2.17,3.78-.46,1.04-.99,2.19-1.53,3.38l-.79,1.74c-.72,1.61-1.47,3.25-2.12,4.67-.62,1.33-1.17,2.53-1.62,3.89-1.01,3.12-.53,6.58,1.31,9.49,1.85,2.92,4.78,4.83,8.03,5.24.83.11,1.64.14,2.42.16h.5c1.29.05,16.11.15,33.26.26,26.69.17,57.7.39,60.52.48l.25.04c.96.28,1.99,1.19,1.99,2.52,0,.61-.22,1.2-.45,1.83-.05.12-.08.21-.11.29-.06.16-.12.32-.18.47-.27.73-.6,1.57-.92,2.4l-.55,1.39c-.99,2.33-2.07,5.86-.16,9.66l.04.05c1.58,2.55,3.45,5.19,5.22,7.68,1.52,2.14,2.99,4.22,4.33,6.29.39.7.54,1.22.5,1.71-.63,7.1-2.21,21.87-2.6,25.44-.17.88-.62,1.79-1.11,2.31-6.05,5.65-18.9,17.35-29.22,26.75l-8.54,7.77c-3.9,3.55-6.71,6.11-7.36,6.73-1.39,1.27-1.97,3.33-1.44,5.03.28,1.06.85,1.72,1.39,2.36.3.33.59.65.84,1.05.4.69.3,1.64-.23,2.23l-.15.13c-1.84,1.36-4.54,3.16-7.4,5.08l-.5.33c-3.03,2.03-5.93,3.98-8.22,5.63l-.27.19Z"></path><circle class="cls-1" cx="29.32" cy="35.05" r="3.55"></circle><text class="cls-8" transform="translate(27.98 36.74)"><tspan x="0" y="0">1</tspan></text><circle class="cls-1" cx="56.16" cy="11.22" r="3.55"></circle><text class="cls-8" transform="translate(54.82 12.9)"><tspan x="0" y="0">2</tspan></text><circle class="cls-1" cx="16.8" cy="7.66" r="3.55"></circle><text class="cls-8" transform="translate(15.46 9.35)"><tspan x="0" y="0">3</tspan></text><circle class="cls-1" cx="9.18" cy="50.83" r="3.55"></circle><text class="cls-8" transform="translate(7.84 52.52)"><tspan x="0" y="0">4</tspan></text><circle class="cls-1" cx="124.37" cy="46.56" r="3.55"></circle><text class="cls-8" transform="translate(123.03 48.24)"><tspan x="0" y="0">5</tspan></text><line class="cls-6" x1="112.54" y1="27.83" x2="112.5" y2="34.57"></line><polygon class="cls-2" points="112.86 34.57 112.14 34.56 112.17 27.83 112.9 27.83 112.86 34.57"></polygon><path class="cls-10" d="M118.03,19.09h-10.98l-.03.03v8.7h11.02v-8.74Z"></path><text class="cls-4" transform="translate(109.82 25.3)"><tspan x="0" y="0">FL</tspan></text><rect class="cls-9" x="107.89" y="22.01" width=".88" height="5.83"></rect><rect x="107.89" y="22.98" width=".88" height=".97"></rect><rect x="107.89" y="24.92" width=".88" height=".97"></rect><rect x="107.89" y="26.86" width=".88" height=".97"></rect><rect class="cls-9" x="107.01" y="22.01" width=".88" height="5.83"></rect><rect x="107.01" y="22.01" width=".88" height=".97"></rect><rect x="107.01" y="23.95" width=".88" height=".97"></rect><rect x="107.01" y="25.89" width=".88" height=".97"></rect><rect class="cls-9" x="107.89" y="19.09" width=".88" height="2.91"></rect><rect x="107.89" y="19.09" width=".88" height=".97"></rect><rect x="107.89" y="21.03" width=".88" height=".97"></rect><rect class="cls-9" x="107.01" y="19.09" width=".88" height="2.91"></rect><rect x="107.01" y="20.06" width=".88" height=".97"></rect><circle class="cls-1" cx="107.45" cy="66.82" r="3.55"></circle><text class="cls-8" transform="translate(106.11 68.51)"><tspan x="0" y="0">6</tspan></text><circle class="cls-1" cx="118.03" cy="86.13" r="3.55"></circle><text class="cls-8" transform="translate(116.68 87.82)"><tspan x="0" y="0">7</tspan></text><circle class="cls-1" cx="116.83" cy="106.83" r="3.55"></circle><text class="cls-8" transform="translate(115.48 108.52)"><tspan x="0" y="0">8</tspan></text><circle class="cls-1" cx="69.49" cy="152.6" r="3.55"></circle><text class="cls-8" transform="translate(68.15 154.28)"><tspan x="0" y="0">9</tspan></text><circle class="cls-1" cx="85.52" cy="161.19" r="3.55"></circle><text class="cls-8" transform="translate(82.78 162.87)"><tspan x="0" y="0">10</tspan></text><circle class="cls-1" cx="52.43" cy="183.8" r="3.55"></circle><text class="cls-8" transform="translate(49.69 185.48)"><tspan x="0" y="0">11</tspan></text><circle class="cls-1" cx="121.58" cy="154.29" r="3.55"></circle><text class="cls-8" transform="translate(118.84 155.97)"><tspan x="0" y="0">12</tspan></text><circle class="cls-1" cx="107.01" cy="141.55" r="3.55"></circle><text class="cls-8" transform="translate(104.27 143.23)"><tspan x="0" y="0">13</tspan></text><circle class="cls-1" cx="133.28" cy="139.76" r="3.55"></circle><text class="cls-8" transform="translate(130.54 141.44)"><tspan x="0" y="0">14</tspan></text><circle class="cls-1" cx="137.64" cy="63.03" r="3.55"></circle><text class="cls-8" transform="translate(134.9 64.71)"><tspan x="0" y="0">15</tspan></text><circle class="cls-1" cx="153.91" cy="65.1" r="3.55"></circle><text class="cls-8" transform="translate(151.17 66.79)"><tspan x="0" y="0">16</tspan></text><circle class="cls-1" cx="151.4" cy="27.83" r="3.55"></circle><text class="cls-8" transform="translate(148.65 29.52)"><tspan x="0" y="0">17</tspan></text><path class="cls-3" d="M95.8,18.58h-10.14l-.03.03v8.76h10.17v-8.79Z"></path><text class="cls-5" transform="translate(88.37 24.93)"><tspan x="0" y="0">S</tspan></text><line class="cls-6" x1="90.73" y1="27.37" x2="90.7" y2="34.11"></line><polygon class="cls-2" points="91.06 34.11 90.33 34.1 90.37 27.37 91.1 27.37 91.06 34.11"></polygon><rect class="cls-2" x="67.8" y="46.21" width=".73" height="11.53" transform="translate(-.42 .56) rotate(-.47)"></rect><path class="cls-10" d="M72.84,53.95h-10.14l-.03.03v8.76h10.17v-8.79Z"></path><text class="cls-4" transform="translate(64.17 60.3)"><tspan x="0" y="0">i1</tspan></text><rect class="cls-2" x="84.69" y="139.21" width=".73" height="11.53" transform="translate(-81.84 125) rotate(-52.77)"></rect><path class="cls-10" d="M83.29,134.34h-10.69l-.03.03v8.76h10.72v-8.79Z"></path><text class="cls-4" transform="translate(74.06 140.68)"><tspan x="0" y="0">i2</tspan></text><rect class="cls-2" x="134.56" y="119.49" width=".73" height="11.53" transform="translate(-22.58 220.59) rotate(-74.06)"></rect><path class="cls-10" d="M149.43,122.8h-10.14l-.03.03v8.76h10.17v-8.79Z"></path><text class="cls-4" transform="translate(140.36 129.14)"><tspan x="0" y="0">i3</tspan></text></svg>