<?xml version="1.0" encoding="UTF-8"?>
<svg id="uuid-05475e8d-ab90-4521-a027-97c8fafdc35e" data-name="Capa 1" xmlns="http://www.w3.org/2000/svg" viewBox="0 0 210 78">
  <defs>
    <style>
      .uuid-43a4e95a-d7fc-429b-9a6d-d6b9f7da2694 {
        fill: #323232;
      }

      .uuid-05e626f1-4784-4286-b27c-897b6974f960 {
        fill: #444;
      }

      .uuid-8ee44299-721c-45a7-a301-261fc552aead {
        fill: #e6e6e6;
      }

      .uuid-5495121d-8e96-42e7-83a1-833ecf166df5 {
        fill: #f6f6f6;
      }

      .uuid-148c5993-36c7-4226-b687-f2384389865f {
        fill: #606060;
      }

      .uuid-ab44bb56-cfd4-41bb-bfe9-bbfa573c7f46 {
        fill: #a0a0a0;
      }

      .uuid-3ad0349a-cddf-4cb7-9eea-36f2d532ac1e {
        fill: #c6c6c6;
      }

      .uuid-4d4d47f6-93ad-45e0-b6e8-8f5808284035 {
        fill: #fafafa;
      }

      .uuid-c6efe290-14e9-45d8-a7ac-3b97af480bd1 {
        fill: red;
      }

      .uuid-89cdbe32-0b19-48fb-8e2e-1fcca817c3f5 {
        fill: #ededed;
      }
    </style>
  </defs>
  <path class="uuid-148c5993-36c7-4226-b687-f2384389865f" d="M40.26,65.9c-3.57,0-6.24-.68-7.95-2.04-2.67-2.13-2.95-5.34-3.02-9.02-.06-3.09-3.71-4.8-7.58-6.62-1.91-.9-3.89-1.83-5.52-2.97-5.31-3.73-6.32-8.91-6.62-12.48l1.43-.12c.57,6.77,3.51,9.66,6.02,11.42,1.52,1.07,3.44,1.97,5.3,2.84,4.09,1.92,8.33,3.91,8.41,7.89.08,3.92.49,6.35,2.48,7.92,1.95,1.55,5.66,2.07,10.76,1.52l.16,1.43c-1.38.15-2.67.23-3.85.23Z"/>
  <path class="uuid-ab44bb56-cfd4-41bb-bfe9-bbfa573c7f46" d="M167.57,66.15c-2.43,0-5.43,0-8.97,0-33.94-.02-108.34-.15-116.71-.17h-.08s-.08,0-.12,0c-2.43.15-6.69-1.03-7.18-6.4-.11-1.2-.18-2.26-.24-3.19-.28-4.2-.38-5.62-2.82-7.41-.82-.6-2.52-1.24-4.48-1.97-5.96-2.24-14.96-5.62-17.21-14.24-1.37-5.26-.47-10.14,2.67-14.51,2.59-3.6,6.17-6.08,8.72-7.52,3.74-2.12,8.63-3.36,14.94-3.8,1.42-.1,30.9-.12,34.12.31,2.5.34,4.69,1.7,6.03,3.74,1.07,1.63,2.08,4.48.84,8.79-1.15,4-3.89,6.84-8.16,8.45-3.43,1.29-7.18,1.54-10.06,1.62-.5.01-21.24.02-21.55.01-.04,0-3.67.07-3.93,3.5-.16,2.01,1.36,3.15,2.58,4.07l.15.12c4.48,3.39,17.37,12.47,23.17,13.7,6.33,1.34,11.76,1.22,19.27,1.06l.99-.02c.16,0,3.92-.13,4.05-4.56.02-.61.03-1.16.05-1.68.12-4.61.16-6.17,2.38-9.87,2.35-3.92,13.12-18.75,14.26-20.27,1.17-1.57,3.45-3.67,6.34-4.87,3.56-1.47,7.26-1.26,10.69.62,2.63,1.44,9.1,5.25,16.6,9.66,5.07,2.98,10.81,6.36,16.06,9.41,6.47,3.76,12.66,7.6,17.64,10.68,5.2,3.22,9.3,5.76,10.7,6.34,1.26.52,2.33.45,3.21-.21,1.23-.92,1.92-2.96,1.7-4.94-1.1-9.68-6.39-11.2-10.64-12.43-.33-.1-.66-.19-.97-.28-1.46-.44-4.2-1.52-6.19-3.78-1.91-2.18-2.58-4.86-1.92-7.77.64-2.83,2.14-4.94,4.35-6.13,2.46-1.32,5.72-1.44,8.73-.3,2.49.94,5.84,2.04,9.08,3.1,5.22,1.71,10.16,3.33,11.8,4.37.59.38,5.8,3.88,5.8,10.25,0,7.65-.27,22.68-.27,22.83,0,.14-.1,3.28-1.72,6.52-1.53,3.05-4.72,6.74-11.28,6.99-1.88.07-7.08.13-15.46.16-1.18,0-3.5,0-6.95,0ZM158.6,64.09c8.55,0,13.9,0,15.9,0,8.36-.03,13.53-.09,15.39-.16,4.46-.18,7.66-2.15,9.52-5.86,1.42-2.83,1.5-5.62,1.5-5.65,0-.15.27-15.16.27-22.78,0-5.28-4.36-8.2-4.85-8.52-1.43-.91-6.47-2.56-11.34-4.15-3.26-1.07-6.63-2.17-9.17-3.13-1.9-.72-4.74-1.05-7.03.19-1.69.91-2.8,2.51-3.32,4.77-1.43,6.32,5.33,8.71,6.7,9.13.3.09.61.18.94.27,4.33,1.24,10.87,3.13,12.12,14.17.31,2.71-.7,5.45-2.5,6.81-1.45,1.09-3.31,1.26-5.23.47-1.55-.64-5.51-3.09-11-6.49-4.97-3.08-11.15-6.9-17.59-10.65-5.25-3.06-11-6.43-16.06-9.41-7.48-4.4-13.94-8.2-16.54-9.63-2.9-1.59-5.9-1.77-8.92-.52-2.5,1.03-4.47,2.85-5.48,4.2-1,1.35-11.87,16.29-14.15,20.1-1.94,3.23-1.97,4.31-2.08,8.86-.01.52-.03,1.08-.05,1.69-.15,5.08-4.03,6.51-6.06,6.55l-.99.02c-7.37.16-13.18.29-19.74-1.1-7.44-1.58-23.83-13.95-23.99-14.08l-.15-.11c-1.36-1.02-3.63-2.74-3.39-5.87.33-4.24,4.21-5.46,6.05-5.4.45,0,20.75,0,21.42-.01,2.72-.07,6.24-.3,9.38-1.49,3.67-1.39,5.93-3.71,6.91-7.1.81-2.82.61-5.27-.59-7.1-1.01-1.54-2.68-2.57-4.58-2.83-2.99-.4-32.36-.39-33.7-.3-6,.41-10.6,1.57-14.07,3.54-5.06,2.87-13.15,9.25-10.42,19.73,1.98,7.59,10.39,10.74,15.95,12.83,2.19.82,3.93,1.47,4.97,2.24,3.22,2.35,3.38,4.69,3.66,8.93.06.92.13,1.97.24,3.14.42,4.59,4.25,4.58,5.01,4.54.08,0,.16,0,.24,0h.09c8.37.01,82.77.14,116.71.17Z"/>
  <g>
    <circle class="uuid-05e626f1-4784-4286-b27c-897b6974f960" cx="32.4" cy="69.9" r="3.52"/>
    <path class="uuid-3ad0349a-cddf-4cb7-9eea-36f2d532ac1e" d="M31.29,70.97h.94v-2.09l-.84.19v-.6l1.47-.33v2.82h.86v.6h-2.43v-.6Z"/>
  </g>
  <g>
    <circle class="uuid-05e626f1-4784-4286-b27c-897b6974f960" cx="23.65" cy="55.85" r="3.52"/>
    <path class="uuid-3ad0349a-cddf-4cb7-9eea-36f2d532ac1e" d="M24.21,55.09c0-.24-.18-.42-.49-.42s-.56.18-.73.48l-.51-.32c.26-.48.68-.76,1.24-.76.67,0,1.11.41,1.11.99,0,1.03-1.11,1.12-1.5,1.87h1.57v.59h-2.38v-.47c.53-1.18,1.69-1.32,1.69-1.96Z"/>
  </g>
  <g>
    <circle class="uuid-05e626f1-4784-4286-b27c-897b6974f960" cx="3.52" cy="26.27" r="3.52"/>
    <path class="uuid-3ad0349a-cddf-4cb7-9eea-36f2d532ac1e" d="M2.3,27.3l.47-.28c.17.29.4.44.75.44s.64-.2.64-.52c0-.3-.25-.53-.57-.53h-.4v-.51h.4c.3,0,.47-.17.47-.43s-.2-.43-.54-.43c-.3,0-.53.14-.7.42l-.48-.28c.27-.44.67-.69,1.23-.69.65,0,1.1.4,1.1.94,0,.35-.19.62-.42.73.31.16.52.48.52.82,0,.58-.49,1.03-1.25,1.03-.57,0-1-.26-1.24-.71Z"/>
  </g>
  <g>
    <circle class="uuid-05e626f1-4784-4286-b27c-897b6974f960" cx="82.34" cy="10.15" r="3.52"/>
    <path class="uuid-3ad0349a-cddf-4cb7-9eea-36f2d532ac1e" d="M81.09,10.61l.93-2.17h.65l-.91,2.09h.86v-.78h.63v.78h.49v.58h-.49v.7h-.63v-.7h-1.53v-.51Z"/>
  </g>
  <g>
    <circle class="uuid-05e626f1-4784-4286-b27c-897b6974f960" cx="42.67" cy="35.43" r="3.52"/>
    <path class="uuid-3ad0349a-cddf-4cb7-9eea-36f2d532ac1e" d="M41.47,36.47l.52-.32c.15.28.38.43.7.43.39,0,.64-.23.64-.59s-.24-.6-.65-.6c-.26,0-.45.1-.62.27l-.41-.27.33-1.66h1.81v.59h-1.33l-.12.64c.14-.06.27-.08.43-.08.74,0,1.18.48,1.18,1.13s-.47,1.17-1.28,1.17c-.53,0-.97-.25-1.2-.71Z"/>
  </g>
  <g>
    <circle class="uuid-05e626f1-4784-4286-b27c-897b6974f960" cx="52.14" cy="56.71" r="3.52"/>
    <path class="uuid-3ad0349a-cddf-4cb7-9eea-36f2d532ac1e" d="M50.94,57.24c0-.27.1-.54.28-.77l1.11-1.46h.76l-.82,1.05h.04c.63,0,1.17.5,1.17,1.2,0,.67-.54,1.2-1.26,1.2s-1.27-.55-1.27-1.22ZM52.85,57.23c0-.35-.27-.63-.64-.63s-.65.28-.65.64.26.62.65.62.64-.28.64-.63Z"/>
  </g>
  <g>
    <circle class="uuid-05e626f1-4784-4286-b27c-897b6974f960" cx="77.98" cy="46.66" r="3.52"/>
    <path class="uuid-3ad0349a-cddf-4cb7-9eea-36f2d532ac1e" d="M78.52,45.55h-1.72v-.6h2.42v.51l-1.38,2.87h-.67l1.36-2.78Z"/>
  </g>
  <g>
    <circle class="uuid-05e626f1-4784-4286-b27c-897b6974f960" cx="91.75" cy="41.95" r="3.52"/>
    <path class="uuid-3ad0349a-cddf-4cb7-9eea-36f2d532ac1e" d="M90.61,42.66c0-.34.19-.65.5-.82-.2-.09-.39-.38-.39-.73,0-.54.45-.93,1.1-.93s1.1.39,1.1.93c0,.35-.18.62-.39.73.3.16.5.48.5.82,0,.58-.49,1.03-1.2,1.03s-1.2-.45-1.2-1.03ZM92.39,42.62c0-.3-.25-.53-.58-.53s-.58.24-.58.53c0,.32.25.53.58.53s.58-.21.58-.53ZM92.3,41.15c0-.25-.18-.43-.49-.43s-.49.17-.49.43.18.43.49.43.49-.17.49-.43Z"/>
  </g>
  <g>
    <circle class="uuid-05e626f1-4784-4286-b27c-897b6974f960" cx="106.42" cy="5.12" r="3.52"/>
    <path class="uuid-3ad0349a-cddf-4cb7-9eea-36f2d532ac1e" d="M107.75,4.55c0,.27-.1.54-.28.77l-1.11,1.46h-.76l.82-1.05h-.04c-.63,0-1.17-.5-1.17-1.2,0-.67.54-1.2,1.26-1.2s1.27.55,1.27,1.22ZM105.84,4.57c0,.35.27.63.64.63s.65-.28.65-.64-.26-.62-.65-.62-.64.28-.64.63Z"/>
  </g>
  <g>
    <circle class="uuid-05e626f1-4784-4286-b27c-897b6974f960" cx="187.95" cy="52.02" r="3.52"/>
    <g>
      <path class="uuid-3ad0349a-cddf-4cb7-9eea-36f2d532ac1e" d="M185.46,53.09h.94v-2.09l-.84.19v-.6l1.47-.33v2.82h.86v.6h-2.43v-.6Z"/>
      <path class="uuid-3ad0349a-cddf-4cb7-9eea-36f2d532ac1e" d="M188.17,52.52v-1.05c0-.74.54-1.24,1.24-1.24s1.24.5,1.24,1.24v1.05c0,.74-.54,1.24-1.24,1.24s-1.24-.5-1.24-1.24ZM190.02,52.5v-1c0-.41-.23-.66-.62-.66s-.62.26-.62.66v1c0,.41.24.66.62.66s.62-.25.62-.66Z"/>
    </g>
  </g>
  <g>
    <circle class="uuid-05e626f1-4784-4286-b27c-897b6974f960" cx="179.75" cy="24.59" r="3.52"/>
    <g>
      <path class="uuid-3ad0349a-cddf-4cb7-9eea-36f2d532ac1e" d="M177.26,25.66h.94v-2.09l-.84.19v-.6l1.47-.33v2.82h.86v.6h-2.43v-.6Z"/>
      <path class="uuid-3ad0349a-cddf-4cb7-9eea-36f2d532ac1e" d="M180.03,25.66h.94v-2.09l-.84.19v-.6l1.47-.33v2.82h.86v.6h-2.43v-.6Z"/>
    </g>
  </g>
  <g>
    <circle class="uuid-05e626f1-4784-4286-b27c-897b6974f960" cx="157.72" cy="17.63" r="3.52"/>
    <g>
      <path class="uuid-3ad0349a-cddf-4cb7-9eea-36f2d532ac1e" d="M155.23,18.7h.94v-2.09l-.84.19v-.6l1.47-.33v2.82h.86v.6h-2.43v-.6Z"/>
      <path class="uuid-3ad0349a-cddf-4cb7-9eea-36f2d532ac1e" d="M159.68,16.87c0-.24-.18-.42-.49-.42s-.56.18-.73.48l-.51-.32c.26-.48.68-.76,1.24-.76.67,0,1.11.41,1.11.99,0,1.03-1.11,1.12-1.5,1.87h1.57v.59h-2.38v-.47c.53-1.18,1.69-1.32,1.69-1.96Z"/>
    </g>
  </g>
  <g>
    <circle class="uuid-05e626f1-4784-4286-b27c-897b6974f960" cx="206.48" cy="20.87" r="3.52"/>
    <g>
      <path class="uuid-3ad0349a-cddf-4cb7-9eea-36f2d532ac1e" d="M203.99,21.94h.94v-2.09l-.84.19v-.6l1.47-.33v2.82h.86v.6h-2.43v-.6Z"/>
      <path class="uuid-3ad0349a-cddf-4cb7-9eea-36f2d532ac1e" d="M206.65,21.9l.47-.28c.17.29.4.44.75.44s.64-.2.64-.52c0-.3-.25-.53-.57-.53h-.4v-.51h.4c.3,0,.47-.17.47-.43s-.2-.43-.54-.43c-.3,0-.53.14-.7.42l-.48-.28c.27-.44.67-.69,1.23-.69.65,0,1.1.4,1.1.94,0,.35-.19.62-.42.73.31.16.52.48.52.82,0,.58-.49,1.03-1.25,1.03-.57,0-1-.26-1.24-.71Z"/>
    </g>
  </g>
  <g>
    <circle class="uuid-05e626f1-4784-4286-b27c-897b6974f960" cx="204.24" cy="64.78" r="3.52"/>
    <g>
      <path class="uuid-3ad0349a-cddf-4cb7-9eea-36f2d532ac1e" d="M201.75,65.85h.94v-2.09l-.84.19v-.6l1.47-.33v2.82h.86v.6h-2.43v-.6Z"/>
      <path class="uuid-3ad0349a-cddf-4cb7-9eea-36f2d532ac1e" d="M204.38,65.24l.93-2.17h.65l-.91,2.09h.86v-.78h.63v.78h.49v.58h-.49v.7h-.63v-.7h-1.53v-.51Z"/>
    </g>
  </g>
  <g>
    <g>
      <line class="uuid-89cdbe32-0b19-48fb-8e2e-1fcca817c3f5" x1="158.47" y1="70.82" x2="158.56" y2="62.06"/>
      <rect class="uuid-8ee44299-721c-45a7-a301-261fc552aead" x="154.14" y="66.08" width="8.76" height=".73" transform="translate(90.45 224.27) rotate(-89.41)"/>
    </g>
    <g>
      <path class="uuid-c6efe290-14e9-45d8-a7ac-3b97af480bd1" d="M164.38,69.07h-10.98l-.03.03v8.7h11.02v-8.74Z"/>
      <g>
        <path class="uuid-89cdbe32-0b19-48fb-8e2e-1fcca817c3f5" d="M156.62,71.84c.09-.19.23-.33.42-.42.19-.09.42-.14.71-.14h1.98v.83h-1.92c-.11,0-.2.01-.26.04-.06.03-.11.08-.14.14-.03.06-.04.15-.04.26v.32h2.26v.83h-2.26v1.58h-.89v-2.73c0-.29.05-.52.14-.71Z"/>
        <path class="uuid-89cdbe32-0b19-48fb-8e2e-1fcca817c3f5" d="M163.27,75.28h-1.67c-.29,0-.53-.05-.71-.14-.19-.09-.33-.23-.42-.42s-.14-.43-.14-.71v-2.73h.89v2.73c0,.11.01.2.04.26.03.07.07.11.14.14.07.03.15.04.26.04h1.61v.83Z"/>
      </g>
      <g>
        <g>
          <rect class="uuid-4d4d47f6-93ad-45e0-b6e8-8f5808284035" x="154.25" y="71.98" width=".88" height="5.83"/>
          <rect x="154.25" y="72.95" width=".88" height=".97"/>
          <rect x="154.25" y="74.89" width=".88" height=".97"/>
          <rect x="154.25" y="76.84" width=".88" height=".97"/>
          <rect class="uuid-4d4d47f6-93ad-45e0-b6e8-8f5808284035" x="153.37" y="71.98" width=".88" height="5.83"/>
          <rect x="153.37" y="71.98" width=".88" height=".97"/>
          <rect x="153.37" y="73.92" width=".88" height=".97"/>
          <rect x="153.37" y="75.87" width=".88" height=".97"/>
        </g>
        <g>
          <rect class="uuid-4d4d47f6-93ad-45e0-b6e8-8f5808284035" x="154.25" y="69.07" width=".88" height="2.91"/>
          <rect x="154.25" y="69.07" width=".88" height=".97"/>
          <rect x="154.25" y="71.01" width=".88" height=".97"/>
          <rect class="uuid-4d4d47f6-93ad-45e0-b6e8-8f5808284035" x="153.37" y="69.07" width=".88" height="2.91"/>
          <rect x="153.37" y="70.04" width=".88" height=".97"/>
        </g>
      </g>
    </g>
  </g>
  <g>
    <rect class="uuid-8ee44299-721c-45a7-a301-261fc552aead" x="19.68" y="40.75" width="11.53" height=".73" transform="translate(-22.66 45.94) rotate(-63.97)"/>
    <path class="uuid-c6efe290-14e9-45d8-a7ac-3b97af480bd1" d="M29.69,31.5h-10.14l-.03.03v8.76h10.17v-8.79Z"/>
    <g>
      <path class="uuid-89cdbe32-0b19-48fb-8e2e-1fcca817c3f5" d="M21.22,37.02h1.17v-2.35h-1.17v-.83h3.24v.83h-1.18v2.35h1.18v.83h-3.24v-.83Z"/>
      <path class="uuid-89cdbe32-0b19-48fb-8e2e-1fcca817c3f5" d="M25.08,37.02h1.49v-2.1c0-.07-.02-.13-.05-.17-.03-.04-.08-.06-.16-.06-.04,0-.08,0-.13.02-.05.01-.11.04-.17.06l-.89.29v-.83l.81-.29c.12-.04.23-.08.34-.1s.22-.04.32-.04c.17,0,.31.04.43.11.12.07.22.18.28.32s.09.29.09.47v2.33h1.32v.83h-3.7v-.83Z"/>
    </g>
  </g>
  <g>
    <rect class="uuid-8ee44299-721c-45a7-a301-261fc552aead" x="53.19" y="49.82" width="12.21" height=".73" transform="translate(-4.43 94.6) rotate(-75.12)"/>
    <path class="uuid-c6efe290-14e9-45d8-a7ac-3b97af480bd1" d="M65.84,41.12h-10.14l-.03.03v7.93h10.17v-7.96Z"/>
    <g>
      <path class="uuid-89cdbe32-0b19-48fb-8e2e-1fcca817c3f5" d="M56.97,46.17h1.17v-2.35h-1.17v-.83h3.24v.83h-1.18v2.35h1.18v.83h-3.24v-.83Z"/>
      <path class="uuid-89cdbe32-0b19-48fb-8e2e-1fcca817c3f5" d="M61.31,46.87c-.18-.09-.32-.21-.42-.36-.09-.16-.14-.34-.14-.55,0-.3.09-.54.27-.73.18-.19.48-.33.9-.41l1.27-.27c.12-.02.21-.05.28-.08.07-.03.11-.07.14-.12.03-.04.05-.11.05-.18,0-.11-.04-.2-.13-.25s-.22-.08-.41-.08h-.92c-.17,0-.3.04-.39.13-.09.09-.13.21-.13.37v.15h-.89v-.24c0-.26.06-.48.17-.67.11-.18.27-.33.49-.43.21-.1.47-.15.78-.15h.88c.47,0,.83.1,1.08.3s.37.49.37.86c0,.22-.04.41-.11.56-.07.15-.18.27-.33.37-.15.09-.34.16-.58.21l-1.5.3c-.13.03-.23.07-.29.12-.07.05-.1.12-.1.2s.03.15.09.2c.06.04.15.07.27.07h2.53v.83h-2.57c-.25,0-.47-.04-.65-.13Z"/>
    </g>
  </g>
  <g>
    <rect class="uuid-8ee44299-721c-45a7-a301-261fc552aead" x="162.03" y="44.05" width="12.82" height=".73" transform="translate(64.56 184.24) rotate(-68.16)"/>
    <g>
      <path class="uuid-c6efe290-14e9-45d8-a7ac-3b97af480bd1" d="M169.77,47.03h-10.94l-.03.03v8.96h10.97v-9Z"/>
      <g>
        <path class="uuid-89cdbe32-0b19-48fb-8e2e-1fcca817c3f5" d="M160.48,52.55h1.17v-2.35h-1.17v-.83h3.24v.83h-1.18v2.35h1.18v.83h-3.24v-.83Z"/>
        <path class="uuid-89cdbe32-0b19-48fb-8e2e-1fcca817c3f5" d="M164.92,53.22c-.21-.1-.38-.25-.49-.43-.11-.19-.17-.41-.17-.67v-.51h.9v.43c0,.16.05.28.14.37.09.09.22.13.38.13h1.03c.15,0,.26-.03.34-.1.08-.06.12-.16.12-.29,0-.12-.04-.21-.12-.28-.08-.06-.19-.09-.34-.09h-1.11v-.83h1.07c.14,0,.26-.03.34-.1.08-.06.12-.16.12-.29,0-.12-.04-.21-.12-.28-.08-.06-.19-.09-.34-.09h-1c-.16,0-.29.04-.38.13-.09.09-.14.21-.14.37v.26h-.89v-.34c0-.26.06-.48.17-.67s.27-.33.49-.43c.21-.1.47-.15.77-.15h1.01c.27,0,.5.04.7.13s.35.21.46.38c.11.17.16.36.16.59,0,.2-.04.38-.14.53-.09.15-.23.27-.42.37.21.1.37.22.46.37.09.14.14.32.14.54s-.05.42-.16.59c-.11.17-.27.29-.47.38-.2.09-.44.13-.71.13h-1.03c-.3,0-.56-.05-.77-.15Z"/>
      </g>
    </g>
  </g>
  <g>
    <rect class="uuid-89cdbe32-0b19-48fb-8e2e-1fcca817c3f5" x="75.97" y="66.11" width="9.41" height=".73" transform="translate(14.1 147.07) rotate(-89.93)"/>
    <g>
      <path class="uuid-5495121d-8e96-42e7-83a1-833ecf166df5" d="M84.64,68.98h-8.62l-.03.03v7.38h8.65v-7.41Z"/>
      <path class="uuid-43a4e95a-d7fc-429b-9a6d-d6b9f7da2694" d="M78.34,74.02h2.69c.14,0,.25-.03.33-.09.08-.06.12-.15.12-.27,0-.11-.03-.19-.1-.24-.07-.06-.17-.11-.31-.15l-1.69-.45c-.39-.09-.67-.25-.86-.47-.18-.22-.28-.52-.28-.88,0-.26.06-.5.19-.71.13-.21.31-.37.54-.49.23-.12.51-.18.83-.18h2.58v1.02h-2.58c-.14,0-.26.03-.33.09-.08.06-.12.15-.12.27s.03.2.1.25c.06.06.17.11.31.15l1.68.44c.39.09.68.25.86.48s.28.52.28.88c0,.27-.06.51-.19.71-.13.21-.31.37-.54.49-.23.12-.51.18-.83.18h-2.69v-1.02Z"/>
    </g>
  </g>
</svg>