<?xml version="1.0" encoding="UTF-8"?>
<svg id="uuid-87efaa1e-f677-45a0-9856-36db6ea4acec" data-name="Capa 1" xmlns="http://www.w3.org/2000/svg" viewBox="0 0 210 121">
  <defs>
    <style>
      .uuid-a19011ac-ff16-470a-8346-f6bf58eb812d {
        fill: #323232;
      }

      .uuid-17266646-1471-401a-935a-5a70fe468312 {
        fill: #444;
      }

      .uuid-1b8e1d9b-c238-4bfc-b1df-d92e78e891c8 {
        fill: #e6e6e6;
      }

      .uuid-cea65dc0-5523-4545-9c5c-e6fdb6ccbce6 {
        fill: #f6f6f6;
      }

      .uuid-5f1b1526-7e0a-4885-b558-1b1b356e5711 {
        fill: #606060;
      }

      .uuid-68f7c658-cc9f-4577-b100-7b92d41f85c2 {
        fill: #a0a0a0;
      }

      .uuid-4c237e0f-4ca0-4bab-ba25-9bd0ca0e9fd0 {
        fill: #c6c6c6;
      }

      .uuid-d0bacf20-d6dc-4f2f-b54b-d05e75bb758e {
        fill: #fafafa;
      }

      .uuid-127dbb7d-5538-42b4-bff6-6b1a75093d0f {
        fill: red;
      }

      .uuid-92725bd3-e90d-4c29-971c-9ca7bc3bd669 {
        fill: #ededed;
      }
    </style>
  </defs>
  <path class="uuid-5f1b1526-7e0a-4885-b558-1b1b356e5711" d="M84.35,55.66c-.77,0-1.47-.08-2.07-.25-3.08-.87-4.22-5.79-5.14-9.75-.33-1.4-.63-2.73-.95-3.43l1.3-.59c.38.83.68,2.16,1.04,3.7.79,3.4,1.87,8.06,4.14,8.7,2.06.58,5.89-.15,8.38-1.59,1.19-.69,1.95-1.49,2.14-2.24.03-.1.07-.72-1.51-2.71-1.08-1.36-2.56-2.91-3.86-4.28-1.42-1.5-2.66-2.79-3.13-3.57l1.23-.74c.39.65,1.63,1.95,2.94,3.33,3.74,3.92,6.15,6.62,5.73,8.33-.29,1.15-1.26,2.23-2.81,3.13-2.12,1.23-5.06,1.97-7.42,1.97Z"/>
  <path class="uuid-68f7c658-cc9f-4577-b100-7b92d41f85c2" d="M73.98,113.83c-1.79,0-4.34-1.37-7.86-4.19l-.17-.14c-8.82-7.08-30.07-24.11-36.95-29.37-.72-.55-3.32-2.64-8.18-6.59h0c-1.66-1.35-3.35-2.73-4.85-3.94-2.37-1.93-4.25-3.45-4.71-3.83-1.58-1.26-2.27-2.45-2.13-3.65.22-1.84,2.3-2.8,3.97-3.56,8.19-3.77,20-8.6,20.8-8.92.02,0,.05-.02.09-.04,4.1-1.8,6.18.2,7.06,1.55,1.78,2.68,7.34,10.32,10.5,14.64,1.94,2.65,4.72,4.46,7.84,5.1,3.29.67,6.32.07,9.02-1.78,8.08-5.55,8.35-9.46,6.27-13.63-2.37-4.75-6.97-12.82-7.49-13.73-.05-.09-.09-.18-.13-.27-.01-.03-.03-.06-.04-.11-.23-.53-.82-1.93.06-3.06.84-1.07,2.59-1.35,5.5-.87,4.72.78,7.75,8.65,8.31,10.22.25.69.89,1.29,1.82,1.7,1.76.77,4.18.72,6.16-.13.36-.15.57-.33.62-.52.25-.87-1.31-3.07-2.69-5.02-.4-.56-.81-1.14-1.22-1.75-1.43-2.09-2.91-4.09-4.1-5.71-1.58-2.14-2.42-3.29-2.72-3.92-.36-.76-.76-1.9-.17-2.93.68-1.18,2.33-1.77,5.68-2.04l1.53-.12c14.19-1.15,40.6-3.3,60-7.73,26.23-5.99,39.48-9.8,47.39-12.07,1.01-.29,1.94-.56,2.8-.8,3.27-.93,4.99-.83,5.75.34,1,1.53-.43,3.77-3.41,7.36-.53.64-2.11,2.5-4.29,5.08-5.1,6.01-12.8,15.1-16.75,19.92-1.63,1.99-2.85,2.21-6.5,2.85-1.47.26-3.31.59-5.81,1.12-1.81.39-3.32.75-4.53,1.03-4.76,1.13-6.53,1.55-7.99-1.27-.74-1.43-2.17-3.07-3.97-3.39-1.27-.22-2.55.25-3.82,1.42-1.02.94-1.97,1.95-2.88,2.92-3.27,3.48-6.64,7.08-11.86,4.41-1.22-.62-2.33-1.26-3.31-1.82-4.38-2.49-6.8-3.87-11.55-1.22-4.98,2.77-5.62,5.41-5.88,8.11-.47,4.91-1.87,7.91-7.88,9.74-3.03.92-3.98,3.36-4.97,5.95-.53,1.37-1.02,2.66-1.84,3.71-1.66,2.13-5.81,4.47-10.21,6.95-1.81,1.02-3.68,2.07-5.33,3.1l-.41.25c-3.31,2.03-7.07,4.34-6.34,10.87.25,2.21,3,10.46,4.04,13.45v.03c.24.74,1.3,4.47-.73,5.86-.43.29-.93.44-1.52.44ZM22.1,71.96c3.05,2.47,7.2,5.84,8.13,6.55,6.9,5.26,28.17,22.31,36.99,29.4l.17.14c5.49,4.41,6.81,3.75,6.94,3.66.49-.34.38-2.18-.05-3.55-.21-.62-3.81-11.02-4.13-13.88-.87-7.82,4.05-10.84,7.3-12.84l.41-.25c1.69-1.04,3.58-2.11,5.4-3.14,4.03-2.27,8.19-4.61,9.6-6.42.63-.81,1.08-1.97,1.55-3.19,1.02-2.65,2.3-5.96,6.29-7.17,5.03-1.53,6.02-3.6,6.44-7.98.29-2.99,1.08-6.45,6.92-9.7,5.76-3.2,9.03-1.34,13.55,1.23,1.01.58,2.05,1.17,3.23,1.77,3.67,1.88,5.86-.18,9.43-3.99.94-1,1.91-2.04,2.99-3.03,2.2-2.02,4.24-2.16,5.56-1.93,2.16.38,4.19,2.05,5.43,4.46.67,1.3.72,1.4,5.7.22,1.22-.29,2.75-.65,4.57-1.04,2.54-.54,4.47-.89,5.88-1.14,3.66-.65,4.17-.78,5.27-2.13,3.96-4.84,11.67-13.93,16.77-19.95,2.1-2.47,3.75-4.43,4.28-5.06,2.76-3.33,3.24-4.5,3.25-4.92-.22-.07-1.03-.2-3.46.49-.86.24-1.78.51-2.79.8-7.94,2.28-21.22,6.1-47.5,12.1-19.55,4.47-46.06,6.62-60.29,7.78l-1.53.12c-3.39.28-3.98.86-4.08,1.03-.04.07-.09.31.25,1.03.23.48,1.33,1.98,2.51,3.57,1.2,1.63,2.7,3.65,4.14,5.77.41.59.81,1.17,1.2,1.72,1.95,2.76,3.5,4.94,2.99,6.75-.23.81-.83,1.43-1.78,1.84-2.51,1.08-5.49,1.12-7.78.12-1.47-.64-2.48-1.64-2.93-2.88-1.02-2.86-3.74-8.4-6.72-8.89-3.04-.5-3.54.09-3.56.11-.05.07-.1.29.21,1,.03.07.05.13.07.18.54.95,5.15,9.04,7.54,13.82,2.99,5.99.92,10.84-6.94,16.23-3.17,2.17-6.73,2.88-10.58,2.1-3.62-.73-6.84-2.83-9.08-5.9-3.16-4.33-8.74-12-10.55-14.72-.95-1.47-2.43-1.73-4.53-.8-.07.03-.13.06-.17.07-.79.31-12.53,5.12-20.69,8.87-1.01.47-2.71,1.25-2.8,1.95-.02.15.03.73,1.37,1.81.48.38,2.35,1.91,4.73,3.84,1.49,1.22,3.19,2.59,4.85,3.94h0Z"/>
  <g>
    <circle class="uuid-17266646-1471-401a-935a-5a70fe468312" cx="80.6" cy="116.32" r="3.5"/>
    <path class="uuid-4c237e0f-4ca0-4bab-ba25-9bd0ca0e9fd0" d="M79.5,117.38h.93v-2.08l-.84.19v-.6l1.46-.33v2.81h.86v.6h-2.41v-.6Z"/>
  </g>
  <g>
    <circle class="uuid-17266646-1471-401a-935a-5a70fe468312" cx="77.92" cy="91.13" r="3.5"/>
    <path class="uuid-4c237e0f-4ca0-4bab-ba25-9bd0ca0e9fd0" d="M78.48,90.38c0-.24-.18-.42-.49-.42s-.55.18-.73.48l-.51-.32c.25-.48.68-.75,1.23-.75.67,0,1.1.41,1.1.98,0,1.02-1.1,1.11-1.49,1.86h1.56v.59h-2.36v-.47c.52-1.17,1.68-1.31,1.68-1.95Z"/>
  </g>
  <g>
    <circle class="uuid-17266646-1471-401a-935a-5a70fe468312" cx="97.72" cy="77.68" r="3.5"/>
    <path class="uuid-4c237e0f-4ca0-4bab-ba25-9bd0ca0e9fd0" d="M96.51,78.71l.47-.28c.17.29.39.44.75.44s.64-.2.64-.52c0-.3-.24-.52-.57-.52h-.4v-.51h.4c.3,0,.47-.17.47-.43s-.2-.42-.53-.42c-.3,0-.53.13-.7.42l-.47-.28c.26-.44.67-.69,1.22-.69.64,0,1.09.4,1.09.94,0,.35-.19.61-.42.72.31.16.52.48.52.82,0,.58-.48,1.02-1.24,1.02-.57,0-.99-.26-1.23-.71Z"/>
  </g>
  <g>
    <circle class="uuid-17266646-1471-401a-935a-5a70fe468312" cx="102.68" cy="68.81" r="3.5"/>
    <path class="uuid-4c237e0f-4ca0-4bab-ba25-9bd0ca0e9fd0" d="M101.44,69.27l.93-2.15h.64l-.9,2.08h.85v-.78h.62v.78h.49v.58h-.49v.7h-.62v-.7h-1.52v-.5Z"/>
  </g>
  <g>
    <circle class="uuid-17266646-1471-401a-935a-5a70fe468312" cx="110.47" cy="64.53" r="3.5"/>
    <path class="uuid-4c237e0f-4ca0-4bab-ba25-9bd0ca0e9fd0" d="M109.27,65.56l.52-.32c.15.28.37.42.7.42.38,0,.64-.23.64-.59s-.23-.6-.65-.6c-.25,0-.45.1-.61.27l-.41-.26.33-1.65h1.79v.59h-1.32l-.12.63c.13-.06.27-.08.43-.08.74,0,1.18.48,1.18,1.12s-.47,1.16-1.28,1.16c-.53,0-.96-.25-1.19-.7Z"/>
  </g>
  <g>
    <circle class="uuid-17266646-1471-401a-935a-5a70fe468312" cx="117.01" cy="50.8" r="3.5"/>
    <path class="uuid-4c237e0f-4ca0-4bab-ba25-9bd0ca0e9fd0" d="M115.81,51.33c0-.27.1-.53.28-.77l1.11-1.45h.76l-.82,1.05h.04c.62,0,1.16.49,1.16,1.19,0,.66-.53,1.19-1.25,1.19s-1.27-.54-1.27-1.21ZM117.71,51.32c0-.35-.26-.63-.63-.63s-.65.28-.65.63.26.62.64.62.64-.27.64-.62Z"/>
  </g>
  <g>
    <circle class="uuid-17266646-1471-401a-935a-5a70fe468312" cx="134.78" cy="55" r="3.5"/>
    <path class="uuid-4c237e0f-4ca0-4bab-ba25-9bd0ca0e9fd0" d="M135.31,53.9h-1.71v-.6h2.4v.5l-1.38,2.85h-.66l1.35-2.76Z"/>
  </g>
  <g>
    <circle class="uuid-17266646-1471-401a-935a-5a70fe468312" cx="147.65" cy="46.04" r="3.5"/>
    <path class="uuid-4c237e0f-4ca0-4bab-ba25-9bd0ca0e9fd0" d="M146.52,46.76c0-.34.19-.64.49-.82-.2-.09-.39-.38-.39-.72,0-.54.45-.92,1.09-.92s1.09.38,1.09.92c0,.35-.18.61-.39.72.29.16.49.48.49.82,0,.58-.48,1.02-1.19,1.02s-1.19-.45-1.19-1.02ZM148.29,46.71c0-.3-.24-.53-.58-.53s-.58.23-.58.53c0,.32.24.53.58.53s.58-.21.58-.53ZM148.2,45.25c0-.25-.18-.43-.49-.43s-.49.17-.49.43.18.43.49.43.49-.17.49-.43Z"/>
  </g>
  <g>
    <circle class="uuid-17266646-1471-401a-935a-5a70fe468312" cx="154.88" cy="50.8" r="3.5"/>
    <path class="uuid-4c237e0f-4ca0-4bab-ba25-9bd0ca0e9fd0" d="M156.2,50.24c0,.27-.1.53-.28.77l-1.1,1.45h-.76l.82-1.05h-.04c-.62,0-1.16-.49-1.16-1.19,0-.66.53-1.19,1.26-1.19s1.27.54,1.27,1.21ZM154.3,50.26c0,.35.26.63.63.63s.65-.28.65-.63-.26-.62-.64-.62-.64.27-.64.62Z"/>
  </g>
  <g>
    <circle class="uuid-17266646-1471-401a-935a-5a70fe468312" cx="179.93" cy="44.68" r="3.5"/>
    <g>
      <path class="uuid-4c237e0f-4ca0-4bab-ba25-9bd0ca0e9fd0" d="M177.45,45.75h.93v-2.08l-.84.19v-.6l1.46-.33v2.81h.86v.6h-2.41v-.6Z"/>
      <path class="uuid-4c237e0f-4ca0-4bab-ba25-9bd0ca0e9fd0" d="M180.15,45.19v-1.04c0-.74.54-1.23,1.23-1.23s1.23.49,1.23,1.23v1.04c0,.74-.53,1.23-1.23,1.23s-1.23-.49-1.23-1.23ZM181.99,45.17v-1c0-.4-.23-.66-.61-.66s-.61.25-.61.66v1c0,.4.23.65.61.65s.61-.25.61-.65Z"/>
    </g>
  </g>
  <g>
    <circle class="uuid-17266646-1471-401a-935a-5a70fe468312" cx="206.5" cy="4" r="3.5"/>
    <g>
      <path class="uuid-4c237e0f-4ca0-4bab-ba25-9bd0ca0e9fd0" d="M204.02,5.06h.93v-2.08l-.84.19v-.6l1.46-.33v2.81h.86v.6h-2.41v-.6Z"/>
      <path class="uuid-4c237e0f-4ca0-4bab-ba25-9bd0ca0e9fd0" d="M206.78,5.06h.93v-2.08l-.84.19v-.6l1.46-.33v2.81h.86v.6h-2.41v-.6Z"/>
    </g>
  </g>
  <g>
    <circle class="uuid-17266646-1471-401a-935a-5a70fe468312" cx="74.74" cy="25.2" r="3.5"/>
    <g>
      <path class="uuid-4c237e0f-4ca0-4bab-ba25-9bd0ca0e9fd0" d="M72.26,26.26h.93v-2.08l-.84.19v-.6l1.46-.33v2.81h.86v.6h-2.41v-.6Z"/>
      <path class="uuid-4c237e0f-4ca0-4bab-ba25-9bd0ca0e9fd0" d="M76.69,24.45c0-.24-.18-.42-.49-.42s-.55.18-.73.48l-.51-.32c.25-.48.68-.75,1.23-.75.67,0,1.1.4,1.1.98,0,1.02-1.1,1.11-1.49,1.86h1.56v.59h-2.36v-.47c.52-1.17,1.68-1.31,1.68-1.95Z"/>
    </g>
  </g>
  <g>
    <circle class="uuid-17266646-1471-401a-935a-5a70fe468312" cx="99.11" cy="51.5" r="3.5"/>
    <g>
      <path class="uuid-4c237e0f-4ca0-4bab-ba25-9bd0ca0e9fd0" d="M96.63,52.56h.93v-2.08l-.84.19v-.6l1.46-.33v2.81h.86v.6h-2.41v-.6Z"/>
      <path class="uuid-4c237e0f-4ca0-4bab-ba25-9bd0ca0e9fd0" d="M99.27,52.53l.47-.28c.17.29.39.44.75.44s.64-.2.64-.52c0-.3-.24-.52-.57-.52h-.4v-.51h.4c.3,0,.47-.17.47-.43s-.2-.43-.53-.43c-.3,0-.53.13-.7.42l-.47-.28c.26-.44.67-.68,1.22-.68.64,0,1.09.4,1.09.94,0,.35-.19.61-.42.72.31.16.52.48.52.82,0,.58-.48,1.02-1.24,1.02-.57,0-.99-.26-1.23-.71Z"/>
    </g>
  </g>
  <g>
    <circle class="uuid-17266646-1471-401a-935a-5a70fe468312" cx="83.42" cy="60.12" r="3.5"/>
    <g>
      <path class="uuid-4c237e0f-4ca0-4bab-ba25-9bd0ca0e9fd0" d="M80.94,61.18h.93v-2.08l-.84.19v-.6l1.46-.33v2.81h.86v.6h-2.41v-.6Z"/>
      <path class="uuid-4c237e0f-4ca0-4bab-ba25-9bd0ca0e9fd0" d="M83.56,60.58l.93-2.15h.64l-.9,2.08h.85v-.78h.62v.78h.49v.58h-.49v.7h-.62v-.7h-1.52v-.5Z"/>
    </g>
  </g>
  <g>
    <circle class="uuid-17266646-1471-401a-935a-5a70fe468312" cx="68.23" cy="32.54" r="3.5"/>
    <g>
      <path class="uuid-4c237e0f-4ca0-4bab-ba25-9bd0ca0e9fd0" d="M65.75,33.6h.93v-2.08l-.84.19v-.6l1.46-.33v2.81h.86v.6h-2.41v-.6Z"/>
      <path class="uuid-4c237e0f-4ca0-4bab-ba25-9bd0ca0e9fd0" d="M68.42,33.57l.52-.32c.15.28.37.43.7.43.38,0,.64-.23.64-.59s-.23-.6-.65-.6c-.25,0-.45.1-.61.27l-.41-.26.33-1.65h1.79v.59h-1.32l-.12.63c.13-.06.27-.08.43-.08.74,0,1.18.48,1.18,1.13s-.47,1.16-1.28,1.16c-.53,0-.96-.25-1.19-.7Z"/>
    </g>
  </g>
  <g>
    <circle class="uuid-17266646-1471-401a-935a-5a70fe468312" cx="69.45" cy="57.9" r="3.5"/>
    <g>
      <path class="uuid-4c237e0f-4ca0-4bab-ba25-9bd0ca0e9fd0" d="M66.97,58.96h.93v-2.08l-.84.19v-.6l1.46-.33v2.81h.86v.6h-2.41v-.6Z"/>
      <path class="uuid-4c237e0f-4ca0-4bab-ba25-9bd0ca0e9fd0" d="M69.63,58.42c0-.27.1-.53.28-.77l1.11-1.45h.76l-.82,1.05h.04c.62,0,1.16.49,1.16,1.19,0,.66-.53,1.19-1.25,1.19s-1.27-.54-1.27-1.21ZM71.53,58.41c0-.35-.26-.63-.63-.63s-.65.28-.65.63.26.62.64.62.64-.27.64-.62Z"/>
    </g>
  </g>
  <g>
    <circle class="uuid-17266646-1471-401a-935a-5a70fe468312" cx="77.46" cy="71.84" r="3.5"/>
    <g>
      <path class="uuid-4c237e0f-4ca0-4bab-ba25-9bd0ca0e9fd0" d="M74.98,72.9h.93v-2.08l-.84.19v-.6l1.46-.33v2.81h.86v.6h-2.41v-.6Z"/>
      <path class="uuid-4c237e0f-4ca0-4bab-ba25-9bd0ca0e9fd0" d="M79.37,70.74h-1.71v-.6h2.4v.5l-1.38,2.85h-.66l1.35-2.76Z"/>
    </g>
  </g>
  <g>
    <circle class="uuid-17266646-1471-401a-935a-5a70fe468312" cx="59.85" cy="65.15" r="3.5"/>
    <g>
      <path class="uuid-4c237e0f-4ca0-4bab-ba25-9bd0ca0e9fd0" d="M57.37,66.21h.93v-2.08l-.84.19v-.6l1.46-.33v2.81h.86v.6h-2.41v-.6Z"/>
      <path class="uuid-4c237e0f-4ca0-4bab-ba25-9bd0ca0e9fd0" d="M60.1,65.86c0-.34.19-.64.49-.82-.2-.09-.39-.38-.39-.72,0-.54.45-.92,1.09-.92s1.09.38,1.09.92c0,.35-.18.61-.39.72.29.16.49.48.49.82,0,.58-.48,1.02-1.19,1.02s-1.19-.45-1.19-1.02ZM61.87,65.82c0-.3-.24-.53-.58-.53s-.58.23-.58.53c0,.32.24.53.58.53s.58-.21.58-.53ZM61.78,64.35c0-.25-.18-.42-.49-.42s-.49.17-.49.42.18.43.49.43.49-.17.49-.43Z"/>
    </g>
  </g>
  <g>
    <circle class="uuid-17266646-1471-401a-935a-5a70fe468312" cx="38.47" cy="43.35" r="3.5"/>
    <g>
      <path class="uuid-4c237e0f-4ca0-4bab-ba25-9bd0ca0e9fd0" d="M35.99,44.41h.93v-2.08l-.84.19v-.6l1.46-.33v2.81h.86v.6h-2.41v-.6Z"/>
      <path class="uuid-4c237e0f-4ca0-4bab-ba25-9bd0ca0e9fd0" d="M41.17,42.79c0,.27-.1.53-.28.77l-1.1,1.45h-.76l.82-1.05h-.04c-.62,0-1.16-.49-1.16-1.19,0-.66.53-1.19,1.26-1.19s1.27.54,1.27,1.21ZM39.27,42.8c0,.35.26.63.63.63s.65-.28.65-.63-.26-.62-.64-.62-.64.27-.64.62Z"/>
    </g>
  </g>
  <g>
    <circle class="uuid-17266646-1471-401a-935a-5a70fe468312" cx="3.5" cy="62.25" r="3.5"/>
    <g>
      <path class="uuid-4c237e0f-4ca0-4bab-ba25-9bd0ca0e9fd0" d="M2.68,61.5c0-.24-.18-.42-.49-.42s-.55.18-.73.48l-.51-.32c.25-.48.68-.75,1.23-.75.67,0,1.1.4,1.1.98,0,1.02-1.1,1.11-1.49,1.86h1.56v.59H1v-.47c.52-1.17,1.68-1.31,1.68-1.95Z"/>
      <path class="uuid-4c237e0f-4ca0-4bab-ba25-9bd0ca0e9fd0" d="M3.72,62.76v-1.04c0-.74.54-1.23,1.23-1.23s1.23.49,1.23,1.23v1.04c0,.74-.53,1.23-1.23,1.23s-1.23-.49-1.23-1.23ZM5.56,62.74v-1c0-.4-.23-.66-.61-.66s-.61.25-.61.66v1c0,.4.23.65.61.65s.61-.25.61-.65Z"/>
    </g>
  </g>
  <g>
    <g>
      <line class="uuid-92725bd3-e90d-4c29-971c-9ca7bc3bd669" x1="18.04" y1="77.15" x2="23.63" y2="70.41"/>
      <rect class="uuid-1b8e1d9b-c238-4bfc-b1df-d92e78e891c8" x="16.45" y="73.42" width="8.76" height=".73" transform="translate(-49.25 42.71) rotate(-50.32)"/>
    </g>
    <g>
      <path class="uuid-127dbb7d-5538-42b4-bff6-6b1a75093d0f" d="M21.15,75.95h-10.98l-.03.03v8.7h11.02v-8.74Z"/>
      <g>
        <path class="uuid-92725bd3-e90d-4c29-971c-9ca7bc3bd669" d="M13.38,78.72c.09-.19.23-.33.42-.42.19-.09.42-.14.71-.14h1.98v.83h-1.92c-.11,0-.2.01-.26.04-.06.03-.11.08-.14.14-.03.06-.04.15-.04.26v.32h2.26v.83h-2.26v1.58h-.89v-2.73c0-.29.05-.52.14-.71Z"/>
        <path class="uuid-92725bd3-e90d-4c29-971c-9ca7bc3bd669" d="M20.03,82.16h-1.67c-.29,0-.53-.05-.71-.14-.19-.09-.33-.23-.42-.42s-.14-.43-.14-.71v-2.73h.89v2.73c0,.11.01.2.04.26.03.07.07.11.14.14.07.03.15.04.26.04h1.61v.83Z"/>
      </g>
      <g>
        <g>
          <rect class="uuid-d0bacf20-d6dc-4f2f-b54b-d05e75bb758e" x="11.01" y="78.86" width=".88" height="5.83"/>
          <rect x="11.01" y="79.83" width=".88" height=".97"/>
          <rect x="11.01" y="81.77" width=".88" height=".97"/>
          <rect x="11.01" y="83.71" width=".88" height=".97"/>
          <rect class="uuid-d0bacf20-d6dc-4f2f-b54b-d05e75bb758e" x="10.13" y="78.86" width=".88" height="5.83"/>
          <rect x="10.13" y="78.86" width=".88" height=".97"/>
          <rect x="10.13" y="80.8" width=".88" height=".97"/>
          <rect x="10.13" y="82.74" width=".88" height=".97"/>
        </g>
        <g>
          <rect class="uuid-d0bacf20-d6dc-4f2f-b54b-d05e75bb758e" x="11.01" y="75.95" width=".88" height="2.91"/>
          <rect x="11.01" y="75.95" width=".88" height=".97"/>
          <rect x="11.01" y="77.89" width=".88" height=".97"/>
          <rect class="uuid-d0bacf20-d6dc-4f2f-b54b-d05e75bb758e" x="10.13" y="75.95" width=".88" height="2.91"/>
          <rect x="10.13" y="76.92" width=".88" height=".97"/>
        </g>
      </g>
    </g>
  </g>
  <g>
    <rect class="uuid-1b8e1d9b-c238-4bfc-b1df-d92e78e891c8" x="60.15" y="43.55" width="12.82" height=".73" transform="translate(-11.54 27.81) rotate(-21.77)"/>
    <g>
      <path class="uuid-127dbb7d-5538-42b4-bff6-6b1a75093d0f" d="M62.5,42.34h-10.94l-.03.03v8.96h10.97v-9Z"/>
      <g>
        <path class="uuid-92725bd3-e90d-4c29-971c-9ca7bc3bd669" d="M53.22,47.86h1.17v-2.35h-1.17v-.83h3.24v.83h-1.18v2.35h1.18v.83h-3.24v-.83Z"/>
        <path class="uuid-92725bd3-e90d-4c29-971c-9ca7bc3bd669" d="M57.65,48.54c-.21-.1-.38-.25-.49-.43-.11-.19-.17-.41-.17-.67v-.51h.9v.43c0,.16.05.28.14.37.09.09.22.13.38.13h1.03c.15,0,.26-.03.34-.1.08-.06.12-.16.12-.29,0-.12-.04-.21-.12-.28-.08-.06-.19-.09-.34-.09h-1.11v-.83h1.07c.14,0,.26-.03.34-.1.08-.06.12-.16.12-.29,0-.12-.04-.21-.12-.28-.08-.06-.19-.09-.34-.09h-1c-.16,0-.29.04-.38.13-.09.09-.14.21-.14.37v.26h-.89v-.34c0-.26.06-.48.17-.67s.27-.33.49-.43c.21-.1.47-.15.77-.15h1.01c.27,0,.5.04.7.13s.35.21.46.38c.11.17.16.36.16.59,0,.2-.04.38-.14.53-.09.15-.23.27-.42.37.21.1.37.22.46.37.09.14.14.32.14.54s-.05.42-.16.59c-.11.17-.27.29-.47.38-.2.09-.44.13-.71.13h-1.03c-.3,0-.56-.05-.77-.15Z"/>
      </g>
    </g>
  </g>
  <g>
    <polygon class="uuid-1b8e1d9b-c238-4bfc-b1df-d92e78e891c8" points="129.9 43.35 122.86 57.41 122.25 56.98 129.3 42.92 129.9 43.35"/>
    <path class="uuid-127dbb7d-5538-42b4-bff6-6b1a75093d0f" d="M128.54,56.02h-10.14l-.03.03v8.76h10.17v-8.79Z"/>
    <g>
      <path class="uuid-92725bd3-e90d-4c29-971c-9ca7bc3bd669" d="M120.07,61.53h1.17v-2.35h-1.17v-.83h3.24v.83h-1.18v2.35h1.18v.83h-3.24v-.83Z"/>
      <path class="uuid-92725bd3-e90d-4c29-971c-9ca7bc3bd669" d="M123.93,61.53h1.49v-2.1c0-.07-.02-.13-.05-.17-.03-.04-.08-.06-.16-.06-.04,0-.08,0-.13.02-.05.01-.11.04-.17.06l-.89.29v-.83l.81-.29c.12-.04.23-.08.34-.1s.22-.04.32-.04c.17,0,.31.04.43.11.12.07.22.18.28.32s.09.29.09.47v2.33h1.32v.83h-3.7v-.83Z"/>
    </g>
  </g>
  <g>
    <rect class="uuid-1b8e1d9b-c238-4bfc-b1df-d92e78e891c8" x="166.81" y="6.51" width=".73" height="12.21" transform="translate(.97 34.59) rotate(-11.85)"/>
    <path class="uuid-127dbb7d-5538-42b4-bff6-6b1a75093d0f" d="M171.67,2.98h-10.14l-.03.03v7.93h10.17V2.98Z"/>
    <g>
      <path class="uuid-92725bd3-e90d-4c29-971c-9ca7bc3bd669" d="M162.8,8.03h1.17v-2.35h-1.17v-.83h3.24v.83h-1.18v2.35h1.18v.83h-3.24v-.83Z"/>
      <path class="uuid-92725bd3-e90d-4c29-971c-9ca7bc3bd669" d="M167.14,8.72c-.18-.09-.32-.21-.42-.36-.09-.16-.14-.34-.14-.55,0-.3.09-.54.27-.73.18-.19.48-.33.9-.41l1.27-.27c.12-.02.21-.05.28-.08.07-.03.11-.07.14-.12.03-.04.05-.11.05-.18,0-.11-.04-.2-.13-.25s-.22-.08-.41-.08h-.92c-.17,0-.3.04-.39.13-.09.09-.13.21-.13.37v.15h-.89v-.24c0-.26.06-.48.17-.67.11-.18.27-.33.49-.43.21-.1.47-.15.78-.15h.88c.47,0,.83.1,1.08.3s.37.49.37.86c0,.22-.04.41-.11.56-.07.15-.18.27-.33.37-.15.09-.34.16-.58.21l-1.5.3c-.13.03-.23.07-.29.12-.07.05-.1.12-.1.2s.03.15.09.2c.06.04.15.07.27.07h2.53v.83h-2.57c-.25,0-.47-.04-.65-.13Z"/>
    </g>
  </g>
  <g>
    <rect class="uuid-92725bd3-e90d-4c29-971c-9ca7bc3bd669" x="122.1" y="18.28" width=".73" height="9.41" transform="translate(-2.12 25.34) rotate(-11.71)"/>
    <g>
      <path class="uuid-cea65dc0-5523-4545-9c5c-e6fdb6ccbce6" d="M126.57,12.24h-8.62l-.03.03v7.38h8.65v-7.41Z"/>
      <path class="uuid-a19011ac-ff16-470a-8346-f6bf58eb812d" d="M120.28,17.28h2.69c.14,0,.25-.03.33-.09.08-.06.12-.15.12-.27,0-.11-.03-.19-.1-.24-.07-.06-.17-.11-.31-.15l-1.69-.45c-.39-.09-.67-.25-.86-.47-.18-.22-.28-.52-.28-.88,0-.26.06-.5.19-.71.13-.21.31-.37.54-.49.23-.12.51-.18.83-.18h2.58v1.02h-2.58c-.14,0-.26.03-.33.09-.08.06-.12.15-.12.27s.03.2.1.25c.06.06.17.11.31.15l1.68.44c.39.09.68.25.86.48s.28.52.28.88c0,.27-.06.51-.19.71-.13.21-.31.37-.54.49-.23.12-.51.18-.83.18h-2.69v-1.02Z"/>
    </g>
  </g>
</svg>