<svg xmlns="http://www.w3.org/2000/svg" id="Capa_1" viewBox="0 0 191.65 119.83"><defs><style>.cls-1{fill:#444;}.cls-2{fill:#e6e6e6;}.cls-3{fill:#f6f6f6;}.cls-4{fill:#ededed;font-size:5px;letter-spacing:.03em;}.cls-4,.cls-5{font-family:MGPDisplayVF-Medium, 'MGP Display VF';font-variation-settings:'wght' 500, 'wdth' 100;font-weight:500;}.cls-6{fill:#a0a0a0;}.cls-7{fill:#c6c6c6;font-family:MGPText-Bold, 'MGP Text';font-size:5.26px;font-weight:700;}.cls-8{fill:#fafafa;}.cls-9{fill:red;}.cls-5{fill:#323232;font-size:6.19px;letter-spacing:.02em;}</style></defs><path class="cls-6" d="M174.81,58.14c0-.12-.02-.22-.05-.32-.16-1.34-.61-2.57-1.48-3.62-1.03-1.26-2.58-2-3.95-2.83-2.86-1.74-5.72-3.48-8.59-5.22-6.01-3.66-12.01-7.31-18.02-10.97-2.87-1.75-5.75-3.5-8.62-5.25,0,0,0,0,0,0-1.21-.72-2.52-.96-3.76-.84-.03,0-.07,0-.1,0-.19.02-.38.06-.56.1-.55.11-1.09.31-1.6.6-.13.07-.26.14-.38.22-.07.05-.14.1-.22.15-1.59,1.14-2.61,3.07-2.29,5.43.15,1.09.33,2.17.5,3.25.13.84.13,1.71-.22,2.46-.49,1.05-1.3,1.7-2.35,1.99-.04.01-.08.02-.12.03-.71.16-1.45.07-2.36,0-4.28-.35-8.56-.71-12.85-1.06-1.05-.09-1.91-.09-2.82-.34-1-.28-1.92-1-2.49-1.93-1.17-1.92-.75-4.37.97-5.79.42-.34,1.16-.69,1.76-.95.05-.02.55-.23.71-.3.17-.07.35-.15.52-.22.06-.03.54-.23.25-.11.65-.28,1.3-.55,1.95-.83.36-.15.72-.31,1.08-.46.02-.01.03-.01.04-.02.2-.08.4-.17.6-.25,1.29-.55,2.32-1.44,2.85-2.77.57-1.39.32-2.68-.06-4.08,0,0,0,0,0,0-.49-1.87-.88-4.28-1.7-6.32-.07-.19-.15-.36-.23-.54-.03-.06-.06-.13-.09-.19-.1-.21-.21-.42-.32-.62-1.03-1.8-2.58-3.06-5.18-2.91-2.13.12-3.63,1.5-5.26,2.72-1.77,1.32-3.55,2.64-5.32,3.96-4.45,3.32-8.9,6.64-13.35,9.96-2.12,1.58-4.23,3.16-6.35,4.74-1.64,1.22-3.74,2.38-5.08,3.97-1.92,2.28-1.75,5.71.35,7.82,1.88,1.88,4.01,3.56,6,5.33,0,0,.01,0,.01.01,1.07.96,1.73,1.66,2.03,2.85.32,1.22.05,2.67-.64,3.63-.85,1.19-1.82,1.52-3.3,2.26-1.59.79-3.18,1.59-4.77,2.38-6.7,3.35-13.4,6.68-20.1,10.03-3.22,1.61-6.45,3.21-9.67,4.83,0,0,0,0,0,0-3.28,1.63-6.83,2.94-10.37,3.23-1.75.15-3.54-.06-5.28.21-1.79.27-3.46,1.11-4.79,2.33-2.68,2.47-3.62,6.46-2.4,9.88,1.27,3.58,4.58,6.11,8.37,6.39,2.1.16,4.25-.04,6.35-.07,1.73-.03,3.47-.06,5.2-.08,4.17-.06,8.34-.1,12.51-.12,7.74-.04,15.49-.09,23.23-.13,1.45,0,2.89-.01,4.34-.02.55,0,1.09,0,1.64,0,.14,0,.28,0,.41,0,.03,0,.05,0,.07,0,0,0,.01,0,.02,0,1.79.3,3.55.06,5.25-.6,3.35-1.31,6.61-4.24,6.13-8.14-.11-.92-.26-1.85-.4-2.77,0,0,0-.01,0-.02-.11-.8-.23-1.6-.34-2.4-.15-1.05-.32-1.81-.3-2.62.04-1.54,1.19-2.92,2.72-3.32.1-.02.36-.07.43-.08.33-.04.67-.06,1-.08.92-.07,1.85-.14,2.77-.2,1.79-.13,3.58-.26,5.37-.4,7.56-.57,15.11-1.12,22.67-1.68,4.24-.31,8.49-.63,12.73-.94,1.26-.09,2.47-.17,3.56-.89,1.67-1.1,2.33-2.96,2.15-4.89-.14-1.43-.44-2.94-.39-4.38.06-1.53,1.17-2.89,2.68-3.3.14-.04.48-.08.56-.1.25-.01.5-.02.76,0,.8.05,1.59.16,2.39.24,1.43.14,2.86.29,4.29.44,4.33.44,8.66.88,12.99,1.32,1.39.14,2.69.22,4.02-.3,1.78-.69,3.17-2.1,3.84-3.89.28-.73.39-1.5.4-2.28.01-.09.01-.18,0-.29ZM91.1,77.63c-1.81.76-2.87,2.09-3.37,3.68-.04.12-.09.23-.12.35-.05.21-.09.42-.12.63,0,.04-.01.08-.02.12-.14.89-.14,1.83,0,2.78.18,1.23.34,2.46.53,3.69,0,0,0,0,0,0,.02.12.04.25.05.37.24,1.65.65,2.87-.13,4.25-.65,1.16-1.82,2.06-3.05,2.72-1.18.64-2.64,1.08-4,1.08-.05,0-.35-.03-.42-.04-.18-.03-.37-.07-.55-.09-.31-.04-.58-.04-.9-.04-1.18,0-2.36.01-3.54.02-7.5.04-15,.09-22.5.13-7.65.03-15.3.13-22.94.26-1.59.03-3.63.21-4.91-.05-1.47-.3-2.71-.96-3.75-2.03-1.98-2.04-2.53-5.3-1.25-7.77,1.47-2.84,4.01-3.67,7.06-3.65,3.52.02,7.03-.54,10.32-1.82,3.32-1.29,6.47-3.08,9.65-4.67,3.43-1.71,6.86-3.42,10.28-5.13,6.28-3.13,12.56-6.26,18.84-9.4,1.51-.76,2.65-1.3,3.66-2.61,1.08-1.4,1.62-3.16,1.45-4.92-.33-3.56-3.32-5.52-5.78-7.71-1.08-.96-2.65-2.08-3.42-3.1-.87-1.14-.86-2.51-.17-3.66.19-.31.25-.38.67-.76.02-.02.03-.02.04-.03.01,0,.03-.02.05-.04.17-.13.35-.26.52-.39.3-.22.59-.44.89-.66,1.33-.99,2.66-1.98,3.99-2.97,6.83-5.09,13.65-10.18,20.48-15.28.99-.74,1.98-1.48,2.98-2.22,0,0,.02-.01.02-.02.99-.74,1.96-1.61,3.07-2.16.08-.03.19-.08.24-.09.33-.08.57-.14.77-.15.56-.03,1.17.09,1.6.3.48.24.97.69,1.16.94.21.28.41.68.5,1,.43,1.52.8,3.06,1.2,4.59.21.81.43,1.63.64,2.44.18.7.25,1,.09,1.59-.34,1.2-1.47,1.58-2.41,1.98-1.64.7-2.79,1.18-4.27,1.82-1.6.68-2.95,1.52-3.91,3.02-2.01,3.13-1.07,7.38,1.92,9.51,2.36,1.68,5.71,1.44,8.48,1.67,2.76.23,5.51.45,8.27.68.97.08,1.94.16,2.87.15.44,0,.87-.03,1.29-.09.16-.02.31-.05.47-.08.01,0,.02,0,.03,0,1.3-.27,2.48-.89,3.47-2.19.76-1.01,1.06-2.06,1.13-3.13.02-.17.01-.34.02-.51,0-.02,0-.04,0-.06,0-.17.01-.34,0-.51-.01-.15-.03-.31-.05-.46-.12-1.29-.41-2.58-.49-3.82-.08-1.19.41-2.31,1.33-2.94.24-.17.53-.31.67-.36.15-.06.3-.1.46-.14.07-.02.45-.06.42-.07.1,0,.21-.02.31-.01.1,0,.42.04.48.04.24.05.47.1.7.19.29.1.27.12.72.4,4.86,2.96,9.72,5.92,14.58,8.88,4.31,2.62,8.62,5.25,12.93,7.87,2.53,1.54,5.06,3.08,7.59,4.62.74.45,1.49.9,2.23,1.36.57.35.6.36.99.77.06.07.26.31.3.36.14.19.27.39.38.6.14.27.34.84.39,1.18.32,1.93-.9,3.94-2.77,4.49-.65.19-.52.18-1.14.19-.35,0-.71-.04-1.06-.07-1.8-.18-3.61-.37-5.41-.55-4.86-.49-9.73-1.04-14.59-1.49-2.54-.23-5.07.98-6.24,3.32-1.07,2.13-.55,4.43-.33,6.7.12,1.18.16,1.92-.53,2.68-.21.24-.25.25-.54.43-.11.07-.23.12-.3.15-.16.05-.31.1-.47.14-.4.09-.07.02-.38.04-2.5.18-4.99.37-7.49.55-5.67.42-11.33.84-17,1.26-5.28.39-10.57.78-15.85,1.17-.35.02-.7.04-1.05.06-1.97.09-4.15.02-5.94.77Z"></path><circle class="cls-1" cx="11.03" cy="91.68" r="3.55"></circle><text class="cls-7" transform="translate(9.69 93.36)"><tspan x="0" y="0">1</tspan></text><circle class="cls-1" cx="29.76" cy="75" r="3.55"></circle><text class="cls-7" transform="translate(28.42 76.69)"><tspan x="0" y="0">2</tspan></text><circle class="cls-1" cx="69.39" cy="55.74" r="3.55"></circle><text class="cls-7" transform="translate(68.05 57.42)"><tspan x="0" y="0">3</tspan></text><circle class="cls-1" cx="62.58" cy="40.59" r="3.55"></circle><text class="cls-7" transform="translate(61.24 42.28)"><tspan x="0" y="0">4</tspan></text><circle class="cls-1" cx="101.78" cy="8.82" r="3.55"></circle><text class="cls-7" transform="translate(100.44 10.5)"><tspan x="0" y="0">5</tspan></text><circle class="cls-1" cx="105.33" cy="24.54" r="3.55"></circle><text class="cls-7" transform="translate(103.99 26.23)"><tspan x="0" y="0">6</tspan></text><circle class="cls-1" cx="92.93" cy="39.68" r="3.55"></circle><text class="cls-7" transform="translate(91.59 41.37)"><tspan x="0" y="0">7</tspan></text><circle class="cls-1" cx="131.09" cy="46.79" r="3.55"></circle><text class="cls-7" transform="translate(129.75 48.48)"><tspan x="0" y="0">8</tspan></text><circle class="cls-1" cx="127.53" cy="24.54" r="3.55"></circle><text class="cls-7" transform="translate(126.19 26.23)"><tspan x="0" y="0">9</tspan></text><circle class="cls-1" cx="178.37" cy="64.21" r="3.55"></circle><text class="cls-7" transform="translate(175.63 65.89)"><tspan x="0" y="0">10</tspan></text><circle class="cls-1" cx="142.66" cy="55.74" r="3.55"></circle><text class="cls-7" transform="translate(139.91 57.42)"><tspan x="0" y="0">11</tspan></text><circle class="cls-1" cx="144.51" cy="80.24" r="3.55"></circle><text class="cls-7" transform="translate(141.77 81.92)"><tspan x="0" y="0">12</tspan></text><circle class="cls-1" cx="84.59" cy="75" r="3.55"></circle><text class="cls-7" transform="translate(81.85 76.69)"><tspan x="0" y="0">13</tspan></text><circle class="cls-1" cx="94.67" cy="98.73" r="3.55"></circle><text class="cls-7" transform="translate(91.93 100.42)"><tspan x="0" y="0">14</tspan></text><rect class="cls-2" x="160.52" y="59.92" width=".73" height="11.53" transform="translate(-6.21 17.95) rotate(-6.27)"></rect><path class="cls-9" d="M166.52,70.69h-10.14l-.03.03v8.76h10.17v-8.79Z"></path><text class="cls-4" transform="translate(157.45 77.03)"><tspan x="0" y="0">i3</tspan></text><polygon class="cls-2" points="66.72 104.7 66.44 90.7 67.11 90.78 67.39 104.78 66.72 104.7"></polygon><path class="cls-9" d="M73.51,103.5h-11.37l-.03.03v8.76h11.4v-8.79Z"></path><text class="cls-4" transform="translate(65.14 109.84)"><tspan x="0" y="0">FL</tspan></text><rect class="cls-8" x="62.98" y="106.44" width=".88" height="5.83"></rect><rect x="62.98" y="107.41" width=".88" height=".97"></rect><rect x="62.98" y="109.35" width=".88" height=".97"></rect><rect x="62.98" y="111.29" width=".88" height=".97"></rect><rect class="cls-8" x="62.11" y="106.44" width=".88" height="5.83"></rect><rect x="62.11" y="106.44" width=".88" height=".97"></rect><rect x="62.11" y="108.38" width=".88" height=".97"></rect><rect x="62.11" y="110.32" width=".88" height=".97"></rect><rect class="cls-8" x="62.98" y="103.52" width=".88" height="2.91"></rect><rect x="62.98" y="103.52" width=".88" height=".97"></rect><rect x="62.98" y="105.47" width=".88" height=".97"></rect><rect class="cls-8" x="62.11" y="103.52" width=".88" height="2.91"></rect><rect x="62.11" y="104.49" width=".88" height=".97"></rect><rect class="cls-2" x="40.31" y="93.08" width=".73" height="11.53" transform="translate(-.65 .27) rotate(-.38)"></rect><path class="cls-3" d="M45.55,103.56h-10.14l-.03.03v8.76h10.17v-8.79Z"></path><text class="cls-5" transform="translate(38.12 109.9)"><tspan x="0" y="0">S</tspan></text><rect class="cls-2" x="73.8" y="29.02" width=".73" height="11.53" transform="translate(-1.02 67.31) rotate(-48.52)"></rect><path class="cls-9" d="M72.75,23.7h-10.14l-.03.03v8.76h10.17v-8.79Z"></path><text class="cls-4" transform="translate(64.08 30.04)"><tspan x="0" y="0">i1</tspan></text><rect class="cls-2" x="108.79" y="41.87" width="11.53" height=".73" transform="translate(50.55 146.2) rotate(-78.62)"></rect><path class="cls-9" d="M123.58,30.29h-10.69l-.03.03v8.76h10.72v-8.79Z"></path><text class="cls-4" transform="translate(114.36 36.63)"><tspan x="0" y="0">i2</tspan></text></svg>