<svg xmlns="http://www.w3.org/2000/svg" id="uuid-b3df1534-2a1c-47d5-a5b9-fdf622a967c2" data-name="Capa 1" viewBox="0 0 209.54 96.97"><defs><style> .uuid-28ecfcef-1db8-4c78-8d04-847eaaa29a1c { fill: #323232; } .uuid-0e97e7a4-0468-47bf-bc06-a74d68f34b57 { fill: #444; } .uuid-2c05732c-b8e4-4da0-baf6-5a99095f0ad6 { fill: #393939; } .uuid-73108d8c-62bc-466c-861b-3a1f130dfb45 { fill: #e6e6e6; } .uuid-8bbbd679-07e8-4723-9a1d-a001686aeaa7 { fill: #f6f6f6; } .uuid-199ab237-24fd-441f-9aa4-747e02284b61 { fill: #a0a0a0; } .uuid-786af0e1-131f-40ad-8cf1-3aa53df66ef9 { fill: #c6c6c6; } .uuid-08b11958-3dbe-49d7-9592-10b004cd3dec { fill: #fafafa; } .uuid-9d0d817f-c529-4fc2-9a8d-c97132e5e386 { fill: red; } .uuid-b9816970-210a-4a12-99f9-3e1c2acd2ed5 { fill: #ededed; } </style></defs><path class="uuid-2c05732c-b8e4-4da0-baf6-5a99095f0ad6" d="M90.64,43.3c-2.78,0-6.22-1.01-10.83-3.07l.61-1.37c8.58,3.84,12.04,3.41,14.59,1.58,2.37-1.7,3.88-4.47,4.5-8.25.78-4.76-.22-7.82-3.16-9.61-3.15-1.93-11.4-2.29-11.49-2.29l.06-1.5c.35.01,8.72.38,12.21,2.51,3.47,2.13,4.74,5.77,3.86,11.14-.67,4.12-2.44,7.32-5.1,9.22-1.51,1.08-3.2,1.63-5.25,1.63Z"></path><path class="uuid-199ab237-24fd-441f-9aa4-747e02284b61" d="M176.64,76.07c-1.52,0-3.13-.04-4.84-.09-1.6-.04-3.29-.09-5.06-.11-9.09-.08-54.46,0-54.93,0h0c-12.41.02-17.41.05-19.41.07-2.56.02-10.17.02-18.22.01-7.8,0-15.87-.01-18.69.01-3.27.03-11.5.02-18.77,0-5.28,0-10.04-.02-11.99,0-4.35.03-9.3-.28-13.15-4.18-3.24-3.29-4.73-6.4-5.14-10.75-.39-4.17,1.27-9.78,2.74-13.77,1.8-4.88,6.78-8.19,11.9-11.03,3.83-2.13,18.54-10.55,26.45-15.08l4.39-2.51c4.55-2.6,5.6-2.51,10.01-2.11l.36.03c1.17.09,4.19.36,7.87.69,4.71.42,10.48.93,14.82,1.29,7.75.65,9.44,2.89,10.81,4.7l.21.28c1.56,2.03,3.76,6.3.95,12.15-2.81,5.84-9.7,7.18-13.6,5.9-2.07-.68-6.61-2.5-10.99-4.25-2.47-.99-4.82-1.93-6.44-2.55-4.45-1.7-9.39.9-10.79,1.74-2.26,1.35-18.38,10.77-20.77,12.07-.93.5-2.56,1.88-2.8,3.87-.23,1.88.81,3.88,3.1,5.96,4.85,3.65,7.67,2.5,13.56-.44,6.01-3.01,10.03-2.71,14.68-2.36l.54.04c3.66.27,14.36,1.25,21.45,1.89,2.57.23,4.72.43,5.99.54,5,.45,7.85-.4,9.1-.94,1.57-.68,7.39-3.67,12.53-6.31l.2-.1c1.2-.62,1.91-1.36,2.17-2.27.51-1.79-.79-3.96-1.49-5.14-.1-.17-.19-.32-.27-.45-2.02-3.45.04-6.02.72-6.86.28-.35.84-1.03,1.55-1.87,1.25-1.5,2.96-3.55,4.29-5.23,2.37-2.98,5.79-2.94,7.38-2.22,1.17.53,6.96,2.77,9.42,3.69,2.22.83,25.07,9.54,29.99,11.49,1.73.69,5.51,2.09,9.88,3.72,10.01,3.72,17.19,6.41,18.37,7.1,2.5,1.46,5.14,5.47,2.22,10.57-2.89,5.03-4.8,7.61-9.21,10.54-2.86,1.9-6.57,2.3-11.09,2.3ZM148.44,73.84c8.15,0,15.27,0,18.32.03,1.79.01,3.49.06,5.1.11,6.41.18,11.47.32,14.76-1.87,4.26-2.84,5.96-5.3,8.58-9.88,2.37-4.13.06-6.94-1.49-7.84-1.12-.65-10.91-4.29-18.06-6.95-4.39-1.63-8.17-3.04-9.92-3.73-4.92-1.95-27.74-10.65-29.96-11.48-2.54-.95-8.31-3.18-9.54-3.74-.7-.32-3.13-.7-4.99,1.64-1.35,1.7-3.07,3.76-4.32,5.26-.7.83-1.25,1.5-1.53,1.84-.98,1.22-1.72,2.62-.55,4.61.08.13.16.27.25.43.86,1.43,2.45,4.09,1.7,6.71-.42,1.45-1.48,2.63-3.18,3.5l-.2.1c-5.42,2.78-11.02,5.66-12.65,6.37-1.42.62-4.63,1.57-10.07,1.09-1.28-.11-3.43-.31-6-.55-7.08-.65-17.77-1.62-21.41-1.89l-.54-.04c-4.72-.35-8.12-.6-13.64,2.16-6.13,3.07-9.89,4.59-15.73.19-2.86-2.6-4.12-5.18-3.81-7.74.32-2.61,2.26-4.53,3.84-5.38,2.3-1.25,18.48-10.7,20.7-12.03,1.6-.95,7.24-3.91,12.53-1.88,1.63.62,3.98,1.56,6.47,2.56,4.15,1.66,8.86,3.54,10.87,4.21,2.58.85,8.7.28,11.17-4.86,2.23-4.64.83-8.03-.74-10.06l-.22-.29c-1.18-1.56-2.52-3.33-9.38-3.91-4.34-.37-10.12-.88-14.83-1.29-3.67-.32-6.69-.59-7.86-.69l-.36-.03c-4.28-.38-4.83-.43-8.84,1.86l-4.39,2.51c-7.91,4.53-22.64,12.96-26.48,15.09-4.78,2.66-9.42,5.7-10.99,9.97-1.97,5.35-2.9,9.93-2.62,12.89.36,3.84,1.68,6.61,4.57,9.53,2.97,3.01,6.8,3.65,11.72,3.59,1.95-.01,6.72,0,12.01,0,7.26.01,15.48.02,18.75,0,2.83-.02,10.9-.02,18.71-.01,7.7,0,15.65.01,18.2-.01,2.01-.02,7-.05,19.42-.07h0c.3,0,20.47-.03,36.63-.03Z"></path><g><circle class="uuid-0e97e7a4-0468-47bf-bc06-a74d68f34b57" cx="6.78" cy="75.57" r="3.5"></circle><path class="uuid-786af0e1-131f-40ad-8cf1-3aa53df66ef9" d="M5.68,76.63h.93v-2.07l-.83.19v-.59l1.45-.33v2.8h.85v.59h-2.41v-.59Z"></path></g><g><circle class="uuid-0e97e7a4-0468-47bf-bc06-a74d68f34b57" cx="5.89" cy="41.26" r="3.5"></circle><path class="uuid-786af0e1-131f-40ad-8cf1-3aa53df66ef9" d="M6.45,40.51c0-.24-.18-.42-.49-.42s-.55.18-.72.48l-.51-.32c.25-.48.68-.75,1.23-.75.67,0,1.1.4,1.1.98,0,1.02-1.1,1.11-1.49,1.86h1.56v.58h-2.35v-.47c.52-1.17,1.68-1.3,1.68-1.94Z"></path></g><g><circle class="uuid-0e97e7a4-0468-47bf-bc06-a74d68f34b57" cx="55.76" cy="10.81" r="3.5"></circle><path class="uuid-786af0e1-131f-40ad-8cf1-3aa53df66ef9" d="M54.54,11.84l.47-.28c.17.28.39.43.75.43s.64-.2.64-.52c0-.29-.24-.52-.56-.52h-.4v-.51h.4c.29,0,.47-.17.47-.42s-.2-.42-.53-.42c-.3,0-.53.13-.7.41l-.47-.28c.26-.44.67-.68,1.22-.68.64,0,1.09.4,1.09.94,0,.35-.19.61-.41.72.31.16.52.48.52.82,0,.57-.48,1.02-1.24,1.02-.56,0-.99-.26-1.23-.7Z"></path></g><g><circle class="uuid-0e97e7a4-0468-47bf-bc06-a74d68f34b57" cx="105.51" cy="33.99" r="3.5"></circle><path class="uuid-786af0e1-131f-40ad-8cf1-3aa53df66ef9" d="M104.27,34.44l.93-2.15h.64l-.9,2.07h.85v-.78h.62v.78h.49v.58h-.49v.7h-.62v-.7h-1.52v-.5Z"></path></g><g><circle class="uuid-0e97e7a4-0468-47bf-bc06-a74d68f34b57" cx="62.37" cy="40.54" r="3.5"></circle><path class="uuid-786af0e1-131f-40ad-8cf1-3aa53df66ef9" d="M61.18,41.57l.52-.32c.15.28.37.42.7.42.38,0,.64-.23.64-.58s-.23-.6-.65-.6c-.25,0-.45.1-.61.27l-.41-.26.33-1.64h1.79v.59h-1.32l-.12.63c.13-.06.27-.08.43-.08.74,0,1.17.48,1.17,1.12s-.47,1.16-1.27,1.16c-.53,0-.96-.25-1.19-.7Z"></path></g><g><circle class="uuid-0e97e7a4-0468-47bf-bc06-a74d68f34b57" cx="24.05" cy="51.67" r="3.5"></circle><path class="uuid-786af0e1-131f-40ad-8cf1-3aa53df66ef9" d="M22.86,52.2c0-.27.1-.53.28-.77l1.1-1.45h.76l-.82,1.04h.04c.62,0,1.16.49,1.16,1.19,0,.66-.53,1.18-1.25,1.18s-1.26-.54-1.26-1.21ZM24.75,52.19c0-.35-.26-.63-.63-.63s-.65.28-.65.63.26.62.64.62.64-.27.64-.62Z"></path></g><g><circle class="uuid-0e97e7a4-0468-47bf-bc06-a74d68f34b57" cx="34.99" cy="67.03" r="3.5"></circle><path class="uuid-786af0e1-131f-40ad-8cf1-3aa53df66ef9" d="M35.52,65.93h-1.71v-.59h2.39v.5l-1.37,2.84h-.66l1.34-2.75Z"></path></g><g><circle class="uuid-0e97e7a4-0468-47bf-bc06-a74d68f34b57" cx="54.54" cy="50.19" r="3.5"></circle><path class="uuid-786af0e1-131f-40ad-8cf1-3aa53df66ef9" d="M53.42,50.9c0-.34.19-.64.49-.82-.2-.09-.39-.38-.39-.72,0-.54.44-.92,1.09-.92s1.09.38,1.09.92c0,.35-.18.61-.39.72.29.16.49.48.49.82,0,.57-.48,1.02-1.19,1.02s-1.19-.44-1.19-1.02ZM55.18,50.86c0-.3-.24-.53-.57-.53s-.57.23-.57.53c0,.32.24.53.57.53s.57-.21.57-.53ZM55.09,49.4c0-.25-.18-.42-.49-.42s-.49.17-.49.42.18.43.49.43.49-.17.49-.43Z"></path></g><g><circle class="uuid-0e97e7a4-0468-47bf-bc06-a74d68f34b57" cx="94.75" cy="52.51" r="3.5"></circle><path class="uuid-786af0e1-131f-40ad-8cf1-3aa53df66ef9" d="M96.06,51.96c0,.27-.1.53-.28.77l-1.1,1.45h-.75l.82-1.04h-.04c-.62,0-1.16-.49-1.16-1.19,0-.66.53-1.18,1.25-1.18s1.26.54,1.26,1.21ZM94.17,51.97c0,.35.26.62.63.62s.65-.28.65-.63-.26-.62-.64-.62-.64.27-.64.62Z"></path></g><g><circle class="uuid-0e97e7a4-0468-47bf-bc06-a74d68f34b57" cx="108.55" cy="46.29" r="3.5"></circle><g><path class="uuid-786af0e1-131f-40ad-8cf1-3aa53df66ef9" d="M106.07,47.35h.93v-2.07l-.83.19v-.59l1.45-.33v2.8h.85v.59h-2.41v-.59Z"></path><path class="uuid-786af0e1-131f-40ad-8cf1-3aa53df66ef9" d="M108.76,46.79v-1.04c0-.73.54-1.23,1.23-1.23s1.23.49,1.23,1.23v1.04c0,.73-.53,1.23-1.23,1.23s-1.23-.49-1.23-1.23ZM110.6,46.77v-.99c0-.4-.23-.66-.61-.66s-.61.25-.61.66v.99c0,.4.23.65.61.65s.61-.25.61-.65Z"></path></g></g><g><circle class="uuid-0e97e7a4-0468-47bf-bc06-a74d68f34b57" cx="121.12" cy="39.92" r="3.5"></circle><g><path class="uuid-786af0e1-131f-40ad-8cf1-3aa53df66ef9" d="M118.65,40.99h.93v-2.07l-.83.19v-.59l1.45-.33v2.8h.85v.59h-2.41v-.59Z"></path><path class="uuid-786af0e1-131f-40ad-8cf1-3aa53df66ef9" d="M121.4,40.99h.93v-2.07l-.83.19v-.59l1.45-.33v2.8h.85v.59h-2.41v-.59Z"></path></g></g><g><circle class="uuid-0e97e7a4-0468-47bf-bc06-a74d68f34b57" cx="123.65" cy="20.28" r="3.5"></circle><g><path class="uuid-786af0e1-131f-40ad-8cf1-3aa53df66ef9" d="M121.18,21.35h.93v-2.07l-.83.19v-.59l1.45-.33v2.8h.85v.59h-2.41v-.59Z"></path><path class="uuid-786af0e1-131f-40ad-8cf1-3aa53df66ef9" d="M125.59,19.54c0-.24-.18-.42-.49-.42s-.55.18-.72.48l-.51-.32c.25-.48.68-.75,1.23-.75.67,0,1.1.4,1.1.98,0,1.02-1.1,1.11-1.49,1.86h1.56v.58h-2.35v-.47c.52-1.17,1.68-1.3,1.68-1.94Z"></path></g></g><g><circle class="uuid-0e97e7a4-0468-47bf-bc06-a74d68f34b57" cx="203.4" cy="55.17" r="3.48"></circle><g><path class="uuid-786af0e1-131f-40ad-8cf1-3aa53df66ef9" d="M200.94,56.23h.93v-2.06l-.83.19v-.59l1.45-.32v2.78h.85v.59h-2.39v-.59Z"></path><path class="uuid-786af0e1-131f-40ad-8cf1-3aa53df66ef9" d="M203.56,56.19l.47-.28c.17.28.39.43.74.43s.63-.2.63-.51c0-.29-.24-.52-.56-.52h-.4v-.5h.4c.29,0,.46-.16.46-.42s-.2-.42-.53-.42c-.3,0-.52.13-.69.41l-.47-.28c.26-.44.66-.68,1.21-.68.64,0,1.08.4,1.08.93,0,.34-.19.61-.41.71.31.15.51.47.51.81,0,.57-.48,1.01-1.23,1.01-.56,0-.98-.26-1.22-.7Z"></path></g></g><g><circle class="uuid-0e97e7a4-0468-47bf-bc06-a74d68f34b57" cx="189.36" cy="79.7" r="3.48"></circle><g><path class="uuid-786af0e1-131f-40ad-8cf1-3aa53df66ef9" d="M186.89,80.76h.93v-2.06l-.83.19v-.59l1.45-.32v2.78h.85v.59h-2.39v-.59Z"></path><path class="uuid-786af0e1-131f-40ad-8cf1-3aa53df66ef9" d="M189.5,80.16l.92-2.13h.64l-.89,2.06h.84v-.77h.62v.77h.48v.58h-.48v.69h-.62v-.69h-1.51v-.5Z"></path></g></g><g><g><line class="uuid-b9816970-210a-4a12-99f9-3e1c2acd2ed5" x1="123.18" y1="80.9" x2="123.03" y2="72.13"></line><rect class="uuid-73108d8c-62bc-466c-861b-3a1f130dfb45" x="122.74" y="72.13" width=".73" height="8.78" transform="translate(-1.32 2.17) rotate(-1)"></rect></g><g><path class="uuid-9d0d817f-c529-4fc2-9a8d-c97132e5e386" d="M129.38,79.63h-11.01l-.03.03v8.72h11.04v-8.76Z"></path><g><path class="uuid-b9816970-210a-4a12-99f9-3e1c2acd2ed5" d="M121.59,82.4c.09-.19.23-.33.42-.42.19-.09.42-.14.71-.14h1.98v.83h-1.92c-.11,0-.2.01-.26.04-.06.03-.11.08-.14.14-.03.07-.04.15-.04.26v.32h2.27v.83h-2.27v1.59h-.89v-2.74c0-.29.05-.52.14-.71Z"></path><path class="uuid-b9816970-210a-4a12-99f9-3e1c2acd2ed5" d="M128.26,85.85h-1.67c-.29,0-.53-.05-.72-.14-.19-.09-.33-.23-.42-.42-.09-.19-.14-.43-.14-.72v-2.74h.89v2.74c0,.11.01.2.04.26.03.07.07.11.14.14.07.03.15.04.26.04h1.61v.83Z"></path></g><g><g><rect class="uuid-08b11958-3dbe-49d7-9592-10b004cd3dec" x="119.22" y="82.55" width=".88" height="5.84"></rect><rect x="119.22" y="83.52" width=".88" height=".97"></rect><rect x="119.22" y="85.47" width=".88" height=".97"></rect><rect x="119.22" y="87.41" width=".88" height=".97"></rect><rect class="uuid-08b11958-3dbe-49d7-9592-10b004cd3dec" x="118.34" y="82.55" width=".88" height="5.84"></rect><rect x="118.34" y="82.55" width=".88" height=".97"></rect><rect x="118.34" y="84.49" width=".88" height=".97"></rect><rect x="118.34" y="86.44" width=".88" height=".97"></rect></g><g><rect class="uuid-08b11958-3dbe-49d7-9592-10b004cd3dec" x="119.22" y="79.63" width=".88" height="2.92"></rect><rect x="119.22" y="79.63" width=".88" height=".97"></rect><rect x="119.22" y="81.57" width=".88" height=".97"></rect><rect class="uuid-08b11958-3dbe-49d7-9592-10b004cd3dec" x="118.34" y="79.63" width=".88" height="2.92"></rect><rect x="118.34" y="80.6" width=".88" height=".97"></rect></g></g></g></g><g><rect class="uuid-73108d8c-62bc-466c-861b-3a1f130dfb45" x="150.48" y="35.21" width="12.72" height=".72" transform="translate(70.06 170.97) rotate(-70.12)"></rect><g><path class="uuid-9d0d817f-c529-4fc2-9a8d-c97132e5e386" d="M163.55,23.16h-10.86l-.03.03v8.9h10.89v-8.93Z"></path><g><path class="uuid-b9816970-210a-4a12-99f9-3e1c2acd2ed5" d="M154.34,28.64h1.17v-2.33h-1.17v-.82h3.22v.82h-1.17v2.33h1.17v.82h-3.22v-.82Z"></path><path class="uuid-b9816970-210a-4a12-99f9-3e1c2acd2ed5" d="M158.74,29.31c-.21-.1-.37-.24-.48-.43-.11-.18-.16-.4-.16-.66v-.51h.89v.43c0,.16.05.28.14.37s.22.13.38.13h1.02c.15,0,.26-.03.34-.1.08-.06.12-.16.12-.29,0-.12-.04-.21-.12-.27-.08-.06-.19-.09-.33-.09h-1.1v-.82h1.06c.14,0,.25-.03.33-.1.08-.07.12-.16.12-.29,0-.12-.04-.21-.12-.27s-.19-.09-.33-.09h-.99c-.16,0-.28.04-.38.13s-.14.21-.14.37v.26h-.88v-.34c0-.25.05-.47.17-.66.11-.18.27-.33.48-.43s.46-.15.76-.15h1.01c.26,0,.5.04.69.13.2.09.35.21.46.38.11.17.16.36.16.59,0,.2-.04.37-.13.52-.09.15-.23.27-.42.37.21.1.36.22.45.36.09.14.14.32.14.54s-.05.42-.16.58-.26.29-.46.38c-.2.09-.44.13-.71.13h-1.02c-.3,0-.56-.05-.77-.15Z"></path></g></g></g><g><rect class="uuid-73108d8c-62bc-466c-861b-3a1f130dfb45" x="43.55" y="57.53" width=".72" height="12.12" transform="translate(-15.63 14.33) rotate(-15.77)"></rect><path class="uuid-9d0d817f-c529-4fc2-9a8d-c97132e5e386" d="M49.48,65.16h-10.07l-.03.03v7.87h10.1v-7.9Z"></path><g><path class="uuid-b9816970-210a-4a12-99f9-3e1c2acd2ed5" d="M40.68,70.18h1.17v-2.33h-1.17v-.82h3.22v.82h-1.17v2.33h1.17v.82h-3.22v-.82Z"></path><path class="uuid-b9816970-210a-4a12-99f9-3e1c2acd2ed5" d="M44.99,70.87c-.18-.09-.32-.21-.41-.36-.09-.15-.14-.33-.14-.54,0-.29.09-.54.26-.73.18-.19.48-.33.9-.41l1.26-.26c.12-.02.21-.05.28-.08s.11-.07.14-.11c.03-.04.05-.1.05-.18,0-.11-.04-.2-.13-.25-.08-.06-.22-.08-.41-.08h-.91c-.17,0-.3.04-.39.13-.09.08-.13.21-.13.37v.15h-.88v-.23c0-.26.05-.48.16-.66s.27-.33.48-.42c.21-.1.47-.15.77-.15h.87c.47,0,.82.1,1.07.3.25.2.37.48.37.85,0,.22-.04.4-.11.55s-.18.27-.33.37-.34.16-.57.21l-1.49.3c-.13.03-.23.07-.29.12-.06.05-.1.12-.1.2s.03.15.09.2.15.07.27.07h2.51v.82h-2.55c-.25,0-.47-.04-.65-.13Z"></path></g></g><g><polygon class="uuid-73108d8c-62bc-466c-861b-3a1f130dfb45" points="81.71 9.65 80.99 22.45 80.4 22.32 81.12 9.53 81.71 9.65"></polygon><path class="uuid-9d0d817f-c529-4fc2-9a8d-c97132e5e386" d="M86.34,2.91h-10.06l-.03.03v8.69h10.09V2.91Z"></path><g><path class="uuid-b9816970-210a-4a12-99f9-3e1c2acd2ed5" d="M77.94,8.39h1.17v-2.33h-1.17v-.82h3.22v.82h-1.17v2.33h1.17v.82h-3.22v-.82Z"></path><path class="uuid-b9816970-210a-4a12-99f9-3e1c2acd2ed5" d="M81.77,8.39h1.48v-2.09c0-.07-.02-.13-.05-.17s-.08-.06-.16-.06c-.04,0-.08,0-.13.02-.05.01-.1.03-.17.06l-.88.28v-.83l.8-.29c.12-.04.23-.08.34-.1.11-.02.21-.04.32-.04.17,0,.31.04.43.11.12.07.22.18.28.31s.09.29.09.47v2.31h1.3v.82h-3.67v-.82Z"></path></g></g><g><polygon class="uuid-b9816970-210a-4a12-99f9-3e1c2acd2ed5" points="65.28 82.38 64.56 82.34 64.55 72.25 65.28 72.3 65.28 82.38"></polygon><g><path class="uuid-8bbbd679-07e8-4723-9a1d-a001686aeaa7" d="M69.35,79.52h-8.56l-.03.03v7.33h8.58v-7.36Z"></path><path class="uuid-28ecfcef-1db8-4c78-8d04-847eaaa29a1c" d="M63.1,84.52h2.67c.14,0,.24-.03.32-.09s.12-.15.12-.27c0-.11-.03-.19-.1-.24s-.17-.11-.31-.15l-1.68-.44c-.38-.09-.67-.25-.85-.47-.18-.22-.27-.51-.27-.87,0-.26.06-.5.19-.7s.3-.37.54-.49.5-.17.82-.17h2.56v1.01h-2.56c-.14,0-.25.03-.33.09-.08.06-.12.15-.12.26s.03.2.1.25c.06.06.17.11.31.15l1.67.44c.39.09.68.25.86.47.18.22.27.51.27.87,0,.27-.06.5-.19.71-.12.21-.3.37-.53.48-.23.12-.51.17-.82.17h-2.67v-1.01Z"></path></g></g></svg>