<svg xmlns="http://www.w3.org/2000/svg" id="uuid-50a647fe-717f-49c8-a36d-eace8d6c24c2" version="1.1" viewBox="0 0 210 151"><defs><style> .st0 { fill: none; } .st1 { fill: #323232; } .st2 { fill: #444; } .st3 { fill: #e6e6e6; } .st4 { fill: #f6f6f6; } .st5 { font-family: MotoGPText-Bold, 'MotoGP Text'; font-size: 5.2px; font-weight: 700; } .st5, .st6 { fill: #c6c6c6; } .st7 { fill: #606060; } .st8 { fill: #a0a0a0; } .st9 { fill: #fafafa; } .st10 { fill: red; } .st11 { fill: #ededed; } </style></defs><path class="st7" d="M20.5,18.8c-1.3-1.1-2.6-2-3.7-2.8-1.6-1.1-2.9-2.1-3.8-3.1-.9-1.2-1.2-2.6-.7-4.2,1.2-3.9,6.4-7.6,8-8.1,3.6-1.2,6.4,2.4,8.4,5.1.7,1,1.4,1.9,2,2.4l-1,1.1c-.7-.6-1.4-1.6-2.2-2.6-1.9-2.6-4.1-5.5-6.7-4.6-1.2.4-6.1,3.8-7.1,7.2s-.2,2.1.4,2.9c.7.9,2,1.8,3.4,2.9,1.1.8,2.5,1.7,3.8,2.9l-.9,1.1h0Z"></path><path class="st8" d="M196.1,140.5c-.1,0-.3,0-.4,0,0,0-.4,0-1.1,0-3.3,0-13.4-.3-26-.8-23-.8-52.8-2.2-64.3-4.2-.2,0-19.6-3.6-32.1-10.2-7.1-3.7-13.1-14.9-15.6-19.7-2.4-4.4-4-7.2-5.3-8.2-1-.7-1.8-.5-4,0-.2,0-.4.1-.7.2-2.6.7-4.4,1.1-6.2-.3-1.5-1.1-2.8-3.3-5.4-7.7-.4-.7-.8-1.4-1.3-2.2-1-1.8-2-3.4-2.8-4.9-3-5.4-5.3-9.3-9.7-12.7l-.3-.2c-9.9-7.5-16.4-12.5-15.4-20,.7-5.6,3.7-7.9,6.1-8.9,4.1-1.6,9.7-.4,13.9,3.1,3.4,2.8,9.8,8.2,16.1,16,1.2,1.5,2.4,3.2,3.7,4.9,5,6.7,11.2,15,15.8,13.5,2.2-.7,3.7-2.1,4.5-3.9,1.2-3.2.2-8.1-2.8-13.5-3.7-6.5-10.5-13.2-15-17.6-1-1-1.8-1.8-2.6-2.5-4.9-5-20-18.4-24.2-21.9-.8-.7-2.1-2.1-2.2-4.2,0-1.8.8-3.6,2.6-5.4,5.1-5,7.8-2.8,11.4.4.4.3.7.6,1.1,1,.2.1,1.4,1.2,3.5,3,55.7,47.2,70,59,72.1,60.5.2.1.4.3.6.5,2,1.6,6.1,5,11.3-.2,4.1-4.1,11.5-1.5,18.1.9,2,.7,3.8,1.3,5.5,1.8,3,.8,25.6,7.9,29.2,9.6,1.9.9,3.5,3.2,4,5.7.6,3-.3,6.1-2.6,8.7-5.8,6.6-7.5,9.1-5.5,13.1,1.7,3.4,3.7,4.1,8.3,5.5,2.6.8,8.8,2.6,17.4,5.1.3,0,.4.1.4.1.4.1.7.2,1.1.3,3.2.9,5.1,1.7,3.6,7.5l-.2.7c-1.6,5.8-2,7.1-4.6,7.1h0ZM168.6,137.6c12.5.4,22.6.7,25.9.8.7,0,1.1,0,1.1,0,1.1,0,1.1,0,1.3-.4.4-.7.9-2.4,1.7-5.2l.2-.7c.6-2,.7-3.3.3-3.9-.3-.5-1.2-.7-2.4-1.1-.4,0-.7-.2-1.1-.3,0,0-.1,0-.4-.1-8.7-2.5-14.9-4.3-17.5-5.1-4.6-1.5-7.5-2.3-9.5-6.5-2.6-5.3,0-8.8,5.8-15.4,2.4-2.7,2.5-5.3,2.1-6.9-.4-2.2-1.8-3.7-2.9-4.2-3.2-1.5-25.2-8.5-28.8-9.4-1.8-.5-3.6-1.2-5.6-1.9-6-2.1-12.8-4.6-16-1.3-6.5,6.6-12.2,1.9-14.1.4-.2-.2-.4-.3-.5-.4-3.2-2.3-27.5-22.7-72.2-60.6-2.1-1.8-3.4-2.9-3.5-3-.4-.3-.8-.7-1.1-1-3.7-3.1-4.9-4.2-8.6-.5-1.4,1.4-2,2.6-2,3.8,0,1.3.9,2.3,1.5,2.7,4.2,3.6,19.4,17,24.3,22.1.7.7,1.5,1.5,2.5,2.5,4.6,4.5,11.5,11.3,15.3,18,3.4,6,4.5,11.4,3,15.2-1,2.5-2.9,4.2-5.8,5.2-.6.2-1.2.3-1.8.3-5.5,0-11.2-7.7-16.3-14.5-1.3-1.8-2.5-3.4-3.7-4.8-6.2-7.7-12.5-12.9-15.8-15.7-3.6-3-8.4-4.2-11.8-2.8-2.7,1.1-4.3,3.5-4.8,7.2-.8,6.3,5,10.8,14.6,18.1l.3.2c4.8,3.6,7,7.7,10.2,13.3.9,1.5,1.8,3.1,2.8,4.9.5.8.9,1.5,1.3,2.2,2.4,4,3.7,6.2,4.8,7.1.9.7,1.9.6,4.4,0,.2,0,.4-.1.7-.2,2.3-.6,4-1.1,5.8.3,1.7,1.2,3.3,4,5.9,8.9,2.5,4.6,8.2,15.4,14.8,18.8,12.2,6.4,31.3,10,31.5,10,11.4,2,41.1,3.4,64,4.2h0Z"></path><g><circle class="st2" cx="85.4" cy="136.5" r="3.6"></circle><path class="st6" d="M84.3,137.6h.9v-2.1l-.8.2v-.6l1.5-.3v2.9h.9v.6h-2.4v-.6h0Z"></path></g><g><circle class="st2" cx="62.9" cy="125.1" r="3.6"></circle><path class="st6" d="M63.4,124.3c0-.2-.2-.4-.5-.4s-.6.2-.7.5l-.5-.3c.3-.5.7-.8,1.2-.8s1.1.4,1.1,1c0,1-1.1,1.1-1.5,1.9h1.6v.6h-2.4v-.5c.5-1.2,1.7-1.3,1.7-2h0Z"></path></g><g><circle class="st2" cx="53.2" cy="89.7" r="3.6"></circle><path class="st6" d="M52,90.7l.5-.3c.2.3.4.4.8.4s.7-.2.7-.5-.2-.5-.6-.5h-.4v-.5h.4c.3,0,.5-.2.5-.4s-.2-.4-.5-.4-.5.1-.7.4l-.5-.3c.3-.4.7-.7,1.2-.7s1.1.4,1.1.9-.2.6-.4.7c.3.2.5.5.5.8,0,.6-.5,1-1.3,1s-1-.3-1.2-.7h0Z"></path></g><g><circle class="st2" cx="38.9" cy="103.1" r="3.6"></circle><path class="st6" d="M37.7,103.6l.9-2.2h.7l-.9,2.1h.9v-.8h.6v.8h.5v.6h-.5v.7h-.6v-.7h-1.5v-.5h0Z"></path></g><g><circle class="st2" cx="21.3" cy="78" r="3.6"></circle><path class="st6" d="M20.1,79l.5-.3c.1.3.4.4.7.4s.6-.2.6-.6-.2-.6-.7-.6-.5,0-.6.3l-.4-.3.3-1.7h1.8v.6h-1.3v.6c0,0,.1,0,.3,0,.8,0,1.2.5,1.2,1.1s-.5,1.2-1.3,1.2-1-.2-1.2-.7h0Z"></path></g><g><circle class="st2" cx="3.5" cy="39.9" r="3.5"></circle><path class="st6" d="M2.3,40.4c0-.3.1-.5.3-.8l1.1-1.5h.8l-.8,1.1h0c.6,0,1.2.5,1.2,1.2s-.5,1.2-1.3,1.2-1.3-.5-1.3-1.2ZM4.3,40.4c0-.4-.3-.6-.6-.6s-.7.3-.7.6.3.6.6.6.7-.3.7-.6Z"></path></g><g><circle class="st2" cx="67.2" cy="84.2" r="3.6"></circle><path class="st6" d="M67.7,83.1h-1.7v-.6h2.4v.5l-1.4,2.9h-.7l1.4-2.8h0Z"></path></g><g><circle class="st2" cx="117.3" cy="85" r="3.6"></circle><path class="st6" d="M118.6,84.4c0,.3-.1.5-.3.8l-1.1,1.5h-.8l.8-1.1h0c-.6,0-1.2-.5-1.2-1.2s.5-1.2,1.3-1.2,1.3.6,1.3,1.2h0ZM116.7,84.4c0,.4.3.6.6.6s.7-.3.7-.6-.3-.6-.7-.6-.7.3-.7.6Z"></path></g><g><circle class="st2" cx="127.3" cy="66.6" r="3.6"></circle><g><path class="st6" d="M124.8,67.7h.9v-2.1l-.8.2v-.6l1.5-.3v2.8h.9v.6h-2.4v-.6h0Z"></path><path class="st6" d="M127.5,67.1v-1.1c0-.8.5-1.2,1.3-1.2s1.2.5,1.2,1.2v1.1c0,.8-.5,1.2-1.2,1.2s-1.2-.5-1.3-1.2ZM129.4,67.1v-1c0-.4-.2-.7-.6-.7s-.6.3-.6.7v1c0,.4.2.7.6.7s.6-.2.6-.7Z"></path></g></g><g><circle class="st2" cx="184" cy="93.2" r="3.6"></circle><g><path class="st6" d="M181.5,94.3h.9v-2.1l-.9.2v-.6l1.5-.3v2.8h.9v.6h-2.4v-.6h0Z"></path><path class="st6" d="M184.3,94.3h.9v-2.1l-.9.2v-.6l1.5-.3v2.8h.9v.6h-2.4v-.6h0Z"></path></g></g><g><circle class="st2" cx="176.1" cy="112.8" r="3.6"></circle><g><path class="st6" d="M173.6,113.9h.9v-2.1l-.9.2v-.6l1.5-.3v2.8h.9v.6h-2.4v-.6h0Z"></path><path class="st6" d="M178.1,112.1c0-.2-.2-.4-.5-.4s-.6.2-.7.5l-.5-.3c.3-.5.7-.8,1.2-.8s1.1.4,1.1,1c0,1-1.1,1.1-1.5,1.9h1.6v.6h-2.4v-.5c.5-1.2,1.7-1.3,1.7-2h0Z"></path></g></g><g><circle class="st2" cx="206.4" cy="125.3" r="3.6"></circle><g><path class="st6" d="M203.9,126.4h.9v-2.1l-.9.2v-.6l1.5-.3v2.8h.9v.6h-2.4v-.6h0Z"></path><path class="st6" d="M206.6,126.4l.5-.3c.2.3.4.4.8.4s.6-.2.6-.5-.2-.5-.6-.5h-.4v-.5h.4c.3,0,.5-.2.5-.4s-.2-.4-.5-.4-.5.1-.7.4l-.5-.3c.3-.4.7-.7,1.2-.7s1.1.4,1.1.9-.2.6-.4.7c.3.2.5.5.5.8,0,.6-.5,1-1.3,1s-1-.3-1.2-.7h0Z"></path></g></g><g><circle class="st2" cx="202.1" cy="144.1" r="3.6"></circle><g><path class="st6" d="M199.6,145.2h.9v-2.1l-.9.2v-.6l1.5-.3v2.9h.9v.6h-2.4v-.6h0Z"></path><path class="st6" d="M202.3,144.6l.9-2.2h.6l-.9,2.1h.9v-.8h.6v.8h.5v.6h-.5v.7h-.6v-.7h-1.5v-.5h0Z"></path></g></g><g><rect class="st11" x="105.8" y="136.1" width="9.4" height=".7" transform="translate(-36.2 233) rotate(-84.3)"></rect><g><path class="st4" d="M114,139.9h-8.7v7.4h8.7v-7.4Z"></path><path class="st1" d="M107.7,145h2.7c.1,0,.2,0,.3,0s.1-.1.1-.3,0-.2,0-.2c0,0-.2-.1-.3-.1l-1.7-.4c-.4,0-.7-.2-.9-.5s-.3-.5-.3-.9,0-.5.2-.7c.1-.2.3-.4.5-.5s.5-.2.8-.2h2.6v1h-2.6c-.1,0-.3,0-.3,0,0,0-.1.1-.1.3s0,.2,0,.2c0,0,.2.1.3.1l1.7.4c.4.1.7.2.9.5s.3.5.3.9,0,.5-.2.7c-.1.2-.3.4-.5.5-.2.1-.5.2-.8.2h-2.7v-1h0Z"></path></g></g><g><g><line class="st0" x1="168.8" y1="144.4" x2="168.8" y2="135.6"></line><rect class="st3" x="164.4" y="139.6" width="8.8" height=".7" transform="translate(28.3 308.4) rotate(-89.8)"></rect></g><g><path class="st10" d="M173.2,141.8h-11v8.7h11v-8.7h0Z"></path><g><path class="st11" d="M165.5,144.6c0-.2.2-.3.4-.4s.4-.1.7-.1h2v.8h-1.9c-.1,0-.2,0-.3,0s-.1,0-.1.1,0,.1,0,.3v.3h2.3v.8h-2.3v1.6h-.9v-2.7c0-.3,0-.5.1-.7h0Z"></path><path class="st11" d="M172.1,148.1h-1.7c-.3,0-.5,0-.7-.1-.2,0-.3-.2-.4-.4s-.1-.4-.1-.7v-2.7h.9v2.7c0,.1,0,.2,0,.3,0,0,0,.1.1.1,0,0,.1,0,.3,0h1.6v.8h0Z"></path></g><g><g><rect class="st9" x="163.1" y="144.8" width=".9" height="5.8"></rect><rect x="163.1" y="145.7" width=".9" height="1"></rect><rect x="163.1" y="147.7" width=".9" height="1"></rect><rect x="163.1" y="149.6" width=".9" height="1"></rect><rect class="st9" x="162.2" y="144.8" width=".9" height="5.8"></rect><rect x="162.2" y="144.8" width=".9" height="1"></rect><rect x="162.2" y="146.7" width=".9" height="1"></rect><rect x="162.2" y="148.6" width=".9" height="1"></rect></g><g><rect class="st9" x="163.1" y="141.8" width=".9" height="2.9"></rect><rect x="163.1" y="141.8" width=".9" height="1"></rect><rect x="163.1" y="143.8" width=".9" height="1"></rect><rect class="st9" x="162.2" y="141.8" width=".9" height="2.9"></rect><rect x="162.2" y="142.8" width=".9" height="1"></rect></g></g></g></g><g><rect class="st3" x="132" y="72.2" width="12.8" height=".7" transform="translate(26 181.2) rotate(-71.7)"></rect><g><path class="st10" d="M146,62.7h-11v9h11v-9h0Z"></path><g><path class="st11" d="M136.8,68.2h1.2v-2.3h-1.2v-.8h3.2v.8h-1.2v2.3h1.2v.8h-3.2v-.8Z"></path><path class="st11" d="M141.2,68.9c-.2,0-.4-.2-.5-.4-.1-.2-.2-.4-.2-.7v-.5h.9v.4c0,.2,0,.3.1.4,0,0,.2.1.4.1h1c.1,0,.3,0,.3,0,0,0,.1-.2.1-.3s0-.2-.1-.3c0,0-.2,0-.3,0h-1.1v-.8h1.1c.1,0,.3,0,.3,0,0,0,.1-.2.1-.3s0-.2-.1-.3c0,0-.2,0-.3,0h-1c-.2,0-.3,0-.4.1,0,0-.1.2-.1.4v.3h-.9v-.3c0-.3,0-.5.2-.7s.3-.3.5-.4c.2,0,.5-.2.8-.2h1c.3,0,.5,0,.7.1s.4.2.5.4.2.4.2.6,0,.4-.1.5c0,.2-.2.3-.4.4.2,0,.4.2.5.4,0,.1.1.3.1.5s0,.4-.2.6-.3.3-.5.4-.4.1-.7.1h-1c-.3,0-.6,0-.8-.2Z"></path></g></g></g><g><rect class="st3" x="48.5" y="52.3" width="12.2" height=".7" transform="translate(-21.2 56) rotate(-46.5)"></rect><path class="st10" d="M57,54.7h-10.2v8h10.2v-8Z"></path><g><path class="st11" d="M48.2,59.7h1.2v-2.3h-1.2v-.8h3.2v.8h-1.2v2.3h1.2v.8h-3.2v-.8Z"></path><path class="st11" d="M52.5,60.4c-.2,0-.3-.2-.4-.4,0-.2-.1-.3-.1-.5,0-.3,0-.5.3-.7s.5-.3.9-.4l1.3-.3c.1,0,.2,0,.3,0,0,0,.1,0,.1-.1,0,0,0-.1,0-.2,0-.1,0-.2-.1-.2s-.2,0-.4,0h-.9c-.2,0-.3,0-.4.1s-.1.2-.1.4v.2h-.9v-.2c0-.3,0-.5.2-.7.1-.2.3-.3.5-.4.2,0,.5-.2.8-.2h.9c.5,0,.8,0,1.1.3s.4.5.4.9,0,.4-.1.6-.2.3-.3.4c-.2,0-.3.2-.6.2l-1.5.3c-.1,0-.2,0-.3.1,0,0,0,.1,0,.2s0,.2,0,.2c0,0,.2,0,.3,0h2.5v.8h-2.6c-.2,0-.5,0-.7-.1h0Z"></path></g></g><g><polygon class="st3" points="22.1 63.8 13.9 77.2 13.4 76.7 21.6 63.3 22.1 63.8"></polygon><path class="st10" d="M15.8,73.7H5.7v8.8h10.2v-8.8Z"></path><g><path class="st11" d="M7.4,79.2h1.2v-2.3h-1.2v-.8h3.2v.8h-1.2v2.3h1.2v.8h-3.2v-.8Z"></path><path class="st11" d="M11.2,79.2h1.5v-2.1c0,0,0-.1,0-.2s0,0-.2,0,0,0-.1,0c0,0-.1,0-.2,0l-.9.3v-.8l.8-.3c.1,0,.2,0,.3,0s.2,0,.3,0c.2,0,.3,0,.4.1s.2.2.3.3,0,.3,0,.5v2.3h1.3v.8h-3.7v-.8h0Z"></path></g></g><g><circle class="st2" cx="7.5" cy="7.7" r="3.5"></circle><text class="st5" transform="translate(6.1 9.4)"><tspan x="0" y="0">8</tspan></text></g></svg>