<svg xmlns="http://www.w3.org/2000/svg" id="uuid-a1af98c4-cf8b-4e42-88b0-e50d53d41bd3" version="1.1" viewBox="0 0 210 158"><defs><style> .st0 { fill: none; } .st1 { fill: #323232; } .st2 { fill: #444; } .st3 { fill: #e6e6e6; } .st4 { fill: #f6f6f6; } .st5 { fill: #606060; } .st6 { fill: #a0a0a0; } .st7 { fill: #c6c6c6; } .st8 { fill: #fafafa; } .st9 { fill: red; } .st10 { fill: #ededed; } </style></defs><path class="st5" d="M53.2,70.7c-1.7,0-3.4-.7-4.7-2-1.7-1.7-3-8.1-4.3-15.7-.5-2.5-.8-4.7-1.1-5.7l1.3-.4c.3,1.1.7,3.2,1.2,5.8,1,5.3,2.4,13.4,3.9,15,1.4,1.4,3.3,1.9,5.1,1.4,1.7-.5,3-1.8,3.4-3.2.7-2.9,1.1-9.6,1.1-19.8v-.3h1.4v.3c0,3.8,0,15.5-1.1,20.1-.5,2-2.2,3.6-4.3,4.2-.6.2-1.2.2-1.8.2h0Z"></path><path class="st6" d="M33.9,146.4c-4.7,0-8.9-4-9.4-8.9-.7-7.2,4.4-9.9,8.6-12.1.7-.3,1.3-.7,1.9-1,6-3.4,10.5-6,15.1-8.7,2.5-1.5,4.2-4.3,4.2-7,0-2.8-1.7-5.2-4.9-7-2.6-1.5-5.4-2.8-8.2-4.1-3.7-1.8-7.2-3.4-9.8-5.3-2.1-1.5-4.3-3.3-5.5-7l-8.1-23.6-6.5-18.8c-.1-.3-1-2.7-1.1-5.4-.2-4,1.2-6.9,4.2-8.3,6.2-2.9,13.5-4.9,14.1-5.1.4-.1,3.7-1.1,6.8.4,2,1,3.4,2.7,4.2,5.2,2.5,7.4,8.6,27.4,8.7,27.5h0c.3,1.2,1.5,4.4,3.6,4.8,1.4.3,2.5.2,3.2-.4,1-.7,1.6-2.2,1.9-4.5.6-4.5,3.7-28.5,4.7-35.7,0-.2.2-1.3.3-2.8h0c.7-6,4.1-9.3,9.4-9.3h.1c6.5,0,9.3,5.7,10,9.1,1.3,6.8,3.5,12.4,5.9,15.5,2.7,3.4,5.3,5.6,7.3,7.3,3.3,2.8,5.7,4.8,5.5,9.5,0,1.6-1.2,5.4-2.5,9.8-.2.8-.5,1.6-.7,2.2-.4,1.6-.8,2.6-1,3.5-.4,1.4-.6,2.2-1,3.6-1.3,4.7-.8,7.4,1.5,9.1,2.2,1.6,5.2.9,7.4.4h.4c5.7-1.5,10.9-3.8,15.4-6.9,7-4.9,12.4-11.8,16.1-20.7,2-4.7,4.1-10.2,5.9-15,2.5-6.6,4.5-11.8,5.7-13.7,2.7-4.5,6.8-7.1,11.1-7.2,6.9-.1,8.7,0,11,0,1.2,0,2.5,0,4.8,0,4.1,0,7.3,2,9.3,5.8,1.3,2.6,4.8,8.7,7.3,13.1.8,1.5,1.6,2.8,2.1,3.7,1.4,2.4,1.7,5.3.9,7.9-.8,2.6-6,8.7-7.1,9.8-5.5,6.2-15.1,18.1-17.9,21.6-1.5,1.8-2,4.2-1.5,6.4.3,1.2.8,2.5,1.6,3.7,1.4,2.1,4.1,6.1,7.1,10.8,7.1,10.8,16.9,25.7,20,29.9,2.3,3.1,2.9,4.9,3.1,6.9.2,1.6.2,4.5-2.1,7-2.1,2.4-5.7,3.6-10.6,3.6h-.4c-3,0-10.7,0-20.5,0-4.8,0-10.1,0-15.7,0-8,0-23.5,0-37.2,0h-14.5c-8,0-12,0-13.2,0-17.9,0-33.9,0-43.4,0h-7.8,0ZM31.5,25.8c-1.4,0-2.4.3-2.4.4h0c0,0-7.6,2.1-13.8,5-5.4,2.5-2.1,11.2-2.1,11.2h0s6.6,18.8,6.6,18.8l8.1,23.6c1,3.1,2.7,4.6,4.7,6,2.5,1.8,5.9,3.4,9.5,5.1,2.8,1.3,5.6,2.7,8.3,4.2,3.8,2.1,5.8,5.2,5.9,8.7,0,3.4-2.1,6.9-5.2,8.7-4.6,2.7-9.1,5.3-15.1,8.7-.6.4-1.3.7-2,1.1-4.2,2.2-8.1,4.2-7.5,10.1.4,3.9,3.7,7.1,7.4,7.1h7.8c9.5,0,25.5,0,43.4,0,1.2,0,5.2,0,13.2,0h14.5c13.7,0,29.2,0,37.2-.1,5.6,0,10.9,0,15.7,0,9.8,0,17.5,0,20.5,0,4.5,0,7.7-.9,9.5-3,1.7-1.9,1.7-4.2,1.6-5.5-.2-1.5-.5-2.9-2.7-6-3.1-4.3-12.9-19.1-20.1-30-3.1-4.7-5.8-8.7-7.1-10.8-.9-1.4-1.6-2.9-1.9-4.3-.6-2.8,0-5.8,1.9-8.1,2.8-3.5,12.4-15.4,18-21.7,2.9-3.2,6.2-7.5,6.7-9.1.6-2.1.4-4.5-.8-6.4-.5-.9-1.3-2.2-2.1-3.7-2.5-4.5-6-10.6-7.3-13.2-1.6-3.1-4.2-4.8-7.5-4.8s-3.6,0-4.8,0c-2.3,0-4.1,0-11,0-3.6,0-7.1,2.4-9.4,6.3-1.1,1.8-3.1,7.2-5.5,13.4-1.8,4.8-3.9,10.3-5.9,15-3.9,9.2-9.5,16.4-16.8,21.5-4.7,3.3-10.2,5.7-16.1,7.1h-.4c-2.4.7-6.1,1.6-9.1-.6-3.8-2.8-3.3-7.2-2.2-11.2.4-1.5.6-2.3,1-3.7.2-.8.6-1.9,1-3.5.2-.6.4-1.4.7-2.2.9-3.1,2.3-7.8,2.4-9.3.2-3.8-1.6-5.3-4.8-8-2.1-1.8-4.7-4-7.6-7.6-2.7-3.3-5-9.3-6.3-16.4,0-.3-1.6-7.5-8.2-7.5-5.4,0-7.1,4.1-7.5,7.5h0c-.2,1.6-.3,2.6-.3,2.8-.9,7.2-4.1,31.2-4.7,35.7-.4,2.9-1.3,4.8-2.7,5.8-1.2.9-2.8,1.1-4.7.7-3.6-.7-5-5.7-5.1-6.2-.2-.8-6.2-20.2-8.6-27.5-.7-2-1.7-3.4-3.2-4.1-1-.5-2-.6-2.9-.6h0Z"></path><g><circle class="st2" cx="19.8" cy="141.3" r="3.4"></circle><path class="st7" d="M18.7,142.4h.9v-2l-.8.2v-.6l1.4-.3v2.7h.8v.6h-2.3v-.6h0Z"></path></g><g><circle class="st2" cx="48.6" cy="109.8" r="3.4"></circle><path class="st7" d="M47.9,110.3c.2-.2.4-.3.6-.5.2-.1.3-.3.4-.4s.1-.2.1-.3,0-.2-.1-.3c0,0-.2-.1-.3-.1s-.3,0-.4.1c-.1,0-.2.2-.3.3l-.5-.3c.1-.2.3-.4.5-.5s.4-.2.7-.2.4,0,.6.1.3.2.4.3c0,.1.1.3.1.5s0,.3,0,.5c0,.1-.2.2-.3.3,0,0-.2.2-.4.3-.2.1-.3.2-.4.3-.1,0-.2.2-.3.3h1.5v.6h-2.3v-.4c.1-.3.3-.5.4-.7h0Z"></path></g><g><circle class="st2" cx="24.5" cy="93.4" r="3.4"></circle><path class="st7" d="M23.8,94.9c-.2-.1-.4-.3-.5-.5l.5-.3c0,.1.2.2.3.3s.3.1.4.1.3,0,.4-.1.2-.2.2-.4,0-.3-.2-.4-.2-.2-.4-.2h-.4v-.5h.4c.1,0,.2,0,.3-.1s.1-.2.1-.3,0-.2-.1-.3-.2-.1-.4-.1c-.3,0-.5.1-.7.4l-.5-.3c.3-.4.7-.7,1.2-.7s.4,0,.5.1.3.2.4.3c0,.1.1.3.1.5s0,.3-.1.4-.2.2-.3.3c.1,0,.3.2.4.3s.1.3.1.5,0,.4-.1.5c-.1.2-.2.3-.4.3-.2,0-.4.1-.6.1s-.5,0-.7-.2h0Z"></path></g><g><circle class="st2" cx="5.9" cy="30.9" r="3.4"></circle><path class="st7" d="M4.7,31.3l.9-2.1h.6l-.9,2h.8v-.8h.6v.8h.5v.6h-.5v.7h-.6v-.7h-1.5s0-.5,0-.5Z"></path></g><g><circle class="st2" cx="39.8" cy="21" r="3.4"></circle><path class="st7" d="M39.2,22.5c-.2-.1-.4-.3-.5-.5l.5-.3c.2.3.4.4.7.4s.3,0,.5-.1.2-.2.2-.4,0-.3-.2-.4-.3-.2-.5-.2-.4,0-.6.3l-.4-.3.3-1.6h1.7v.6h-1.3v.6s.2,0,.3,0c.2,0,.4,0,.6.1s.3.2.4.4c0,.2.1.4.1.6s0,.4-.2.6-.2.3-.4.4-.4.1-.7.1-.5,0-.7-.2h0Z"></path></g><g><circle class="st2" cx="52.2" cy="51.9" r="3.4"></circle><path class="st7" d="M51.6,53.4c-.2-.1-.3-.2-.4-.4-.1-.2-.2-.4-.2-.6s0-.5.3-.7l1.1-1.4h.7l-.8,1h0c.2,0,.4,0,.6.2.2,0,.3.2.4.4,0,.2.2.4.2.6s0,.4-.2.6-.2.3-.4.4-.4.2-.6.2-.4,0-.6-.2h0ZM52.7,52.8c.1-.1.2-.3.2-.4s0-.3-.2-.4c-.1-.1-.3-.2-.4-.2s-.3,0-.5.2-.2.3-.2.4,0,.3.2.4.3.2.5.2.3,0,.5-.2h0Z"></path></g><g><circle class="st2" cx="72.2" cy="4.1" r="3.4"></circle><path class="st7" d="M72.7,3h-1.7v-.6h2.3v.5l-1.3,2.8h-.6l1.3-2.7h0Z"></path></g><g><circle class="st2" cx="91.4" cy="30.3" r="3.4"></circle><path class="st7" d="M90.8,31.9c-.2,0-.3-.2-.4-.4,0-.1-.2-.3-.2-.5s0-.3.1-.5.2-.2.3-.3c0,0-.2-.1-.3-.3,0-.1-.1-.3-.1-.4s0-.3.1-.5c0-.1.2-.2.4-.3.2,0,.3-.1.6-.1s.4,0,.6.1.3.2.4.3c0,.1.1.3.1.5s0,.3-.1.4-.2.2-.3.3c.1,0,.3.2.3.3s.1.3.1.5,0,.4-.2.5-.2.3-.4.4-.4.1-.6.1-.4,0-.6-.1h0ZM91.8,31.3c0,0,.2-.2.2-.4s0-.3-.2-.4-.2-.1-.4-.1-.3,0-.4.1-.2.2-.2.4,0,.3.2.4.2.1.4.1.3,0,.4-.1h0ZM91.8,29.9c0,0,.1-.2.1-.3s0-.2-.1-.3c0,0-.2-.1-.3-.1s-.3,0-.3.1c0,0-.1.2-.1.3s0,.2.1.3c0,0,.2.1.3.1s.3,0,.3-.1Z"></path></g><g><circle class="st2" cx="105.4" cy="47.7" r="3.4"></circle><path class="st7" d="M106.1,46.1c.2.1.3.2.4.4s.2.4.2.6,0,.5-.3.7l-1.1,1.4h-.7l.8-1h0c-.2,0-.4,0-.6-.2s-.3-.2-.4-.4c0-.2-.2-.4-.2-.6s0-.4.2-.6.2-.3.4-.4.4-.2.6-.2.4,0,.6.2h0ZM105,46.7c-.1.1-.2.3-.2.4s0,.3.2.4.3.2.4.2.3,0,.4-.2c.1-.1.2-.3.2-.4s0-.3-.2-.4c-.1-.1-.3-.2-.4-.2s-.3,0-.4.2h0Z"></path></g><g><circle class="st2" cx="99.7" cy="74.6" r="3.4"></circle><g><path class="st7" d="M97.3,75.6h.9v-2l-.8.2v-.6l1.4-.3v2.7h.8v.6h-2.3v-.6h0Z"></path><path class="st7" d="M100.5,76.1c-.2,0-.3-.2-.4-.4s-.2-.4-.2-.6v-1c0-.2,0-.4.2-.6,0-.2.2-.3.4-.4s.4-.2.6-.2.4,0,.6.2.3.2.4.4c0,.2.2.4.2.6v1c0,.2,0,.4-.2.6,0,.2-.2.3-.4.4s-.4.2-.6.2-.4,0-.6-.2ZM101.5,75.5c.1-.1.2-.3.2-.5v-1c0-.2,0-.3-.2-.5-.1-.1-.2-.2-.4-.2s-.3,0-.4.2c-.1.1-.2.3-.2.5v1c0,.2,0,.3.2.5s.2.2.4.2.3,0,.4-.2Z"></path></g></g><g><circle class="st2" cx="120.4" cy="65.1" r="3.4"></circle><g><path class="st7" d="M118,66.1h.9v-2l-.8.2v-.6l1.4-.3v2.7h.8v.6h-2.3v-.6h0Z"></path><path class="st7" d="M120.6,66.1h.9v-2l-.8.2v-.6l1.4-.3v2.7h.8v.6h-2.3v-.6h0Z"></path></g></g><g><circle class="st2" cx="146.6" cy="15.6" r="3.4"></circle><g><path class="st7" d="M144.2,16.6h.9v-2l-.8.2v-.6l1.4-.3v2.7h.8v.6h-2.3v-.6h0Z"></path><path class="st7" d="M147.3,16.1c.2-.2.4-.3.6-.5.2-.1.3-.3.4-.4,0-.1.1-.2.1-.3s0-.2-.1-.3c0,0-.2-.1-.4-.1s-.3,0-.4.1-.2.2-.3.3l-.5-.3c.1-.2.3-.4.5-.5.2-.1.4-.2.7-.2s.4,0,.6.1.3.2.4.3c0,.1.1.3.1.5s0,.3-.1.5c0,.1-.1.2-.3.3-.1,0-.2.2-.4.3-.2.1-.3.2-.4.3-.1,0-.2.2-.3.3h1.5v.6h-2.3v-.5c.1-.3.3-.5.4-.6h0Z"></path></g></g><g><circle class="st2" cx="181.9" cy="12.2" r="3.4"></circle><g><path class="st7" d="M179.5,13.2h.9v-2l-.8.2v-.6l1.4-.3v2.7h.8v.6h-2.3v-.6h0Z"></path><path class="st7" d="M182.5,13.7c-.2-.1-.4-.3-.5-.5l.5-.3c0,.1.2.2.3.3s.3.1.4.1.3,0,.4-.1.2-.2.2-.4,0-.3-.2-.4c-.1-.1-.2-.1-.4-.1h-.4v-.5h.4c.1,0,.2,0,.3-.1s.1-.2.1-.3,0-.2-.1-.3-.2-.1-.4-.1c-.3,0-.5.1-.7.4l-.5-.3c.3-.4.7-.7,1.2-.7s.4,0,.6.1.3.2.4.3c0,.1.1.3.1.5s0,.3-.1.4-.2.2-.3.3c.1,0,.3.2.4.3s.1.3.1.5,0,.4-.1.5c-.1.1-.2.3-.4.4-.2,0-.4.1-.6.1s-.5,0-.7-.2h0Z"></path></g></g><g><circle class="st2" cx="199.8" cy="44.2" r="3.4"></circle><g><path class="st7" d="M197.4,45.2h.9v-2l-.8.2v-.6l1.4-.3v2.7h.8v.6h-2.3v-.6h0Z"></path><path class="st7" d="M199.9,44.7l.9-2.1h.6l-.9,2h.8v-.8h.6v.8h.5v.6h-.5v.7h-.6v-.7h-1.5s0-.5,0-.5Z"></path></g></g><g><circle class="st2" cx="172.6" cy="82.8" r="3.4"></circle><g><path class="st7" d="M170.2,83.8h.9v-2l-.8.2v-.6l1.4-.3v2.7h.8v.6h-2.3v-.6h0Z"></path><path class="st7" d="M173.3,84.3c-.2-.1-.4-.3-.5-.5l.5-.3c.1.3.4.4.7.4s.3,0,.4-.2.2-.2.2-.4,0-.3-.2-.4-.3-.2-.5-.2-.4,0-.6.3l-.4-.3.3-1.6h1.7v.6h-1.3v.6c0,0,.2,0,.3,0,.2,0,.4,0,.6.1s.3.2.4.4c0,.2.1.3.1.6s0,.4-.1.6-.2.3-.4.4-.4.2-.7.2-.5,0-.7-.2h0Z"></path></g></g><g><circle class="st2" cx="204.1" cy="141.5" r="3.4"></circle><g><path class="st7" d="M201.7,142.6h.9v-2l-.8.2v-.6l1.4-.3v2.7h.8v.6h-2.3v-.6h0Z"></path><path class="st7" d="M204.9,143.1c-.2-.1-.3-.2-.4-.4s-.2-.4-.2-.6,0-.5.3-.7l1.1-1.4h.7l-.8,1h0c.2,0,.4,0,.6.1.2.1.3.2.4.4.1.2.1.4.1.6s0,.4-.2.6-.2.3-.4.4c-.2.1-.4.1-.6.1s-.4,0-.6-.2h0ZM205.9,142.5c.1-.1.2-.3.2-.4s0-.3-.2-.4c-.1-.1-.3-.2-.4-.2s-.3,0-.4.2-.2.3-.2.4,0,.3.2.4.3.2.4.2.3,0,.4-.2h0Z"></path></g></g><g><rect class="st3" x="76.9" y="19" width="12.2" height=".7" transform="translate(-1.9 26.4) rotate(-17.9)"></rect><path class="st9" d="M95.4,14h-10.2v8h10.2s0-8,0-8Z"></path><g><path class="st10" d="M86.5,19.1h1.2v-2.4h-1.2v-.8h3.2v.8h-1.2v2.4h1.2v.8h-3.2v-.8Z"></path><path class="st10" d="M90.8,19.8c-.2,0-.3-.2-.4-.4,0-.2-.1-.3-.1-.5,0-.3,0-.5.3-.7.2-.2.5-.3.9-.4l1.3-.3c.1,0,.2,0,.3,0s.1,0,.1-.1c0,0,0-.1,0-.2,0-.1,0-.2-.1-.2s-.2,0-.4,0h-.9c-.2,0-.3,0-.4.1,0,0-.1.2-.1.4h0c0,.1-.9.1-.9.1v-.2c0-.3,0-.5.2-.7.1-.2.3-.3.5-.4.2-.1.5-.1.8-.1h.9c.5,0,.8.1,1.1.3s.4.5.4.9,0,.4-.1.6-.2.3-.3.4c-.2,0-.3.2-.6.2l-1.5.3c-.1,0-.2,0-.3.1,0,0,0,.1,0,.2s0,.1,0,.2c0,0,.2,0,.3,0h2.5v.8h-2.6c-.2,0-.5,0-.7-.1h0Z"></path></g></g><g><rect class="st3" x="178.3" y="21" width="12.8" height=".7" transform="translate(18.4 104.5) rotate(-33.2)"></rect><g><path class="st9" d="M198.1,15h-11v9h11v-9h0Z"></path><g><path class="st10" d="M188.8,20.5h1.2v-2.4h-1.2v-.8h3.2v.8h-1.2v2.4h1.2v.8h-3.2v-.8Z"></path><path class="st10" d="M193.3,21.2c-.2-.1-.4-.2-.5-.4-.1-.2-.2-.4-.2-.7v-.5h.9v.4c0,.2,0,.3.1.4s.2.1.4.1h1c.1,0,.3,0,.3-.1,0,0,.1-.2.1-.3s0-.2-.1-.3c0,0-.2,0-.3,0h-1.1v-.8h1.1c.1,0,.3,0,.3-.1,0,0,.1-.2.1-.3s0-.2-.1-.3c0,0-.2,0-.3,0h-1c-.2,0-.3,0-.4.1,0,0-.1.2-.1.4v.3h-.9v-.3c0-.3,0-.5.2-.7s.3-.3.5-.4c.2-.1.5-.1.8-.1h1c.3,0,.5,0,.7.1s.4.2.5.4.2.4.2.6,0,.4-.1.5c0,.1-.2.3-.4.4.2.1.4.2.5.4,0,.1.1.3.1.5s0,.4-.2.6-.3.3-.5.4c-.2,0-.4.1-.7.1h-1c-.3,0-.6,0-.8-.1Z"></path></g></g></g><g><rect class="st3" x="13.3" y="66.7" width="11.5" height=".7" transform="translate(-23.5 11.9) rotate(-21.8)"></rect><path class="st9" d="M16.6,64.7H6.4v8.8h10.2v-8.8Z"></path><g><path class="st10" d="M8.1,70.2h1.2v-2.3h-1.2v-.8h3.2v.8h-1.2v2.3h1.2v.8h-3.2v-.8Z"></path><path class="st10" d="M12,70.2h1.5v-2.1c0,0,0-.1,0-.2s0,0-.2,0,0,0-.1,0c0,0-.1,0-.2,0l-.9.3v-.8l.8-.3c.1,0,.2,0,.3,0s.2,0,.3,0c.2,0,.3,0,.4.1s.2.2.3.3,0,.3,0,.5v2.3h1.3v.8h-3.7v-.8h0Z"></path></g></g><g><g><line class="st0" x1="138.2" y1="151.4" x2="138.3" y2="142.7"></line><rect class="st3" x="133.9" y="146.7" width="8.8" height=".7" transform="translate(-10 284) rotate(-89.5)"></rect></g><g><path class="st9" d="M143.2,148.8h-11v8.7h11v-8.7h0Z"></path><g><path class="st10" d="M135.4,151.5c0-.2.2-.3.4-.4.2,0,.4-.1.7-.1h2v.8h-1.9c-.1,0-.2,0-.3,0,0,0-.1,0-.1.1s0,.1,0,.3v.3h2.3v.8h-2.3v1.6h-.9v-2.7c0-.3,0-.5.1-.7Z"></path><path class="st10" d="M142,155h-1.7c-.3,0-.5,0-.7-.1-.2,0-.3-.2-.4-.4s-.1-.4-.1-.7v-2.7h.9v2.7c0,.1,0,.2,0,.3,0,0,0,.1.1.1s.2,0,.3,0h1.6v.8h0Z"></path></g><g><g><rect class="st8" x="133" y="151.7" width=".9" height="5.8"></rect><rect x="133" y="152.6" width=".9" height="1"></rect><rect x="133" y="154.6" width=".9" height="1"></rect><rect x="133" y="156.5" width=".9" height="1"></rect><rect class="st8" x="132.1" y="151.7" width=".9" height="5.8"></rect><rect x="132.1" y="151.7" width=".9" height="1"></rect><rect x="132.1" y="153.6" width=".9" height="1"></rect><rect x="132.1" y="155.6" width=".9" height="1"></rect></g><g><rect class="st8" x="133" y="148.8" width=".9" height="2.9"></rect><rect x="133" y="148.8" width=".9" height="1"></rect><rect x="133" y="150.7" width=".9" height="1"></rect><rect class="st8" x="132.1" y="148.8" width=".9" height="2.9"></rect><rect x="132.1" y="149.7" width=".9" height="1"></rect></g></g></g></g><g><rect class="st10" x="73.7" y="142.4" width=".7" height="9.4" transform="translate(-1.4 .7) rotate(-.6)"></rect><g><path class="st4" d="M79,148.7h-8.7v7.4h8.7v-7.4Z"></path><path class="st1" d="M72.7,153.7h2.7c.1,0,.2,0,.3,0s.1-.1.1-.3,0-.2,0-.2c0,0-.2-.1-.3-.1l-1.7-.4c-.4,0-.7-.2-.9-.5-.2-.2-.3-.5-.3-.9s0-.5.2-.7c.1-.2.3-.4.5-.5.2-.1.5-.2.8-.2h2.6v1h-2.6c-.1,0-.3,0-.3,0,0,0-.1.1-.1.3s0,.2,0,.2c0,0,.2.1.3.1l1.7.4c.4,0,.7.2.9.5s.3.5.3.9,0,.5-.2.7c-.1.2-.3.4-.5.5-.2.1-.5.2-.8.2h-2.7v-1h0Z"></path></g></g></svg>