<?xml version="1.0" encoding="UTF-8"?>
<svg id="uuid-21279c7a-5c5a-4a65-8bd0-25d03dd2f6c7" data-name="Capa 1" xmlns="http://www.w3.org/2000/svg" viewBox="0 0 210 210">
  <defs>
    <style>
      .uuid-ce3d6442-8147-4129-849e-3577e6c55203 {
        fill: #323232;
      }

      .uuid-bc559c11-49ba-4705-b274-b65a424d88bf {
        fill: #444;
      }

      .uuid-f0217877-9061-4bf5-9c44-8d8cfec70a60 {
        fill: #e6e6e6;
      }

      .uuid-4fd75a0b-4911-409c-8009-bdb951b82be5 {
        fill: #f6f6f6;
      }

      .uuid-ea54ae3c-3f8a-4483-9154-0005eab71400 {
        fill: #606060;
      }

      .uuid-38c890f6-ed07-410a-8dcb-f9f0d47fc102 {
        fill: #a0a0a0;
      }

      .uuid-3f62b161-0cc6-4b5c-b610-98da52bfe7a3 {
        fill: #c6c6c6;
      }

      .uuid-aee63b3f-93e9-4e85-b5aa-cc109c64fce1 {
        fill: #fafafa;
      }

      .uuid-4ee02151-e847-47d9-9862-731ce7db22dd {
        fill: red;
      }

      .uuid-3b987821-562a-4048-b5a1-f28446ae1b26 {
        fill: #ededed;
      }
    </style>
  </defs>
  <path class="uuid-ea54ae3c-3f8a-4483-9154-0005eab71400" d="M155.91,99.64c-1.05-1.75-3.22-4.24-5.32-6.64-2.12-2.42-3.94-4.51-4.6-5.79-.76-1.5-.81-3.43-.12-5.45.95-2.78,3.09-5.31,5.46-6.43,3.01-1.43,7.83.64,11.71,2.31,2.02.87,3.93,1.69,4.89,1.7l-.02,1.42c-1.25-.02-3.19-.85-5.44-1.82-3.61-1.55-8.1-3.48-10.54-2.33-2.01.95-3.91,3.2-4.73,5.6-.56,1.65-.55,3.2.04,4.35.58,1.13,2.43,3.25,4.4,5.5,2.14,2.45,4.36,4.99,5.47,6.84l-1.22.73Z"/>
  <path class="uuid-38c890f6-ed07-410a-8dcb-f9f0d47fc102" d="M33.18,201.49c-1.52,0-3.01-.28-4.06-1.12-3.25-2.6-2.8-5.85-1.84-8.98.96-3.11,9.21-32.16,9.29-32.45.06-.22,1.59-5.81,6.42-6.73,3.67-.7,20.05-3.02,20.71-3.09,1.77-.2,6.37-1.55,8.47-4.26,2.63-3.39,2.88-5.37,3.49-10.17v-.11c.64-4.91,4.81-31.85,4.85-32.12l.02-.08s.99-4.43-1.77-7.48c-2.18-2.41-3.95-2.96-8.67-4.43l-.64-.2c-4.52-1.41-10.36-3.9-15.4-10.67-3.52-4.73-7.99-16.66-10.13-22.4-.3-.79-.54-1.44-.71-1.89-1.36-3.53-3.68-9.36-3.7-9.42v-.02c-.15-.37-3.43-9.25-2.83-15.41.59-6,1.83-9.49,5.34-14.93,3.86-5.99,7.64-8.14,8.65-8.43,3.21-.9,5.73.49,6.9,3.79,1.1,3.11-.05,6.26-1.16,9.3-.18.49-.36.98-.53,1.47-1.18,3.42-3.68,10.23-3.7,10.29-.55,1.49-1.09,4.25-.19,5.29,1.27,1.47,2.13,1.5,5.97,1.38h.38c1.81-.07,8.58-.26,20.12-.6l11.31-.32,80.21-2.69c.68-.09,6.44-.68,9.14,3.19,2.61,3.74,2.14,5.69,1.27,9.22l-.02.09c-.68,2.78-6.35,29.21-6.41,29.48-.03.14-.76,3.37-3.84,4.14-1.79.45-3.98.08-5.44-.41-5.04-1.7-6.56.02-8.66,2.4-.14.16-.27.31-.41.47-1.51,1.69-2.3,2.64-2.3,4.11,0,5.39,6.05,13.23,9.3,17.44.43.56.82,1.06,1.14,1.49.66.89,1.41,1.8,2.2,2.76,2.71,3.31,5.27,6.44,5.18,9.11-.11,3.53-5.79,29.75-5.84,29.99-.04.16-.07.32-.11.48-.35,1.5-.78,3.37-2.13,4.72-1.61,1.61-20.03,14.78-24.59,17.96-1.9,1.33-3.82,2.19-5.69,2.56-2.37.46-4.89-.07-7.8-.68-3.15-.66-6.72-1.42-10.79-.98-3.73.4-8.26,2.53-11.54,5.44-2.34,2.07-6.36,5.13-12.16,7.9-5.66,2.71-46.66,13.39-51.31,14.6-.19.05-.37.1-.56.15-1.17.34-3.32.87-5.41.87ZM82.52,102.79c-.17,1.11-4.22,27.23-4.82,32.03v.11c-.63,4.88-.94,7.33-3.91,11.16-2.52,3.25-7.73,4.8-9.85,5.03-.69.08-16.96,2.38-20.56,3.07-3.57.68-4.84,5.24-4.85,5.28-.34,1.21-8.35,29.38-9.31,32.51-1.07,3.48-.76,5.26,1.17,6.81,1.34,1.07,4.8.71,7.63-.11.21-.06.41-.12.62-.17,16.83-4.37,46.49-12.34,50.95-14.47,5.59-2.68,9.44-5.61,11.69-7.59,2.85-2.52,7.67-5.4,12.67-5.93,4.39-.47,8.13.32,11.42,1.01,2.7.57,5.03,1.06,6.99.68,1.59-.31,3.25-1.06,4.92-2.23,6.13-4.28,23.03-16.45,24.32-17.73.94-.94,1.29-2.43,1.59-3.75.04-.17.08-.34.12-.5.34-1.5,5.69-26.46,5.79-29.58.06-1.92-2.48-5.02-4.73-7.77-.77-.94-1.56-1.91-2.25-2.83-.32-.42-.7-.92-1.13-1.47-1.73-2.24-4.09-5.3-6.08-8.61-2.45-4.07-3.64-7.36-3.64-10.07,0-2.31,1.31-3.77,2.82-5.46.14-.15.27-.3.4-.46,2.22-2.51,4.51-5.11,10.83-2.98,1.13.38,2.94.71,4.3.36,1.85-.46,2.34-2.52,2.36-2.61.23-1.08,5.74-26.72,6.42-29.53l.02-.09c.82-3.34,1.12-4.59-.96-7.58-2.1-3.01-7.21-2.34-7.26-2.34h-.11s-80.26,2.7-80.26,2.7l-11.31.32-.03-1.01.03,1.01c-11.54.33-18.31.53-20.11.58h-.38c-3.86.13-5.62.19-7.56-2.07-1.96-2.28-.36-6.8-.17-7.31.02-.06,2.51-6.86,3.69-10.25.17-.5.36-1,.54-1.5,1.03-2.83,2.01-5.51,1.15-7.93-.81-2.3-2.27-3.12-4.44-2.51-.63.18-3.95,2.08-7.5,7.57-3.69,5.72-4.53,8.95-5.03,14.03-.55,5.62,2.58,14.16,2.7,14.49.11.28,2.37,5.96,3.7,9.43.18.46.42,1.11.72,1.91,1.95,5.21,6.51,17.4,9.86,21.9,4.69,6.3,10.15,8.62,14.38,9.95l.64.2c4.82,1.5,7.03,2.19,9.57,5.01,3.36,3.71,2.37,8.71,2.25,9.26Z"/>
  <g>
    <circle class="uuid-bc559c11-49ba-4705-b274-b65a424d88bf" cx="184.46" cy="36.09" r="3.47"/>
    <path class="uuid-3f62b161-0cc6-4b5c-b610-98da52bfe7a3" d="M183.37,37.15h.93v-2.06l-.83.19v-.59l1.45-.32v2.78h.85v.59h-2.39v-.59Z"/>
  </g>
  <g>
    <circle class="uuid-bc559c11-49ba-4705-b274-b65a424d88bf" cx="174.29" cy="85.43" r="3.47"/>
    <path class="uuid-3f62b161-0cc6-4b5c-b610-98da52bfe7a3" d="M173.62,85.95c.17-.17.39-.35.64-.54.2-.15.35-.27.44-.37.09-.1.14-.22.14-.35,0-.12-.04-.22-.13-.3s-.2-.12-.35-.12-.29.04-.41.12c-.12.08-.23.2-.31.35l-.5-.32c.13-.24.29-.42.5-.55s.45-.19.72-.19c.22,0,.41.04.58.12.16.08.29.2.38.34.09.15.13.31.13.5s-.04.35-.11.49c-.07.14-.16.25-.26.35-.1.09-.24.2-.41.32-.18.13-.33.24-.43.34-.11.1-.2.21-.26.35h1.55v.58h-2.34v-.46c.12-.27.27-.49.44-.67Z"/>
  </g>
  <g>
    <circle class="uuid-bc559c11-49ba-4705-b274-b65a424d88bf" cx="158.41" cy="70.28" r="3.47"/>
    <path class="uuid-3f62b161-0cc6-4b5c-b610-98da52bfe7a3" d="M157.7,71.82c-.21-.12-.37-.29-.49-.52l.47-.28c.09.14.19.25.31.32.12.07.26.11.43.11.18,0,.33-.05.45-.14.12-.09.18-.22.18-.37s-.05-.27-.16-.37c-.11-.1-.24-.15-.4-.15h-.4v-.5h.4c.14,0,.26-.04.34-.11.08-.08.12-.18.12-.31s-.05-.23-.14-.31c-.09-.08-.22-.12-.39-.12-.29,0-.53.14-.69.41l-.47-.28c.27-.45.67-.68,1.21-.68.21,0,.4.04.56.12.16.08.29.19.38.33s.14.3.14.48c0,.17-.04.31-.12.44-.08.13-.18.22-.29.28.15.08.28.19.37.34.09.15.14.31.14.47,0,.19-.05.36-.15.52-.1.15-.25.27-.43.36-.19.09-.4.13-.64.13-.28,0-.52-.06-.73-.18Z"/>
  </g>
  <g>
    <circle class="uuid-bc559c11-49ba-4705-b274-b65a424d88bf" cx="158.84" cy="88.42" r="3.47"/>
    <path class="uuid-3f62b161-0cc6-4b5c-b610-98da52bfe7a3" d="M157.61,88.87l.92-2.13h.64l-.89,2.06h.84v-.77h.62v.77h.48v.58h-.48v.69h-.62v-.69h-1.51v-.5Z"/>
  </g>
  <g>
    <circle class="uuid-bc559c11-49ba-4705-b274-b65a424d88bf" cx="176.51" cy="116.33" r="3.47"/>
    <path class="uuid-3f62b161-0cc6-4b5c-b610-98da52bfe7a3" d="M175.81,117.87c-.21-.12-.37-.29-.48-.51l.51-.32c.15.28.38.42.69.42.19,0,.34-.05.46-.16.11-.1.17-.25.17-.42s-.06-.32-.17-.43c-.11-.11-.27-.16-.47-.16-.24,0-.44.09-.61.27l-.41-.26.32-1.63h1.78v.59h-1.31l-.12.63c.13-.06.27-.08.43-.08.24,0,.45.05.62.14.17.1.31.23.4.4.09.17.14.36.14.58s-.05.41-.15.59c-.1.17-.25.31-.44.41-.19.1-.42.15-.67.15s-.5-.06-.7-.18Z"/>
  </g>
  <g>
    <circle class="uuid-bc559c11-49ba-4705-b274-b65a424d88bf" cx="168.61" cy="155.56" r="3.47"/>
    <path class="uuid-3f62b161-0cc6-4b5c-b610-98da52bfe7a3" d="M168.04,157.11c-.19-.11-.34-.25-.45-.44-.11-.18-.17-.38-.17-.6,0-.26.09-.52.28-.76l1.09-1.44h.75l-.81,1.04h.04c.21,0,.4.05.57.15.18.1.32.24.42.42.1.18.16.38.16.61s-.05.41-.16.59c-.11.18-.26.32-.45.43s-.4.16-.63.16-.45-.05-.64-.16ZM169.13,156.51c.12-.12.17-.26.17-.44s-.06-.32-.18-.44-.27-.18-.45-.18-.33.06-.46.18c-.12.12-.18.27-.18.44s.06.32.18.43.27.18.46.18.34-.06.46-.18Z"/>
  </g>
  <g>
    <circle class="uuid-bc559c11-49ba-4705-b274-b65a424d88bf" cx="133.81" cy="179.67" r="3.47"/>
    <path class="uuid-3f62b161-0cc6-4b5c-b610-98da52bfe7a3" d="M134.33,178.58h-1.7v-.59h2.38v.5l-1.36,2.83h-.66l1.34-2.73Z"/>
  </g>
  <g>
    <circle class="uuid-bc559c11-49ba-4705-b274-b65a424d88bf" cx="115.03" cy="177.98" r="3.47"/>
    <path class="uuid-3f62b161-0cc6-4b5c-b610-98da52bfe7a3" d="M114.48,179.56c-.18-.09-.32-.21-.42-.37-.1-.15-.15-.33-.15-.51,0-.17.04-.32.13-.47.09-.14.21-.26.36-.35-.1-.05-.19-.14-.27-.27-.08-.13-.12-.28-.12-.44,0-.17.05-.33.14-.47.09-.14.22-.25.38-.33.16-.08.35-.12.56-.12s.4.04.56.12c.17.08.29.19.38.33s.14.29.14.47c0,.17-.04.31-.11.44-.07.13-.17.22-.28.28.15.08.27.19.35.34.09.15.13.31.13.47,0,.19-.05.36-.15.51-.1.15-.24.28-.42.37-.18.09-.38.13-.62.13s-.43-.04-.61-.13ZM115.5,179.02c.11-.1.16-.22.16-.38s-.05-.28-.16-.38c-.11-.1-.24-.15-.41-.15s-.3.05-.41.15c-.11.1-.16.23-.16.37,0,.16.05.28.16.38.11.1.24.14.41.14s.31-.05.41-.14ZM115.45,177.51c.08-.08.13-.18.13-.31s-.04-.23-.13-.31c-.09-.08-.2-.12-.36-.12s-.27.04-.35.12c-.08.08-.13.18-.13.31s.04.23.13.31c.09.08.2.12.35.12s.27-.04.36-.12Z"/>
  </g>
  <g>
    <circle class="uuid-bc559c11-49ba-4705-b274-b65a424d88bf" cx="93.55" cy="190.58" r="3.47"/>
    <path class="uuid-3f62b161-0cc6-4b5c-b610-98da52bfe7a3" d="M94.24,188.99c.19.11.34.25.45.44s.16.38.16.6c0,.26-.09.52-.28.76l-1.09,1.44h-.75l.81-1.04h-.04c-.21,0-.4-.05-.57-.15-.18-.1-.32-.24-.42-.42s-.16-.38-.16-.61.05-.41.16-.59c.11-.18.26-.32.45-.43s.4-.16.63-.16.45.05.64.16ZM93.15,189.6c-.12.12-.17.27-.17.44s.06.32.18.44.27.18.45.18.33-.06.46-.18c.12-.12.19-.27.19-.45s-.06-.32-.18-.43c-.12-.12-.27-.18-.46-.18s-.34.06-.46.18Z"/>
  </g>
  <g>
    <circle class="uuid-bc559c11-49ba-4705-b274-b65a424d88bf" cx="25.54" cy="204.7" r="3.47"/>
    <g>
      <path class="uuid-3f62b161-0cc6-4b5c-b610-98da52bfe7a3" d="M23.08,205.75h.93v-2.06l-.83.19v-.59l1.45-.32v2.78h.85v.59h-2.39v-.59Z"/>
      <path class="uuid-3f62b161-0cc6-4b5c-b610-98da52bfe7a3" d="M26.35,206.26c-.19-.1-.33-.25-.44-.43-.11-.19-.16-.4-.16-.63v-1.03c0-.24.05-.45.16-.63.11-.19.25-.33.44-.43.19-.1.39-.15.62-.15s.44.05.62.15c.19.1.33.25.44.43s.16.39.16.63v1.03c0,.24-.05.45-.16.63-.11.18-.25.33-.44.43-.18.1-.39.15-.62.15s-.43-.05-.62-.15ZM27.42,205.65c.11-.12.16-.27.16-.47v-.99c0-.2-.05-.36-.16-.48-.11-.12-.26-.17-.45-.17s-.34.06-.44.17c-.11.12-.16.28-.16.48v.99c0,.2.05.36.16.47.11.12.26.17.44.17s.34-.06.45-.17Z"/>
    </g>
  </g>
  <g>
    <circle class="uuid-bc559c11-49ba-4705-b274-b65a424d88bf" cx="36.56" cy="149.22" r="3.47"/>
    <g>
      <path class="uuid-3f62b161-0cc6-4b5c-b610-98da52bfe7a3" d="M34.1,150.28h.93v-2.06l-.83.19v-.59l1.45-.32v2.78h.85v.59h-2.39v-.59Z"/>
      <path class="uuid-3f62b161-0cc6-4b5c-b610-98da52bfe7a3" d="M36.84,150.28h.93v-2.06l-.83.19v-.59l1.45-.32v2.78h.85v.59h-2.39v-.59Z"/>
    </g>
  </g>
  <g>
    <circle class="uuid-bc559c11-49ba-4705-b274-b65a424d88bf" cx="66.4" cy="142.39" r="3.47"/>
    <g>
      <path class="uuid-3f62b161-0cc6-4b5c-b610-98da52bfe7a3" d="M63.94,143.44h.93v-2.06l-.83.19v-.59l1.45-.32v2.78h.85v.59h-2.39v-.59Z"/>
      <path class="uuid-3f62b161-0cc6-4b5c-b610-98da52bfe7a3" d="M67.1,142.9c.17-.17.39-.35.64-.54.2-.15.35-.27.44-.37.09-.1.14-.22.14-.35,0-.12-.04-.22-.13-.3s-.2-.12-.35-.12-.29.04-.41.12c-.12.08-.23.2-.31.35l-.5-.32c.13-.24.29-.42.5-.55s.45-.19.72-.19c.22,0,.41.04.58.12.16.08.29.2.38.34.09.15.13.31.13.5s-.04.35-.11.49c-.07.14-.16.25-.26.35-.1.09-.24.2-.41.32-.18.13-.33.24-.43.34-.11.1-.2.21-.26.35h1.55v.58h-2.34v-.46c.12-.27.27-.49.44-.67Z"/>
    </g>
  </g>
  <g>
    <circle class="uuid-bc559c11-49ba-4705-b274-b65a424d88bf" cx="75.01" cy="99.41" r="3.47"/>
    <g>
      <path class="uuid-3f62b161-0cc6-4b5c-b610-98da52bfe7a3" d="M72.55,100.47h.93v-2.06l-.83.19v-.59l1.45-.32v2.78h.85v.59h-2.39v-.59Z"/>
      <path class="uuid-3f62b161-0cc6-4b5c-b610-98da52bfe7a3" d="M75.67,100.95c-.21-.12-.37-.29-.49-.52l.47-.28c.09.14.19.25.31.32.12.07.26.11.43.11.18,0,.33-.05.45-.14.12-.09.18-.22.18-.37s-.05-.27-.16-.37c-.11-.1-.24-.15-.4-.15h-.4v-.5h.4c.14,0,.26-.04.34-.11.08-.08.12-.18.12-.31s-.05-.23-.14-.31c-.09-.08-.22-.12-.39-.12-.29,0-.53.14-.69.41l-.47-.28c.27-.45.67-.68,1.21-.68.21,0,.4.04.56.12.16.08.29.19.38.33s.14.3.14.48c0,.17-.04.31-.12.44-.08.13-.18.22-.29.28.15.08.28.19.37.34.09.15.14.31.14.47,0,.19-.05.36-.15.52-.1.15-.25.27-.43.36-.19.09-.4.13-.64.13-.28,0-.52-.06-.73-.18Z"/>
    </g>
  </g>
  <g>
    <circle class="uuid-bc559c11-49ba-4705-b274-b65a424d88bf" cx="52.49" cy="86.4" r="3.47"/>
    <g>
      <path class="uuid-3f62b161-0cc6-4b5c-b610-98da52bfe7a3" d="M50.03,87.45h.93v-2.06l-.83.19v-.59l1.45-.32v2.78h.85v.59h-2.39v-.59Z"/>
      <path class="uuid-3f62b161-0cc6-4b5c-b610-98da52bfe7a3" d="M52.63,86.85l.92-2.13h.64l-.89,2.06h.84v-.77h.62v.77h.48v.58h-.48v.69h-.62v-.69h-1.51v-.5Z"/>
    </g>
  </g>
  <g>
    <circle class="uuid-bc559c11-49ba-4705-b274-b65a424d88bf" cx="31.22" cy="35.52" r="3.47"/>
    <g>
      <path class="uuid-3f62b161-0cc6-4b5c-b610-98da52bfe7a3" d="M28.76,36.57h.93v-2.06l-.83.19v-.59l1.45-.32v2.78h.85v.59h-2.39v-.59Z"/>
      <path class="uuid-3f62b161-0cc6-4b5c-b610-98da52bfe7a3" d="M31.88,37.06c-.21-.12-.37-.29-.48-.51l.51-.32c.15.28.38.42.69.42.19,0,.34-.05.46-.16.11-.1.17-.25.17-.42s-.06-.32-.17-.43c-.11-.11-.27-.16-.47-.16-.24,0-.44.09-.61.27l-.41-.26.32-1.63h1.78v.59h-1.31l-.12.63c.13-.06.27-.08.43-.08.24,0,.45.05.62.14.17.1.31.23.4.4.09.17.14.36.14.58s-.05.41-.15.59c-.1.17-.25.31-.44.41-.19.1-.42.15-.67.15s-.5-.06-.7-.18Z"/>
    </g>
  </g>
  <g>
    <circle class="uuid-bc559c11-49ba-4705-b274-b65a424d88bf" cx="59.05" cy="3.47" r="3.47"/>
    <g>
      <path class="uuid-3f62b161-0cc6-4b5c-b610-98da52bfe7a3" d="M56.59,4.53h.93v-2.06l-.83.19v-.59l1.45-.32v2.78h.85v.59h-2.39v-.59Z"/>
      <path class="uuid-3f62b161-0cc6-4b5c-b610-98da52bfe7a3" d="M59.85,5.03c-.19-.11-.34-.25-.45-.44-.11-.18-.17-.38-.17-.6,0-.26.09-.52.28-.76l1.09-1.44h.75l-.81,1.04h.04c.21,0,.4.05.57.15.18.1.32.24.42.42.1.18.16.38.16.61s-.05.41-.16.59c-.11.18-.26.32-.45.43s-.4.16-.63.16-.45-.05-.64-.16ZM60.94,4.42c.12-.12.17-.26.17-.44s-.06-.32-.18-.44-.27-.18-.45-.18-.33.06-.46.18c-.12.12-.18.27-.18.44s.06.32.18.43.27.18.46.18.34-.06.46-.18Z"/>
    </g>
  </g>
  <g>
    <circle class="uuid-bc559c11-49ba-4705-b274-b65a424d88bf" cx="57.74" cy="33.01" r="3.47"/>
    <g>
      <path class="uuid-3f62b161-0cc6-4b5c-b610-98da52bfe7a3" d="M55.28,34.07h.93v-2.06l-.83.19v-.59l1.45-.32v2.78h.85v.59h-2.39v-.59Z"/>
      <path class="uuid-3f62b161-0cc6-4b5c-b610-98da52bfe7a3" d="M59.63,31.93h-1.7v-.59h2.38v.5l-1.36,2.83h-.66l1.34-2.73Z"/>
    </g>
  </g>
  <g>
    <rect class="uuid-f0217877-9061-4bf5-9c44-8d8cfec70a60" x="160.2" y="106.46" width="11.53" height=".73" transform="translate(-30.05 129.91) rotate(-39.48)"/>
    <path class="uuid-4ee02151-e847-47d9-9862-731ce7db22dd" d="M178.21,99.45h-10.14l-.03.03v8.76h10.17v-8.79Z"/>
    <g>
      <path class="uuid-3b987821-562a-4048-b5a1-f28446ae1b26" d="M169.74,104.97h1.17v-2.35h-1.17v-.83h3.24v.83h-1.18v2.35h1.18v.83h-3.24v-.83Z"/>
      <path class="uuid-3b987821-562a-4048-b5a1-f28446ae1b26" d="M173.6,104.97h1.49v-2.1c0-.07-.02-.13-.05-.17-.03-.04-.08-.06-.16-.06-.04,0-.08,0-.13.02-.05.01-.11.04-.17.06l-.89.29v-.83l.81-.29c.12-.04.23-.08.34-.1s.22-.04.32-.04c.17,0,.31.04.43.11.12.07.22.18.28.32s.09.29.09.47v2.33h1.32v.83h-3.7v-.83Z"/>
    </g>
  </g>
  <g>
    <rect class="uuid-3b987821-562a-4048-b5a1-f28446ae1b26" x="132.77" y="35.15" width="9.41" height=".73" transform="translate(101.2 172.79) rotate(-89.68)"/>
    <g>
      <path class="uuid-4fd75a0b-4911-409c-8009-bdb951b82be5" d="M141.6,25.5h-8.62l-.03.03v7.38h8.65v-7.41Z"/>
      <path class="uuid-ce3d6442-8147-4129-849e-3577e6c55203" d="M135.31,30.54h2.69c.14,0,.25-.03.33-.09.08-.06.12-.15.12-.27,0-.11-.03-.19-.1-.24-.07-.06-.17-.11-.31-.15l-1.69-.45c-.39-.09-.67-.25-.86-.47-.18-.22-.28-.52-.28-.88,0-.26.06-.5.19-.71.13-.21.31-.37.54-.49.23-.12.51-.18.83-.18h2.58v1.02h-2.58c-.14,0-.26.03-.33.09-.08.06-.12.15-.12.27s.03.2.1.25c.06.06.17.11.31.15l1.68.44c.39.09.68.25.86.48s.28.52.28.88c0,.27-.06.51-.19.71-.13.21-.31.37-.54.49-.23.12-.51.18-.83.18h-2.69v-1.02Z"/>
    </g>
  </g>
  <g>
    <g>
      <line class="uuid-3b987821-562a-4048-b5a1-f28446ae1b26" x1="78.47" y1="44.61" x2="78.43" y2="35.85"/>
      <rect class="uuid-f0217877-9061-4bf5-9c44-8d8cfec70a60" x="78.09" y="35.85" width=".73" height="8.76" transform="translate(-.2 .39) rotate(-.28)"/>
    </g>
    <g>
      <path class="uuid-4ee02151-e847-47d9-9862-731ce7db22dd" d="M83.43,42.84h-10.98l-.03.03v8.7h11.02v-8.74Z"/>
      <g>
        <path class="uuid-3b987821-562a-4048-b5a1-f28446ae1b26" d="M75.66,45.61c.09-.19.23-.33.42-.42.19-.09.42-.14.71-.14h1.98v.83h-1.92c-.11,0-.2.01-.26.04-.06.03-.11.08-.14.14-.03.06-.04.15-.04.26v.32h2.26v.83h-2.26v1.58h-.89v-2.73c0-.29.05-.52.14-.71Z"/>
        <path class="uuid-3b987821-562a-4048-b5a1-f28446ae1b26" d="M82.32,49.06h-1.67c-.29,0-.53-.05-.71-.14-.19-.09-.33-.23-.42-.42s-.14-.43-.14-.71v-2.73h.89v2.73c0,.11.01.2.04.26.03.07.07.11.14.14.07.03.15.04.26.04h1.61v.83Z"/>
      </g>
      <g>
        <g>
          <rect class="uuid-aee63b3f-93e9-4e85-b5aa-cc109c64fce1" x="73.29" y="45.76" width=".88" height="5.83"/>
          <rect x="73.29" y="46.73" width=".88" height=".97"/>
          <rect x="73.29" y="48.67" width=".88" height=".97"/>
          <rect x="73.29" y="50.61" width=".88" height=".97"/>
          <rect class="uuid-aee63b3f-93e9-4e85-b5aa-cc109c64fce1" x="72.42" y="45.76" width=".88" height="5.83"/>
          <rect x="72.42" y="45.76" width=".88" height=".97"/>
          <rect x="72.42" y="47.7" width=".88" height=".97"/>
          <rect x="72.42" y="49.64" width=".88" height=".97"/>
        </g>
        <g>
          <rect class="uuid-aee63b3f-93e9-4e85-b5aa-cc109c64fce1" x="73.29" y="42.84" width=".88" height="2.91"/>
          <rect x="73.29" y="42.84" width=".88" height=".97"/>
          <rect x="73.29" y="44.79" width=".88" height=".97"/>
          <rect class="uuid-aee63b3f-93e9-4e85-b5aa-cc109c64fce1" x="72.42" y="42.84" width=".88" height="2.91"/>
          <rect x="72.42" y="43.81" width=".88" height=".97"/>
        </g>
      </g>
    </g>
  </g>
  <g>
    <rect class="uuid-f0217877-9061-4bf5-9c44-8d8cfec70a60" x="78.12" y="110.22" width=".73" height="12.82" transform="translate(-50.44 172.67) rotate(-79.56)"/>
    <g>
      <path class="uuid-4ee02151-e847-47d9-9862-731ce7db22dd" d="M75.66,111.54h-10.94l-.03.03v8.96h10.97v-9Z"/>
      <g>
        <path class="uuid-3b987821-562a-4048-b5a1-f28446ae1b26" d="M66.37,117.06h1.17v-2.35h-1.17v-.83h3.24v.83h-1.18v2.35h1.18v.83h-3.24v-.83Z"/>
        <path class="uuid-3b987821-562a-4048-b5a1-f28446ae1b26" d="M70.81,117.73c-.21-.1-.38-.25-.49-.43-.11-.19-.17-.41-.17-.67v-.51h.9v.43c0,.16.05.28.14.37.09.09.22.13.38.13h1.03c.15,0,.26-.03.34-.1.08-.06.12-.16.12-.29,0-.12-.04-.21-.12-.28-.08-.06-.19-.09-.34-.09h-1.11v-.83h1.07c.14,0,.26-.03.34-.1.08-.06.12-.16.12-.29,0-.12-.04-.21-.12-.28-.08-.06-.19-.09-.34-.09h-1c-.16,0-.29.04-.38.13-.09.09-.14.21-.14.37v.26h-.89v-.34c0-.26.06-.48.17-.67s.27-.33.49-.43c.21-.1.47-.15.77-.15h1.01c.27,0,.5.04.7.13s.35.21.46.38c.11.17.16.36.16.59,0,.2-.04.38-.14.53-.09.15-.23.27-.42.37.21.1.37.22.46.37.09.14.14.32.14.54s-.05.42-.16.59c-.11.17-.27.29-.47.38-.2.09-.44.13-.71.13h-1.03c-.3,0-.56-.05-.77-.15Z"/>
      </g>
    </g>
  </g>
  <g>
    <rect class="uuid-f0217877-9061-4bf5-9c44-8d8cfec70a60" x="44.68" y="194.16" width=".73" height="12.21" transform="translate(-48.82 17.71) rotate(-14.53)"/>
    <path class="uuid-4ee02151-e847-47d9-9862-731ce7db22dd" d="M51.99,202.01h-10.14l-.03.03v7.93h10.17v-7.96Z"/>
    <g>
      <path class="uuid-3b987821-562a-4048-b5a1-f28446ae1b26" d="M43.12,207.06h1.17v-2.35h-1.17v-.83h3.24v.83h-1.18v2.35h1.18v.83h-3.24v-.83Z"/>
      <path class="uuid-3b987821-562a-4048-b5a1-f28446ae1b26" d="M47.46,207.76c-.18-.09-.32-.21-.42-.36-.09-.16-.14-.34-.14-.55,0-.3.09-.54.27-.73.18-.19.48-.33.9-.41l1.27-.27c.12-.02.21-.05.28-.08.07-.03.11-.07.14-.12.03-.04.05-.11.05-.18,0-.11-.04-.2-.13-.25s-.22-.08-.41-.08h-.92c-.17,0-.3.04-.39.13-.09.09-.13.21-.13.37v.15h-.89v-.24c0-.26.06-.48.17-.67.11-.18.27-.33.49-.43.21-.1.47-.15.78-.15h.88c.47,0,.83.1,1.08.3s.37.49.37.86c0,.22-.04.41-.11.56-.07.15-.18.27-.33.37-.15.09-.34.16-.58.21l-1.5.3c-.13.03-.23.07-.29.12-.07.05-.1.12-.1.2s.03.15.09.2c.06.04.15.07.27.07h2.53v.83h-2.57c-.25,0-.47-.04-.65-.13Z"/>
    </g>
  </g>
</svg>