<?xml version="1.0" encoding="UTF-8"?>
<svg id="uuid-d2f94d3e-6647-4fda-9ce4-5954aedbc6db" data-name="Capa 1" xmlns="http://www.w3.org/2000/svg" viewBox="0 0 210 210">
  <defs>
    <style>
      .uuid-30efc3b0-889f-4c64-b631-b80935fa7830 {
        fill: #323232;
      }

      .uuid-8b1af57d-a9f7-43b8-b1c0-56cde01b545f {
        fill: #444;
      }

      .uuid-c039cce0-9758-482e-b943-54f893ae37c0 {
        fill: #e6e6e6;
      }

      .uuid-d120d9e6-8122-4656-bb97-52c4aff5f032 {
        fill: #f6f6f6;
      }

      .uuid-7aa6b9b6-49bc-4234-92f3-9504fe6ffcc3 {
        fill: #606060;
      }

      .uuid-2c1d9a0d-01c0-4fc6-b363-c73325882b4c {
        fill: #a0a0a0;
      }

      .uuid-c51a9ed2-6079-4efb-9e57-3fce3161675c {
        fill: #c6c6c6;
      }

      .uuid-d36f06d5-b4a8-4c58-9bf0-230a090bf6c9 {
        fill: #fafafa;
      }

      .uuid-92ac2b4b-b949-4bdd-beb3-fcb50f6c7791 {
        fill: red;
      }

      .uuid-61653424-6192-40d3-bd66-c7894c14b5c0 {
        fill: #ededed;
      }
    </style>
  </defs>
  <path class="uuid-7aa6b9b6-49bc-4234-92f3-9504fe6ffcc3" d="M102.51,167.28l-.12-1.44c.11,0,11.01-.89,16.12-1.21,4.86-.3,10.14-.85,12.55-2.58,1.03-.74,2.54-2.89.99-8.89-.87-3.38-3.02-9.43-4.55-11.58-2.33-3.29-7.77-4.57-15.31-3.59l-.19-1.43c8.09-1.05,14.01.43,16.67,4.18,1.69,2.38,3.89,8.64,4.77,12.06.75,2.93,1.56,8.19-1.55,10.42-2.7,1.94-7.99,2.52-13.31,2.85-5.09.32-15.98,1.2-16.09,1.2Z"/>
  <path class="uuid-2c1d9a0d-01c0-4fc6-b363-c73325882b4c" d="M131.95,199.07c-.22,0-.45,0-.68-.01-2.18-.07-36.36-.24-65.38-.31-15.41-.04-34.98-.06-40.67.05-5.65.11-9.21-.66-11.54-2.49-1.88-1.47-3.9-4.28-3.9-7.73v-3.16c0-2.02.51-4.11,1.44-5.88,1.06-2.02,2.57-3.46,4.37-4.17,2.57-1.01,4.7-1.28,8.57-1.77.45-.06.93-.12,1.44-.18,4.53-.58,18.07-2.08,41.3-4.39,32.04-3.19,53.87-5.27,54.08-5.29h.03s4.03-.32,5.66-2.57c.7-.97.86-2.16.49-3.64l-2.4-9.59c-1-4.01-4.79-7.83-8.81-8.9-2.46-.65-5.16-.45-10.34.78-1.48.35-3.11.75-5.17,1.25-6.03,1.47-15.13,3.7-33.9,8.03-12.25,2.82-23.48,5.77-32.5,8.14-6.94,1.82-12.93,3.4-17.32,4.37-.12.03-.24.05-.37.08-2.02.47-5.78,1.34-8.97-2.06-2.92-3.11-.71-8.47.4-10.65l13.56-29.73c1.36-2.93,3.93-6.69,5.99-8.75,5.07-5.09,11.72-7.63,20.32-7.77,6.8-.11,13.63-.33,20.23-.54,6.9-.22,13.41-.43,19.46-.51,2.32-.03,5.83-.08,8.55-1.67,3.06-1.79,4.6-5.2,4.72-10.41.17-7.32,3.01-12.81,7.99-15.46,4.85-2.58,11.17-2.07,16.48,1.33,7.87,5.04,22.99,14.06,28.15,17.11.17.1.34.2.52.31,1.78,1.06,4.22,2.52,6.01,2.33,1.38-.15,2.58-.79,3.37-1.82.94-1.23,1.27-2.94.96-4.97-1.83-11.72-11.84-59.4-13.67-67.68-.86-3.88.04-6.32.94-7.69,1-1.52,2.54-2.54,4.32-2.88,4.19-.79,7.19,1.27,8.45,5.82.26.93,33.4,139.37,34.81,145.26l.02.08c.02.11.42,2.83-1.43,4.96-1.41,1.62-3.67,2.42-6.73,2.37-7.83-.12-19.61-.21-29.32-.21-.67,0-1.27,0-1.81-.01-2.69-.03-3.51-.01-4.41.71-2.01,1.61-5.45,4.79-10,9.08-.27.25-.56.52-.85.79-1.7,1.56-3.83,3.49-4.12,5.43-.23,1.56-.17,1.78.44,3.88.17.58.38,1.31.63,2.23.51,1.88.12,3.82-1.09,5.35-1.16,1.46-3.53,3.16-8.32,3.16ZM65.89,196.69c29.83.07,63.23.24,65.45.31,3.42.11,6.02-.73,7.31-2.37.79-1,1.05-2.29.71-3.52-.25-.9-.45-1.62-.62-2.2-.63-2.17-.8-2.76-.5-4.76.4-2.66,2.82-4.87,4.77-6.65.29-.26.57-.52.83-.77,4.58-4.32,8.06-7.53,10.12-9.19,1.51-1.21,3.01-1.19,5.72-1.16.53,0,1.12.01,1.78.01,9.72,0,21.51.08,29.35.21,2.41.04,4.15-.52,5.14-1.66,1.13-1.29.98-3.02.95-3.26-.81-3.39-34.41-143.73-34.78-145.15-.36-1.29-1.44-5.22-6.08-4.34-1.23.23-2.29.94-2.98,1.99-.98,1.48-1.2,3.6-.65,6.11,1.83,8.29,11.86,56.05,13.69,67.81.51,3.28-.46,5.37-1.36,6.54-1.14,1.48-2.84,2.41-4.79,2.62-2.47.26-5.14-1.33-7.28-2.61-.18-.1-.35-.21-.51-.3-5.17-3.06-20.32-12.09-28.21-17.15-4.68-3-10.2-3.48-14.4-1.24-4.29,2.28-6.74,7.14-6.89,13.69-.14,5.91-2.07,9.99-5.74,12.14-3.19,1.87-7.03,1.92-9.57,1.95-6.03.08-12.54.29-19.42.51-6.61.21-13.44.43-20.26.54-8.04.13-14.22,2.48-18.9,7.17-1.88,1.88-4.33,5.46-5.57,8.15l-13.58,29.78c-.7,1.39-2.84,6.1-.74,8.33,2.38,2.53,5.16,1.89,7,1.46.14-.03.27-.06.39-.09,4.35-.96,10.32-2.53,17.24-4.35,9.03-2.37,20.28-5.33,32.56-8.16,18.76-4.32,27.86-6.55,33.88-8.02,2.07-.51,3.7-.9,5.18-1.26,4.76-1.13,8.14-1.61,11.34-.77,4.77,1.26,9.1,5.64,10.29,10.39l2.4,9.59c.52,2.08.24,3.89-.82,5.36-2.16,2.98-6.81,3.38-7.16,3.41-.6.06-22.32,2.13-54.06,5.29-23.21,2.31-36.73,3.81-41.24,4.39-.51.06-.99.13-1.44.18-3.82.48-5.74.72-8.07,1.64-2.24.88-4.51,3.96-4.51,8.13v3.16c0,2.71,1.6,4.93,3.1,6.1,1.94,1.52,5.1,2.15,10.23,2.05,5.71-.11,25.29-.09,40.71-.05Z"/>
  <g>
    <circle class="uuid-8b1af57d-a9f7-43b8-b1c0-56cde01b545f" cx="9.64" cy="200.41" r="3.54"/>
    <path class="uuid-c51a9ed2-6079-4efb-9e57-3fce3161675c" d="M8.53,201.48h.94v-2.09l-.84.19v-.6l1.47-.33v2.83h.86v.6h-2.43v-.6Z"/>
  </g>
  <g>
    <circle class="uuid-8b1af57d-a9f7-43b8-b1c0-56cde01b545f" cx="7.26" cy="175.15" r="3.54"/>
    <path class="uuid-c51a9ed2-6079-4efb-9e57-3fce3161675c" d="M7.83,174.39c0-.24-.18-.42-.49-.42s-.56.18-.73.48l-.51-.32c.26-.48.69-.76,1.25-.76.67,0,1.11.41,1.11.99,0,1.03-1.12,1.12-1.51,1.88h1.58v.59h-2.38v-.47c.53-1.18,1.7-1.32,1.7-1.96Z"/>
  </g>
  <g>
    <circle class="uuid-8b1af57d-a9f7-43b8-b1c0-56cde01b545f" cx="121.3" cy="157.85" r="3.54"/>
    <path class="uuid-c51a9ed2-6079-4efb-9e57-3fce3161675c" d="M120.07,158.88l.48-.28c.17.29.4.44.75.44s.64-.2.64-.52c0-.3-.25-.53-.57-.53h-.4v-.51h.4c.3,0,.47-.17.47-.43s-.2-.43-.54-.43c-.3,0-.53.14-.71.42l-.48-.28c.27-.45.67-.69,1.24-.69.65,0,1.1.4,1.1.95,0,.35-.19.62-.42.73.31.16.52.48.52.83,0,.58-.49,1.03-1.25,1.03-.57,0-1-.26-1.24-.71Z"/>
  </g>
  <g>
    <circle class="uuid-8b1af57d-a9f7-43b8-b1c0-56cde01b545f" cx="113.42" cy="144.4" r="3.54"/>
    <path class="uuid-c51a9ed2-6079-4efb-9e57-3fce3161675c" d="M112.16,144.86l.94-2.17h.65l-.91,2.09h.86v-.79h.63v.79h.49v.59h-.49v.71h-.63v-.71h-1.53v-.51Z"/>
  </g>
  <g>
    <circle class="uuid-8b1af57d-a9f7-43b8-b1c0-56cde01b545f" cx="14.02" cy="154.17" r="3.54"/>
    <path class="uuid-c51a9ed2-6079-4efb-9e57-3fce3161675c" d="M12.82,155.22l.52-.33c.15.28.38.43.71.43.39,0,.64-.23.64-.59s-.24-.61-.65-.61c-.26,0-.46.1-.62.27l-.41-.27.33-1.67h1.81v.6h-1.33l-.12.64c.14-.06.27-.08.43-.08.74,0,1.19.48,1.19,1.14s-.48,1.17-1.29,1.17c-.53,0-.97-.25-1.2-.71Z"/>
  </g>
  <g>
    <circle class="uuid-8b1af57d-a9f7-43b8-b1c0-56cde01b545f" cx="31.86" cy="100.43" r="3.54"/>
    <path class="uuid-c51a9ed2-6079-4efb-9e57-3fce3161675c" d="M30.66,100.96c0-.27.1-.54.28-.77l1.12-1.47h.76l-.83,1.06h.04c.63,0,1.17.5,1.17,1.2,0,.67-.54,1.2-1.27,1.2s-1.28-.55-1.28-1.22ZM32.57,100.95c0-.36-.27-.63-.64-.63s-.65.28-.65.64.26.62.65.62.64-.28.64-.63Z"/>
  </g>
  <g>
    <circle class="uuid-8b1af57d-a9f7-43b8-b1c0-56cde01b545f" cx="93.42" cy="94.8" r="3.54"/>
    <path class="uuid-c51a9ed2-6079-4efb-9e57-3fce3161675c" d="M93.96,93.69h-1.73v-.6h2.42v.51l-1.39,2.88h-.67l1.36-2.78Z"/>
  </g>
  <g>
    <circle class="uuid-8b1af57d-a9f7-43b8-b1c0-56cde01b545f" cx="107.19" cy="68.52" r="3.54"/>
    <path class="uuid-c51a9ed2-6079-4efb-9e57-3fce3161675c" d="M106.05,69.24c0-.34.19-.65.5-.83-.2-.09-.39-.38-.39-.73,0-.54.45-.93,1.1-.93s1.1.39,1.1.93c0,.35-.18.62-.39.73.3.16.5.48.5.83,0,.58-.49,1.03-1.2,1.03s-1.2-.45-1.2-1.03ZM107.84,69.2c0-.3-.25-.53-.58-.53s-.58.24-.58.53c0,.33.25.53.58.53s.58-.21.58-.53ZM107.75,67.72c0-.26-.18-.43-.49-.43s-.49.17-.49.43.18.43.49.43.49-.17.49-.43Z"/>
  </g>
  <g>
    <circle class="uuid-8b1af57d-a9f7-43b8-b1c0-56cde01b545f" cx="158.26" cy="88.91" r="3.54"/>
    <path class="uuid-c51a9ed2-6079-4efb-9e57-3fce3161675c" d="M159.59,88.35c0,.27-.1.54-.28.77l-1.12,1.47h-.76l.83-1.06h-.04c-.63,0-1.17-.5-1.17-1.2s.54-1.2,1.27-1.2,1.28.55,1.28,1.22ZM157.67,88.36c0,.36.27.63.64.63s.65-.28.65-.64-.26-.62-.65-.62-.64.28-.64.63Z"/>
  </g>
  <g>
    <circle class="uuid-8b1af57d-a9f7-43b8-b1c0-56cde01b545f" cx="154.79" cy="4.47" r="3.54"/>
    <g>
      <path class="uuid-c51a9ed2-6079-4efb-9e57-3fce3161675c" d="M152.28,5.55h.94v-2.09l-.84.19v-.6l1.47-.33v2.83h.86v.6h-2.43v-.6Z"/>
      <path class="uuid-c51a9ed2-6079-4efb-9e57-3fce3161675c" d="M155,4.98v-1.05c0-.74.54-1.24,1.24-1.24s1.24.5,1.24,1.24v1.05c0,.74-.54,1.24-1.24,1.24s-1.24-.5-1.24-1.24ZM156.86,4.96v-1c0-.41-.24-.66-.62-.66s-.62.26-.62.66v1c0,.41.24.66.62.66s.62-.25.62-.66Z"/>
    </g>
  </g>
  <g>
    <circle class="uuid-8b1af57d-a9f7-43b8-b1c0-56cde01b545f" cx="202.74" cy="168.9" r="3.54"/>
    <g>
      <path class="uuid-c51a9ed2-6079-4efb-9e57-3fce3161675c" d="M200.23,169.97h.94v-2.09l-.84.19v-.6l1.47-.33v2.83h.86v.6h-2.43v-.6Z"/>
      <path class="uuid-c51a9ed2-6079-4efb-9e57-3fce3161675c" d="M203.02,169.97h.94v-2.09l-.84.19v-.6l1.47-.33v2.83h.86v.6h-2.43v-.6Z"/>
    </g>
  </g>
  <g>
    <circle class="uuid-8b1af57d-a9f7-43b8-b1c0-56cde01b545f" cx="158.2" cy="174.21" r="3.54"/>
    <g>
      <path class="uuid-c51a9ed2-6079-4efb-9e57-3fce3161675c" d="M155.69,175.29h.94v-2.09l-.84.19v-.6l1.47-.33v2.83h.86v.6h-2.43v-.6Z"/>
      <path class="uuid-c51a9ed2-6079-4efb-9e57-3fce3161675c" d="M160.16,173.45c0-.24-.18-.42-.49-.42s-.56.18-.73.48l-.51-.32c.26-.48.69-.76,1.25-.76.67,0,1.11.41,1.11.99,0,1.03-1.12,1.12-1.51,1.88h1.58v.59h-2.38v-.47c.53-1.18,1.7-1.32,1.7-1.96Z"/>
    </g>
  </g>
  <g>
    <circle class="uuid-8b1af57d-a9f7-43b8-b1c0-56cde01b545f" cx="136.25" cy="175.97" r="3.54"/>
    <g>
      <path class="uuid-c51a9ed2-6079-4efb-9e57-3fce3161675c" d="M133.75,177.04h.94v-2.09l-.84.19v-.6l1.47-.33v2.83h.86v.6h-2.43v-.6Z"/>
      <path class="uuid-c51a9ed2-6079-4efb-9e57-3fce3161675c" d="M136.42,177.01l.48-.28c.17.29.4.44.75.44s.64-.2.64-.52c0-.3-.25-.53-.57-.53h-.4v-.51h.4c.3,0,.47-.17.47-.43s-.2-.43-.54-.43c-.3,0-.53.14-.71.42l-.48-.28c.27-.45.67-.69,1.24-.69.65,0,1.1.4,1.1.95,0,.35-.19.62-.42.73.31.16.52.48.52.83,0,.58-.49,1.03-1.25,1.03-.57,0-1-.26-1.24-.71Z"/>
    </g>
  </g>
  <g>
    <circle class="uuid-8b1af57d-a9f7-43b8-b1c0-56cde01b545f" cx="145.83" cy="198" r="3.54"/>
    <g>
      <path class="uuid-c51a9ed2-6079-4efb-9e57-3fce3161675c" d="M143.33,199.08h.94v-2.09l-.84.19v-.6l1.47-.33v2.83h.86v.6h-2.43v-.6Z"/>
      <path class="uuid-c51a9ed2-6079-4efb-9e57-3fce3161675c" d="M145.97,198.47l.94-2.17h.65l-.91,2.09h.86v-.79h.63v.79h.49v.59h-.49v.71h-.63v-.71h-1.53v-.51Z"/>
    </g>
  </g>
  <g>
    <rect class="uuid-c039cce0-9758-482e-b943-54f893ae37c0" x="93.58" y="138.63" width=".73" height="11.53" transform="translate(-33.06 28.01) rotate(-14.45)"/>
    <path class="uuid-92ac2b4b-b949-4bdd-beb3-fcb50f6c7791" d="M99.92,146.1h-10.14l-.03.03v8.76h10.17v-8.79Z"/>
    <g>
      <path class="uuid-61653424-6192-40d3-bd66-c7894c14b5c0" d="M91.45,151.62h1.17v-2.35h-1.17v-.83h3.24v.83h-1.18v2.35h1.18v.83h-3.24v-.83Z"/>
      <path class="uuid-61653424-6192-40d3-bd66-c7894c14b5c0" d="M95.31,151.62h1.49v-2.1c0-.07-.02-.13-.05-.17-.03-.04-.08-.06-.16-.06-.04,0-.08,0-.13.02-.05.01-.11.04-.17.06l-.89.29v-.83l.81-.29c.12-.04.23-.08.35-.1.11-.02.22-.04.32-.04.17,0,.31.04.43.11.12.07.22.18.28.32.06.14.09.29.09.47v2.33h1.32v.83h-3.7v-.83Z"/>
    </g>
  </g>
  <g>
    <g>
      <line class="uuid-61653424-6192-40d3-bd66-c7894c14b5c0" x1="66.28" y1="201.79" x2="66.24" y2="193.04"/>
      <rect class="uuid-c039cce0-9758-482e-b943-54f893ae37c0" x="65.89" y="193.04" width=".73" height="8.76" transform="translate(-.97 .33) rotate(-.28)"/>
    </g>
    <g>
      <path class="uuid-92ac2b4b-b949-4bdd-beb3-fcb50f6c7791" d="M71.24,200.03h-10.98l-.03.03v8.7h11.02v-8.74Z"/>
      <g>
        <path class="uuid-61653424-6192-40d3-bd66-c7894c14b5c0" d="M63.47,202.8c.09-.19.23-.33.42-.42.19-.09.42-.14.71-.14h1.98v.83h-1.92c-.11,0-.2.01-.26.04-.06.03-.11.08-.14.14-.03.06-.04.15-.04.26v.32h2.26v.83h-2.26v1.58h-.89v-2.73c0-.29.05-.52.14-.71Z"/>
        <path class="uuid-61653424-6192-40d3-bd66-c7894c14b5c0" d="M70.12,206.24h-1.67c-.29,0-.53-.05-.71-.14-.19-.09-.33-.23-.42-.42s-.14-.43-.14-.71v-2.73h.89v2.73c0,.11.01.2.04.26.03.07.07.11.14.14.07.03.15.04.26.04h1.61v.83Z"/>
      </g>
      <g>
        <g>
          <rect class="uuid-d36f06d5-b4a8-4c58-9bf0-230a090bf6c9" x="61.1" y="202.94" width=".88" height="5.83"/>
          <rect x="61.1" y="203.91" width=".88" height=".97"/>
          <rect x="61.1" y="205.86" width=".88" height=".97"/>
          <rect x="61.1" y="207.8" width=".88" height=".97"/>
          <rect class="uuid-d36f06d5-b4a8-4c58-9bf0-230a090bf6c9" x="60.22" y="202.94" width=".88" height="5.83"/>
          <rect x="60.22" y="202.94" width=".88" height=".97"/>
          <rect x="60.22" y="204.88" width=".88" height=".97"/>
          <rect x="60.22" y="206.83" width=".88" height=".97"/>
        </g>
        <g>
          <rect class="uuid-d36f06d5-b4a8-4c58-9bf0-230a090bf6c9" x="61.1" y="200.03" width=".88" height="2.91"/>
          <rect x="61.1" y="200.03" width=".88" height=".97"/>
          <rect x="61.1" y="201.97" width=".88" height=".97"/>
          <rect class="uuid-d36f06d5-b4a8-4c58-9bf0-230a090bf6c9" x="60.22" y="200.03" width=".88" height="2.91"/>
          <rect x="60.22" y="201" width=".88" height=".97"/>
        </g>
      </g>
    </g>
  </g>
  <g>
    <rect class="uuid-c039cce0-9758-482e-b943-54f893ae37c0" x="79.4" y="104.93" width="12.21" height=".73" transform="translate(-21.06 189.21) rotate(-89.14)"/>
    <path class="uuid-92ac2b4b-b949-4bdd-beb3-fcb50f6c7791" d="M91.45,106.03h-10.14l-.03.03v7.93h10.17v-7.96Z"/>
    <g>
      <path class="uuid-61653424-6192-40d3-bd66-c7894c14b5c0" d="M82.58,111.09h1.17v-2.35h-1.17v-.83h3.24v.83h-1.18v2.35h1.18v.83h-3.24v-.83Z"/>
      <path class="uuid-61653424-6192-40d3-bd66-c7894c14b5c0" d="M86.92,111.78c-.18-.09-.32-.21-.42-.36-.09-.16-.14-.34-.14-.55,0-.3.09-.54.27-.73.18-.19.48-.33.9-.41l1.27-.27c.12-.02.21-.05.28-.08.07-.03.11-.07.14-.12.03-.04.05-.11.05-.18,0-.11-.04-.2-.13-.25s-.22-.08-.41-.08h-.92c-.17,0-.3.04-.39.13-.09.09-.13.21-.13.37v.15h-.89v-.24c0-.26.06-.48.17-.67.11-.18.27-.33.49-.43.21-.1.47-.15.78-.15h.88c.47,0,.83.1,1.08.3s.37.49.37.86c0,.22-.04.41-.11.56-.07.15-.18.27-.33.37-.15.09-.34.16-.58.21l-1.5.3c-.13.03-.23.07-.29.12-.07.05-.1.12-.1.2s.03.15.09.2c.06.04.15.07.27.07h2.53v.83h-2.57c-.25,0-.47-.04-.65-.13Z"/>
    </g>
  </g>
  <g>
    <rect class="uuid-61653424-6192-40d3-bd66-c7894c14b5c0" x="181.09" y="103.52" width="9.41" height=".73" transform="translate(-19.8 48.72) rotate(-14.19)"/>
    <g>
      <path class="uuid-d120d9e6-8122-4656-bb97-52c4aff5f032" d="M196.76,98.67h-8.62l-.03.03v7.38h8.65v-7.41Z"/>
      <path class="uuid-30efc3b0-889f-4c64-b631-b80935fa7830" d="M190.46,103.71h2.69c.14,0,.25-.03.33-.09.08-.06.12-.15.12-.27,0-.11-.03-.19-.1-.24-.07-.06-.17-.11-.31-.15l-1.69-.45c-.39-.09-.67-.25-.86-.47-.18-.22-.28-.52-.28-.88,0-.26.06-.5.19-.71.13-.21.31-.37.54-.49.23-.12.51-.18.83-.18h2.58v1.02h-2.58c-.14,0-.26.03-.33.09-.08.06-.12.15-.12.27s.03.2.1.25c.06.06.17.11.31.15l1.68.44c.39.09.68.25.86.48s.28.52.28.88c0,.27-.06.51-.19.71-.13.21-.31.37-.54.49-.23.12-.51.18-.83.18h-2.69v-1.02Z"/>
    </g>
  </g>
  <g>
    <rect class="uuid-c039cce0-9758-482e-b943-54f893ae37c0" x="164.37" y="36.79" width="12.82" height=".73" transform="translate(-3.99 38.91) rotate(-12.85)"/>
    <g>
      <path class="uuid-92ac2b4b-b949-4bdd-beb3-fcb50f6c7791" d="M183.24,31.43h-10.94l-.03.03v8.96h10.97v-9Z"/>
      <g>
        <path class="uuid-61653424-6192-40d3-bd66-c7894c14b5c0" d="M173.96,36.95h1.17v-2.35h-1.17v-.83h3.24v.83h-1.18v2.35h1.18v.83h-3.24v-.83Z"/>
        <path class="uuid-61653424-6192-40d3-bd66-c7894c14b5c0" d="M178.39,37.63c-.21-.1-.38-.25-.49-.43-.11-.19-.17-.41-.17-.67v-.51h.9v.43c0,.16.05.28.14.37.09.09.22.13.38.13h1.03c.15,0,.26-.03.34-.1.08-.06.12-.16.12-.29,0-.12-.04-.21-.12-.28-.08-.06-.19-.09-.34-.09h-1.11v-.83h1.07c.14,0,.26-.03.34-.1.08-.06.12-.16.12-.29,0-.12-.04-.21-.12-.28-.08-.06-.19-.09-.34-.09h-1c-.16,0-.29.04-.38.13-.09.09-.14.21-.14.37v.26h-.89v-.34c0-.26.06-.48.17-.67s.27-.33.49-.43c.21-.1.47-.15.77-.15h1.01c.27,0,.5.04.7.13s.35.21.46.38c.11.17.16.36.16.59,0,.2-.04.38-.14.53-.09.15-.23.27-.42.37.21.1.37.22.46.37.09.14.14.32.14.54s-.05.42-.16.59c-.11.17-.27.29-.47.38-.2.09-.44.13-.71.13h-1.03c-.3,0-.56-.05-.77-.15Z"/>
      </g>
    </g>
  </g>
</svg>