<?xml version="1.0" encoding="UTF-8"?>
<svg id="uuid-732c5357-fcd8-4aa5-998e-eae4bf31a28a" data-name="Capa 1" xmlns="http://www.w3.org/2000/svg" viewBox="0 0 210 143">
  <defs>
    <style>
      .uuid-a6627d21-e475-4170-8d6c-43022092c85b {
        fill: #323232;
      }

      .uuid-2f60ccc3-d7f4-47ee-8923-b0f7bf4173d3 {
        fill: #444;
      }

      .uuid-d6630a87-e244-4b1c-856a-93c065e1d996 {
        fill: #e6e6e6;
      }

      .uuid-41d112b9-b3d6-44ee-8c74-ae0aadac1f38 {
        fill: #f6f6f6;
      }

      .uuid-9769b083-cd15-490d-8064-271e9f065ca7 {
        fill: #606060;
      }

      .uuid-bb6a2e24-0d58-44ca-88f1-6f87d8ed0a0b {
        fill: #a0a0a0;
      }

      .uuid-811fd2a7-d2f1-4932-aaf6-70abda6d7e69 {
        fill: #c6c6c6;
      }

      .uuid-cc1ce41b-c5ea-454f-bf3f-399b97932ee5 {
        fill: #fafafa;
      }

      .uuid-3d5f4c14-1f8c-458e-8753-21afe5a40480 {
        fill: red;
      }

      .uuid-990e249d-410b-4341-934c-3dad331192bd {
        fill: #ededed;
      }
    </style>
  </defs>
  <path class="uuid-9769b083-cd15-490d-8064-271e9f065ca7" d="M130.31,66.8c-2.86,0-6.84-2.37-10.12-4.33-1.39-.83-2.59-1.55-3.47-1.94l.6-1.33c.95.43,2.19,1.16,3.62,2.02,3.33,1.99,7.9,4.72,10.15,4.02,2.11-.65,4.83-4.56,6.06-8.71,1-3.38.83-6.22-.48-7.79-1.2-1.44-5.93-3.43-11.75-4.26l.2-1.44c3.96.56,10.61,2.3,12.66,4.76,1.65,1.98,1.92,5.22.76,9.13-1.59,5.38-4.81,9.01-7.03,9.69-.37.11-.77.17-1.2.17Z"/>
  <path class="uuid-bb6a2e24-0d58-44ca-88f1-6f87d8ed0a0b" d="M155.21,134c-2.12,0-4.12-.61-5.5-1.28-2.71-1.32-18.34-10.99-29.75-18.04-4.69-2.9-8.39-5.19-9.73-5.99-4.08-2.44-6.49-1-10.13,1.19-1.16.7-2.47,1.49-3.93,2.18-5.16,2.45-9.76-1.21-11.27-2.42-.08-.06-.15-.12-.21-.17-.06-.04-.67-.49-1.52-1.1-19.22-13.88-29.2-21.31-30.51-22.71-1.5-1.59-3.05-3.24-3.23-7.82-.12-3.12-.14-5.14-.16-6.62-.03-2.67-.05-3.57-.56-6.15-1.36-6.87-8.33-9.29-16.61-11.53-1.18-.32-2.37-.63-3.53-.93-4.86-1.27-9.44-2.46-12.41-4.06-7.12-3.84-10.18-9.81-9.1-17.76.89-6.57,4.47-13.26,6.84-17.69,2.71-5.07,6.72-7.06,9.61-7.84,3.12-.84,5.61-.48,5.71-.46.28.04,29.66,4.16,35.61,4.94,6.42.84,7.81,2.43,9.09,4.57.95,1.61,1.05,4.39,1.15,7.33.08,2.35.16,4.79.7,6.36,1.31,3.83,5.95,4.89,6.87,5.06.25.05,37.99,8.37,42.66,9.69,3.59,1.01,6.46,3.11,7.87,5.76,1.28,2.4,1.42,5.17.41,8.23-.91,2.77-2.95,4.67-5.91,5.51-2.37.67-5.21.59-7.78-.24-2.64-.84-7.14-4.07-10.75-6.67-1.5-1.08-2.8-2.01-3.67-2.56-.32-.2-.61-.39-.9-.58-2.34-1.52-3.51-2.29-8.53-1.75-7.54.81-9.22-.09-15.14-4.02-1.18-.78-2.6-1.73-4.22-2.8-10.89-7.22-29.11-19.3-36.98-24.9-4.93-3.51-9.11-2.64-10.68-2.1-4.81,1.65-6.99,6.2-5.56,11.59,1.8,6.81,10.29,10.3,20.11,14.35l.4.17c5.67,2.34,20.95,8.17,37.12,14.35,8.86,3.38,18.01,6.88,25.39,9.73,6.11,2.36,10.38,4.03,13.05,5.12,10.92,4.44,15.8,6.87,24.05,11.49,15.55,8.71,30.87,13.77,41.01,17.12,6.74,2.23,11.19,3.7,12.89,5.23,3.46,3.1,4.19,6.77,2.11,10.61-1.58,2.92-4.4,4.42-8.63,4.58-3.65.14-7.99-.64-13.03-1.55-.92-.17-1.87-.34-2.83-.51-3.1-.54-5.39.04-6.78,1.73-.86,1.04-1.28,1.91-1.87,3.12-.75,1.54-1.68,3.46-3.91,6.55-2,2.77-4.75,3.66-7.33,3.66ZM106.26,105.35c1.51,0,3.16.44,5.03,1.56,1.35.81,5.06,3.1,9.76,6.01,10.73,6.64,26.95,16.66,29.56,17.94.68.33,6.74,3.1,10.23-1.74,2.13-2.94,3.01-4.77,3.73-6.24.6-1.24,1.12-2.31,2.14-3.54,1.88-2.28,4.91-3.12,8.74-2.45.96.17,1.91.34,2.84.51,4.91.89,9.16,1.66,12.58,1.52,3.53-.14,5.65-1.22,6.89-3.5,1.61-2.98,1.07-5.62-1.67-8.07-1.38-1.24-6.14-2.81-12.16-4.8-10.21-3.38-25.65-8.48-41.37-17.28-8.17-4.57-12.99-6.98-23.82-11.38-2.66-1.08-6.92-2.75-13.02-5.11-7.37-2.85-16.53-6.34-25.38-9.73-16.19-6.18-31.48-12.02-37.17-14.37l-.4-.17c-10.34-4.26-19.26-7.94-21.33-15.74-1.7-6.43,1.07-12.09,6.9-14.09,1.87-.64,6.84-1.7,12.56,2.38,7.84,5.59,26.05,17.65,36.92,24.86,1.61,1.07,3.04,2.01,4.22,2.8,5.63,3.74,6.91,4.42,13.77,3.68,5.75-.62,7.4.45,9.88,2.07.27.18.56.37.87.56.93.59,2.25,1.54,3.78,2.63,3.31,2.38,7.84,5.63,10.17,6.38,2.19.7,4.59.78,6.58.22,1.58-.45,3.64-1.53,4.5-4.16.82-2.5.73-4.73-.27-6.61-1.15-2.15-3.55-3.88-6.6-4.74-4.57-1.29-42.19-9.59-42.5-9.65-1.56-.29-6.79-1.63-8.44-6.42-.64-1.86-.72-4.45-.81-6.96-.09-2.55-.17-5.19-.86-6.34-.89-1.5-1.66-2.8-7.57-3.57-5.95-.78-35.34-4.9-35.64-4.95-.36-.05-8.7-1.18-13.19,7.22-2.3,4.3-5.77,10.79-6.61,16.99-.97,7.1,1.66,12.22,8.03,15.65,2.75,1.48,7.22,2.65,11.95,3.88,1.16.3,2.36.61,3.54.94,8.64,2.34,16.52,5.1,18.11,13.13.55,2.77.56,3.79.6,6.53.02,1.47.04,3.48.16,6.57.15,3.8,1.26,4.98,2.66,6.48.83.88,6.75,5.49,30.22,22.45,1.35.98,1.53,1.11,1.58,1.14.07.05.14.11.22.18,5.1,4.06,7.99,2.68,9.08,2.17,1.37-.65,2.58-1.38,3.75-2.08,2.33-1.4,4.58-2.75,7.24-2.75Z"/>
  <g>
    <circle class="uuid-2f60ccc3-d7f4-47ee-8923-b0f7bf4173d3" cx="206.44" cy="111.96" r="3.56"/>
    <path class="uuid-811fd2a7-d2f1-4932-aaf6-70abda6d7e69" d="M205.32,113.04h.95v-2.11l-.85.19v-.61l1.48-.33v2.85h.87v.61h-2.45v-.61Z"/>
  </g>
  <g>
    <circle class="uuid-2f60ccc3-d7f4-47ee-8923-b0f7bf4173d3" cx="172.83" cy="124.34" r="3.56"/>
    <path class="uuid-811fd2a7-d2f1-4932-aaf6-70abda6d7e69" d="M173.4,123.58c0-.24-.18-.43-.5-.43s-.56.18-.74.48l-.52-.33c.26-.48.69-.76,1.25-.76.68,0,1.12.41,1.12,1,0,1.04-1.12,1.13-1.52,1.89h1.58v.59h-2.4v-.47c.53-1.19,1.71-1.33,1.71-1.97Z"/>
  </g>
  <g>
    <circle class="uuid-2f60ccc3-d7f4-47ee-8923-b0f7bf4173d3" cx="157.12" cy="139.64" r="3.56"/>
    <path class="uuid-811fd2a7-d2f1-4932-aaf6-70abda6d7e69" d="M155.88,140.68l.48-.28c.17.29.4.44.76.44s.65-.21.65-.53c0-.3-.25-.53-.57-.53h-.41v-.52h.41c.3,0,.47-.17.47-.43s-.2-.43-.54-.43c-.31,0-.54.14-.71.42l-.48-.28c.27-.45.68-.69,1.24-.69.65,0,1.11.41,1.11.95,0,.35-.2.62-.42.73.32.16.53.48.53.83,0,.58-.49,1.04-1.26,1.04-.57,0-1-.26-1.25-.72Z"/>
  </g>
  <g>
    <circle class="uuid-2f60ccc3-d7f4-47ee-8923-b0f7bf4173d3" cx="106.05" cy="113.04" r="3.56"/>
    <path class="uuid-811fd2a7-d2f1-4932-aaf6-70abda6d7e69" d="M104.78,113.51l.94-2.18h.65l-.92,2.11h.86v-.79h.63v.79h.5v.59h-.5v.71h-.63v-.71h-1.54v-.51Z"/>
  </g>
  <g>
    <circle class="uuid-2f60ccc3-d7f4-47ee-8923-b0f7bf4173d3" cx="45.79" cy="85.98" r="3.56"/>
    <path class="uuid-811fd2a7-d2f1-4932-aaf6-70abda6d7e69" d="M44.57,86.51c0-.27.11-.54.28-.78l1.12-1.47h.77l-.83,1.06h.04c.63,0,1.18.5,1.18,1.21,0,.67-.54,1.21-1.27,1.21s-1.29-.55-1.29-1.23ZM46.49,86.5c0-.36-.27-.64-.64-.64s-.66.28-.66.64.26.63.65.63.65-.28.65-.63Z"/>
  </g>
  <g>
    <circle class="uuid-2f60ccc3-d7f4-47ee-8923-b0f7bf4173d3" cx="42.23" cy="64.41" r="3.56"/>
    <path class="uuid-811fd2a7-d2f1-4932-aaf6-70abda6d7e69" d="M42.76,63.3h-1.74v-.6h2.44v.51l-1.39,2.9h-.67l1.37-2.8Z"/>
  </g>
  <g>
    <circle class="uuid-2f60ccc3-d7f4-47ee-8923-b0f7bf4173d3" cx="3.56" cy="44.06" r="3.56"/>
    <path class="uuid-811fd2a7-d2f1-4932-aaf6-70abda6d7e69" d="M2.41,44.79c0-.34.19-.65.5-.83-.2-.09-.4-.38-.4-.73,0-.55.45-.94,1.11-.94s1.11.39,1.11.94c0,.35-.18.62-.39.73.3.16.5.48.5.83,0,.58-.49,1.04-1.21,1.04s-1.21-.45-1.21-1.04ZM4.21,44.75c0-.31-.25-.54-.58-.54s-.58.24-.58.54c0,.33.25.54.58.54s.58-.21.58-.54ZM4.12,43.26c0-.26-.18-.43-.5-.43s-.49.17-.49.43.18.44.49.44.5-.17.5-.44Z"/>
  </g>
  <g>
    <circle class="uuid-2f60ccc3-d7f4-47ee-8923-b0f7bf4173d3" cx="14.56" cy="3.43" r="3.56"/>
    <path class="uuid-811fd2a7-d2f1-4932-aaf6-70abda6d7e69" d="M15.89,2.87c0,.27-.11.54-.28.78l-1.12,1.47h-.77l.83-1.06h-.04c-.63,0-1.18-.5-1.18-1.21,0-.67.54-1.21,1.27-1.21s1.28.55,1.28,1.23ZM13.97,2.88c0,.36.27.64.64.64s.66-.28.66-.64-.26-.63-.65-.63-.65.28-.65.63Z"/>
  </g>
  <g>
    <circle class="uuid-2f60ccc3-d7f4-47ee-8923-b0f7bf4173d3" cx="77.31" cy="9.32" r="3.56"/>
    <g>
      <path class="uuid-811fd2a7-d2f1-4932-aaf6-70abda6d7e69" d="M74.78,10.41h.95v-2.11l-.85.19v-.61l1.48-.33v2.85h.87v.61h-2.45v-.61Z"/>
      <path class="uuid-811fd2a7-d2f1-4932-aaf6-70abda6d7e69" d="M77.53,9.84v-1.06c0-.75.55-1.25,1.25-1.25s1.25.5,1.25,1.25v1.06c0,.75-.54,1.25-1.25,1.25s-1.25-.5-1.25-1.25ZM79.39,9.82v-1.01c0-.41-.24-.67-.62-.67s-.62.26-.62.67v1.01c0,.41.24.66.62.66s.62-.25.62-.66Z"/>
    </g>
  </g>
  <g>
    <circle class="uuid-2f60ccc3-d7f4-47ee-8923-b0f7bf4173d3" cx="81.24" cy="25.81" r="3.56"/>
    <g>
      <path class="uuid-811fd2a7-d2f1-4932-aaf6-70abda6d7e69" d="M78.71,26.89h.95v-2.11l-.85.19v-.61l1.48-.33v2.85h.87v.61h-2.45v-.61Z"/>
      <path class="uuid-811fd2a7-d2f1-4932-aaf6-70abda6d7e69" d="M81.52,26.89h.95v-2.11l-.85.19v-.61l1.48-.33v2.85h.87v.61h-2.45v-.61Z"/>
    </g>
  </g>
  <g>
    <circle class="uuid-2f60ccc3-d7f4-47ee-8923-b0f7bf4173d3" cx="144.25" cy="53.58" r="3.56"/>
    <g>
      <path class="uuid-811fd2a7-d2f1-4932-aaf6-70abda6d7e69" d="M141.73,54.66h.95v-2.11l-.85.19v-.61l1.48-.33v2.85h.87v.61h-2.45v-.61Z"/>
      <path class="uuid-811fd2a7-d2f1-4932-aaf6-70abda6d7e69" d="M146.23,52.82c0-.24-.18-.43-.5-.43s-.56.18-.74.48l-.52-.33c.26-.48.69-.76,1.25-.76.68,0,1.12.41,1.12.99,0,1.04-1.12,1.13-1.52,1.89h1.58v.59h-2.4v-.47c.53-1.19,1.71-1.33,1.71-1.97Z"/>
    </g>
  </g>
  <g>
    <circle class="uuid-2f60ccc3-d7f4-47ee-8923-b0f7bf4173d3" cx="103.79" cy="44.49" r="3.56"/>
    <g>
      <path class="uuid-811fd2a7-d2f1-4932-aaf6-70abda6d7e69" d="M101.27,45.57h.95v-2.11l-.85.19v-.61l1.48-.33v2.85h.87v.61h-2.45v-.61Z"/>
      <path class="uuid-811fd2a7-d2f1-4932-aaf6-70abda6d7e69" d="M103.96,45.54l.48-.28c.17.29.4.44.76.44s.65-.21.65-.53c0-.3-.25-.53-.57-.53h-.41v-.52h.41c.3,0,.47-.17.47-.43s-.2-.43-.54-.43c-.31,0-.54.14-.71.42l-.48-.28c.27-.45.68-.69,1.24-.69.65,0,1.11.41,1.11.95,0,.35-.2.62-.42.73.32.16.53.48.53.83,0,.58-.49,1.04-1.26,1.04-.57,0-1-.26-1.25-.72Z"/>
    </g>
  </g>
  <g>
    <circle class="uuid-2f60ccc3-d7f4-47ee-8923-b0f7bf4173d3" cx="90.81" cy="42.86" r="3.56"/>
    <g>
      <path class="uuid-811fd2a7-d2f1-4932-aaf6-70abda6d7e69" d="M88.28,43.94h.95v-2.11l-.85.19v-.61l1.48-.33v2.85h.87v.61h-2.45v-.61Z"/>
      <path class="uuid-811fd2a7-d2f1-4932-aaf6-70abda6d7e69" d="M90.95,43.33l.94-2.18h.65l-.92,2.11h.86v-.79h.63v.79h.5v.59h-.5v.71h-.63v-.71h-1.54v-.51Z"/>
    </g>
  </g>
  <g>
    <circle class="uuid-2f60ccc3-d7f4-47ee-8923-b0f7bf4173d3" cx="29.72" cy="22.66" r="3.56"/>
    <g>
      <path class="uuid-811fd2a7-d2f1-4932-aaf6-70abda6d7e69" d="M27.2,23.74h.95v-2.11l-.85.19v-.61l1.48-.33v2.85h.87v.61h-2.45v-.61Z"/>
      <path class="uuid-811fd2a7-d2f1-4932-aaf6-70abda6d7e69" d="M29.91,23.71l.53-.33c.15.28.38.43.71.43.39,0,.65-.23.65-.59s-.24-.61-.66-.61c-.26,0-.46.1-.62.27l-.42-.27.33-1.67h1.82v.6h-1.34l-.13.64c.14-.06.27-.08.44-.08.75,0,1.2.48,1.2,1.14s-.48,1.18-1.29,1.18c-.54,0-.98-.25-1.21-.71Z"/>
    </g>
  </g>
  <g>
    <circle class="uuid-2f60ccc3-d7f4-47ee-8923-b0f7bf4173d3" cx="89.36" cy="118.29" r="3.56"/>
    <path class="uuid-811fd2a7-d2f1-4932-aaf6-70abda6d7e69" d="M88.15,119.34l.53-.33c.15.28.38.43.71.43.39,0,.65-.23.65-.6s-.24-.61-.66-.61c-.26,0-.46.1-.62.27l-.42-.27.33-1.67h1.82v.6h-1.34l-.13.64c.14-.06.27-.08.44-.08.75,0,1.2.48,1.2,1.14s-.48,1.18-1.29,1.18c-.54,0-.98-.25-1.21-.71Z"/>
  </g>
  <g>
    <polygon class="uuid-d6630a87-e244-4b1c-856a-93c065e1d996" points="139.69 121.77 131.49 135.19 130.92 134.71 139.13 121.29 139.69 121.77"/>
    <path class="uuid-3d5f4c14-1f8c-458e-8753-21afe5a40480" d="M137.93,127.85h-10.14l-.03.03v8.76h10.17v-8.79Z"/>
    <g>
      <path class="uuid-990e249d-410b-4341-934c-3dad331192bd" d="M129.46,133.37h1.17v-2.35h-1.17v-.83h3.24v.83h-1.18v2.35h1.18v.83h-3.24v-.83Z"/>
      <path class="uuid-990e249d-410b-4341-934c-3dad331192bd" d="M133.32,133.37h1.49v-2.1c0-.07-.02-.13-.05-.17-.03-.04-.08-.06-.16-.06-.04,0-.08,0-.13.02-.05.01-.11.04-.17.06l-.89.29v-.83l.81-.29c.12-.04.23-.08.34-.1s.22-.04.32-.04c.17,0,.31.04.43.11.12.07.22.18.28.32s.09.29.09.47v2.33h1.32v.83h-3.7v-.83Z"/>
    </g>
  </g>
  <g>
    <rect class="uuid-990e249d-410b-4341-934c-3dad331192bd" x="143.52" y="85.71" width="9.41" height=".73" transform="translate(14.06 192.75) rotate(-68.63)"/>
    <g>
      <path class="uuid-41d112b9-b3d6-44ee-8c74-ae0aadac1f38" d="M155.89,75.49h-8.62l-.03.03v7.38h8.65v-7.41Z"/>
      <path class="uuid-a6627d21-e475-4170-8d6c-43022092c85b" d="M149.59,80.53h2.69c.14,0,.25-.03.33-.09.08-.06.12-.15.12-.27,0-.11-.03-.19-.1-.24-.07-.06-.17-.11-.31-.15l-1.69-.45c-.39-.09-.67-.25-.86-.47-.18-.22-.28-.52-.28-.88,0-.26.06-.5.19-.71.13-.21.31-.37.54-.49.23-.12.51-.18.83-.18h2.58v1.02h-2.58c-.14,0-.26.03-.33.09-.08.06-.12.15-.12.27s.03.2.1.25c.06.06.17.11.31.15l1.68.44c.39.09.68.25.86.48s.28.52.28.88c0,.27-.06.51-.19.71-.13.21-.31.37-.54.49-.23.12-.51.18-.83.18h-2.69v-1.02Z"/>
    </g>
  </g>
  <g>
    <g>
      <line class="uuid-990e249d-410b-4341-934c-3dad331192bd" x1="104.13" y1="73.08" x2="107.21" y2="64.89"/>
      <rect class="uuid-d6630a87-e244-4b1c-856a-93c065e1d996" x="101.29" y="68.62" width="8.76" height=".73" transform="translate(3.95 143.66) rotate(-69.42)"/>
    </g>
    <g>
      <path class="uuid-3d5f4c14-1f8c-458e-8753-21afe5a40480" d="M109.31,72.22h-10.98l-.03.03v8.7h11.02v-8.74Z"/>
      <g>
        <path class="uuid-990e249d-410b-4341-934c-3dad331192bd" d="M101.54,74.99c.09-.19.23-.33.42-.42.19-.09.42-.14.71-.14h1.98v.83h-1.92c-.11,0-.2.01-.26.04-.06.03-.11.08-.14.14-.03.06-.04.15-.04.26v.32h2.26v.83h-2.26v1.58h-.89v-2.73c0-.29.05-.52.14-.71Z"/>
        <path class="uuid-990e249d-410b-4341-934c-3dad331192bd" d="M108.19,78.43h-1.67c-.29,0-.53-.05-.71-.14-.19-.09-.33-.23-.42-.42s-.14-.43-.14-.71v-2.73h.89v2.73c0,.11.01.2.04.26.03.07.07.11.14.14.07.03.15.04.26.04h1.61v.83Z"/>
      </g>
      <g>
        <g>
          <rect class="uuid-cc1ce41b-c5ea-454f-bf3f-399b97932ee5" x="99.17" y="75.13" width=".88" height="5.83"/>
          <rect x="99.17" y="76.1" width=".88" height=".97"/>
          <rect x="99.17" y="78.05" width=".88" height=".97"/>
          <rect x="99.17" y="79.99" width=".88" height=".97"/>
          <rect class="uuid-cc1ce41b-c5ea-454f-bf3f-399b97932ee5" x="98.29" y="75.13" width=".88" height="5.83"/>
          <rect x="98.29" y="75.13" width=".88" height=".97"/>
          <rect x="98.29" y="77.08" width=".88" height=".97"/>
          <rect x="98.29" y="79.02" width=".88" height=".97"/>
        </g>
        <g>
          <rect class="uuid-cc1ce41b-c5ea-454f-bf3f-399b97932ee5" x="99.17" y="72.22" width=".88" height="2.91"/>
          <rect x="99.17" y="72.22" width=".88" height=".97"/>
          <rect x="99.17" y="74.16" width=".88" height=".97"/>
          <rect class="uuid-cc1ce41b-c5ea-454f-bf3f-399b97932ee5" x="98.29" y="72.22" width=".88" height="2.91"/>
          <rect x="98.29" y="73.19" width=".88" height=".97"/>
        </g>
      </g>
    </g>
  </g>
  <g>
    <rect class="uuid-d6630a87-e244-4b1c-856a-93c065e1d996" x="98.59" y="54.14" width="12.82" height=".73" transform="translate(3.9 115.93) rotate(-58.72)"/>
    <g>
      <path class="uuid-3d5f4c14-1f8c-458e-8753-21afe5a40480" d="M107.35,54.9h-9.68l-.03.03v7.09h9.71v-7.12Z"/>
      <g>
        <path class="uuid-990e249d-410b-4341-934c-3dad331192bd" d="M98.69,59.47h1.17v-2.35h-1.17v-.83h3.24v.83h-1.18v2.35h1.18v.83h-3.24v-.83Z"/>
        <path class="uuid-990e249d-410b-4341-934c-3dad331192bd" d="M103.13,60.14c-.21-.1-.38-.25-.49-.43-.11-.19-.17-.41-.17-.67v-.51h.9v.43c0,.16.05.28.14.37.09.09.22.13.38.13h1.03c.15,0,.26-.03.34-.1.08-.06.12-.16.12-.29,0-.12-.04-.21-.12-.28-.08-.06-.19-.09-.34-.09h-1.11v-.83h1.07c.14,0,.26-.03.34-.1.08-.06.12-.16.12-.29,0-.12-.04-.21-.12-.28-.08-.06-.19-.09-.34-.09h-1c-.16,0-.29.04-.38.13-.09.09-.14.21-.14.37v.26h-.89v-.34c0-.26.06-.48.17-.67s.27-.33.49-.43c.21-.1.47-.15.77-.15h1.01c.27,0,.5.04.7.13s.35.21.46.38c.11.17.16.36.16.59,0,.2-.04.38-.14.53-.09.15-.23.27-.42.37.21.1.37.22.46.37.09.14.14.32.14.54s-.05.42-.16.59c-.11.17-.27.29-.47.38-.2.09-.44.13-.71.13h-1.03c-.3,0-.56-.05-.77-.15Z"/>
      </g>
    </g>
  </g>
  <g>
    <rect class="uuid-d6630a87-e244-4b1c-856a-93c065e1d996" x="15.25" y="52.03" width="12.21" height=".73" transform="translate(-35.22 53.24) rotate(-68.68)"/>
    <path class="uuid-3d5f4c14-1f8c-458e-8753-21afe5a40480" d="M25.68,54.23h-10.14l-.03.03v7.93h10.17v-7.96Z"/>
    <g>
      <path class="uuid-990e249d-410b-4341-934c-3dad331192bd" d="M16.81,59.28h1.17v-2.35h-1.17v-.83h3.24v.83h-1.18v2.35h1.18v.83h-3.24v-.83Z"/>
      <path class="uuid-990e249d-410b-4341-934c-3dad331192bd" d="M21.15,59.98c-.18-.09-.32-.21-.42-.36-.09-.16-.14-.34-.14-.55,0-.3.09-.54.27-.73.18-.19.48-.33.9-.41l1.27-.27c.12-.02.21-.05.28-.08.07-.03.11-.07.14-.12.03-.04.05-.11.05-.18,0-.11-.04-.2-.13-.25s-.22-.08-.41-.08h-.92c-.17,0-.3.04-.39.13-.09.09-.13.21-.13.37v.15h-.89v-.24c0-.26.06-.48.17-.67.11-.18.27-.33.49-.43.21-.1.47-.15.78-.15h.88c.47,0,.83.1,1.08.3s.37.49.37.86c0,.22-.04.41-.11.56-.07.15-.18.27-.33.37-.15.09-.34.16-.58.21l-1.5.3c-.13.03-.23.07-.29.12-.07.05-.1.12-.1.2s.03.15.09.2c.06.04.15.07.27.07h2.53v.83h-2.57c-.25,0-.47-.04-.65-.13Z"/>
    </g>
  </g>
</svg>