<?xml version="1.0" encoding="UTF-8"?>
<svg id="uuid-9d16c2f0-338e-486d-a773-5bdb32897e82" data-name="Capa 1" xmlns="http://www.w3.org/2000/svg" viewBox="0 0 210 112">
  <defs>
    <style>
      .uuid-bf1f0cc7-5535-48c6-bad2-3ca988c0d9ce {
        fill: #323232;
      }

      .uuid-5c47aa1d-8036-4706-a1be-507ed4d1faa7 {
        fill: #444;
      }

      .uuid-72d3bd56-a06b-4ba3-a518-ac7a98f30a25 {
        fill: #e6e6e6;
      }

      .uuid-5b0f5b76-3f83-4e6e-af55-4e4680d5e246 {
        fill: #f6f6f6;
      }

      .uuid-b6d66ca4-6c39-480b-96c6-1f4b1f3c54bc {
        fill: #606060;
      }

      .uuid-c9ee9d6d-fe21-46cf-8648-daeb49484fe7 {
        fill: #a0a0a0;
      }

      .uuid-298d7e6c-d009-446f-ae88-63ab8cb73344 {
        fill: #c6c6c6;
      }

      .uuid-951edf85-499c-47a8-831c-bd3430b3b488 {
        fill: #fafafa;
      }

      .uuid-fb825dcb-9a4e-49fe-bb52-d29014029a02 {
        fill: red;
      }

      .uuid-571875d8-fa70-41d8-97ed-8e4b775a9326 {
        fill: #ededed;
      }
    </style>
  </defs>
  <path class="uuid-b6d66ca4-6c39-480b-96c6-1f4b1f3c54bc" d="M108.6,50.79c-1.98,0-3.8-1.12-4.83-3.07-1.26-2.37-.88-5.04.96-6.8,3.75-3.57,11.46-7.24,11.78-7.39l.6,1.28c-.08.04-7.83,3.72-11.41,7.14-1.67,1.59-1.42,3.75-.69,5.12.7,1.32,2.28,2.69,4.43,2.22,1.24-.27,2.8-1.15,4.61-2.16,1.94-1.09,4.36-2.44,7.24-3.52l.5,1.32c-2.77,1.04-5.04,2.31-7.05,3.43-1.99,1.11-3.55,1.99-5,2.31-.39.08-.77.13-1.15.13Z"/>
  <path class="uuid-c9ee9d6d-fe21-46cf-8648-daeb49484fe7" d="M28.67,103.77c-3.14,0-5.99-.5-8.45-1.64-8.12-3.77-10.71-12.32-12.17-20.18-.11-.64-2.49-15.29,1.26-21.93,1.61-2.86,4.02-4.75,6.95-5.48,3.77-.93,7.4.21,9.37,1.47,2.75,1.77,5.08,2.27,6.23,1.34.81-.66.99-2.09.44-3.56-.04-.1-.08-.22-.14-.36-2.91-7.62-5.75-18.18-2.77-25.2,1.78-4.18,5.36-7.26,10.08-8.66,4.79-1.42,10.39-.96,15.76,1.29.47.2.99.42,1.55.66,5.07,2.18,13.56,5.84,21.64,5.11,3.83-.34,8.42-3.01,13.28-5.82,3.62-2.1,7.37-4.27,11.17-5.72,6.3-2.39,17.96-2.89,21.38-2.99,4.87-.14,10.45,1.55,11.48,6.7.59,2.94.1,5.13-1.58,7.12-1.78,2.1-5.02,4.02-10.2,6.03-9.77,3.79-13.68,9.2-13.04,11.03.53,1.51,1.72,2.7,6.84,1.21.68-.2,1.62-.51,2.82-.92,7.66-2.57,23.59-7.93,35.69-4.01,5.28,1.71,13.99,8.03,20.98,13.34,3.38,2.57,14.13,11.09,15.49,12.34,5.92,5.48,6.86,10.39,6.61,13.54-.31,3.9-2.56,7.42-6.32,9.92-4.95,3.28-10.15,2.75-15.48-1.59-2.14-1.75-4.8-5.61-7.88-10.09-1.95-2.83-3.97-5.76-6.06-8.47-6.07-7.83-15.05-9.51-26.71-5.01-2.86,1.11-7.8,3.09-14.69,5.89-3.72,1.52-8.01,3.27-12.75,5.22-3.3,1.36-6.73,2.77-10.22,4.21-4.83,1.99-9.76,4.03-14.6,6.04-2.11.87-4.2,1.74-6.25,2.59-2.98,1.23-6.03,2.56-9.26,3.97-13.78,5.99-28.99,12.6-40.44,12.6ZM19.08,56.23c-.77,0-1.56.09-2.34.28-2.42.6-4.33,2.12-5.68,4.51-3.4,6.02-1.05,20.44-1.03,20.59,1.37,7.34,3.75,15.31,11.03,18.7,10.62,4.93,30.07-3.52,47.23-10.98,3.24-1.41,6.3-2.74,9.3-3.98,2.06-.85,4.15-1.72,6.25-2.59h0c4.85-2.01,9.78-4.05,14.61-6.04,3.49-1.44,6.92-2.85,10.22-4.21,4.74-1.95,9.03-3.7,12.75-5.22,6.89-2.81,11.85-4.8,14.72-5.9,7.44-2.87,14.01-3.35,19.52-1.42,3.67,1.29,6.87,3.67,9.51,7.08,2.13,2.75,4.16,5.7,6.13,8.56,2.87,4.17,5.58,8.1,7.5,9.67,4.62,3.77,8.9,4.25,13.08,1.48,3.24-2.15,5.16-5.13,5.42-8.4.31-3.89-1.75-8-5.97-11.9-1.25-1.15-11.66-9.42-15.34-12.22-6.34-4.81-15.34-11.39-20.39-13.03-11.46-3.72-26.97,1.5-34.42,4-1.22.41-2.18.73-2.9.94-2.65.77-4.66.95-6.16.55-1.53-.41-2.59-1.43-3.15-3.03-.62-1.78.44-4.22,2.9-6.69,1.85-1.86,5.31-4.56,11.31-6.89,10.9-4.22,11.21-7.42,10.53-10.87-1.01-5.05-8.04-5.11-9.44-5.07-2.38.07-14.56.52-20.72,2.86-3.65,1.38-7.32,3.52-10.88,5.58-5.06,2.93-9.84,5.7-14.11,6.09-8.59.78-17.37-3.01-22.62-5.27-.55-.24-1.06-.46-1.53-.65-4.94-2.07-10.06-2.51-14.4-1.22-4.14,1.23-7.26,3.9-8.8,7.51-1.5,3.53-2.23,10.51,2.8,23.69.06.15.1.27.14.37.87,2.32.46,4.61-1.06,5.83-1.11.89-3.69,1.92-8.58-1.21-1.29-.83-3.31-1.49-5.45-1.49Z"/>
  <g>
    <circle class="uuid-5c47aa1d-8036-4706-a1be-507ed4d1faa7" cx="151.01" cy="66.58" r="3.46"/>
    <path class="uuid-298d7e6c-d009-446f-ae88-63ab8cb73344" d="M149.92,67.63h.92v-2.05l-.82.19v-.59l1.44-.32v2.77h.84v.59h-2.38v-.59Z"/>
  </g>
  <g>
    <circle class="uuid-5c47aa1d-8036-4706-a1be-507ed4d1faa7" cx="203.45" cy="84.73" r="3.46"/>
    <path class="uuid-298d7e6c-d009-446f-ae88-63ab8cb73344" d="M202.79,85.24c.17-.17.39-.35.64-.53.2-.15.35-.27.44-.37.09-.1.14-.22.14-.35,0-.12-.04-.22-.13-.3-.08-.08-.2-.12-.35-.12s-.29.04-.41.12c-.12.08-.22.2-.31.35l-.5-.32c.13-.24.29-.42.5-.55s.45-.19.72-.19c.22,0,.41.04.57.12.16.08.29.2.38.34.09.15.13.31.13.5s-.04.35-.11.49c-.07.14-.16.25-.26.35s-.24.2-.41.32c-.18.13-.33.24-.43.34-.11.1-.2.21-.26.35h1.54v.58h-2.33v-.46c.12-.27.27-.49.44-.67Z"/>
  </g>
  <g>
    <circle class="uuid-5c47aa1d-8036-4706-a1be-507ed4d1faa7" cx="152.21" cy="32.66" r="3.46"/>
    <path class="uuid-298d7e6c-d009-446f-ae88-63ab8cb73344" d="M151.49,34.19c-.21-.12-.37-.29-.49-.51l.47-.28c.08.14.19.25.3.32.12.07.26.11.43.11.18,0,.33-.05.45-.14.12-.09.18-.22.18-.37s-.05-.27-.16-.37-.24-.15-.4-.15h-.39v-.5h.39c.14,0,.26-.04.34-.11s.12-.18.12-.31-.05-.23-.14-.3c-.09-.08-.22-.12-.39-.12-.29,0-.52.14-.69.41l-.47-.28c.27-.45.67-.68,1.21-.68.21,0,.39.04.56.12s.29.19.38.33c.09.14.14.3.14.48,0,.16-.04.31-.12.44s-.18.22-.29.28c.15.08.28.19.37.34.09.15.14.3.14.47,0,.19-.05.36-.15.51-.1.15-.24.27-.43.36-.19.09-.4.13-.64.13-.28,0-.52-.06-.72-.18Z"/>
  </g>
  <g>
    <circle class="uuid-5c47aa1d-8036-4706-a1be-507ed4d1faa7" cx="99.49" cy="51.1" r="3.46"/>
    <path class="uuid-298d7e6c-d009-446f-ae88-63ab8cb73344" d="M98.26,51.56l.92-2.12h.63l-.89,2.05h.84v-.77h.61v.77h.48v.57h-.48v.69h-.61v-.69h-1.5v-.5Z"/>
  </g>
  <g>
    <circle class="uuid-5c47aa1d-8036-4706-a1be-507ed4d1faa7" cx="117.8" cy="26.18" r="3.46"/>
    <path class="uuid-298d7e6c-d009-446f-ae88-63ab8cb73344" d="M117.1,27.72c-.21-.12-.36-.29-.48-.51l.51-.32c.15.28.38.42.69.42.19,0,.34-.05.46-.16.11-.1.17-.25.17-.42s-.06-.32-.17-.43-.27-.16-.47-.16c-.24,0-.44.09-.6.27l-.4-.26.32-1.63h1.77v.58h-1.31l-.12.62c.13-.05.27-.08.43-.08.24,0,.45.05.62.14s.31.23.4.39c.09.17.14.36.14.57s-.05.41-.15.58c-.1.17-.25.31-.44.41-.19.1-.42.15-.67.15s-.5-.06-.7-.18Z"/>
  </g>
  <g>
    <circle class="uuid-5c47aa1d-8036-4706-a1be-507ed4d1faa7" cx="141.59" cy="21.05" r="3.46"/>
    <path class="uuid-298d7e6c-d009-446f-ae88-63ab8cb73344" d="M141.02,22.6c-.19-.11-.34-.25-.45-.43-.11-.18-.16-.38-.16-.6,0-.26.09-.52.28-.76l1.09-1.43h.75l-.81,1.03h.04c.21,0,.4.05.57.15s.32.24.42.42c.1.18.16.38.16.61s-.05.41-.16.59c-.11.18-.26.32-.45.42-.19.1-.4.16-.63.16s-.44-.05-.63-.16ZM142.11,22c.12-.12.17-.26.17-.44s-.06-.32-.18-.44c-.12-.12-.27-.18-.45-.18s-.33.06-.46.18c-.12.12-.18.27-.18.44s.06.31.18.43.27.18.46.18.34-.06.46-.18Z"/>
  </g>
  <g>
    <circle class="uuid-5c47aa1d-8036-4706-a1be-507ed4d1faa7" cx="103.07" cy="9.16" r="3.46"/>
    <path class="uuid-298d7e6c-d009-446f-ae88-63ab8cb73344" d="M103.59,8.08h-1.69v-.59h2.37v.5l-1.36,2.82h-.66l1.33-2.72Z"/>
  </g>
  <g>
    <circle class="uuid-5c47aa1d-8036-4706-a1be-507ed4d1faa7" cx="80.37" cy="20.35" r="3.46"/>
    <path class="uuid-298d7e6c-d009-446f-ae88-63ab8cb73344" d="M79.82,21.92c-.18-.09-.32-.21-.42-.36s-.15-.32-.15-.51c0-.17.04-.32.13-.46s.21-.26.36-.35c-.1-.05-.19-.14-.27-.27-.08-.13-.12-.28-.12-.44,0-.17.04-.33.14-.47.09-.14.22-.25.38-.33.16-.08.35-.12.56-.12s.39.04.56.12c.16.08.29.19.38.33.09.14.14.29.14.47,0,.16-.04.31-.11.44s-.17.22-.27.28c.15.08.26.19.35.34.09.15.13.3.13.47,0,.19-.05.36-.15.51-.1.15-.24.27-.42.36-.18.09-.38.13-.61.13s-.43-.04-.61-.13ZM80.84,21.39c.11-.1.16-.22.16-.38s-.05-.28-.16-.37-.24-.15-.41-.15-.3.05-.41.15c-.11.1-.16.22-.16.37,0,.16.05.28.16.38.11.09.24.14.41.14s.3-.05.41-.14ZM80.79,19.87c.08-.08.13-.18.13-.31s-.04-.23-.13-.3c-.09-.08-.2-.12-.35-.12s-.27.04-.35.12c-.08.08-.13.18-.13.3s.04.23.13.31c.08.08.2.12.35.12s.27-.04.35-.12Z"/>
  </g>
  <g>
    <circle class="uuid-5c47aa1d-8036-4706-a1be-507ed4d1faa7" cx="29.9" cy="18.26" r="3.46"/>
    <path class="uuid-298d7e6c-d009-446f-ae88-63ab8cb73344" d="M30.59,16.68c.19.11.34.25.45.43s.16.38.16.6c0,.26-.09.52-.28.76l-1.09,1.43h-.75l.81-1.03h-.04c-.21,0-.4-.05-.57-.15s-.32-.24-.42-.42c-.1-.18-.16-.38-.16-.61s.05-.41.16-.59c.11-.18.26-.32.45-.43.19-.1.4-.16.63-.16s.44.05.63.16ZM29.5,17.28c-.12.12-.17.26-.17.44s.06.32.18.44c.12.12.27.18.45.18s.33-.06.46-.18.18-.27.18-.44-.06-.31-.18-.43c-.12-.12-.27-.18-.46-.18s-.34.06-.46.18Z"/>
  </g>
  <g>
    <circle class="uuid-5c47aa1d-8036-4706-a1be-507ed4d1faa7" cx="38.19" cy="61.67" r="3.46"/>
    <g>
      <path class="uuid-298d7e6c-d009-446f-ae88-63ab8cb73344" d="M35.74,62.72h.92v-2.05l-.82.19v-.59l1.44-.32v2.77h.84v.59h-2.38v-.59Z"/>
      <path class="uuid-298d7e6c-d009-446f-ae88-63ab8cb73344" d="M39,63.23c-.19-.1-.33-.25-.44-.43-.11-.18-.16-.39-.16-.63v-1.03c0-.24.05-.45.16-.63.11-.18.25-.33.44-.43.19-.1.39-.15.62-.15s.44.05.62.15c.18.1.33.25.44.43s.16.39.16.63v1.03c0,.24-.05.45-.16.63s-.25.33-.44.43c-.18.1-.39.15-.62.15s-.43-.05-.62-.15ZM40.06,62.62c.11-.12.16-.27.16-.47v-.98c0-.2-.05-.36-.16-.48s-.25-.17-.44-.17-.34.06-.44.17-.16.27-.16.48v.98c0,.2.05.35.16.47s.26.17.44.17.33-.06.44-.17Z"/>
    </g>
  </g>
  <g>
    <circle class="uuid-5c47aa1d-8036-4706-a1be-507ed4d1faa7" cx="6.55" cy="51.92" r="3.46"/>
    <g>
      <path class="uuid-298d7e6c-d009-446f-ae88-63ab8cb73344" d="M4.1,52.98h.92v-2.05l-.82.19v-.59l1.44-.32v2.77h.84v.59h-2.38v-.59Z"/>
      <path class="uuid-298d7e6c-d009-446f-ae88-63ab8cb73344" d="M6.83,52.98h.92v-2.05l-.82.19v-.59l1.44-.32v2.77h.84v.59h-2.38v-.59Z"/>
    </g>
  </g>
  <g>
    <circle class="uuid-5c47aa1d-8036-4706-a1be-507ed4d1faa7" cx="17.61" cy="107.1" r="3.46"/>
    <g>
      <path class="uuid-298d7e6c-d009-446f-ae88-63ab8cb73344" d="M15.16,108.16h.92v-2.05l-.82.19v-.59l1.44-.32v2.77h.84v.59h-2.38v-.59Z"/>
      <path class="uuid-298d7e6c-d009-446f-ae88-63ab8cb73344" d="M18.31,107.62c.17-.17.39-.35.64-.53.2-.15.35-.27.44-.37.09-.1.14-.22.14-.35,0-.12-.04-.22-.13-.3-.08-.08-.2-.12-.35-.12s-.29.04-.41.12c-.12.08-.22.2-.31.35l-.5-.32c.13-.24.29-.42.5-.55s.45-.19.72-.19c.22,0,.41.04.57.12.16.08.29.2.38.34.09.15.13.31.13.5s-.04.35-.11.49c-.07.14-.16.25-.26.35s-.24.2-.41.32c-.18.13-.33.24-.43.34-.11.1-.2.21-.26.35h1.54v.58h-2.33v-.46c.12-.27.27-.49.44-.67Z"/>
    </g>
  </g>
  <g>
    <rect class="uuid-571875d8-fa70-41d8-97ed-8e4b775a9326" x="119.12" y="66.87" width=".73" height="9.41" transform="translate(-18.83 55.2) rotate(-24.17)"/>
    <g>
      <path class="uuid-5b0f5b76-3f83-4e6e-af55-4e4680d5e246" d="M124.39,73.17h-8.62l-.03.03v7.38h8.65v-7.41Z"/>
      <path class="uuid-bf1f0cc7-5535-48c6-bad2-3ca988c0d9ce" d="M118.09,78.21h2.69c.14,0,.25-.03.33-.09.08-.06.12-.15.12-.27,0-.11-.03-.19-.1-.24-.07-.06-.17-.11-.31-.15l-1.69-.45c-.39-.09-.67-.25-.86-.47-.18-.22-.28-.52-.28-.88,0-.26.06-.5.19-.71.13-.21.31-.37.54-.49.23-.12.51-.18.83-.18h2.58v1.02h-2.58c-.14,0-.26.03-.33.09-.08.06-.12.15-.12.27s.03.2.1.25c.06.06.17.11.31.15l1.68.44c.39.09.68.25.86.48s.28.52.28.88c0,.27-.06.51-.19.71-.13.21-.31.37-.54.49-.23.12-.51.18-.83.18h-2.69v-1.02Z"/>
    </g>
  </g>
  <g>
    <g>
      <line class="uuid-571875d8-fa70-41d8-97ed-8e4b775a9326" x1="86.42" y1="88.56" x2="82.13" y2="80.92"/>
      <rect class="uuid-72d3bd56-a06b-4ba3-a518-ac7a98f30a25" x="83.91" y="80.36" width=".73" height="8.76" transform="translate(-30.7 52.11) rotate(-29.31)"/>
    </g>
    <g>
      <path class="uuid-fb825dcb-9a4e-49fe-bb52-d29014029a02" d="M90.2,87.46h-10.98l-.03.03v8.7h11.02v-8.74Z"/>
      <g>
        <path class="uuid-571875d8-fa70-41d8-97ed-8e4b775a9326" d="M82.43,90.23c.09-.19.23-.33.42-.42.19-.09.42-.14.71-.14h1.98v.83h-1.92c-.11,0-.2.01-.26.04-.06.03-.11.08-.14.14-.03.06-.04.15-.04.26v.32h2.26v.83h-2.26v1.58h-.89v-2.73c0-.29.05-.52.14-.71Z"/>
        <path class="uuid-571875d8-fa70-41d8-97ed-8e4b775a9326" d="M89.08,93.67h-1.67c-.29,0-.53-.05-.71-.14-.19-.09-.33-.23-.42-.42s-.14-.43-.14-.71v-2.73h.89v2.73c0,.11.01.2.04.26.03.07.07.11.14.14.07.03.15.04.26.04h1.61v.83Z"/>
      </g>
      <g>
        <g>
          <rect class="uuid-951edf85-499c-47a8-831c-bd3430b3b488" x="80.06" y="90.37" width=".88" height="5.83"/>
          <rect x="80.06" y="91.34" width=".88" height=".97"/>
          <rect x="80.06" y="93.29" width=".88" height=".97"/>
          <rect x="80.06" y="95.23" width=".88" height=".97"/>
          <rect class="uuid-951edf85-499c-47a8-831c-bd3430b3b488" x="79.18" y="90.37" width=".88" height="5.83"/>
          <rect x="79.18" y="90.37" width=".88" height=".97"/>
          <rect x="79.18" y="92.31" width=".88" height=".97"/>
          <rect x="79.18" y="94.26" width=".88" height=".97"/>
        </g>
        <g>
          <rect class="uuid-951edf85-499c-47a8-831c-bd3430b3b488" x="80.06" y="87.46" width=".88" height="2.91"/>
          <rect x="80.06" y="87.46" width=".88" height=".97"/>
          <rect x="80.06" y="89.4" width=".88" height=".97"/>
          <rect class="uuid-951edf85-499c-47a8-831c-bd3430b3b488" x="79.18" y="87.46" width=".88" height="2.91"/>
          <rect x="79.18" y="88.43" width=".88" height=".97"/>
        </g>
      </g>
    </g>
  </g>
  <g>
    <rect class="uuid-72d3bd56-a06b-4ba3-a518-ac7a98f30a25" x="23.55" y="46.77" width="12.82" height=".73" transform="translate(-10.28 8.4) rotate(-13.65)"/>
    <g>
      <path class="uuid-fb825dcb-9a4e-49fe-bb52-d29014029a02" d="M26.51,42.92h-10.94l-.03.03v8.96h10.97v-9Z"/>
      <g>
        <path class="uuid-571875d8-fa70-41d8-97ed-8e4b775a9326" d="M17.23,48.44h1.18v-2.35h-1.18v-.83h3.24v.83h-1.18v2.35h1.18v.83h-3.24v-.83Z"/>
        <path class="uuid-571875d8-fa70-41d8-97ed-8e4b775a9326" d="M21.66,49.12c-.21-.1-.38-.25-.49-.43-.11-.19-.16-.41-.16-.67v-.51h.89v.43c0,.16.05.28.14.37.09.09.22.13.38.13h1.03c.15,0,.26-.03.34-.1.08-.06.12-.16.12-.29,0-.12-.04-.21-.12-.28s-.19-.09-.34-.09h-1.11v-.83h1.07c.14,0,.26-.03.34-.1.08-.06.12-.16.12-.29,0-.12-.04-.21-.12-.28-.08-.06-.2-.09-.34-.09h-1c-.16,0-.29.04-.38.13-.09.09-.14.21-.14.37v.26h-.89v-.34c0-.26.06-.48.17-.67s.27-.33.48-.43.47-.15.77-.15h1.02c.27,0,.5.04.7.13.2.09.35.21.46.38.11.17.16.36.16.59,0,.2-.04.38-.14.53-.09.15-.23.27-.42.37.21.1.37.22.46.37.09.14.14.32.14.54s-.05.42-.16.59-.27.29-.47.38c-.2.09-.44.13-.71.13h-1.03c-.3,0-.56-.05-.77-.15Z"/>
      </g>
    </g>
  </g>
  <g>
    <rect class="uuid-72d3bd56-a06b-4ba3-a518-ac7a98f30a25" x="116.06" y="4.7" width=".73" height="12.21" transform="translate(-.45 7.51) rotate(-3.69)"/>
    <path class="uuid-fb825dcb-9a4e-49fe-bb52-d29014029a02" d="M122.33,1.4h-10.14l-.03.03v7.93h10.17V1.4Z"/>
    <g>
      <path class="uuid-571875d8-fa70-41d8-97ed-8e4b775a9326" d="M113.46,6.45h1.17v-2.35h-1.17v-.83h3.24v.83h-1.18v2.35h1.18v.83h-3.24v-.83Z"/>
      <path class="uuid-571875d8-fa70-41d8-97ed-8e4b775a9326" d="M117.8,7.15c-.18-.09-.32-.21-.42-.36-.09-.16-.14-.34-.14-.55,0-.3.09-.54.27-.73.18-.19.48-.33.9-.41l1.27-.27c.12-.02.21-.05.28-.08.07-.03.11-.07.14-.12.03-.04.05-.11.05-.18,0-.11-.04-.2-.13-.25s-.22-.08-.41-.08h-.92c-.17,0-.3.04-.39.13-.09.09-.13.21-.13.37v.15h-.89v-.24c0-.26.06-.48.17-.67.11-.18.27-.33.49-.43.21-.1.47-.15.78-.15h.88c.47,0,.83.1,1.08.3s.37.49.37.86c0,.22-.04.41-.11.56-.07.15-.18.27-.33.37-.15.09-.34.16-.58.21l-1.5.3c-.13.03-.23.07-.29.12-.07.05-.1.12-.1.2s.03.15.09.2c.06.04.15.07.27.07h2.53v.83h-2.57c-.25,0-.47-.04-.65-.13Z"/>
    </g>
  </g>
  <g>
    <rect class="uuid-72d3bd56-a06b-4ba3-a518-ac7a98f30a25" x="184.34" y="60.59" width="11.53" height=".73" transform="translate(22.11 168.82) rotate(-50.48)"/>
    <path class="uuid-fb825dcb-9a4e-49fe-bb52-d29014029a02" d="M201.24,52.24h-10.14l-.03.03v8.76h10.17v-8.79Z"/>
    <g>
      <path class="uuid-571875d8-fa70-41d8-97ed-8e4b775a9326" d="M192.77,57.76h1.17v-2.35h-1.17v-.83h3.24v.83h-1.18v2.35h1.18v.83h-3.24v-.83Z"/>
      <path class="uuid-571875d8-fa70-41d8-97ed-8e4b775a9326" d="M196.63,57.76h1.49v-2.1c0-.07-.02-.13-.05-.17-.03-.04-.08-.06-.16-.06-.04,0-.08,0-.13.02-.05.01-.11.04-.17.06l-.89.29v-.83l.81-.29c.12-.04.23-.08.34-.1s.22-.04.32-.04c.17,0,.31.04.43.11.12.07.22.18.28.32s.09.29.09.47v2.33h1.32v.83h-3.7v-.83Z"/>
    </g>
  </g>
</svg>