<?xml version="1.0" encoding="UTF-8"?>
<svg id="uuid-6f3ea1b9-8a5c-40ed-b847-b2463c18b42d" data-name="Capa 1" xmlns="http://www.w3.org/2000/svg" viewBox="0 0 210 130">
  <defs>
    <style>
      .uuid-09efedc9-5ec1-4750-869c-6f9479ebb12b {
        fill: #323232;
      }

      .uuid-d1d15c0d-7a65-4e55-ba54-517c489879a0 {
        fill: #444;
      }

      .uuid-c78f9d45-5dd8-4fcf-ad1c-60d6515ef55c {
        fill: #e6e6e6;
      }

      .uuid-6dd0aed5-ee82-47e2-bd0d-d832b411b4e8 {
        fill: #f6f6f6;
      }

      .uuid-c7ba1b0e-f885-4a5e-b896-67c04f694c10 {
        fill: #606060;
      }

      .uuid-4ba9a77c-d814-49f8-af24-6074b2ce2489 {
        fill: #a0a0a0;
      }

      .uuid-8088e8a0-290a-4d8d-942e-251a636e29fa {
        fill: #c6c6c6;
      }

      .uuid-ba35f5e7-676f-44df-a515-ca408d5f3cfa {
        fill: #fafafa;
      }

      .uuid-fd6de2bb-2e45-4d49-8d27-632fcef576f8 {
        fill: red;
      }

      .uuid-f35645b1-bd74-483d-9c22-a31488c6c280 {
        fill: #ededed;
      }
    </style>
  </defs>
  <path class="uuid-c7ba1b0e-f885-4a5e-b896-67c04f694c10" d="M82.37,123.89c-1.1,0-1.93-.39-2.63-1.33-1.41-1.91-1.19-3.72-.91-6.01.15-1.24.32-2.65.29-4.38-.1-5.25-1.6-9.27-5.16-13.89l1.12-.87c3.72,4.82,5.35,9.22,5.46,14.73.04,1.83-.14,3.29-.3,4.58-.27,2.21-.43,3.54.64,5,.97,1.31,2.38.88,7.12-.82,2.16-.78,4.86-1.74,8.35-2.77l.4,1.36c-3.45,1.02-6.12,1.98-8.27,2.75-2.71.97-4.64,1.67-6.11,1.67Z"/>
  <path class="uuid-4ba9a77c-d814-49f8-af24-6074b2ce2489" d="M91.49,120.61h-.03c-2.33-.02-3.36-2.19-3.91-3.36-2.1-4.45-10.22-14.94-12.94-18.26-1.44-1.76-6.25-8.31-10.21-14.18-3.64-5.4-6.59-10.47-7.14-11.43-3.45-5.99-8.23-12.45-10.22-14.62l-.22-.24c-1.69-1.84-1.75-2.23-.77-4.71.06-.16.13-.32.2-.5.58-1.48,1.16-2.85,1.59-3.85.35-.81.65-1.52.72-1.76l.05-.16c.2-.66.23-.75-.98-1.94-1.07-1.06-4.7-4.87-8.55-8.9-3.84-4.03-7.81-8.19-8.63-8.98-1.26-1.22-11.04-10.41-16.29-15.35-1.5-1.41-2.6-2.44-2.96-2.79-.53-.5-1.01-.96-1.55-1.62-.68-.83-.85-1.92-.47-2.92.52-1.36,1.95-2.31,3.92-2.61,4.35-.65,17.57-2.63,30.94-1.29,9.77.98,21.5,3.1,30.07,4.65,2.33.42,4.34.78,6.02,1.07,8.31,1.42,17.65,2.75,29.69,2.82,2.17.01,4.05.02,5.69.03,7.81.04,9.91.05,11,.16,1.83.19,4.19,1.47,5.17,3.54.56,1.2.89,3.14-.76,5.6-3.26,4.88-4.52,6.44-7.08,8.78-.95.87-4.48,3.87-9.8,5.82-4.91,1.8-10.12,2.31-15.48,1.52-12.11-1.78-13.38-1.95-16.17-2.32l-.36-.05c-.34-.04-.81-.11-1.35-.2-1.23-.18-2.91-.44-4.39-.58-6.04-.58-9.02,1.98-10.45,4.24-3.93,6.2-1.57,10.25,1.42,15.38.37.63.74,1.27,1.12,1.94,2.67,4.74,4.58,7.88,6.26,10.65.5.81.97,1.59,1.43,2.36,2.01,3.34,4.52,5.15,7.67,5.53,6.14.74,10.09-3.64,11.9-6.32,2.5-3.7,5.26-6.34,8.67-8.3,3.99-2.29,8.75-3.56,15-4,4.03-.28,33.42-1.44,49.21-2.06,4.98-.2,8.59-.34,9.53-.38.4-.02.79-.04,1.19-.06,6.35-.32,12.35-.61,15.69,9.77,2.2,6.86,3.59,11.4,4.42,14.11.42,1.36.69,2.26.87,2.8,1.49,4.52.94,6.66-5.24,10.39-6.5,3.93-10.58,5.58-22.99,9.28-3.94,1.17-9.31,2.75-15.97,4.68h0c-10.49,3.04-20.64,5.95-20.74,5.98l-38.33,11.31c-.49.17-3.76,1.31-5.45,1.31ZM34.44,2.7c-9.53,0-17.8,1.24-21.05,1.72-1.2.18-2.07.68-2.32,1.33-.12.32-.07.64.14.9.42.51.79.88,1.37,1.43.37.35,1.46,1.38,2.96,2.79,5.26,4.94,15.04,14.14,16.31,15.37.85.82,4.66,4.81,8.69,9.04,3.67,3.85,7.46,7.83,8.51,8.86,1.78,1.76,1.93,2.54,1.49,3.98l-.05.15c-.11.35-.38,1-.8,1.97-.45,1.04-1,2.34-1.57,3.79-.07.18-.14.35-.2.51-.28.71-.52,1.33-.5,1.51.02.15.44.61.88,1.08l.22.24c2.05,2.24,6.97,8.87,10.49,14.98.55.95,3.46,5.96,7.07,11.31,4.23,6.27,8.89,12.56,10.1,14.03,2.05,2.5,10.86,13.7,13.21,18.68.87,1.84,1.41,2.19,2.09,2.2,1.14.01,3.86-.86,4.81-1.2l.05-.02,38.37-11.32c.11-.03,10.25-2.93,20.74-5.98,6.66-1.93,12.02-3.51,15.96-4.68,12.2-3.64,16.2-5.25,22.52-9.07,5.84-3.53,5.38-4.94,4.37-8.02-.18-.56-.46-1.47-.88-2.84-.83-2.71-2.21-7.23-4.41-14.08-2.86-8.9-7.39-8.67-13.66-8.36-.4.02-.8.04-1.2.06-.95.04-4.55.18-9.54.38-15.78.62-45.15,1.78-49.15,2.06-5.93.42-10.42,1.61-14.13,3.73-3.14,1.8-5.68,4.24-8,7.68-4.82,7.14-10.73,7.58-13.83,7.2-3.76-.45-6.84-2.64-9.16-6.5-.46-.77-.93-1.54-1.43-2.35-1.69-2.78-3.61-5.94-6.3-10.71-.36-.65-.74-1.29-1.1-1.91-3.07-5.27-5.98-10.24-1.39-17.49,2.45-3.87,6.84-5.71,12.36-5.18,1.53.15,3.24.4,4.49.59.53.08.98.15,1.31.19l.36.05c2.8.37,4.08.53,16.2,2.32,5.02.74,9.89.26,14.48-1.42,4.97-1.82,8.24-4.61,9.13-5.42,2.44-2.23,3.57-3.65,6.76-8.41.9-1.34,1.1-2.56.61-3.61-.69-1.46-2.49-2.28-3.54-2.39-.99-.1-3.27-.11-10.8-.15-1.63,0-3.51-.02-5.69-.03-12.18-.06-21.63-1.41-30.02-2.85-1.69-.29-3.7-.65-6.04-1.08-8.54-1.54-20.23-3.66-29.91-4.63-3.17-.32-6.34-.44-9.39-.44Z"/>
  <g>
    <circle class="uuid-d1d15c0d-7a65-4e55-ba54-517c489879a0" cx="94.74" cy="125.72" r="3.47"/>
    <path class="uuid-8088e8a0-290a-4d8d-942e-251a636e29fa" d="M93.65,126.78h.93v-2.06l-.83.19v-.59l1.44-.32v2.78h.85v.59h-2.39v-.59Z"/>
  </g>
  <g>
    <circle class="uuid-d1d15c0d-7a65-4e55-ba54-517c489879a0" cx="40.55" cy="59.17" r="3.47"/>
    <g>
      <path class="uuid-8088e8a0-290a-4d8d-942e-251a636e29fa" d="M39.98,58.42c0-.24-.17-.42-.48-.42s-.55.18-.72.47l-.5-.32c.25-.47.67-.75,1.22-.75.66,0,1.09.4,1.09.97,0,1.01-1.1,1.1-1.48,1.85h1.55v.58h-2.34v-.46c.52-1.16,1.67-1.3,1.67-1.93Z"/>
      <path class="uuid-8088e8a0-290a-4d8d-942e-251a636e29fa" d="M41.01,60.18c0-.4.33-.7.79-.7.2,0,.37.06.49.16v-.12c0-.27-.17-.42-.44-.42-.19,0-.37.07-.57.2l-.2-.41c.23-.17.53-.26.84-.26.6,0,.92.32.92.92v1.26h-.51v-.15c-.12.14-.3.22-.53.22-.46,0-.79-.29-.79-.7ZM42.3,60.18c0-.2-.16-.34-.37-.34s-.38.14-.38.34.16.34.38.34.37-.14.37-.34Z"/>
    </g>
  </g>
  <g>
    <circle class="uuid-d1d15c0d-7a65-4e55-ba54-517c489879a0" cx="55.8" cy="44.23" r="3.47"/>
    <g>
      <path class="uuid-8088e8a0-290a-4d8d-942e-251a636e29fa" d="M55.06,43.48c0-.24-.17-.42-.48-.42s-.55.18-.72.47l-.5-.32c.25-.47.67-.75,1.22-.75.66,0,1.09.4,1.09.97,0,1.01-1.1,1.1-1.48,1.85h1.55v.58h-2.34v-.46c.52-1.16,1.67-1.3,1.67-1.93Z"/>
      <path class="uuid-8088e8a0-290a-4d8d-942e-251a636e29fa" d="M56.72,45.65v.22h-.51v-3.11h.55v1.19c.14-.16.35-.26.6-.26.6,0,1.04.5,1.04,1.12s-.45,1.12-1.05,1.12c-.27,0-.5-.12-.64-.29ZM57.86,44.82c0-.35-.25-.6-.57-.6s-.56.24-.56.6.24.59.56.59.57-.24.57-.59Z"/>
    </g>
  </g>
  <g>
    <circle class="uuid-d1d15c0d-7a65-4e55-ba54-517c489879a0" cx="3.47" cy="5.52" r="3.47"/>
    <path class="uuid-8088e8a0-290a-4d8d-942e-251a636e29fa" d="M2.27,6.54l.47-.28c.16.28.39.43.74.43s.63-.2.63-.51c0-.29-.24-.52-.56-.52h-.4v-.5h.4c.29,0,.46-.16.46-.42s-.2-.42-.53-.42c-.3,0-.52.13-.69.41l-.47-.28c.26-.44.66-.68,1.21-.68.64,0,1.08.4,1.08.93,0,.34-.19.61-.41.71.31.15.51.47.51.81,0,.57-.48,1.01-1.23,1.01-.56,0-.98-.26-1.22-.7Z"/>
  </g>
  <g>
    <circle class="uuid-d1d15c0d-7a65-4e55-ba54-517c489879a0" cx="137.58" cy="13.61" r="3.47"/>
    <path class="uuid-8088e8a0-290a-4d8d-942e-251a636e29fa" d="M136.34,14.06l.92-2.13h.64l-.89,2.06h.84v-.77h.62v.77h.48v.58h-.48v.69h-.62v-.69h-1.51v-.5Z"/>
  </g>
  <g>
    <circle class="uuid-d1d15c0d-7a65-4e55-ba54-517c489879a0" cx="114.06" cy="39.49" r="3.47"/>
    <path class="uuid-8088e8a0-290a-4d8d-942e-251a636e29fa" d="M112.88,40.52l.51-.32c.15.28.37.42.69.42.38,0,.63-.23.63-.58s-.23-.6-.64-.6c-.25,0-.45.1-.61.27l-.41-.26.32-1.64h1.78v.59h-1.31l-.12.63c.13-.06.27-.08.43-.08.73,0,1.17.47,1.17,1.12s-.47,1.15-1.26,1.15c-.52,0-.96-.25-1.18-.69Z"/>
  </g>
  <g>
    <circle class="uuid-d1d15c0d-7a65-4e55-ba54-517c489879a0" cx="70.59" cy="39.02" r="3.47"/>
    <path class="uuid-8088e8a0-290a-4d8d-942e-251a636e29fa" d="M69.4,39.55c0-.27.1-.53.28-.76l1.1-1.44h.75l-.81,1.04h.04c.62,0,1.15.49,1.15,1.18,0,.66-.53,1.18-1.24,1.18s-1.25-.54-1.25-1.2ZM71.28,39.54c0-.35-.26-.62-.63-.62s-.64.28-.64.63.26.61.64.61.63-.27.63-.62Z"/>
  </g>
  <g>
    <circle class="uuid-d1d15c0d-7a65-4e55-ba54-517c489879a0" cx="86.12" cy="66.44" r="3.47"/>
    <path class="uuid-8088e8a0-290a-4d8d-942e-251a636e29fa" d="M86.65,65.35h-1.7v-.59h2.38v.5l-1.36,2.83h-.66l1.34-2.74Z"/>
  </g>
  <g>
    <circle class="uuid-d1d15c0d-7a65-4e55-ba54-517c489879a0" cx="111.73" cy="62.47" r="3.47"/>
    <path class="uuid-8088e8a0-290a-4d8d-942e-251a636e29fa" d="M110.61,63.17c0-.33.18-.64.49-.81-.2-.09-.39-.38-.39-.71,0-.54.44-.92,1.08-.92s1.08.38,1.08.92c0,.34-.18.61-.39.71.29.15.49.47.49.81,0,.57-.48,1.01-1.18,1.01s-1.18-.44-1.18-1.01ZM112.36,63.13c0-.3-.24-.52-.57-.52s-.57.23-.57.52c0,.32.24.52.57.52s.57-.21.57-.52ZM112.27,61.68c0-.25-.18-.42-.48-.42s-.48.17-.48.42.18.43.48.43.48-.17.48-.43Z"/>
  </g>
  <g>
    <circle class="uuid-d1d15c0d-7a65-4e55-ba54-517c489879a0" cx="193.82" cy="48.94" r="3.47"/>
    <path class="uuid-8088e8a0-290a-4d8d-942e-251a636e29fa" d="M195.13,48.39c0,.27-.1.53-.28.76l-1.1,1.44h-.75l.81-1.04h-.04c-.62,0-1.15-.49-1.15-1.18,0-.66.53-1.18,1.24-1.18s1.25.54,1.25,1.2ZM193.24,48.4c0,.35.26.62.63.62s.64-.28.64-.63-.26-.61-.64-.61-.63.27-.63.62Z"/>
  </g>
  <g>
    <circle class="uuid-d1d15c0d-7a65-4e55-ba54-517c489879a0" cx="206.53" cy="82.02" r="3.47"/>
    <g>
      <path class="uuid-8088e8a0-290a-4d8d-942e-251a636e29fa" d="M204.06,83.07h.93v-2.06l-.83.19v-.59l1.45-.32v2.78h.85v.59h-2.39v-.59Z"/>
      <path class="uuid-8088e8a0-290a-4d8d-942e-251a636e29fa" d="M206.74,82.52v-1.03c0-.73.54-1.22,1.22-1.22s1.22.49,1.22,1.22v1.03c0,.73-.53,1.22-1.22,1.22s-1.22-.49-1.22-1.22ZM208.57,82.5v-.99c0-.4-.23-.65-.61-.65s-.61.25-.61.65v.99c0,.4.23.65.61.65s.61-.25.61-.65Z"/>
    </g>
  </g>
  <g>
    <rect class="uuid-f35645b1-bd74-483d-9c22-a31488c6c280" x="125.04" y="107.29" width=".73" height="9.41" transform="translate(-29.03 45.51) rotate(-18.48)"/>
    <g>
      <path class="uuid-6dd0aed5-ee82-47e2-bd0d-d832b411b4e8" d="M130.7,114.61h-8.62l-.03.03v7.38h8.65v-7.41Z"/>
      <path class="uuid-09efedc9-5ec1-4750-869c-6f9479ebb12b" d="M124.4,119.65h2.69c.14,0,.25-.03.33-.09.08-.06.12-.15.12-.27,0-.11-.03-.19-.1-.24-.07-.06-.17-.11-.31-.15l-1.69-.45c-.39-.09-.67-.25-.86-.47-.18-.22-.28-.52-.28-.88,0-.26.06-.5.19-.71.13-.21.31-.37.54-.49.23-.12.51-.18.83-.18h2.58v1.02h-2.58c-.14,0-.26.03-.33.09-.08.06-.12.15-.12.27s.03.2.1.25c.06.06.17.11.31.15l1.68.44c.39.09.68.25.86.48s.28.52.28.88c0,.27-.06.51-.19.71-.13.21-.31.37-.54.49-.23.12-.51.18-.83.18h-2.69v-1.02Z"/>
    </g>
  </g>
  <g>
    <g>
      <line class="uuid-f35645b1-bd74-483d-9c22-a31488c6c280" x1="157.38" y1="106.56" x2="154.95" y2="98.14"/>
      <rect class="uuid-c78f9d45-5dd8-4fcf-ad1c-60d6515ef55c" x="155.8" y="97.97" width=".73" height="8.76" transform="translate(-22.25 47.3) rotate(-16.09)"/>
    </g>
    <g>
      <path class="uuid-fd6de2bb-2e45-4d49-8d27-632fcef576f8" d="M162.03,104.98h-10.98l-.03.03v8.7h11.02v-8.74Z"/>
      <g>
        <path class="uuid-f35645b1-bd74-483d-9c22-a31488c6c280" d="M154.27,107.75c.09-.19.23-.33.42-.42.19-.09.42-.14.71-.14h1.98v.83h-1.92c-.11,0-.2.01-.26.04-.06.03-.11.08-.14.14-.03.06-.04.15-.04.26v.32h2.26v.83h-2.26v1.58h-.89v-2.73c0-.29.05-.52.14-.71Z"/>
        <path class="uuid-f35645b1-bd74-483d-9c22-a31488c6c280" d="M160.92,111.19h-1.67c-.29,0-.53-.05-.71-.14-.19-.09-.33-.23-.42-.42s-.14-.43-.14-.71v-2.73h.89v2.73c0,.11.01.2.04.26.03.07.07.11.14.14.07.03.15.04.26.04h1.61v.83Z"/>
      </g>
      <g>
        <g>
          <rect class="uuid-ba35f5e7-676f-44df-a515-ca408d5f3cfa" x="151.89" y="107.89" width=".88" height="5.83"/>
          <rect x="151.89" y="108.86" width=".88" height=".97"/>
          <rect x="151.89" y="110.8" width=".88" height=".97"/>
          <rect x="151.89" y="112.74" width=".88" height=".97"/>
          <rect class="uuid-ba35f5e7-676f-44df-a515-ca408d5f3cfa" x="151.02" y="107.89" width=".88" height="5.83"/>
          <rect x="151.02" y="107.89" width=".88" height=".97"/>
          <rect x="151.02" y="109.83" width=".88" height=".97"/>
          <rect x="151.02" y="111.77" width=".88" height=".97"/>
        </g>
        <g>
          <rect class="uuid-ba35f5e7-676f-44df-a515-ca408d5f3cfa" x="151.89" y="104.98" width=".88" height="2.91"/>
          <rect x="151.89" y="104.98" width=".88" height=".97"/>
          <rect x="151.89" y="106.92" width=".88" height=".97"/>
          <rect class="uuid-ba35f5e7-676f-44df-a515-ca408d5f3cfa" x="151.02" y="104.98" width=".88" height="2.91"/>
          <rect x="151.02" y="105.95" width=".88" height=".97"/>
        </g>
      </g>
    </g>
  </g>
  <g>
    <rect class="uuid-c78f9d45-5dd8-4fcf-ad1c-60d6515ef55c" x="142.61" y="43.81" width=".73" height="12.82" transform="translate(-.5 1.44) rotate(-.58)"/>
    <g>
      <path class="uuid-fd6de2bb-2e45-4d49-8d27-632fcef576f8" d="M149.92,39.89h-10.94l-.03.03v8.96h10.97v-9Z"/>
      <g>
        <path class="uuid-f35645b1-bd74-483d-9c22-a31488c6c280" d="M140.64,45.41h1.17v-2.35h-1.17v-.83h3.24v.83h-1.18v2.35h1.18v.83h-3.24v-.83Z"/>
        <path class="uuid-f35645b1-bd74-483d-9c22-a31488c6c280" d="M145.07,46.09c-.21-.1-.38-.25-.49-.43-.11-.19-.17-.41-.17-.67v-.51h.9v.43c0,.16.05.28.14.37.09.09.22.13.38.13h1.03c.15,0,.26-.03.34-.1.08-.06.12-.16.12-.29,0-.12-.04-.21-.12-.28-.08-.06-.19-.09-.34-.09h-1.11v-.83h1.07c.14,0,.26-.03.34-.1.08-.06.12-.16.12-.29,0-.12-.04-.21-.12-.28-.08-.06-.19-.09-.34-.09h-1c-.16,0-.29.04-.38.13-.09.09-.14.21-.14.37v.26h-.89v-.34c0-.26.06-.48.17-.67s.27-.33.49-.43c.21-.1.47-.15.77-.15h1.01c.27,0,.5.04.7.13s.35.21.46.38c.11.17.16.36.16.59,0,.2-.04.38-.14.53-.09.15-.23.27-.42.37.21.1.37.22.46.37.09.14.14.32.14.54s-.05.42-.16.59c-.11.17-.27.29-.47.38-.2.09-.44.13-.71.13h-1.03c-.3,0-.56-.05-.77-.15Z"/>
      </g>
    </g>
  </g>
  <g>
    <rect class="uuid-c78f9d45-5dd8-4fcf-ad1c-60d6515ef55c" x="122.32" y="25.13" width=".73" height="12.21" transform="translate(2.79 71.86) rotate(-33)"/>
    <path class="uuid-fd6de2bb-2e45-4d49-8d27-632fcef576f8" d="M132.22,32.36h-10.14l-.03.03v7.93h10.17v-7.96Z"/>
    <g>
      <path class="uuid-f35645b1-bd74-483d-9c22-a31488c6c280" d="M123.35,37.42h1.17v-2.35h-1.17v-.83h3.24v.83h-1.18v2.35h1.18v.83h-3.24v-.83Z"/>
      <path class="uuid-f35645b1-bd74-483d-9c22-a31488c6c280" d="M127.69,38.11c-.18-.09-.32-.21-.42-.36-.09-.16-.14-.34-.14-.55,0-.3.09-.54.27-.73.18-.19.48-.33.9-.41l1.27-.27c.12-.02.21-.05.28-.08.07-.03.11-.07.14-.12.03-.04.05-.11.05-.18,0-.11-.04-.2-.13-.25s-.22-.08-.41-.08h-.92c-.17,0-.3.04-.39.13-.09.09-.13.21-.13.37v.15h-.89v-.24c0-.26.06-.48.17-.67.11-.18.27-.33.49-.43.21-.1.47-.15.78-.15h.88c.47,0,.83.1,1.08.3s.37.49.37.86c0,.22-.04.41-.11.56-.07.15-.18.27-.33.37-.15.09-.34.16-.58.21l-1.5.3c-.13.03-.23.07-.29.12-.07.05-.1.12-.1.2s.03.15.09.2c.06.04.15.07.27.07h2.53v.83h-2.57c-.25,0-.47-.04-.65-.13Z"/>
    </g>
  </g>
  <g>
    <rect class="uuid-c78f9d45-5dd8-4fcf-ad1c-60d6515ef55c" x="33.81" y="39.13" width="11.53" height=".73" transform="translate(-16.33 38.83) rotate(-44.26)"/>
    <path class="uuid-fd6de2bb-2e45-4d49-8d27-632fcef576f8" d="M38.43,38.98h-10.14l-.03.03v8.76h10.17v-8.79Z"/>
    <g>
      <path class="uuid-f35645b1-bd74-483d-9c22-a31488c6c280" d="M29.96,44.5h1.17v-2.35h-1.17v-.83h3.24v.83h-1.18v2.35h1.18v.83h-3.24v-.83Z"/>
      <path class="uuid-f35645b1-bd74-483d-9c22-a31488c6c280" d="M33.82,44.5h1.49v-2.1c0-.07-.02-.13-.05-.17-.03-.04-.08-.06-.16-.06-.04,0-.08,0-.13.02-.05.01-.11.04-.17.06l-.89.29v-.83l.81-.29c.12-.04.23-.08.34-.1s.22-.04.32-.04c.17,0,.31.04.43.11.12.07.22.18.28.32s.09.29.09.47v2.33h1.32v.83h-3.7v-.83Z"/>
    </g>
  </g>
</svg>