<?xml version="1.0" encoding="UTF-8"?>
<svg id="uuid-ec5c49f4-6d35-4280-9235-0c2240e54a91" data-name="Capa 1" xmlns="http://www.w3.org/2000/svg" viewBox="0 0 210 145">
  <defs>
    <style>
      .uuid-5c7e65b9-8256-4c7e-9005-1fd015eb1156 {
        fill: #323232;
      }

      .uuid-cb828f7d-64d2-461c-be06-c34b32195834 {
        fill: #444;
      }

      .uuid-38e1efc9-ea40-4129-95ac-b1eb514856ee {
        fill: #e6e6e6;
      }

      .uuid-03eae3ea-5ade-470a-a3f0-0860dc8102a0 {
        fill: #f6f6f6;
      }

      .uuid-d9b1733a-906c-4a84-9978-2bcf4b4371d9 {
        fill: #606060;
      }

      .uuid-3ecc7947-8295-4706-9184-de1f5fc483d1 {
        fill: #a0a0a0;
      }

      .uuid-45cbaf2f-d937-4b5e-abfb-4752e16ad558 {
        fill: #c6c6c6;
      }

      .uuid-eef29ad8-cf45-4454-97c7-7dec65ff92d8 {
        fill: #fafafa;
      }

      .uuid-698da9cb-364a-440f-a8ca-b6c5f71bc531 {
        fill: red;
      }

      .uuid-20078547-386f-494b-9a4b-53554c7128a6 {
        fill: #ededed;
      }
    </style>
  </defs>
  <path class="uuid-d9b1733a-906c-4a84-9978-2bcf4b4371d9" d="M163.23,64.29l-.63-1.31c.91-.44,1.72-.79,2.43-1.11,2.32-1.02,3.72-1.64,5.46-3.57,1.18-1.31,1.72-3.53,1.34-5.53-.56-2.94-2.54-4.75-5.56-5.12-4.53-.54-11.97,1.29-12.04,1.31l-.35-1.41c.32-.08,7.78-1.92,12.57-1.34,3.65.44,6.14,2.73,6.82,6.29.47,2.46-.19,5.12-1.69,6.78-1.95,2.16-3.63,2.9-5.95,3.92-.7.31-1.5.66-2.38,1.09Z"/>
  <path class="uuid-3ecc7947-8295-4706-9184-de1f5fc483d1" d="M137.05,135.44c-2.34,0-4.81-.28-7.32-.99-6.32-1.8-11.34-5.3-14.93-10.42-3.42-4.89-4.79-10.21-5.34-13.82-.34-2.23-1.14-11.08-1.35-14.57-.02-.26-.03-.51-.05-.74-.19-2.9-.3-4.66.94-7.58,1.52-3.58,5.43-5,5.6-5.06l.12-.04c2.46-.88,7.06-2.45,10.24-3.08,4.1-.81,7.14.12,10.85,3.31,3.3,2.84,5.18,6.17,6.83,9.1.18.33.36.65.54.96,1.75,3.06,2.21,6.05,1.6,10.3-.47,3.25-.81,6.12-.29,8.33.57,2.43,1.94,4.26,3.95,5.28,2.25,1.15,5.12,1.14,7.87-.01,1.85-.78,3.16-2.17,3.89-4.13,1-2.69.73-6.25-.68-9.07-1.69-3.39-3.56-4.65-5.71-6.1-.71-.48-1.44-.97-2.2-1.56-3.89-3.01-5.64-7.38-5.2-12.99,1.02-12.95,10.87-17.74,14.1-19.32.27-.13.5-.24.66-.33,1.93-1.03,3.59-1.92,4.55-5.23.94-3.24-1.8-6.54-3.52-7.4-3.38-1.69-6.03-1.1-10.43-.11-4.03.9-26.45,7.09-36.04,9.9l-63.59,18.63c-.49.15-23.75,7.29-29.62,8.85-1.69.45-3.01.87-4.07,1.2-2.76.87-4.15,1.31-6.44.57-3.1-1-4.29-2.44-5.89-4.71-1.48-2.11-1.19-6.4-.8-10.26.03-.28.05-.53.07-.75.09-1.03.85-10.12,1.65-19.74.9-10.87,1.84-22.11,1.97-23.55l.04-.42c.27-2.98.71-7.97,2.26-10.98,2.21-4.3,6.57-7.62,11.69-8.87,5.26-1.28,11.26.08,13.34.94,3.71,1.54,9.16,4.04,15.47,6.94,9.36,4.3,21.01,9.65,32.5,14.38,17.45,7.18,34.18,13.02,34.34,13.08,3.49,1.21,4.9,1.43,7.36,1.48,2.08.04,4.03-.51,6.98-1.34.52-.15,1.07-.3,1.65-.46,3.69-1.01,23.75-5.9,26.92-6.47l.23-.04c2.9-.52,4.82-.87,7.93-.46,2.82.37,4.9,2.19,6.42,3.52.3.26.58.51.84.72,1.72,1.4,12.65,10.8,14.62,12.58,2.09,1.89,2.65,4.05,2.96,5.22.03.1.05.2.08.29.06.21.33,1.17.71,2.51,1.65,5.78,5.51,19.31,6.24,22.53.78,3.46.68,6.89.61,9.64-.01.52-.03,1.03-.04,1.51-.04,2.63-.61,4.76-1.26,7.22-.15.55-.3,1.13-.46,1.74-.94,3.71-3.2,5.09-4.17,5.68h-.02c-.59.38-5.53,3.16-10.3,5.86-2.51,1.42-4.88,2.76-6.34,3.59-2.68,1.52-25.82,10.87-28.61,11.87l-.12.04c-2.63.94-7.8,2.8-13.87,2.8ZM127.6,80.93c-.7,0-1.44.08-2.23.24-2.23.44-5.85,1.53-9.94,3l-.13.04s-3.24,1.21-4.38,3.91c-1.05,2.47-.96,3.86-.78,6.64.02.24.03.49.05.75.2,3.37,1.01,12.25,1.33,14.39.51,3.39,1.79,8.38,4.98,12.93,3.31,4.72,7.95,7.95,13.79,9.62,8.37,2.38,16.46-.53,19.92-1.77l.12-.04c2.7-.97,25.76-10.29,28.28-11.72,1.46-.83,3.84-2.17,6.35-3.59,4.54-2.56,9.68-5.47,10.24-5.81h.02c.81-.51,2.5-1.54,3.23-4.43.16-.62.31-1.2.46-1.77.64-2.43,1.15-4.35,1.19-6.72,0-.49.02-1.01.04-1.54.08-2.77.16-5.92-.56-9.13-.71-3.17-4.57-16.66-6.21-22.42-.4-1.39-.66-2.32-.72-2.53-.03-.1-.05-.2-.08-.31-.28-1.09-.71-2.73-2.34-4.2-2.08-1.88-13.07-11.32-14.54-12.51-.29-.23-.58-.49-.9-.77-1.4-1.22-3.13-2.74-5.32-3.03-2.79-.37-4.48-.06-7.29.45l-.23.04c-2.9.52-22.6,5.29-26.74,6.43-.58.16-1.13.31-1.64.46-3.02.85-5.19,1.46-7.58,1.41-2.66-.05-4.27-.3-8-1.59-.16-.06-16.95-5.92-34.45-13.12-11.53-4.75-23.2-10.11-32.58-14.41-6.29-2.89-11.72-5.38-15.4-6.9-1.8-.75-7.34-1.99-12.05-.84-4.54,1.11-8.4,4.02-10.33,7.8-1.36,2.65-1.8,7.57-2.04,10.21l-.04.42c-.13,1.44-1.06,12.67-1.97,23.54-.8,9.63-1.56,18.72-1.65,19.76-.02.22-.05.48-.07.77-.22,2.16-.73,7.21.43,8.86,1.54,2.18,2.4,3.14,4.82,3.92,1.66.53,2.62.23,5.18-.57,1.08-.34,2.42-.76,4.15-1.23,5.86-1.56,29.31-8.76,29.55-8.83h.01s63.6-18.64,63.6-18.64c9.85-2.89,32.02-9,36.17-9.94,4.51-1.01,7.77-1.74,11.81.28,2.2,1.1,5.92,5.24,4.59,9.84-1.2,4.15-3.52,5.4-5.57,6.49-.19.1-.43.22-.73.36-1.6.78-4.57,2.22-7.31,4.97-3.34,3.36-5.24,7.61-5.63,12.63-.39,4.93,1.05,8.59,4.4,11.18.71.55,1.42,1.03,2.1,1.49,2.3,1.55,4.47,3.02,6.41,6.9,1.68,3.36,1.97,7.46.77,10.72-.92,2.49-2.66,4.33-5.03,5.32-3.31,1.39-6.82,1.37-9.62-.05-2.54-1.3-4.33-3.66-5.03-6.66-.6-2.57-.24-5.64.26-9.1.55-3.8.17-6.32-1.35-8.97-.18-.32-.37-.64-.55-.97-1.57-2.78-3.35-5.94-6.38-8.54-2.5-2.15-4.49-3.09-6.86-3.09Z"/>
  <g>
    <circle class="uuid-cb828f7d-64d2-461c-be06-c34b32195834" cx="160.14" cy="56.15" r="3.56"/>
    <path class="uuid-45cbaf2f-d937-4b5e-abfb-4752e16ad558" d="M159.03,57.23h.95v-2.11l-.85.2v-.61l1.48-.33v2.86h.87v.61h-2.46v-.61Z"/>
  </g>
  <g>
    <circle class="uuid-cb828f7d-64d2-461c-be06-c34b32195834" cx="142.72" cy="73.34" r="3.56"/>
    <path class="uuid-45cbaf2f-d937-4b5e-abfb-4752e16ad558" d="M143.29,72.58c0-.24-.18-.43-.5-.43s-.56.19-.74.49l-.52-.33c.26-.49.69-.77,1.26-.77.68,0,1.12.41,1.12,1,0,1.04-1.12,1.13-1.52,1.9h1.59v.6h-2.4v-.48c.53-1.19,1.71-1.33,1.71-1.98Z"/>
  </g>
  <g>
    <circle class="uuid-cb828f7d-64d2-461c-be06-c34b32195834" cx="153.53" cy="111.27" r="3.56"/>
    <path class="uuid-45cbaf2f-d937-4b5e-abfb-4752e16ad558" d="M152.29,112.31l.48-.29c.17.29.4.44.76.44s.65-.21.65-.53c0-.3-.25-.53-.58-.53h-.41v-.52h.41c.3,0,.48-.17.48-.43s-.2-.43-.54-.43c-.31,0-.54.14-.71.42l-.48-.29c.27-.45.68-.7,1.25-.7.65,0,1.11.41,1.11.96,0,.35-.2.62-.42.73.32.16.53.49.53.83,0,.59-.49,1.04-1.26,1.04-.58,0-1.01-.26-1.25-.72Z"/>
  </g>
  <g>
    <circle class="uuid-cb828f7d-64d2-461c-be06-c34b32195834" cx="136.88" cy="102.64" r="3.56"/>
    <path class="uuid-45cbaf2f-d937-4b5e-abfb-4752e16ad558" d="M135.62,103.11l.95-2.19h.65l-.92,2.11h.87v-.79h.63v.79h.5v.59h-.5v.71h-.63v-.71h-1.55v-.51Z"/>
  </g>
  <g>
    <circle class="uuid-cb828f7d-64d2-461c-be06-c34b32195834" cx="126.2" cy="73.06" r="3.56"/>
    <path class="uuid-45cbaf2f-d937-4b5e-abfb-4752e16ad558" d="M124.99,74.12l.53-.33c.15.29.38.43.71.43.39,0,.65-.23.65-.6s-.24-.61-.66-.61c-.26,0-.46.1-.62.27l-.42-.27.33-1.68h1.83v.6h-1.35l-.13.64c.14-.06.27-.08.44-.08.75,0,1.2.49,1.2,1.15s-.48,1.18-1.3,1.18c-.54,0-.98-.25-1.21-.71Z"/>
  </g>
  <g>
    <circle class="uuid-cb828f7d-64d2-461c-be06-c34b32195834" cx="107.42" cy="79.96" r="3.56"/>
    <path class="uuid-45cbaf2f-d937-4b5e-abfb-4752e16ad558" d="M106.2,80.5c0-.27.11-.54.29-.78l1.12-1.48h.77l-.83,1.07h.04c.63,0,1.18.5,1.18,1.21,0,.68-.54,1.21-1.28,1.21s-1.29-.55-1.29-1.23ZM108.13,80.49c0-.36-.27-.64-.64-.64s-.66.29-.66.64.26.63.65.63.65-.28.65-.63Z"/>
  </g>
  <g>
    <circle class="uuid-cb828f7d-64d2-461c-be06-c34b32195834" cx="133.16" cy="141.08" r="3.56"/>
    <path class="uuid-45cbaf2f-d937-4b5e-abfb-4752e16ad558" d="M133.7,139.96h-1.74v-.61h2.44v.51l-1.4,2.9h-.68l1.37-2.81Z"/>
  </g>
  <g>
    <circle class="uuid-cb828f7d-64d2-461c-be06-c34b32195834" cx="197.91" cy="53.47" r="3.56"/>
    <path class="uuid-45cbaf2f-d937-4b5e-abfb-4752e16ad558" d="M199.26,52.9c0,.27-.11.54-.29.78l-1.12,1.48h-.77l.83-1.07h-.04c-.63,0-1.18-.5-1.18-1.21,0-.68.54-1.21,1.28-1.21s1.29.55,1.29,1.23ZM197.32,52.91c0,.36.27.64.64.64s.66-.29.66-.64-.26-.63-.65-.63-.65.28-.65.63Z"/>
  </g>
  <g>
    <circle class="uuid-cb828f7d-64d2-461c-be06-c34b32195834" cx="171.51" cy="32.51" r="3.56"/>
    <g>
      <path class="uuid-45cbaf2f-d937-4b5e-abfb-4752e16ad558" d="M168.99,33.59h.95v-2.11l-.85.2v-.61l1.48-.33v2.86h.87v.61h-2.46v-.61Z"/>
      <path class="uuid-45cbaf2f-d937-4b5e-abfb-4752e16ad558" d="M171.73,33.02v-1.06c0-.75.55-1.25,1.25-1.25s1.25.5,1.25,1.25v1.06c0,.75-.54,1.25-1.25,1.25s-1.25-.5-1.25-1.25ZM173.61,33v-1.01c0-.41-.24-.67-.62-.67s-.62.26-.62.67v1.01c0,.41.24.67.62.67s.62-.25.62-.67Z"/>
    </g>
  </g>
  <g>
    <circle class="uuid-cb828f7d-64d2-461c-be06-c34b32195834" cx="127.43" cy="40.98" r="3.56"/>
    <g>
      <path class="uuid-45cbaf2f-d937-4b5e-abfb-4752e16ad558" d="M124.91,42.06h.95v-2.11l-.85.2v-.61l1.48-.33v2.86h.87v.61h-2.46v-.61Z"/>
      <path class="uuid-45cbaf2f-d937-4b5e-abfb-4752e16ad558" d="M127.72,42.06h.95v-2.11l-.85.2v-.61l1.48-.33v2.86h.87v.61h-2.46v-.61Z"/>
    </g>
  </g>
  <g>
    <circle class="uuid-cb828f7d-64d2-461c-be06-c34b32195834" cx="20.95" cy="4.61" r="3.56"/>
    <g>
      <path class="uuid-45cbaf2f-d937-4b5e-abfb-4752e16ad558" d="M18.43,5.69h.95v-2.11l-.85.2v-.61l1.48-.33v2.86h.87v.61h-2.46v-.61Z"/>
      <path class="uuid-45cbaf2f-d937-4b5e-abfb-4752e16ad558" d="M22.93,3.85c0-.24-.18-.43-.5-.43s-.56.19-.74.49l-.52-.33c.26-.49.69-.77,1.26-.77.68,0,1.12.41,1.12,1,0,1.04-1.12,1.13-1.52,1.9h1.59v.6h-2.4v-.48c.53-1.19,1.71-1.33,1.71-1.98Z"/>
    </g>
  </g>
  <g>
    <circle class="uuid-cb828f7d-64d2-461c-be06-c34b32195834" cx="203.94" cy="112.12" r="3.56"/>
    <path class="uuid-45cbaf2f-d937-4b5e-abfb-4752e16ad558" d="M202.79,112.84c0-.34.19-.66.5-.83-.2-.09-.4-.38-.4-.73,0-.55.45-.94,1.11-.94s1.11.39,1.11.94c0,.35-.18.62-.4.73.3.16.5.49.5.83,0,.59-.49,1.04-1.21,1.04s-1.21-.45-1.21-1.04ZM204.59,112.8c0-.31-.25-.54-.59-.54s-.59.24-.59.54c0,.33.25.54.59.54s.59-.21.59-.54ZM204.5,111.31c0-.26-.19-.43-.5-.43s-.5.17-.5.43.18.44.5.44.5-.17.5-.44Z"/>
  </g>
  <g>
    <circle class="uuid-cb828f7d-64d2-461c-be06-c34b32195834" cx="6.06" cy="92.8" r="3.56"/>
    <g>
      <path class="uuid-45cbaf2f-d937-4b5e-abfb-4752e16ad558" d="M3.54,93.88h.95v-2.11l-.85.2v-.61l1.48-.33v2.86h.87v.61h-2.46v-.61Z"/>
      <path class="uuid-45cbaf2f-d937-4b5e-abfb-4752e16ad558" d="M6.23,93.85l.48-.29c.17.29.4.44.76.44s.65-.21.65-.53c0-.3-.25-.53-.58-.53h-.41v-.52h.41c.3,0,.48-.17.48-.43s-.2-.43-.54-.43c-.31,0-.54.14-.71.42l-.48-.29c.27-.45.68-.7,1.25-.7.65,0,1.11.41,1.11.96,0,.35-.2.62-.42.73.32.16.53.49.53.83,0,.59-.49,1.04-1.26,1.04-.58,0-1.01-.26-1.25-.72Z"/>
    </g>
  </g>
  <g>
    <g>
      <line class="uuid-20078547-386f-494b-9a4b-53554c7128a6" x1="53.33" y1="82.45" x2="50.41" y2="74.2"/>
      <rect class="uuid-38e1efc9-ea40-4129-95ac-b1eb514856ee" x="51.51" y="73.95" width=".73" height="8.76" transform="translate(-23.21 21.86) rotate(-19.54)"/>
    </g>
    <g>
      <path class="uuid-698da9cb-364a-440f-a8ca-b6c5f71bc531" d="M57.38,81.76h-10.98l-.03.03v8.7h11.02v-8.74Z"/>
      <g>
        <path class="uuid-20078547-386f-494b-9a4b-53554c7128a6" d="M49.61,84.53c.09-.19.23-.33.42-.42.19-.09.42-.14.71-.14h1.98v.83h-1.92c-.11,0-.2.01-.26.04-.06.03-.11.08-.14.14-.03.06-.04.15-.04.26v.32h2.26v.83h-2.26v1.58h-.89v-2.73c0-.29.05-.52.14-.71Z"/>
        <path class="uuid-20078547-386f-494b-9a4b-53554c7128a6" d="M56.26,87.97h-1.67c-.29,0-.53-.05-.71-.14-.19-.09-.33-.23-.42-.42s-.14-.43-.14-.71v-2.73h.89v2.73c0,.11.01.2.04.26.03.07.07.11.14.14.07.03.15.04.26.04h1.61v.83Z"/>
      </g>
      <g>
        <g>
          <rect class="uuid-eef29ad8-cf45-4454-97c7-7dec65ff92d8" x="47.24" y="84.67" width=".88" height="5.83"/>
          <rect x="47.24" y="85.64" width=".88" height=".97"/>
          <rect x="47.24" y="87.58" width=".88" height=".97"/>
          <rect x="47.24" y="89.52" width=".88" height=".97"/>
          <rect class="uuid-eef29ad8-cf45-4454-97c7-7dec65ff92d8" x="46.36" y="84.67" width=".88" height="5.83"/>
          <rect x="46.36" y="84.67" width=".88" height=".97"/>
          <rect x="46.36" y="86.61" width=".88" height=".97"/>
          <rect x="46.36" y="88.55" width=".88" height=".97"/>
        </g>
        <g>
          <rect class="uuid-eef29ad8-cf45-4454-97c7-7dec65ff92d8" x="47.24" y="81.76" width=".88" height="2.91"/>
          <rect x="47.24" y="81.76" width=".88" height=".97"/>
          <rect x="47.24" y="83.7" width=".88" height=".97"/>
          <rect class="uuid-eef29ad8-cf45-4454-97c7-7dec65ff92d8" x="46.36" y="81.76" width=".88" height="2.91"/>
          <rect x="46.36" y="82.73" width=".88" height=".97"/>
        </g>
      </g>
    </g>
  </g>
  <g>
    <rect class="uuid-20078547-386f-494b-9a4b-53554c7128a6" x="110.97" y="55.5" width=".73" height="9.41" transform="translate(-12.31 33.15) rotate(-16.06)"/>
    <g>
      <path class="uuid-03eae3ea-5ade-470a-a3f0-0860dc8102a0" d="M116.86,63.62h-8.62l-.03.03v7.38h8.65v-7.41Z"/>
      <path class="uuid-5c7e65b9-8256-4c7e-9005-1fd015eb1156" d="M110.56,68.66h2.69c.14,0,.25-.03.33-.09.08-.06.12-.15.12-.27,0-.11-.03-.19-.1-.24-.07-.06-.17-.11-.31-.15l-1.69-.45c-.39-.09-.67-.25-.86-.47-.18-.22-.28-.52-.28-.88,0-.26.06-.5.19-.71.13-.21.31-.37.54-.49.23-.12.51-.18.83-.18h2.58v1.02h-2.58c-.14,0-.26.03-.33.09-.08.06-.12.15-.12.27s.03.2.1.25c.06.06.17.11.31.15l1.68.44c.39.09.68.25.86.48s.28.52.28.88c0,.27-.06.51-.19.71-.13.21-.31.37-.54.49-.23.12-.51.18-.83.18h-2.69v-1.02Z"/>
    </g>
  </g>
  <g>
    <rect class="uuid-38e1efc9-ea40-4129-95ac-b1eb514856ee" x="106.93" y="39.99" width="12.82" height=".73" transform="translate(39.42 135.27) rotate(-71.69)"/>
    <g>
      <path class="uuid-698da9cb-364a-440f-a8ca-b6c5f71bc531" d="M120.47,31.04h-10.94l-.03.03v8.96h10.97v-9Z"/>
      <g>
        <path class="uuid-20078547-386f-494b-9a4b-53554c7128a6" d="M111.19,36.56h1.17v-2.35h-1.17v-.83h3.24v.83h-1.18v2.35h1.18v.83h-3.24v-.83Z"/>
        <path class="uuid-20078547-386f-494b-9a4b-53554c7128a6" d="M115.63,37.23c-.21-.1-.38-.25-.49-.43-.11-.19-.17-.41-.17-.67v-.51h.9v.43c0,.16.05.28.14.37.09.09.22.13.38.13h1.03c.15,0,.26-.03.34-.1.08-.06.12-.16.12-.29,0-.12-.04-.21-.12-.28-.08-.06-.19-.09-.34-.09h-1.11v-.83h1.07c.14,0,.26-.03.34-.1.08-.06.12-.16.12-.29,0-.12-.04-.21-.12-.28-.08-.06-.19-.09-.34-.09h-1c-.16,0-.29.04-.38.13-.09.09-.14.21-.14.37v.26h-.89v-.34c0-.26.06-.48.17-.67s.27-.33.49-.43c.21-.1.47-.15.77-.15h1.01c.27,0,.5.04.7.13s.35.21.46.38c.11.17.16.36.16.59,0,.2-.04.38-.14.53-.09.15-.23.27-.42.37.21.1.37.22.46.37.09.14.14.32.14.54s-.05.42-.16.59c-.11.17-.27.29-.47.38-.2.09-.44.13-.71.13h-1.03c-.3,0-.56-.05-.77-.15Z"/>
      </g>
    </g>
  </g>
  <g>
    <polygon class="uuid-38e1efc9-ea40-4129-95ac-b1eb514856ee" points="160.32 85.56 152.11 98.98 151.55 98.5 159.76 85.09 160.32 85.56"/>
    <path class="uuid-698da9cb-364a-440f-a8ca-b6c5f71bc531" d="M164.72,83.34h-10.14l-.03.03v8.76h10.17v-8.79Z"/>
    <g>
      <path class="uuid-20078547-386f-494b-9a4b-53554c7128a6" d="M156.25,88.86h1.17v-2.35h-1.17v-.83h3.24v.83h-1.18v2.35h1.18v.83h-3.24v-.83Z"/>
      <path class="uuid-20078547-386f-494b-9a4b-53554c7128a6" d="M160.11,88.86h1.49v-2.1c0-.07-.02-.13-.05-.17-.03-.04-.08-.06-.16-.06-.04,0-.08,0-.13.02-.05.01-.11.04-.17.06l-.89.29v-.83l.81-.29c.12-.04.23-.08.34-.1s.22-.04.32-.04c.17,0,.31.04.43.11.12.07.22.18.28.32s.09.29.09.47v2.33h1.32v.83h-3.7v-.83Z"/>
    </g>
  </g>
  <g>
    <rect class="uuid-38e1efc9-ea40-4129-95ac-b1eb514856ee" x="153.17" y="126.72" width=".73" height="12.21" transform="translate(-38.05 65.65) rotate(-21.54)"/>
    <path class="uuid-698da9cb-364a-440f-a8ca-b6c5f71bc531" d="M160.31,134.76h-10.14l-.03.03v7.93h10.17v-7.96Z"/>
    <g>
      <path class="uuid-20078547-386f-494b-9a4b-53554c7128a6" d="M151.44,139.82h1.17v-2.35h-1.17v-.83h3.24v.83h-1.18v2.35h1.18v.83h-3.24v-.83Z"/>
      <path class="uuid-20078547-386f-494b-9a4b-53554c7128a6" d="M155.79,140.51c-.18-.09-.32-.21-.42-.36-.09-.16-.14-.34-.14-.55,0-.3.09-.54.27-.73.18-.19.48-.33.9-.41l1.27-.27c.12-.02.21-.05.28-.08.07-.03.11-.07.14-.12.03-.04.05-.11.05-.18,0-.11-.04-.2-.13-.25s-.22-.08-.41-.08h-.92c-.17,0-.3.04-.39.13-.09.09-.13.21-.13.37v.15h-.89v-.24c0-.26.06-.48.17-.67.11-.18.27-.33.49-.43.21-.1.47-.15.78-.15h.88c.47,0,.83.1,1.08.3s.37.49.37.86c0,.22-.04.41-.11.56-.07.15-.18.27-.33.37-.15.09-.34.16-.58.21l-1.5.3c-.13.03-.23.07-.29.12-.07.05-.1.12-.1.2s.03.15.09.2c.06.04.15.07.27.07h2.53v.83h-2.57c-.25,0-.47-.04-.65-.13Z"/>
    </g>
  </g>
</svg>