<?xml version="1.0" encoding="UTF-8"?>
<svg id="uuid-1e47ae09-ebca-4d13-9366-aa94d423f555" data-name="Capa 1" xmlns="http://www.w3.org/2000/svg" viewBox="0 0 210 174">
  <defs>
    <style>
      .uuid-821473c9-7a6d-4631-86fb-7816ce6f4662 {
        fill: #323232;
      }

      .uuid-9873e67d-5b42-410a-94f9-e91c4766afa1 {
        fill: #444;
      }

      .uuid-a25d2370-15e1-451d-8386-65cf484b5b29 {
        fill: #e6e6e6;
      }

      .uuid-80e38ece-8994-4dbf-8bac-7deec2f0682f {
        fill: #f6f6f6;
      }

      .uuid-fbceabc7-fd6d-415c-bce7-f5d0176d7723 {
        fill: #606060;
      }

      .uuid-b26155e3-1dc4-4805-8c00-24becdee6aa9 {
        fill: #a0a0a0;
      }

      .uuid-949100a4-d509-40c9-b054-ddd60ae5b7fb {
        fill: #c6c6c6;
      }

      .uuid-781f23a7-d8ea-4ad8-9b34-8838eaacb2eb {
        fill: #fafafa;
      }

      .uuid-2147b9da-9a97-4b1f-88da-588442b96d2e {
        fill: red;
      }

      .uuid-8a98e3ef-a8b4-4264-8a31-4a25bcea0b59 {
        fill: #ededed;
      }
    </style>
  </defs>
  <path class="uuid-fbceabc7-fd6d-415c-bce7-f5d0176d7723" d="M42.14,138.45c-4.05,0-7.42-.54-10.91-1.64-2.81-.89-5.44-2.72-7.41-5.14-1.88-2.32-2.97-4.98-2.98-7.31-.02-5.29,2.42-7.88,8.71-9.22,5.86-1.25,18.07-2.34,18.59-2.38l.12,1.41c-.13.01-12.64,1.13-18.42,2.36-5.62,1.2-7.6,3.24-7.58,7.83.02,3.93,3.8,9.33,9.41,11.11,5.63,1.78,10.95,2.02,19.65.87,6.02-.79,7.08-1.67,8.02-2.43.41-.33,1.27.28,1.97-.05l.15.33c-.54.25-.83.75-1.2,1.06-1.09.89-2.34,1.65-8.76,2.5-3.59.47-6.62.72-9.35.72Z"/>
  <path class="uuid-b26155e3-1dc4-4805-8c00-24becdee6aa9" d="M114.69,163.69c-1.16,0-2.38-.37-3.62-1.09-1.41-.82-2.53-1.93-3.08-2.53-.65-.62-16.41-15.21-24.01-22.25q-4.82-4.46-4.84-4.49c-.41-.4-4.14-3.86-9.16-2.13-1.73.59-3.56,1.48-5.5,2.42-4.69,2.27-10,4.85-16.26,4.5-4.44-.25-8.84-1.56-12.39-3.69-4.36-2.62-7.41-6.46-8.81-11.11-.75-2.48-.63-4.41.37-5.9,1.77-2.64,5.74-3.02,9.58-3.38,1.03-.1,2-.19,2.91-.32.38-.06,51.71-5.83,57.57-6.48l69.34-8.32c2.01-.24,5.34-1.16,5.21-4.55-.06-1.63-.6-2.89-1.59-3.74-2.03-1.75-5.32-1.4-5.35-1.4h-.1c-.22.01-22.77.4-49.9.85-41.05.69-91.37,1.49-97.97,1.46-2.11-.01-3.92-.91-5.09-2.54-1.29-1.8-1.62-4.21-.87-6.46,1.14-3.44,4.15-5.06,8.03-4.34,1.48.28,2.86,1,4.19,1.71,2.88,1.51,4.07,1.93,5.2.28,1.17-1.71,0-3.58-2-6.51-.31-.45-.62-.91-.93-1.38-5.59-8.54-4.69-17.14-3.07-24.42,3.26-14.66,13.31-18.93,19.02-20.18,22.87-4.99,56.24-17.58,56.58-17.7.23-.09.5-.2.81-.33,1.92-.8,4.83-2.01,6.91-.92.97.51,1.6,1.42,1.88,2.72.34,1.58,1.01,7.12,1.78,13.54.96,7.97,2.05,17.01,2.78,20.74.95,4.84,3.76,13.35,11.95,15.96,7.23,2.3,14.04,1.03,18.22-3.39,4.07-4.3,9.12-8.78,17.71-7.39,5.11.82,8.33,4.02,11.05,7.36,1.96,2.4,21.92,28.32,23.47,30.47.53.74,1.14,1.46,1.73,2.16,2.05,2.43,4.38,5.18,2.25,8.48-1.46,2.25-2.7,4.73-4.14,7.6-.53,1.05-1.07,2.14-1.66,3.28-.92,1.78-3.06,2.86-5.73,2.87-1.43.01-28.27.27-31.51.43-2.12.1-5.53.25-9.48.42-9.19.4-21.77.95-29.38,1.42-1.58.1-2.79.74-3.01,1.59-.22.87.58,1.98,2.15,2.98.65.41,1.3.82,1.94,1.21,5.45,3.39,10.6,6.59,11.15,13.08.66,7.69-2.33,24.65-12.22,28.99-.66.29-1.36.43-2.08.43ZM72.78,128.69c4.36,0,7.37,2.8,7.78,3.19.06.05,2.05,1.9,4.8,4.45,22.3,20.65,24.02,22.26,24.1,22.35.86.93,3.87,3.89,6.5,2.73,8.55-3.75,11.67-19.31,11.02-26.96-.47-5.48-4.98-8.28-10.2-11.53-.65-.4-1.3-.81-1.96-1.23-3.38-2.15-3.24-4.35-3.02-5.19.45-1.76,2.31-2.95,4.85-3.1,7.62-.47,20.22-1.02,29.42-1.42,3.95-.17,7.36-.32,9.47-.42,3.27-.16,30.17-.42,31.6-.43,1.47-.01,3.27-.48,3.94-1.78.58-1.12,1.12-2.2,1.65-3.25,1.41-2.81,2.73-5.46,4.25-7.8,1.26-1.94.08-3.49-2.09-6.07-.61-.73-1.25-1.48-1.83-2.28-1.44-2.01-21.56-28.12-23.39-30.37-2.85-3.5-5.62-5.97-9.81-6.64-6.87-1.11-11.18,1.77-15.91,6.78-2.25,2.38-5.27,4.02-8.73,4.73-3.59.74-7.59.46-11.58-.8-9.18-2.92-12.28-12.21-13.32-17.49-.75-3.8-1.84-12.88-2.81-20.89-.74-6.1-1.43-11.87-1.75-13.35-.22-1.03-.69-1.27-.84-1.35-1.24-.65-3.71.38-5.19,1-.32.13-.61.26-.87.35-1.37.52-33.84,12.76-56.86,17.79-5.23,1.14-14.46,5.08-17.47,18.64-1.61,7.22-2.38,14.99,2.79,22.87.3.45.61.91.91,1.34,1.97,2.88,4.01,5.85,2,8.79-2.25,3.29-5.33,1.67-7.81.36-1.2-.63-2.44-1.29-3.62-1.51-2.04-.38-4.69-.17-5.74,2.99-.53,1.61-.31,3.39.6,4.64.55.77,1.6,1.69,3.45,1.69,6.59.03,56.89-.78,97.93-1.46l.02,1.01-.02-1.01c26.58-.44,48.75-.83,49.86-.85.51-.05,4.29-.32,6.84,1.88,1.44,1.24,2.21,2.99,2.29,5.2.14,3.61-2.49,6.1-7.01,6.64l-.25.03s0,0,0,0l-69.07,8.29c-.57.06-56.75,6.38-57.52,6.48-.94.14-1.99.24-3,.33-3.21.3-6.86.65-8.09,2.49-.64.95-.68,2.32-.11,4.19,1.27,4.22,3.94,7.57,7.92,9.96,3.27,1.97,7.35,3.18,11.46,3.41,5.74.32,10.8-2.13,15.26-4.3,2-.97,3.88-1.88,5.72-2.52,1.22-.42,2.38-.59,3.46-.59Z"/>
  <g>
    <circle class="uuid-9873e67d-5b42-410a-94f9-e91c4766afa1" cx="4.97" cy="85.72" r="3.47"/>
    <path class="uuid-949100a4-d509-40c9-b054-ddd60ae5b7fb" d="M3.88,86.78h.92v-2.05l-.83.19v-.59l1.44-.32v2.78h.85v.59h-2.39v-.59Z"/>
  </g>
  <g>
    <circle class="uuid-9873e67d-5b42-410a-94f9-e91c4766afa1" cx="36.14" cy="82.22" r="3.47"/>
    <path class="uuid-949100a4-d509-40c9-b054-ddd60ae5b7fb" d="M35.47,82.74c.17-.17.39-.35.64-.53.2-.15.35-.27.44-.37s.14-.22.14-.35c0-.12-.04-.22-.13-.3-.09-.08-.2-.12-.35-.12s-.29.04-.41.12-.22.2-.31.35l-.5-.32c.13-.24.29-.42.5-.55s.45-.19.72-.19c.22,0,.41.04.58.12.16.08.29.2.38.34.09.15.13.32.13.5s-.04.35-.11.49c-.07.14-.16.25-.26.35-.1.09-.24.2-.41.32-.18.13-.33.24-.43.34s-.2.21-.26.35h1.54v.58h-2.33v-.46c.12-.27.27-.49.44-.67Z"/>
  </g>
  <g>
    <circle class="uuid-9873e67d-5b42-410a-94f9-e91c4766afa1" cx="16.02" cy="53.01" r="3.47"/>
    <path class="uuid-949100a4-d509-40c9-b054-ddd60ae5b7fb" d="M15.3,54.55c-.21-.12-.37-.29-.49-.52l.47-.28c.09.14.19.25.31.32s.26.11.43.11c.18,0,.33-.05.45-.14.12-.09.18-.22.18-.37s-.05-.27-.16-.37c-.11-.1-.24-.15-.4-.15h-.4v-.5h.4c.14,0,.26-.04.34-.11s.12-.18.12-.31-.05-.23-.14-.31c-.09-.08-.22-.12-.39-.12-.29,0-.53.14-.69.41l-.47-.28c.27-.45.67-.68,1.21-.68.21,0,.4.04.56.12.16.08.29.19.38.33.09.14.14.3.14.48,0,.16-.04.31-.12.44s-.18.22-.29.28c.15.08.28.19.37.34.09.15.14.3.14.47,0,.19-.05.36-.15.52-.1.15-.25.27-.43.36s-.4.13-.64.13c-.28,0-.52-.06-.73-.18Z"/>
  </g>
  <g>
    <circle class="uuid-9873e67d-5b42-410a-94f9-e91c4766afa1" cx="110.24" cy="4.86" r="3.47"/>
    <path class="uuid-949100a4-d509-40c9-b054-ddd60ae5b7fb" d="M109.01,5.31l.92-2.13h.64l-.89,2.05h.84v-.77h.62v.77h.48v.57h-.48v.69h-.62v-.69h-1.5v-.5Z"/>
  </g>
  <g>
    <circle class="uuid-9873e67d-5b42-410a-94f9-e91c4766afa1" cx="129.83" cy="57.15" r="3.47"/>
    <path class="uuid-949100a4-d509-40c9-b054-ddd60ae5b7fb" d="M129.13,58.69c-.21-.12-.36-.29-.48-.51l.51-.32c.15.28.38.42.69.42.19,0,.34-.05.46-.16s.17-.25.17-.42-.06-.32-.17-.43c-.11-.11-.27-.16-.47-.16-.24,0-.44.09-.61.27l-.41-.26.32-1.63h1.78v.59h-1.31l-.12.63c.13-.05.27-.08.43-.08.24,0,.45.05.62.14s.31.23.4.4c.09.17.14.36.14.57s-.05.41-.15.58c-.1.17-.25.31-.44.41-.19.1-.42.15-.67.15s-.5-.06-.7-.18Z"/>
  </g>
  <g>
    <circle class="uuid-9873e67d-5b42-410a-94f9-e91c4766afa1" cx="159.43" cy="45.24" r="3.47"/>
    <path class="uuid-949100a4-d509-40c9-b054-ddd60ae5b7fb" d="M158.86,46.8c-.19-.11-.34-.25-.45-.44-.11-.18-.16-.38-.16-.6,0-.26.09-.52.28-.76l1.09-1.44h.75l-.81,1.04h.04c.21,0,.4.05.57.15.18.1.32.24.42.42s.16.38.16.61-.05.41-.16.59-.26.32-.45.43c-.19.1-.4.16-.63.16s-.45-.05-.64-.16ZM159.95,46.19c.12-.12.17-.26.17-.44s-.06-.32-.18-.44c-.12-.12-.27-.18-.45-.18s-.33.06-.46.18-.18.27-.18.44.06.32.18.43.27.18.46.18.34-.06.46-.18Z"/>
  </g>
  <g>
    <circle class="uuid-9873e67d-5b42-410a-94f9-e91c4766afa1" cx="205.03" cy="96.81" r="3.47"/>
    <path class="uuid-949100a4-d509-40c9-b054-ddd60ae5b7fb" d="M205.56,95.72h-1.69v-.59h2.38v.5l-1.36,2.82h-.66l1.33-2.73Z"/>
  </g>
  <g>
    <circle class="uuid-9873e67d-5b42-410a-94f9-e91c4766afa1" cx="193.51" cy="117.19" r="3.47"/>
    <path class="uuid-949100a4-d509-40c9-b054-ddd60ae5b7fb" d="M192.96,118.77c-.18-.09-.32-.21-.42-.36-.1-.15-.15-.33-.15-.51,0-.17.04-.32.13-.46.09-.14.21-.26.36-.35-.1-.05-.19-.14-.27-.27-.08-.13-.12-.28-.12-.44,0-.17.04-.33.14-.47s.22-.25.38-.33c.17-.08.35-.12.56-.12s.4.04.56.12c.16.08.29.19.38.33s.14.29.14.47c0,.16-.04.31-.11.44s-.17.22-.27.28c.15.08.26.19.35.34.09.15.13.3.13.47,0,.19-.05.36-.15.51-.1.15-.24.28-.42.36s-.38.13-.61.13-.43-.04-.61-.13ZM193.98,118.24c.11-.1.16-.22.16-.38s-.05-.28-.16-.38c-.11-.1-.24-.15-.41-.15s-.3.05-.41.15c-.11.1-.16.23-.16.37,0,.16.05.28.16.38.11.1.24.14.41.14s.3-.05.41-.14ZM193.93,116.72c.09-.08.13-.18.13-.31s-.04-.23-.13-.31-.2-.12-.35-.12-.27.04-.35.12c-.09.08-.13.18-.13.31s.04.23.13.31c.08.08.2.12.35.12s.27-.04.35-.12Z"/>
  </g>
  <g>
    <circle class="uuid-9873e67d-5b42-410a-94f9-e91c4766afa1" cx="106.11" cy="117.68" r="3.47"/>
    <path class="uuid-949100a4-d509-40c9-b054-ddd60ae5b7fb" d="M106.8,116.09c.19.11.34.25.45.44.11.18.16.38.16.6,0,.26-.09.52-.28.76l-1.09,1.44h-.75l.81-1.04h-.04c-.21,0-.4-.05-.57-.15-.18-.1-.32-.24-.42-.42s-.16-.38-.16-.61c0-.21.05-.41.16-.59.11-.18.26-.32.45-.43.19-.1.4-.16.63-.16s.44.05.64.16ZM105.71,116.69c-.12.12-.17.26-.17.44s.06.32.18.44.27.18.45.18.33-.06.46-.18c.12-.12.18-.27.18-.44s-.06-.32-.18-.43c-.12-.12-.27-.18-.46-.18s-.34.06-.46.18Z"/>
  </g>
  <g>
    <circle class="uuid-9873e67d-5b42-410a-94f9-e91c4766afa1" cx="133.36" cy="128.7" r="3.47"/>
    <g>
      <path class="uuid-949100a4-d509-40c9-b054-ddd60ae5b7fb" d="M130.9,129.75h.92v-2.05l-.83.19v-.59l1.44-.32v2.78h.85v.59h-2.39v-.59Z"/>
      <path class="uuid-949100a4-d509-40c9-b054-ddd60ae5b7fb" d="M134.17,130.26c-.19-.1-.33-.25-.44-.43-.11-.18-.16-.39-.16-.63v-1.03c0-.24.05-.45.16-.63.11-.18.25-.33.44-.43.19-.1.39-.15.62-.15s.44.05.62.15c.19.1.33.25.44.43.11.18.16.39.16.63v1.03c0,.24-.05.45-.16.63-.11.18-.25.33-.44.43-.18.1-.39.15-.62.15s-.43-.05-.62-.15ZM135.23,129.65c.11-.12.16-.27.16-.47v-.99c0-.2-.05-.36-.16-.48s-.26-.17-.44-.17-.34.06-.44.17c-.11.12-.16.28-.16.48v.99c0,.2.05.36.16.47.11.12.26.17.44.17s.34-.06.44-.17Z"/>
    </g>
  </g>
  <g>
    <circle class="uuid-9873e67d-5b42-410a-94f9-e91c4766afa1" cx="115.41" cy="169.26" r="3.47"/>
    <g>
      <path class="uuid-949100a4-d509-40c9-b054-ddd60ae5b7fb" d="M112.95,170.31h.92v-2.05l-.83.19v-.59l1.44-.32v2.78h.85v.59h-2.39v-.59Z"/>
      <path class="uuid-949100a4-d509-40c9-b054-ddd60ae5b7fb" d="M115.69,170.31h.92v-2.05l-.83.19v-.59l1.44-.32v2.78h.85v.59h-2.39v-.59Z"/>
    </g>
  </g>
  <g>
    <circle class="uuid-9873e67d-5b42-410a-94f9-e91c4766afa1" cx="73.11" cy="136.31" r="3.47"/>
    <g>
      <path class="uuid-949100a4-d509-40c9-b054-ddd60ae5b7fb" d="M70.66,137.37h.92v-2.05l-.83.19v-.59l1.44-.32v2.78h.85v.59h-2.39v-.59Z"/>
      <path class="uuid-949100a4-d509-40c9-b054-ddd60ae5b7fb" d="M73.81,136.83c.17-.17.39-.35.64-.53.2-.15.35-.27.44-.37s.14-.22.14-.35c0-.12-.04-.22-.13-.3-.09-.08-.2-.12-.35-.12s-.29.04-.41.12-.22.2-.31.35l-.5-.32c.13-.24.29-.42.5-.55s.45-.19.72-.19c.22,0,.41.04.58.12.16.08.29.2.38.34.09.15.13.32.13.5s-.04.35-.11.49c-.07.14-.16.25-.26.35-.1.09-.24.2-.41.32-.18.13-.33.24-.43.34s-.2.21-.26.35h1.54v.58h-2.33v-.46c.12-.27.27-.49.44-.67Z"/>
    </g>
  </g>
  <g>
    <circle class="uuid-9873e67d-5b42-410a-94f9-e91c4766afa1" cx="48.84" cy="145.54" r="3.47"/>
    <g>
      <path class="uuid-949100a4-d509-40c9-b054-ddd60ae5b7fb" d="M46.38,146.59h.92v-2.05l-.83.19v-.59l1.44-.32v2.78h.85v.59h-2.39v-.59Z"/>
      <path class="uuid-949100a4-d509-40c9-b054-ddd60ae5b7fb" d="M49.49,147.07c-.21-.12-.37-.29-.49-.52l.47-.28c.09.14.19.25.31.32s.26.11.43.11c.18,0,.33-.05.45-.14.12-.09.18-.22.18-.37s-.05-.27-.16-.37c-.11-.1-.24-.15-.4-.15h-.4v-.5h.4c.14,0,.26-.04.34-.11s.12-.18.12-.31-.05-.23-.14-.31c-.09-.08-.22-.12-.39-.12-.29,0-.53.14-.69.41l-.47-.28c.27-.45.67-.68,1.21-.68.21,0,.4.04.56.12.16.08.29.19.38.33.09.14.14.3.14.48,0,.16-.04.31-.12.44s-.18.22-.29.28c.15.08.28.19.37.34.09.15.14.3.14.47,0,.19-.05.36-.15.52-.1.15-.25.27-.43.36s-.4.13-.64.13c-.28,0-.52-.06-.73-.18Z"/>
    </g>
  </g>
  <g>
    <circle class="uuid-9873e67d-5b42-410a-94f9-e91c4766afa1" cx="19.29" cy="114.01" r="3.47"/>
    <g>
      <path class="uuid-949100a4-d509-40c9-b054-ddd60ae5b7fb" d="M16.83,115.06h.92v-2.05l-.83.19v-.59l1.44-.32v2.78h.85v.59h-2.39v-.59Z"/>
      <path class="uuid-949100a4-d509-40c9-b054-ddd60ae5b7fb" d="M19.43,114.46l.92-2.13h.64l-.89,2.05h.84v-.77h.62v.77h.48v.57h-.48v.69h-.62v-.69h-1.5v-.5Z"/>
    </g>
  </g>
  <g>
    <circle class="uuid-9873e67d-5b42-410a-94f9-e91c4766afa1" cx="179.6" cy="92.75" r="3.47"/>
    <g>
      <path class="uuid-949100a4-d509-40c9-b054-ddd60ae5b7fb" d="M177.14,93.81h.92v-2.05l-.83.19v-.59l1.44-.32v2.78h.85v.59h-2.39v-.59Z"/>
      <path class="uuid-949100a4-d509-40c9-b054-ddd60ae5b7fb" d="M180.26,94.29c-.21-.12-.36-.29-.48-.51l.51-.32c.15.28.38.42.69.42.19,0,.34-.05.46-.16s.17-.25.17-.42-.06-.32-.17-.43c-.11-.11-.27-.16-.47-.16-.24,0-.44.09-.61.27l-.41-.26.32-1.63h1.78v.59h-1.31l-.12.63c.13-.05.27-.08.43-.08.24,0,.45.05.62.14s.31.23.4.4c.09.17.14.36.14.57s-.05.41-.15.58c-.1.17-.25.31-.44.41-.19.1-.42.15-.67.15s-.5-.06-.7-.18Z"/>
    </g>
  </g>
  <g>
    <rect class="uuid-a25d2370-15e1-451d-8386-65cf484b5b29" x="178.54" y="74.37" width="12.21" height=".73" transform="translate(-11.06 111.84) rotate(-32.77)"/>
    <path class="uuid-2147b9da-9a97-4b1f-88da-588442b96d2e" d="M195.3,67.52h-10.14l-.03.03v7.93h10.17v-7.96Z"/>
    <g>
      <path class="uuid-8a98e3ef-a8b4-4264-8a31-4a25bcea0b59" d="M186.43,72.57h1.17v-2.35h-1.17v-.83h3.24v.83h-1.18v2.35h1.18v.83h-3.24v-.83Z"/>
      <path class="uuid-8a98e3ef-a8b4-4264-8a31-4a25bcea0b59" d="M190.77,73.26c-.18-.09-.32-.21-.42-.36-.09-.16-.14-.34-.14-.55,0-.3.09-.54.27-.73.18-.19.48-.33.9-.41l1.27-.27c.12-.02.21-.05.28-.08.07-.03.11-.07.14-.12.03-.04.05-.11.05-.18,0-.11-.04-.2-.13-.25s-.22-.08-.41-.08h-.92c-.17,0-.3.04-.39.13-.09.09-.13.21-.13.37v.15h-.89v-.24c0-.26.06-.48.17-.67.11-.18.27-.33.49-.43.21-.1.47-.15.78-.15h.88c.47,0,.83.1,1.08.3s.37.49.37.86c0,.22-.04.41-.11.56-.07.15-.18.27-.33.37-.15.09-.34.16-.58.21l-1.5.3c-.13.03-.23.07-.29.12-.07.05-.1.12-.1.2s.03.15.09.2c.06.04.15.07.27.07h2.53v.83h-2.57c-.25,0-.47-.04-.65-.13Z"/>
    </g>
  </g>
  <g>
    <rect class="uuid-a25d2370-15e1-451d-8386-65cf484b5b29" x="36" y="21.9" width=".73" height="11.53" transform="translate(-9.08 22.91) rotate(-31.29)"/>
    <path class="uuid-2147b9da-9a97-4b1f-88da-588442b96d2e" d="M38.62,17.41h-10.14l-.03.03v8.76h10.17v-8.79Z"/>
    <g>
      <path class="uuid-8a98e3ef-a8b4-4264-8a31-4a25bcea0b59" d="M30.15,22.93h1.17v-2.35h-1.17v-.83h3.24v.83h-1.18v2.35h1.18v.83h-3.24v-.83Z"/>
      <path class="uuid-8a98e3ef-a8b4-4264-8a31-4a25bcea0b59" d="M34.01,22.93h1.49v-2.1c0-.07-.02-.13-.05-.17-.03-.04-.08-.06-.16-.06-.04,0-.08,0-.13.02-.05.01-.11.04-.17.06l-.89.29v-.83l.81-.29c.12-.04.23-.08.34-.1s.22-.04.32-.04c.17,0,.31.04.43.11.12.07.22.18.28.32s.09.29.09.47v2.33h1.32v.83h-3.7v-.83Z"/>
    </g>
  </g>
  <g>
    <rect class="uuid-a25d2370-15e1-451d-8386-65cf484b5b29" x="42.5" y="133.49" width="12.82" height=".73" transform="translate(-85.55 181.06) rotate(-89.27)"/>
    <g>
      <path class="uuid-2147b9da-9a97-4b1f-88da-588442b96d2e" d="M54.55,124.52h-10.94l-.03.03v8.96h10.97v-9Z"/>
      <g>
        <path class="uuid-8a98e3ef-a8b4-4264-8a31-4a25bcea0b59" d="M45.26,130.04h1.17v-2.35h-1.17v-.83h3.24v.83h-1.18v2.35h1.18v.83h-3.24v-.83Z"/>
        <path class="uuid-8a98e3ef-a8b4-4264-8a31-4a25bcea0b59" d="M49.7,130.71c-.21-.1-.38-.25-.49-.43-.11-.19-.17-.41-.17-.67v-.51h.9v.43c0,.16.05.28.14.37.09.09.22.13.38.13h1.03c.15,0,.26-.03.34-.1.08-.06.12-.16.12-.29,0-.12-.04-.21-.12-.28-.08-.06-.19-.09-.34-.09h-1.11v-.83h1.07c.14,0,.26-.03.34-.1.08-.06.12-.16.12-.29,0-.12-.04-.21-.12-.28-.08-.06-.19-.09-.34-.09h-1c-.16,0-.29.04-.38.13-.09.09-.14.21-.14.37v.26h-.89v-.34c0-.26.06-.48.17-.67s.27-.33.49-.43c.21-.1.47-.15.77-.15h1.01c.27,0,.5.04.7.13s.35.21.46.38c.11.17.16.36.16.59,0,.2-.04.38-.14.53-.09.15-.23.27-.42.37.21.1.37.22.46.37.09.14.14.32.14.54s-.05.42-.16.59c-.11.17-.27.29-.47.38-.2.09-.44.13-.71.13h-1.03c-.3,0-.56-.05-.77-.15Z"/>
      </g>
    </g>
  </g>
  <g>
    <g>
      <line class="uuid-8a98e3ef-a8b4-4264-8a31-4a25bcea0b59" x1="115.03" y1="94.86" x2="115.11" y2="86.1"/>
      <rect class="uuid-a25d2370-15e1-451d-8386-65cf484b5b29" x="110.7" y="90.11" width="8.76" height=".73" transform="translate(23.58 204.74) rotate(-89.49)"/>
    </g>
    <g>
      <path class="uuid-2147b9da-9a97-4b1f-88da-588442b96d2e" d="M120,92.19h-10.98l-.03.03v8.7h11.02v-8.74Z"/>
      <g>
        <path class="uuid-8a98e3ef-a8b4-4264-8a31-4a25bcea0b59" d="M112.23,94.97c.09-.19.23-.33.42-.42.19-.09.43-.14.71-.14h1.98v.83h-1.92c-.11,0-.2.01-.26.04s-.11.08-.14.14c-.03.06-.04.15-.04.26v.32h2.26v.83h-2.26v1.58h-.89v-2.73c0-.29.05-.52.14-.71Z"/>
        <path class="uuid-8a98e3ef-a8b4-4264-8a31-4a25bcea0b59" d="M118.88,98.41h-1.67c-.29,0-.53-.05-.71-.14s-.33-.23-.42-.42-.14-.43-.14-.71v-2.73h.89v2.73c0,.11.01.2.04.26.03.07.07.11.14.14.07.03.15.04.26.04h1.61v.83Z"/>
      </g>
      <g>
        <g>
          <rect class="uuid-781f23a7-d8ea-4ad8-9b34-8838eaacb2eb" x="109.86" y="95.11" width=".88" height="5.83"/>
          <rect x="109.86" y="96.08" width=".88" height=".97"/>
          <rect x="109.86" y="98.02" width=".88" height=".97"/>
          <rect x="109.86" y="99.96" width=".88" height=".97"/>
          <rect class="uuid-781f23a7-d8ea-4ad8-9b34-8838eaacb2eb" x="108.98" y="95.11" width=".88" height="5.83"/>
          <rect x="108.98" y="95.11" width=".88" height=".97"/>
          <rect x="108.98" y="97.05" width=".88" height=".97"/>
          <rect x="108.98" y="98.99" width=".88" height=".97"/>
        </g>
        <g>
          <rect class="uuid-781f23a7-d8ea-4ad8-9b34-8838eaacb2eb" x="109.86" y="92.19" width=".88" height="2.91"/>
          <rect x="109.86" y="92.19" width=".88" height=".97"/>
          <rect x="109.86" y="94.14" width=".88" height=".97"/>
          <rect class="uuid-781f23a7-d8ea-4ad8-9b34-8838eaacb2eb" x="108.98" y="92.19" width=".88" height="2.91"/>
          <rect x="108.98" y="93.17" width=".88" height=".97"/>
        </g>
      </g>
    </g>
  </g>
  <g>
    <rect class="uuid-8a98e3ef-a8b4-4264-8a31-4a25bcea0b59" x="57.3" y="87.22" width=".73" height="9.41" transform="translate(-.89 .57) rotate(-.56)"/>
    <g>
      <path class="uuid-80e38ece-8994-4dbf-8bac-7deec2f0682f" d="M62.57,93.52h-8.62l-.03.03v7.38h8.65v-7.41Z"/>
      <path class="uuid-821473c9-7a6d-4631-86fb-7816ce6f4662" d="M56.28,98.56h2.69c.14,0,.25-.03.33-.09.08-.06.12-.15.12-.27,0-.11-.03-.19-.1-.24-.07-.06-.17-.11-.31-.15l-1.69-.45c-.39-.09-.67-.25-.86-.47-.18-.22-.28-.52-.28-.88,0-.26.06-.5.19-.71.13-.21.31-.37.54-.49.23-.12.51-.18.83-.18h2.58v1.02h-2.58c-.14,0-.26.03-.33.09-.08.06-.12.15-.12.27s.03.2.1.25c.06.06.17.11.31.15l1.68.44c.39.09.68.25.86.48s.28.52.28.88c0,.27-.06.51-.19.71-.13.21-.31.37-.54.49-.23.12-.51.18-.83.18h-2.69v-1.02Z"/>
    </g>
  </g>
</svg>