<?xml version="1.0" encoding="UTF-8"?>
<svg id="uuid-af1e0399-3822-4ee4-affb-67f17ae27e9c" data-name="Capa 1" xmlns="http://www.w3.org/2000/svg" viewBox="0 0 210 210">
  <defs>
    <style>
      .uuid-37a5966c-6d1a-40f4-ba17-ec7706c1d2cd {
        fill: #323232;
      }

      .uuid-53670957-7fdc-467c-bd00-4f167a1ad6e9 {
        fill: #444;
      }

      .uuid-f9c59719-9eaf-4fdc-b013-ec8d057e42c2 {
        fill: #e6e6e6;
      }

      .uuid-cc7e2faa-75fa-49c9-8abe-b7019f7d06ca {
        fill: #f6f6f6;
      }

      .uuid-67c9f4c1-eff4-445e-87ca-42e14da722db {
        fill: #606060;
      }

      .uuid-a92c241d-dc29-447e-b8c4-b11f8bccb12c {
        fill: #a0a0a0;
      }

      .uuid-c7e05306-e916-40fd-b01e-fd7ba4b17032 {
        fill: #c6c6c6;
      }

      .uuid-974e3b47-7fe4-49db-bd48-57da4af408ca {
        fill: #fafafa;
      }

      .uuid-f22ccf45-3caa-4f4c-9cd1-3a7b133683fc {
        fill: red;
      }

      .uuid-3ce1ce1b-2040-419e-bc6f-c290608d1572 {
        fill: #ededed;
      }
    </style>
  </defs>
  <path class="uuid-67c9f4c1-eff4-445e-87ca-42e14da722db" d="M72.93,55.16c-1.97,0-5.1-.72-6.99-2.52-1.09-1.05-1.62-2.35-1.53-3.77.25-3.75,2.35-7.7,2.44-7.87l.3.13-.16-.17c.26-.3,1.65-2.76,2.45-4.87l1.32.5c-.07.2-1.5,3.96-2.71,5.19-.32.63-2.02,4.07-2.22,7.19-.07,1,.3,1.9,1.09,2.65,1.71,1.63,4.98,2.29,6.56,2.1,2.89-.32,3.62-1.4,3.96-3.28.11-.64.23-1.26.34-1.88.46-2.44.88-4.74,1.03-7.07l1.41.09c-.15,2.42-.58,4.76-1.05,7.25-.11.61-.23,1.23-.34,1.87-.5,2.8-2.01,4.09-5.2,4.44-.21.02-.45.04-.71.04ZM67.56,41.29l.6.26c.05-.18-.03-.54-.36-.71l-.24.46Z"/>
  <path class="uuid-a92c241d-dc29-447e-b8c4-b11f8bccb12c" d="M104.61,199.84c-6.56,0-9.4-5.59-10.95-8.65-.26-.51-.48-.95-.69-1.31-2.58-4.37-8.01-10.44-11.03-13.46-.67-.67-1.83-1.92-3.18-3.37-2.7-2.91-7.73-8.32-8.75-8.77-.41-.08-.54-.02-1.53,1.12-.27.31-.57.66-.94,1.05-2.1,2.22-4.55,2.88-6.55,1.77-1.73-.97-7.87-7.27-8.82-14.17-.42-3.06,1.59-5.67,3.73-8.43.11-.14.37-.51.76-1.06h0c3.64-5.19,17.98-26.19,22.7-33.09.93-1.36,1.48-2.17,1.5-2.19.23-.32.44-.63.66-.94,2.4-3.46,4.47-6.45,13.4-5.39,1.08.13,2.09.26,3.03.38,7.71.98,10.6,1.34,15.54-2.38,6.42-4.84,15.01-13.19,15.1-13.28.22-.22,2.3-2.22,4.58-1.72,1.35.3,2.39,1.38,3.07,3.21.53,1.44.98,2.82,1.42,4.15.98,3.01,1.99,6.12,3.1,6.38.04,0,.16.04.4-.13,1.51-1.03,3.21-5.81,3.71-9.4,1.22-8.63,1.23-9.35-2.58-12.2-2.85-2.13-18.5-14.96-32.31-26.28-8.05-6.6-15.65-12.83-19.36-15.83-2.16-1.74-4.29-2.28-6.71-1.69-1.47.36-3.91,1.4-3.77,4.32.34,7.06-.58,11.93-6.18,12.76-4.88.72-7.24-2.43-7.84-5.63-.28-1.52.16-3.03.52-4.03l.04-.11s1.82-3.7,4.19-9.34c3.94-9.39,10.01-15.77,16.65-17.53,1.73-.46,4.02-.83,7.82-1.44,1.69-.27,3.68-.59,6.08-1,13.79-2.31,31.12-4.51,31.3-4.54.04,0,9.44-1.66,13.27,6.72,2.84,6.2,4.38,10.75,5.87,17.38,1.55,6.9,2.39,16.82,2.89,22.74.14,1.63.25,2.93.34,3.76.71,6.5,1.9,8.62,4.46,11.91,2.38,3.07,2.44,5.86.23,11.48-3.94,10.04-1.38,12.61,1.34,15.32,1.04,1.04,2.12,2.12,2.82,3.6,2.14,4.55.33,9.7-4.19,11.99-4.29,2.17-6.72,4.11-8.96,7.17-1.45,1.97-7.5,15.26-13.36,28.1-6.41,14.05-13.03,28.58-16.12,34.02l-1.24,2.19c-5.01,8.9-8.63,15.33-14.5,15.78-.32.02-.63.04-.93.04ZM69.82,162.27c.21,0,.42.02.66.07,1.02.2,3.02,2.13,9.74,9.35,1.33,1.43,2.48,2.67,3.13,3.32,3.09,3.09,8.65,9.33,11.33,13.85.23.39.48.87.75,1.42,1.61,3.18,4.04,7.98,9.95,7.53,4.8-.37,8.2-6.41,12.91-14.76l1.24-2.19c3.04-5.36,9.65-19.85,16.04-33.86,6.44-14.12,12-26.32,13.57-28.46,2.42-3.3,5.13-5.48,9.68-7.77,3.54-1.79,4.95-5.81,3.29-9.35-.55-1.17-1.46-2.08-2.42-3.04-2.91-2.91-6.21-6.2-1.79-17.47,2.15-5.48,1.78-7.3.05-9.53-2.96-3.83-4.15-6.35-4.87-12.92-.09-.84-.2-2.16-.34-3.81-.49-5.88-1.32-15.71-2.85-22.47-1.48-6.56-2.93-10.85-5.74-16.98-3.17-6.94-10.82-5.63-11.15-5.57-.23.03-17.53,2.23-31.28,4.53-2.4.4-4.4.73-6.09,1-3.74.6-5.99.97-7.63,1.4-6.03,1.59-11.62,7.56-15.32,16.37-2.24,5.33-3.98,8.92-4.22,9.4-.44,1.23-.56,2.14-.42,2.94.27,1.42,1.34,4.65,5.58,4.02,3.14-.47,4.88-2.37,4.48-10.69-.15-3.13,1.83-5.5,5.29-6.35,3.03-.75,5.79-.06,8.44,2.08,3.71,3,11.32,9.24,19.37,15.84,13.79,11.31,29.43,24.12,32.24,26.22,4.85,3.62,4.57,5.63,3.37,14.08-.39,2.77-2.03,9.04-4.57,10.77-.81.55-1.53.53-1.99.42-2.2-.53-3.18-3.54-4.53-7.71-.43-1.32-.87-2.68-1.39-4.07-.43-1.16-.97-1.81-1.62-1.95-1.05-.23-2.36.81-2.74,1.19-.1.09-8.78,8.54-15.3,13.45-5.59,4.21-9.16,3.76-16.99,2.77-.93-.12-1.94-.25-3.01-.37-7.74-.92-9.25,1.25-11.52,4.54-.22.31-.44.63-.67.96-.04.05-.58.84-1.48,2.16-4.71,6.9-19.06,27.91-22.71,33.11h0c-.42.59-.7.99-.82,1.14-1.87,2.42-3.64,4.71-3.33,6.94.89,6.43,6.88,12.17,7.81,12.7,1.15.64,2.69.12,4.12-1.39.34-.36.63-.69.88-.98.84-.97,1.58-1.82,2.86-1.82Z"/>
  <g>
    <circle class="uuid-53670957-7fdc-467c-bd00-4f167a1ad6e9" cx="130.57" cy="96.41" r="3.47"/>
    <path class="uuid-c7e05306-e916-40fd-b01e-fd7ba4b17032" d="M129.37,97.43l.47-.28c.16.28.39.43.74.43s.63-.2.63-.51c0-.29-.24-.52-.56-.52h-.39v-.5h.39c.29,0,.46-.16.46-.42s-.2-.42-.53-.42c-.3,0-.52.13-.69.41l-.47-.28c.26-.44.66-.68,1.21-.68.63,0,1.08.4,1.08.93,0,.34-.19.6-.41.71.31.15.51.47.51.81,0,.57-.48,1.01-1.23,1.01-.56,0-.98-.26-1.21-.7Z"/>
  </g>
  <g>
    <circle class="uuid-53670957-7fdc-467c-bd00-4f167a1ad6e9" cx="150.89" cy="76.13" r="3.47"/>
    <path class="uuid-c7e05306-e916-40fd-b01e-fd7ba4b17032" d="M149.71,77.15l.51-.32c.15.28.37.42.69.42.38,0,.63-.23.63-.58s-.23-.59-.64-.59c-.25,0-.45.1-.61.27l-.41-.26.32-1.63h1.77v.58h-1.31l-.12.62c.13-.06.27-.08.43-.08.73,0,1.16.47,1.16,1.11s-.47,1.15-1.26,1.15c-.52,0-.95-.25-1.18-.69Z"/>
  </g>
  <g>
    <circle class="uuid-53670957-7fdc-467c-bd00-4f167a1ad6e9" cx="85.74" cy="39.6" r="3.47"/>
    <path class="uuid-c7e05306-e916-40fd-b01e-fd7ba4b17032" d="M84.56,40.12c0-.27.1-.53.28-.76l1.09-1.44h.75l-.81,1.04h.04c.62,0,1.15.49,1.15,1.18,0,.66-.53,1.17-1.24,1.17s-1.25-.54-1.25-1.19ZM86.43,40.11c0-.35-.26-.62-.62-.62s-.64.28-.64.63.26.61.64.61.63-.27.63-.62Z"/>
  </g>
  <g>
    <circle class="uuid-53670957-7fdc-467c-bd00-4f167a1ad6e9" cx="67.75" cy="59.49" r="3.47"/>
    <path class="uuid-c7e05306-e916-40fd-b01e-fd7ba4b17032" d="M68.27,58.41h-1.69v-.59h2.37v.5l-1.36,2.82h-.66l1.33-2.73Z"/>
  </g>
  <g>
    <circle class="uuid-53670957-7fdc-467c-bd00-4f167a1ad6e9" cx="74.66" cy="16.06" r="3.47"/>
    <path class="uuid-c7e05306-e916-40fd-b01e-fd7ba4b17032" d="M73.54,16.77c0-.33.18-.64.49-.81-.2-.09-.38-.37-.38-.71,0-.53.44-.91,1.08-.91s1.08.38,1.08.91c0,.34-.18.6-.38.71.29.15.49.47.49.81,0,.57-.48,1.01-1.18,1.01s-1.18-.44-1.18-1.01ZM75.29,16.72c0-.3-.24-.52-.57-.52s-.57.23-.57.52c0,.32.24.52.57.52s.57-.21.57-.52ZM75.2,15.28c0-.25-.18-.42-.48-.42s-.48.17-.48.42.18.43.48.43.48-.17.48-.43Z"/>
  </g>
  <g>
    <circle class="uuid-53670957-7fdc-467c-bd00-4f167a1ad6e9" cx="144.53" cy="4.52" r="3.47"/>
    <path class="uuid-c7e05306-e916-40fd-b01e-fd7ba4b17032" d="M145.83,3.97c0,.27-.1.53-.28.76l-1.09,1.44h-.75l.81-1.04h-.04c-.62,0-1.15-.49-1.15-1.18,0-.66.53-1.17,1.24-1.17s1.25.54,1.25,1.19ZM143.95,3.98c0,.35.26.62.62.62s.64-.28.64-.62-.26-.61-.63-.61-.63.27-.63.62Z"/>
  </g>
  <g>
    <circle class="uuid-53670957-7fdc-467c-bd00-4f167a1ad6e9" cx="161.72" cy="62.95" r="3.47"/>
    <g>
      <path class="uuid-c7e05306-e916-40fd-b01e-fd7ba4b17032" d="M159.27,64h.92v-2.05l-.83.19v-.59l1.44-.32v2.77h.85v.59h-2.38v-.59Z"/>
      <path class="uuid-c7e05306-e916-40fd-b01e-fd7ba4b17032" d="M161.94,63.45v-1.03c0-.73.53-1.22,1.22-1.22s1.21.49,1.21,1.22v1.03c0,.73-.53,1.21-1.21,1.21s-1.22-.49-1.22-1.21ZM163.76,63.43v-.98c0-.4-.23-.65-.6-.65s-.61.25-.61.65v.98c0,.4.23.65.61.65s.6-.25.6-.65Z"/>
    </g>
  </g>
  <g>
    <circle class="uuid-53670957-7fdc-467c-bd00-4f167a1ad6e9" cx="167.04" cy="74.58" r="3.47"/>
    <g>
      <path class="uuid-c7e05306-e916-40fd-b01e-fd7ba4b17032" d="M164.58,75.63h.92v-2.05l-.83.19v-.59l1.44-.32v2.77h.85v.59h-2.38v-.59Z"/>
      <path class="uuid-c7e05306-e916-40fd-b01e-fd7ba4b17032" d="M167.32,75.63h.92v-2.05l-.83.19v-.59l1.44-.32v2.77h.85v.59h-2.38v-.59Z"/>
    </g>
  </g>
  <g>
    <circle class="uuid-53670957-7fdc-467c-bd00-4f167a1ad6e9" cx="163.44" cy="91.11" r="3.47"/>
    <g>
      <path class="uuid-c7e05306-e916-40fd-b01e-fd7ba4b17032" d="M160.98,92.17h.92v-2.05l-.83.19v-.59l1.44-.32v2.77h.85v.59h-2.38v-.59Z"/>
      <path class="uuid-c7e05306-e916-40fd-b01e-fd7ba4b17032" d="M165.36,90.37c0-.24-.17-.42-.48-.42s-.55.18-.72.47l-.5-.32c.25-.47.67-.74,1.22-.74.66,0,1.09.4,1.09.97,0,1.01-1.09,1.1-1.48,1.84h1.54v.58h-2.33v-.46c.52-1.16,1.66-1.29,1.66-1.92Z"/>
    </g>
  </g>
  <g>
    <circle class="uuid-53670957-7fdc-467c-bd00-4f167a1ad6e9" cx="156.78" cy="121.15" r="3.47"/>
    <g>
      <path class="uuid-c7e05306-e916-40fd-b01e-fd7ba4b17032" d="M154.33,122.2h.92v-2.05l-.83.19v-.59l1.44-.32v2.77h.85v.59h-2.38v-.59Z"/>
      <path class="uuid-c7e05306-e916-40fd-b01e-fd7ba4b17032" d="M156.92,121.6l.92-2.13h.63l-.89,2.05h.84v-.77h.62v.77h.48v.57h-.48v.69h-.62v-.69h-1.5v-.5Z"/>
    </g>
  </g>
  <g>
    <circle class="uuid-53670957-7fdc-467c-bd00-4f167a1ad6e9" cx="104.83" cy="205.54" r="3.47"/>
    <g>
      <path class="uuid-c7e05306-e916-40fd-b01e-fd7ba4b17032" d="M102.37,206.59h.92v-2.05l-.83.19v-.59l1.44-.32v2.77h.85v.59h-2.38v-.59Z"/>
      <path class="uuid-c7e05306-e916-40fd-b01e-fd7ba4b17032" d="M105.01,206.56l.51-.32c.15.28.37.42.69.42.38,0,.63-.23.63-.58s-.23-.6-.64-.6c-.25,0-.45.1-.6.27l-.41-.26.32-1.63h1.77v.58h-1.31l-.12.62c.13-.06.27-.08.42-.08.73,0,1.16.47,1.16,1.11s-.47,1.15-1.26,1.15c-.52,0-.95-.25-1.18-.69Z"/>
    </g>
  </g>
  <g>
    <circle class="uuid-53670957-7fdc-467c-bd00-4f167a1ad6e9" cx="69.88" cy="171.99" r="3.47"/>
    <g>
      <path class="uuid-c7e05306-e916-40fd-b01e-fd7ba4b17032" d="M67.42,173.05h.92v-2.05l-.83.19v-.59l1.44-.32v2.77h.85v.59h-2.38v-.59Z"/>
      <path class="uuid-c7e05306-e916-40fd-b01e-fd7ba4b17032" d="M70.06,172.51c0-.27.1-.53.28-.76l1.09-1.44h.75l-.81,1.04h.04c.62,0,1.15.49,1.15,1.18,0,.66-.53,1.17-1.24,1.17s-1.25-.54-1.25-1.2ZM71.94,172.5c0-.35-.26-.62-.63-.62s-.64.28-.64.63.26.61.64.61.63-.27.63-.62Z"/>
    </g>
  </g>
  <g>
    <circle class="uuid-53670957-7fdc-467c-bd00-4f167a1ad6e9" cx="56.25" cy="171.76" r="3.47"/>
    <g>
      <path class="uuid-c7e05306-e916-40fd-b01e-fd7ba4b17032" d="M53.79,172.81h.92v-2.05l-.83.19v-.59l1.44-.32v2.77h.85v.59h-2.38v-.59Z"/>
      <path class="uuid-c7e05306-e916-40fd-b01e-fd7ba4b17032" d="M58.14,170.68h-1.69v-.59h2.37v.5l-1.36,2.82h-.66l1.33-2.73Z"/>
    </g>
  </g>
  <g>
    <circle class="uuid-53670957-7fdc-467c-bd00-4f167a1ad6e9" cx="46.48" cy="153.95" r="3.47"/>
    <g>
      <path class="uuid-c7e05306-e916-40fd-b01e-fd7ba4b17032" d="M44.03,155h.92v-2.05l-.83.19v-.59l1.44-.32v2.77h.85v.59h-2.38v-.59Z"/>
      <path class="uuid-c7e05306-e916-40fd-b01e-fd7ba4b17032" d="M46.73,154.66c0-.33.18-.64.49-.81-.19-.09-.38-.37-.38-.71,0-.53.44-.91,1.08-.91s1.08.38,1.08.91c0,.34-.18.6-.38.71.29.15.49.47.49.81,0,.57-.48,1.01-1.18,1.01s-1.18-.44-1.18-1.01ZM48.48,154.61c0-.3-.24-.52-.57-.52s-.57.23-.57.52c0,.32.24.52.57.52s.57-.21.57-.52ZM48.39,153.17c0-.25-.18-.42-.48-.42s-.48.17-.48.42.18.43.48.43.48-.17.48-.43Z"/>
    </g>
  </g>
  <g>
    <circle class="uuid-53670957-7fdc-467c-bd00-4f167a1ad6e9" cx="106.92" cy="98" r="3.47"/>
    <path class="uuid-c7e05306-e916-40fd-b01e-fd7ba4b17032" d="M107.47,97.26c0-.24-.17-.42-.48-.42s-.55.18-.72.47l-.5-.32c.25-.47.67-.74,1.22-.74.66,0,1.09.4,1.09.97,0,1.01-1.09,1.1-1.48,1.84h1.54v.58h-2.33v-.46c.52-1.16,1.66-1.29,1.66-1.92Z"/>
  </g>
  <g>
    <circle class="uuid-53670957-7fdc-467c-bd00-4f167a1ad6e9" cx="138.75" cy="111.21" r="3.47"/>
    <path class="uuid-c7e05306-e916-40fd-b01e-fd7ba4b17032" d="M137.52,111.67l.92-2.13h.63l-.89,2.05h.84v-.77h.62v.77h.48v.57h-.48v.69h-.62v-.69h-1.5v-.5Z"/>
  </g>
  <g>
    <circle class="uuid-53670957-7fdc-467c-bd00-4f167a1ad6e9" cx="169.62" cy="109.16" r="3.47"/>
    <g>
      <path class="uuid-c7e05306-e916-40fd-b01e-fd7ba4b17032" d="M167.17,110.21h.92v-2.05l-.83.19v-.59l1.44-.32v2.77h.85v.59h-2.38v-.59Z"/>
      <path class="uuid-c7e05306-e916-40fd-b01e-fd7ba4b17032" d="M169.78,110.18l.47-.28c.16.28.39.43.74.43s.63-.2.63-.51c0-.29-.24-.52-.56-.52h-.39v-.5h.39c.29,0,.46-.16.46-.42s-.2-.42-.53-.42c-.3,0-.52.13-.69.41l-.47-.28c.26-.44.66-.68,1.21-.68.64,0,1.08.39,1.08.93,0,.34-.19.61-.41.71.31.15.51.47.51.81,0,.57-.48,1.01-1.23,1.01-.56,0-.98-.26-1.21-.7Z"/>
    </g>
  </g>
  <g>
    <circle class="uuid-53670957-7fdc-467c-bd00-4f167a1ad6e9" cx="83.18" cy="98.81" r="3.47"/>
    <path class="uuid-c7e05306-e916-40fd-b01e-fd7ba4b17032" d="M82.09,99.86h.92v-2.05l-.83.19v-.59l1.44-.32v2.77h.85v.59h-2.38v-.59Z"/>
  </g>
  <g>
    <polygon class="uuid-f9c59719-9eaf-4fdc-b013-ec8d057e42c2" points="158.77 103.84 158.34 103.11 171.28 95.28 171.71 96.01 158.77 103.84"/>
    <g>
      <path class="uuid-f22ccf45-3caa-4f4c-9cd1-3a7b133683fc" d="M181.47,90.58h-10.94l-.03.03v8.96h10.97v-9Z"/>
      <g>
        <path class="uuid-3ce1ce1b-2040-419e-bc6f-c290608d1572" d="M172.19,96.1h1.17v-2.35h-1.17v-.83h3.24v.83h-1.18v2.35h1.18v.83h-3.24v-.83Z"/>
        <path class="uuid-3ce1ce1b-2040-419e-bc6f-c290608d1572" d="M176.62,96.77c-.21-.1-.38-.25-.49-.43-.11-.19-.17-.41-.17-.67v-.51h.9v.43c0,.16.05.28.14.37.09.09.22.13.38.13h1.03c.15,0,.26-.03.34-.1.08-.06.12-.16.12-.29,0-.12-.04-.21-.12-.28-.08-.06-.19-.09-.34-.09h-1.11v-.83h1.07c.14,0,.26-.03.34-.1.08-.06.12-.16.12-.29,0-.12-.04-.21-.12-.28-.08-.06-.19-.09-.34-.09h-1c-.16,0-.29.04-.38.13-.09.09-.14.21-.14.37v.26h-.89v-.34c0-.26.06-.48.17-.67s.27-.33.49-.43c.21-.1.47-.15.77-.15h1.01c.27,0,.5.04.7.13s.35.21.46.38c.11.17.16.36.16.59,0,.2-.04.38-.14.53-.09.15-.23.27-.42.37.21.1.37.22.46.37.09.14.14.32.14.54s-.05.42-.16.59c-.11.17-.27.29-.47.38-.2.09-.44.13-.71.13h-1.03c-.3,0-.56-.05-.77-.15Z"/>
      </g>
    </g>
  </g>
  <g>
    <polygon class="uuid-f9c59719-9eaf-4fdc-b013-ec8d057e42c2" points="149.8 85.15 134.04 82.53 134.28 81.83 150.04 84.45 149.8 85.15"/>
    <path class="uuid-f22ccf45-3caa-4f4c-9cd1-3a7b133683fc" d="M135.95,75.06h-10.14l-.03.03v8.76h10.17v-8.79Z"/>
    <g>
      <path class="uuid-3ce1ce1b-2040-419e-bc6f-c290608d1572" d="M127.47,80.58h1.17v-2.35h-1.17v-.83h3.24v.83h-1.18v2.35h1.18v.83h-3.24v-.83Z"/>
      <path class="uuid-3ce1ce1b-2040-419e-bc6f-c290608d1572" d="M131.33,80.58h1.49v-2.1c0-.07-.02-.13-.05-.17-.03-.04-.08-.06-.16-.06-.04,0-.08,0-.13.02-.05.01-.11.04-.17.06l-.89.29v-.83l.81-.29c.12-.04.23-.08.34-.1s.22-.04.32-.04c.17,0,.31.04.43.11.12.07.22.18.28.32s.09.29.09.47v2.33h1.32v.83h-3.7v-.83Z"/>
    </g>
  </g>
  <g>
    <rect class="uuid-f9c59719-9eaf-4fdc-b013-ec8d057e42c2" x="97.56" y="5.09" width=".73" height="12.21" transform="translate(-.21 20.34) rotate(-11.85)"/>
    <path class="uuid-f22ccf45-3caa-4f4c-9cd1-3a7b133683fc" d="M102.69,2.03h-10.14l-.03.03v7.93h10.17V2.03Z"/>
    <g>
      <path class="uuid-3ce1ce1b-2040-419e-bc6f-c290608d1572" d="M93.82,7.09h1.17v-2.35h-1.17v-.83h3.24v.83h-1.18v2.35h1.18v.83h-3.24v-.83Z"/>
      <path class="uuid-3ce1ce1b-2040-419e-bc6f-c290608d1572" d="M98.16,7.78c-.18-.09-.32-.21-.42-.36-.09-.16-.14-.34-.14-.55,0-.3.09-.54.27-.73.18-.19.48-.33.9-.41l1.27-.27c.12-.02.21-.05.28-.08.07-.03.11-.07.14-.12.03-.04.05-.11.05-.18,0-.11-.04-.2-.13-.25s-.22-.08-.41-.08h-.92c-.17,0-.3.04-.39.13-.09.09-.13.21-.13.37v.15h-.89v-.24c0-.26.06-.48.17-.67.11-.18.27-.33.49-.43.21-.1.47-.15.78-.15h.88c.47,0,.83.1,1.08.3s.37.49.37.86c0,.22-.04.41-.11.56-.07.15-.18.27-.33.37-.15.09-.34.16-.58.21l-1.5.3c-.13.03-.23.07-.29.12-.07.05-.1.12-.1.2s.03.15.09.2c.06.04.15.07.27.07h2.53v.83h-2.57c-.25,0-.47-.04-.65-.13Z"/>
    </g>
  </g>
  <g>
    <g>
      <line class="uuid-3ce1ce1b-2040-419e-bc6f-c290608d1572" x1="60.03" y1="147.06" x2="52" y2="141.17"/>
      <polygon class="uuid-f9c59719-9eaf-4fdc-b013-ec8d057e42c2" points="51.79 141.51 52.21 140.82 60.24 146.72 59.82 147.41 51.79 141.51"/>
    </g>
    <g>
      <path class="uuid-f22ccf45-3caa-4f4c-9cd1-3a7b133683fc" d="M54.49,136.5h-10.98l-.03.03v8.7h11.02v-8.74Z"/>
      <g>
        <path class="uuid-3ce1ce1b-2040-419e-bc6f-c290608d1572" d="M46.72,139.27c.09-.19.23-.33.42-.42.19-.09.42-.14.71-.14h1.98v.83h-1.92c-.11,0-.2.01-.26.04-.06.03-.11.08-.14.14-.03.06-.04.15-.04.26v.32h2.26v.83h-2.26v1.58h-.89v-2.73c0-.29.05-.52.14-.71Z"/>
        <path class="uuid-3ce1ce1b-2040-419e-bc6f-c290608d1572" d="M53.38,142.71h-1.67c-.29,0-.53-.05-.71-.14-.19-.09-.33-.23-.42-.42s-.14-.43-.14-.71v-2.73h.89v2.73c0,.11.01.2.04.26.03.07.07.11.14.14.07.03.15.04.26.04h1.61v.83Z"/>
      </g>
      <g>
        <g>
          <rect class="uuid-974e3b47-7fe4-49db-bd48-57da4af408ca" x="44.35" y="139.41" width=".88" height="5.83"/>
          <rect x="44.35" y="140.39" width=".88" height=".97"/>
          <rect x="44.35" y="142.33" width=".88" height=".97"/>
          <rect x="44.35" y="144.27" width=".88" height=".97"/>
          <rect class="uuid-974e3b47-7fe4-49db-bd48-57da4af408ca" x="43.48" y="139.41" width=".88" height="5.83"/>
          <rect x="43.48" y="139.41" width=".88" height=".97"/>
          <rect x="43.48" y="141.36" width=".88" height=".97"/>
          <rect x="43.48" y="143.3" width=".88" height=".97"/>
        </g>
        <g>
          <rect class="uuid-974e3b47-7fe4-49db-bd48-57da4af408ca" x="44.35" y="136.5" width=".88" height="2.91"/>
          <rect x="44.35" y="136.5" width=".88" height=".97"/>
          <rect x="44.35" y="138.44" width=".88" height=".97"/>
          <rect class="uuid-974e3b47-7fe4-49db-bd48-57da4af408ca" x="43.48" y="136.5" width=".88" height="2.91"/>
          <rect x="43.48" y="137.47" width=".88" height=".97"/>
        </g>
      </g>
    </g>
  </g>
  <g>
    <polygon class="uuid-3ce1ce1b-2040-419e-bc6f-c290608d1572" points="133.02 170.85 132.73 171.53 123.2 168 123.49 167.32 133.02 170.85"/>
    <g>
      <path class="uuid-cc7e2faa-75fa-49c9-8abe-b7019f7d06ca" d="M138.86,167.43h-8.62l-.03.03v7.38h8.65v-7.41Z"/>
      <path class="uuid-37a5966c-6d1a-40f4-ba17-ec7706c1d2cd" d="M132.56,172.47h2.69c.14,0,.25-.03.33-.09.08-.06.12-.15.12-.27,0-.11-.03-.19-.1-.24-.07-.06-.17-.11-.31-.15l-1.69-.45c-.39-.09-.67-.25-.86-.47-.18-.22-.28-.52-.28-.88,0-.26.06-.5.19-.71.13-.21.31-.37.54-.49.23-.12.51-.18.83-.18h2.58v1.02h-2.58c-.14,0-.26.03-.33.09-.08.06-.12.15-.12.27s.03.2.1.25c.06.06.17.11.31.15l1.68.44c.39.09.68.25.86.48s.28.52.28.88c0,.27-.06.51-.19.71-.13.21-.31.37-.54.49-.23.12-.51.18-.83.18h-2.69v-1.02Z"/>
    </g>
  </g>
</svg>