<?xml version="1.0" encoding="UTF-8"?>
<svg id="uuid-4c8b6a75-cc76-4055-b0d8-922d4447b8c9" data-name="Capa 1" xmlns="http://www.w3.org/2000/svg" viewBox="0 0 210 113.82">
  <defs>
    <style>
      .uuid-294ed2cb-5535-41b4-b69b-c5cc6b3a9edb {
        fill: #323232;
      }

      .uuid-68963e50-3671-4a30-bfe9-e196b59e3482 {
        fill: #444;
      }

      .uuid-1eac7636-5baa-426d-b827-c1afc7b83c48 {
        fill: #e6e6e6;
      }

      .uuid-5909f213-3793-4c21-8fad-a97bf02295d9 {
        fill: #f6f6f6;
      }

      .uuid-7c0538d4-b4e2-42b3-8c95-9d247750aac6 {
        fill: #606060;
      }

      .uuid-8e2f8d91-91a4-41c0-bf10-7153c369e882 {
        fill: #a0a0a0;
      }

      .uuid-e8252bc1-797b-4493-bfdc-733b2c1c22fc {
        fill: #c6c6c6;
      }

      .uuid-d1dcb2d5-7514-4dba-b412-2368260f5c22 {
        fill: #fafafa;
      }

      .uuid-58032e82-9538-44b5-ba39-ac4af615b67c {
        fill: red;
      }

      .uuid-d5d9a903-65db-4fb9-b982-41be15b14a7e {
        fill: #ededed;
      }
    </style>
  </defs>
  <path class="uuid-7c0538d4-b4e2-42b3-8c95-9d247750aac6" d="M141.91,104.21c-4.64,0-10.29-2.08-13.05-4.84-3.51-3.51-2.91-12.85-2.51-19.04.09-1.4.17-2.6.17-3.4h1.46c0,.85-.08,2.08-.17,3.5-.36,5.56-.96,14.87,2.08,17.91,2.56,2.56,8.13,4.53,12.42,4.41,2.04-.06,3.55-.58,4.37-1.51,1.55-1.75,1.57-7.04,1.59-10.54,0-1.1,0-2.05.05-2.76l1.46.09c-.04.67-.05,1.6-.05,2.68-.02,3.94-.04,9.34-1.96,11.5-1.1,1.23-2.97,1.92-5.42,2-.15,0-.3,0-.44,0Z"/>
  <path class="uuid-8e2f8d91-91a4-41c0-bf10-7153c369e882" d="M48.58,105.15c-1.36,0-2.72-.44-3.76-1.29-1.21-.99-3.03-3.42-1.66-8.55.31-1.15.58-2.15.82-3.03.79-2.87,1.22-4.45,1.2-5.39-.02-.74-.29-1.15-1.24-2.46-.21-.28-.43-.6-.68-.96-.11-.15-.98-1.39-2.39-3.41l-5.05-7.19C17.71,47.13,6.72,31.45,4.02,27.53c-1.4-2.03-1.86-5.37-1.15-8.32.49-2.02,1.73-4.77,4.88-6.46,2.77-1.48,5.51-1.78,8.14-.88,7.87,2.68,14.14,15.47,22.15,33.25,1,2.23,3.02,3.46,5.26,3.21,2.2-.24,4.87-2.03,5.77-6.35,1.15-5.47,1.34-9.76,1.45-12.33.02-.37.03-.7.05-1,.17-3.07.76-4.16,3.16-5.86,10.41-7.35,21.37-11.11,33.51-11.5,31.26-1.01,64.97-.62,79.37-.45,2.69.03,4.64.05,5.61.06,11.22.01,19.12.04,19.62.04.44-.02,4.74-.11,7.22,2.54,1.35,1.45,1.9,3.4,1.61,5.79-.65,5.47-8.95,6.55-15.62,7.42-1.39.18-2.7.35-3.84.55-4.31.74-10.93,2.53-18.57,9.48-3.09,2.81-7.31,8.33-9,14.61-1.79,6.63-2.28,12.71-2.75,18.59-.05.57-.09,1.14-.14,1.7-.36,4.31-.45,8.03-.54,11.32-.11,4.21-.2,7.84-.8,11.26-.23,1.32-.97,2.39-2.14,3.07-2.03,1.19-5.34,1.15-8.85-.08-5.59-1.97-12.26-6.58-12.26-17.31,0-18.85.43-28.71.43-28.81,0-.02.07-2.07-1.44-3.55-1.28-1.25-3.34-1.8-6.13-1.62-7.6.49-9.81-.66-17.06-5.12-.56-.35-1.11-.7-1.7-1.08-3.88-2.51-8.28-5.36-15.75-4.53-5.17.58-10.57,3.95-13.75,8.59-2.94,4.29-3.52,9.77-4.31,17.34-.17,1.63-.35,3.31-.56,5.11-.19,1.57-.31,3.25-.45,5.03-.45,5.85-.96,12.48-3.73,19.24-2.21,5.39-6.13,11.92-10.46,14.06-.82.41-1.74.61-2.66.61ZM12.86,13.46c-1.34,0-2.71.38-4.14,1.14-2.47,1.32-3.45,3.51-3.84,5.11-.67,2.76-.03,5.38.84,6.64,2.7,3.91,13.69,19.59,31.79,45.33l5.05,7.19c1.42,2.02,2.29,3.26,2.4,3.41.24.35.47.65.67.93,2.18,3.02,2.07,3.39.36,9.63-.24.87-.51,1.87-.82,3.01-.79,2.97-.45,5.24.97,6.4,1.24,1.02,3.04.98,4.17.43,3.82-1.89,7.48-8.18,9.46-12.98,2.65-6.45,3.14-12.91,3.58-18.6.14-1.8.27-3.5.46-5.12.21-1.79.39-3.46.56-5.08.83-7.88,1.43-13.58,4.66-18.3,3.51-5.12,9.49-8.84,15.23-9.48,8.21-.91,13.15,2.28,17.12,4.85.57.37,1.12.72,1.66,1.06,7.08,4.36,8.82,5.26,15.83,4.81,3.42-.22,6.03.53,7.75,2.24,2.17,2.15,2.05,5,2.04,5.12,0,.09-.43,9.91-.43,28.71,0,7.64,3.66,12.8,10.86,15.35,2.9,1.02,5.62,1.12,7.1.25.64-.37,1.02-.91,1.14-1.63.57-3.27.67-6.83.77-10.95.09-3.31.18-7.07.54-11.44.05-.56.09-1.13.14-1.7.48-5.97.98-12.15,2.82-18.97,1.81-6.72,6.31-12.6,9.61-15.61,8.05-7.32,15.05-9.21,19.62-9.99,1.18-.2,2.52-.38,3.93-.56,5.95-.77,13.36-1.73,13.81-5.59.21-1.75-.15-3.14-1.06-4.11-1.89-2.03-5.59-1.89-5.63-1.88h-.05c-.08,0-8.11-.03-19.64-.04-.98,0-2.93-.02-5.63-.06-14.38-.17-48.06-.56-79.28.45-11.72.38-22.31,4.02-32.37,11.12-1.87,1.32-2.14,1.84-2.28,4.27-.02.29-.03.61-.05.98-.12,2.63-.32,7.03-1.5,12.66-1.13,5.41-4.66,7.68-7.59,7.99-3.12.34-6.02-1.4-7.38-4.43-7.54-16.73-13.87-29.73-20.92-32.13-.78-.27-1.56-.4-2.35-.4Z"/>
  <g>
    <circle class="uuid-68963e50-3671-4a30-bfe9-e196b59e3482" cx="3.57" cy="8.58" r="3.57"/>
    <path class="uuid-e8252bc1-797b-4493-bfdc-733b2c1c22fc" d="M2.45,9.66h.95v-2.12l-.85.2v-.61l1.49-.33v2.86h.87v.61h-2.46v-.61Z"/>
  </g>
  <g>
    <circle class="uuid-68963e50-3671-4a30-bfe9-e196b59e3482" cx="43" cy="42.16" r="3.57"/>
    <path class="uuid-e8252bc1-797b-4493-bfdc-733b2c1c22fc" d="M43.57,41.39c0-.24-.18-.43-.5-.43s-.57.18-.74.49l-.52-.33c.26-.49.69-.77,1.26-.77.68,0,1.12.41,1.12,1,0,1.04-1.13,1.13-1.53,1.9h1.59v.6h-2.41v-.48c.54-1.2,1.72-1.33,1.72-1.99Z"/>
  </g>
  <g>
    <circle class="uuid-68963e50-3671-4a30-bfe9-e196b59e3482" cx="46.25" cy="22.59" r="3.57"/>
    <path class="uuid-e8252bc1-797b-4493-bfdc-733b2c1c22fc" d="M45,23.64l.48-.29c.17.29.4.44.76.44s.65-.21.65-.53c0-.3-.25-.53-.58-.53h-.41v-.52h.41c.3,0,.48-.17.48-.43s-.2-.43-.54-.43c-.31,0-.54.14-.71.42l-.48-.29c.27-.45.68-.7,1.25-.7.66,0,1.11.41,1.11.96,0,.35-.2.62-.42.74.32.16.53.49.53.84,0,.59-.49,1.04-1.27,1.04-.58,0-1.01-.26-1.25-.72Z"/>
  </g>
  <g>
    <circle class="uuid-68963e50-3671-4a30-bfe9-e196b59e3482" cx="69.47" cy="8.51" r="3.57"/>
    <path class="uuid-e8252bc1-797b-4493-bfdc-733b2c1c22fc" d="M68.2,8.98l.95-2.2h.66l-.92,2.12h.87v-.79h.64v.79h.5v.59h-.5v.71h-.64v-.71h-1.55v-.51Z"/>
  </g>
  <g>
    <circle class="uuid-68963e50-3671-4a30-bfe9-e196b59e3482" cx="206.43" cy="17.93" r="3.57"/>
    <path class="uuid-e8252bc1-797b-4493-bfdc-733b2c1c22fc" d="M205.21,18.98l.53-.33c.15.29.38.43.71.43.39,0,.65-.23.65-.6s-.24-.61-.66-.61c-.26,0-.46.1-.62.27l-.42-.27.33-1.68h1.83v.6h-1.35l-.13.65c.14-.06.28-.08.44-.08.75,0,1.2.49,1.2,1.15s-.48,1.19-1.3,1.19c-.54,0-.99-.25-1.22-.71Z"/>
  </g>
  <g>
    <circle class="uuid-68963e50-3671-4a30-bfe9-e196b59e3482" cx="157.63" cy="30.67" r="3.57"/>
    <path class="uuid-e8252bc1-797b-4493-bfdc-733b2c1c22fc" d="M156.41,31.21c0-.28.11-.55.29-.78l1.13-1.48h.77l-.84,1.07h.04c.63,0,1.19.5,1.19,1.22,0,.68-.54,1.21-1.28,1.21s-1.29-.56-1.29-1.23ZM158.35,31.2c0-.36-.27-.64-.65-.64s-.66.29-.66.65.26.63.66.63.65-.28.65-.63Z"/>
  </g>
  <g>
    <circle class="uuid-68963e50-3671-4a30-bfe9-e196b59e3482" cx="142.6" cy="109.52" r="3.57"/>
    <path class="uuid-e8252bc1-797b-4493-bfdc-733b2c1c22fc" d="M143.15,108.4h-1.75v-.61h2.45v.51l-1.4,2.91h-.68l1.38-2.82Z"/>
  </g>
  <g>
    <circle class="uuid-68963e50-3671-4a30-bfe9-e196b59e3482" cx="120.77" cy="92.5" r="3.57"/>
    <path class="uuid-e8252bc1-797b-4493-bfdc-733b2c1c22fc" d="M119.62,93.23c0-.34.19-.66.5-.84-.2-.09-.4-.39-.4-.74,0-.55.46-.94,1.11-.94s1.11.39,1.11.94c0,.36-.19.62-.4.74.3.16.5.49.5.84,0,.59-.49,1.04-1.22,1.04s-1.22-.46-1.22-1.04ZM121.42,93.19c0-.31-.25-.54-.59-.54s-.59.24-.59.54c0,.33.25.54.59.54s.59-.21.59-.54ZM121.33,91.69c0-.26-.18-.43-.5-.43s-.5.17-.5.43.19.44.5.44.5-.17.5-.44Z"/>
  </g>
  <g>
    <circle class="uuid-68963e50-3671-4a30-bfe9-e196b59e3482" cx="120.78" cy="51.66" r="3.57"/>
    <path class="uuid-e8252bc1-797b-4493-bfdc-733b2c1c22fc" d="M122.12,51.09c0,.28-.11.55-.29.78l-1.13,1.48h-.77l.84-1.07h-.04c-.63,0-1.19-.5-1.19-1.22,0-.68.54-1.21,1.28-1.21s1.29.56,1.29,1.23ZM120.19,51.1c0,.36.27.64.65.64s.66-.29.66-.65-.27-.63-.66-.63-.65.28-.65.63Z"/>
  </g>
  <g>
    <circle class="uuid-68963e50-3671-4a30-bfe9-e196b59e3482" cx="112.05" cy="36.08" r="3.57"/>
    <g>
      <path class="uuid-e8252bc1-797b-4493-bfdc-733b2c1c22fc" d="M109.52,37.17h.95v-2.12l-.85.2v-.61l1.49-.33v2.86h.87v.61h-2.46v-.61Z"/>
      <path class="uuid-e8252bc1-797b-4493-bfdc-733b2c1c22fc" d="M112.27,36.6v-1.06c0-.75.55-1.25,1.25-1.25s1.25.5,1.25,1.25v1.06c0,.75-.55,1.25-1.25,1.25s-1.25-.5-1.25-1.25ZM114.15,36.58v-1.02c0-.41-.24-.67-.62-.67s-.62.26-.62.67v1.02c0,.41.24.67.62.67s.62-.25.62-.67Z"/>
    </g>
  </g>
  <g>
    <circle class="uuid-68963e50-3671-4a30-bfe9-e196b59e3482" cx="81.89" cy="41.8" r="3.57"/>
    <g>
      <path class="uuid-e8252bc1-797b-4493-bfdc-733b2c1c22fc" d="M79.36,42.89h.95v-2.12l-.85.2v-.61l1.49-.33v2.86h.87v.61h-2.46v-.61Z"/>
      <path class="uuid-e8252bc1-797b-4493-bfdc-733b2c1c22fc" d="M82.18,42.89h.95v-2.12l-.85.2v-.61l1.49-.33v2.86h.87v.61h-2.46v-.61Z"/>
    </g>
  </g>
  <g>
    <circle class="uuid-68963e50-3671-4a30-bfe9-e196b59e3482" cx="68.48" cy="88.58" r="3.57"/>
    <g>
      <path class="uuid-e8252bc1-797b-4493-bfdc-733b2c1c22fc" d="M65.95,89.67h.95v-2.12l-.85.2v-.61l1.49-.33v2.86h.87v.61h-2.46v-.61Z"/>
      <path class="uuid-e8252bc1-797b-4493-bfdc-733b2c1c22fc" d="M70.46,87.82c0-.24-.18-.43-.5-.43s-.57.18-.74.49l-.52-.33c.26-.49.69-.77,1.26-.77.68,0,1.12.41,1.12,1,0,1.04-1.13,1.13-1.53,1.9h1.59v.6h-2.41v-.48c.54-1.2,1.72-1.33,1.72-1.99Z"/>
    </g>
  </g>
  <g>
    <circle class="uuid-68963e50-3671-4a30-bfe9-e196b59e3482" cx="44.57" cy="110.24" r="3.57"/>
    <g>
      <path class="uuid-e8252bc1-797b-4493-bfdc-733b2c1c22fc" d="M42.04,111.33h.95v-2.12l-.85.2v-.61l1.49-.33v2.86h.87v.61h-2.46v-.61Z"/>
      <path class="uuid-e8252bc1-797b-4493-bfdc-733b2c1c22fc" d="M44.74,111.29l.48-.29c.17.29.4.44.76.44s.65-.21.65-.53c0-.3-.25-.54-.58-.54h-.41v-.52h.41c.3,0,.48-.17.48-.43s-.2-.43-.54-.43c-.31,0-.54.14-.71.42l-.48-.29c.27-.45.68-.7,1.25-.7.66,0,1.11.41,1.11.96,0,.36-.2.62-.42.74.32.16.53.49.53.84,0,.59-.49,1.04-1.27,1.04-.58,0-1.01-.26-1.25-.72Z"/>
    </g>
  </g>
  <g>
    <circle class="uuid-68963e50-3671-4a30-bfe9-e196b59e3482" cx="39.29" cy="87.75" r="3.57"/>
    <g>
      <path class="uuid-e8252bc1-797b-4493-bfdc-733b2c1c22fc" d="M36.76,88.84h.95v-2.12l-.85.2v-.61l1.49-.33v2.86h.87v.61h-2.46v-.61Z"/>
      <path class="uuid-e8252bc1-797b-4493-bfdc-733b2c1c22fc" d="M39.43,88.22l.95-2.2h.66l-.92,2.12h.87v-.79h.64v.79h.5v.59h-.5v.71h-.64v-.71h-1.55v-.51Z"/>
    </g>
  </g>
  <g>
    <rect class="uuid-d5d9a903-65db-4fb9-b982-41be15b14a7e" x="148.46" y="5.94" width=".73" height="9.41" transform="translate(-.27 4.81) rotate(-1.85)"/>
    <g>
      <path class="uuid-5909f213-3793-4c21-8fad-a97bf02295d9" d="M153.51.44h-8.62l-.03.03v7.38h8.65V.44Z"/>
      <path class="uuid-294ed2cb-5535-41b4-b69b-c5cc6b3a9edb" d="M147.21,5.48h2.69c.14,0,.25-.03.33-.09.08-.06.12-.15.12-.27,0-.11-.03-.19-.1-.24-.07-.06-.17-.11-.31-.15l-1.69-.45c-.39-.09-.67-.25-.86-.47-.18-.22-.28-.52-.28-.88,0-.26.06-.5.19-.71.13-.21.31-.37.54-.49.23-.12.51-.18.83-.18h2.58v1.02h-2.58c-.14,0-.26.03-.33.09-.08.06-.12.15-.12.27s.03.2.1.25c.06.06.17.11.31.15l1.68.44c.39.09.68.25.86.48s.28.52.28.88c0,.27-.06.51-.19.71-.13.21-.31.37-.54.49-.23.12-.51.18-.83.18h-2.69v-1.02Z"/>
    </g>
  </g>
  <g>
    <rect class="uuid-1eac7636-5baa-426d-b827-c1afc7b83c48" x="55.31" y="14.31" width=".73" height="11.53" transform="translate(-2.54 30.72) rotate(-30.19)"/>
    <path class="uuid-58032e82-9538-44b5-ba39-ac4af615b67c" d="M59.27,8.22h-10.14l-.03.03v8.76h10.17v-8.79Z"/>
    <g>
      <path class="uuid-d5d9a903-65db-4fb9-b982-41be15b14a7e" d="M50.8,13.74h1.17v-2.35h-1.17v-.83h3.24v.83h-1.18v2.35h1.18v.83h-3.24v-.83Z"/>
      <path class="uuid-d5d9a903-65db-4fb9-b982-41be15b14a7e" d="M54.66,13.74h1.49v-2.1c0-.07-.02-.13-.05-.17-.03-.04-.08-.06-.16-.06-.04,0-.08,0-.13.02-.05.01-.11.04-.17.06l-.89.29v-.83l.81-.29c.12-.04.23-.08.34-.1s.22-.04.32-.04c.17,0,.31.04.43.11.12.07.22.18.28.32s.09.29.09.47v2.33h1.32v.83h-3.7v-.83Z"/>
    </g>
  </g>
  <g>
    <g>
      <line class="uuid-d5d9a903-65db-4fb9-b982-41be15b14a7e" x1="32.76" y1="75.23" x2="39.89" y2="70.16"/>
      <rect class="uuid-1eac7636-5baa-426d-b827-c1afc7b83c48" x="31.95" y="72.33" width="8.76" height=".73" transform="translate(-35.4 34.48) rotate(-35.4)"/>
    </g>
    <g>
      <path class="uuid-58032e82-9538-44b5-ba39-ac4af615b67c" d="M33.02,72.34h-10.98l-.03.03v8.7h11.02v-8.74Z"/>
      <g>
        <path class="uuid-d5d9a903-65db-4fb9-b982-41be15b14a7e" d="M25.26,75.11c.09-.19.23-.33.42-.42.19-.09.42-.14.71-.14h1.98v.83h-1.92c-.11,0-.2.01-.26.04-.06.03-.11.08-.14.14-.03.06-.04.15-.04.26v.32h2.26v.83h-2.26v1.58h-.89v-2.73c0-.29.05-.52.14-.71Z"/>
        <path class="uuid-d5d9a903-65db-4fb9-b982-41be15b14a7e" d="M31.91,78.55h-1.67c-.29,0-.53-.05-.71-.14-.19-.09-.33-.23-.42-.42s-.14-.43-.14-.71v-2.73h.89v2.73c0,.11.01.2.04.26.03.07.07.11.14.14.07.03.15.04.26.04h1.61v.83Z"/>
      </g>
      <g>
        <g>
          <rect class="uuid-d1dcb2d5-7514-4dba-b412-2368260f5c22" x="22.88" y="75.25" width=".88" height="5.83"/>
          <rect x="22.88" y="76.22" width=".88" height=".97"/>
          <rect x="22.88" y="78.16" width=".88" height=".97"/>
          <rect x="22.88" y="80.1" width=".88" height=".97"/>
          <rect class="uuid-d1dcb2d5-7514-4dba-b412-2368260f5c22" x="22.01" y="75.25" width=".88" height="5.83"/>
          <rect x="22.01" y="75.25" width=".88" height=".97"/>
          <rect x="22.01" y="77.19" width=".88" height=".97"/>
          <rect x="22.01" y="79.13" width=".88" height=".97"/>
        </g>
        <g>
          <rect class="uuid-d1dcb2d5-7514-4dba-b412-2368260f5c22" x="22.88" y="72.34" width=".88" height="2.91"/>
          <rect x="22.88" y="72.34" width=".88" height=".97"/>
          <rect x="22.88" y="74.28" width=".88" height=".97"/>
          <rect class="uuid-d1dcb2d5-7514-4dba-b412-2368260f5c22" x="22.01" y="72.34" width=".88" height="2.91"/>
          <rect x="22.01" y="73.31" width=".88" height=".97"/>
        </g>
      </g>
    </g>
  </g>
  <g>
    <rect class="uuid-1eac7636-5baa-426d-b827-c1afc7b83c48" x="101.74" y="46.26" width="12.82" height=".73" transform="translate(25.99 131.01) rotate(-69.08)"/>
    <g>
      <path class="uuid-58032e82-9538-44b5-ba39-ac4af615b67c" d="M112.06,47.5h-10.94l-.03.03v8.96h10.97v-9Z"/>
      <g>
        <path class="uuid-d5d9a903-65db-4fb9-b982-41be15b14a7e" d="M102.78,53.02h1.17v-2.35h-1.17v-.83h3.24v.83h-1.18v2.35h1.18v.83h-3.24v-.83Z"/>
        <path class="uuid-d5d9a903-65db-4fb9-b982-41be15b14a7e" d="M107.21,53.69c-.21-.1-.38-.25-.49-.43-.11-.19-.17-.41-.17-.67v-.51h.9v.43c0,.16.05.28.14.37.09.09.22.13.38.13h1.03c.15,0,.26-.03.34-.1.08-.06.12-.16.12-.29,0-.12-.04-.21-.12-.28-.08-.06-.19-.09-.34-.09h-1.11v-.83h1.07c.14,0,.26-.03.34-.1.08-.06.12-.16.12-.29,0-.12-.04-.21-.12-.28-.08-.06-.19-.09-.34-.09h-1c-.16,0-.29.04-.38.13-.09.09-.14.21-.14.37v.26h-.89v-.34c0-.26.06-.48.17-.67s.27-.33.49-.43c.21-.1.47-.15.77-.15h1.01c.27,0,.5.04.7.13s.35.21.46.38c.11.17.16.36.16.59,0,.2-.04.38-.14.53-.09.15-.23.27-.42.37.21.1.37.22.46.37.09.14.14.32.14.54s-.05.42-.16.59c-.11.17-.27.29-.47.38-.2.09-.44.13-.71.13h-1.03c-.3,0-.56-.05-.77-.15Z"/>
      </g>
    </g>
  </g>
  <g>
    <rect class="uuid-1eac7636-5baa-426d-b827-c1afc7b83c48" x="167.91" y="27.38" width=".73" height="12.21" transform="translate(9.27 97.94) rotate(-33.32)"/>
    <path class="uuid-58032e82-9538-44b5-ba39-ac4af615b67c" d="M176.13,36.51h-10.14l-.03.03v7.93h10.17v-7.96Z"/>
    <g>
      <path class="uuid-d5d9a903-65db-4fb9-b982-41be15b14a7e" d="M167.26,41.57h1.17v-2.35h-1.17v-.83h3.24v.83h-1.18v2.35h1.18v.83h-3.24v-.83Z"/>
      <path class="uuid-d5d9a903-65db-4fb9-b982-41be15b14a7e" d="M171.6,42.26c-.18-.09-.32-.21-.42-.36-.09-.16-.14-.34-.14-.55,0-.3.09-.54.27-.73.18-.19.48-.33.9-.41l1.27-.27c.12-.02.21-.05.28-.08.07-.03.11-.07.14-.12.03-.04.05-.11.05-.18,0-.11-.04-.2-.13-.25s-.22-.08-.41-.08h-.92c-.17,0-.3.04-.39.13-.09.09-.13.21-.13.37v.15h-.89v-.24c0-.26.06-.48.17-.67.11-.18.27-.33.49-.43.21-.1.47-.15.78-.15h.88c.47,0,.83.1,1.08.3s.37.49.37.86c0,.22-.04.41-.11.56-.07.15-.18.27-.33.37-.15.09-.34.16-.58.21l-1.5.3c-.13.03-.23.07-.29.12-.07.05-.1.12-.1.2s.03.15.09.2c.06.04.15.07.27.07h2.53v.83h-2.57c-.25,0-.47-.04-.65-.13Z"/>
    </g>
  </g>
</svg>