<?xml version="1.0" encoding="UTF-8"?>
<svg id="uuid-63d1c3cb-fc25-4ddc-b867-14e8a29921d2" data-name="Capa 1" xmlns="http://www.w3.org/2000/svg" viewBox="0 0 210 98">
  <defs>
    <style>
      .uuid-1b899d61-37d8-4b03-a4a4-b76af981c854 {
        fill: #323232;
      }

      .uuid-d42408d0-c145-4dcb-8a89-5ecfbd1573d4 {
        fill: #444;
      }

      .uuid-e7cd7d77-264d-4109-860b-edd0b79b1de3 {
        fill: #e6e6e6;
      }

      .uuid-61ed46e1-8cb7-4479-9aac-72ecff6d1f46 {
        fill: #f6f6f6;
      }

      .uuid-fa4e44b7-0771-4eed-aa5b-5329c67fe456 {
        fill: #e5e5e5;
      }

      .uuid-05eeec5e-dade-4d90-b574-5affa21a5adb {
        fill: #606060;
      }

      .uuid-f1d1f360-4bf7-4ede-bf36-8b98efd5b04a {
        fill: #a0a0a0;
      }

      .uuid-93c0f3af-7e40-4de0-a5b0-6b3ed49967bc {
        fill: #c6c6c6;
      }

      .uuid-c390949e-b636-47b9-8252-ae21b24527ab {
        fill: #c70502;
      }

      .uuid-2122c3c1-8bf6-49ab-9802-9017340e00c7 {
        fill: #fafafa;
      }

      .uuid-a511862f-7635-4b3d-ba42-afac472cfb3e {
        fill: red;
      }

      .uuid-7d54719a-5d7b-4f07-b3ad-6e1ff7e6a5d6 {
        fill: #ededed;
      }

      .uuid-23da3339-26c2-4618-8c13-3c9633d849b7 {
        fill: #ececec;
      }
    </style>
  </defs>
  <path class="uuid-05eeec5e-dade-4d90-b574-5affa21a5adb" d="M137.06,41.21l-.62-1.3c.97-.46,1.87-.88,2.7-1.27,4.81-2.25,7.22-3.38,8.27-5.46,1.25-2.48,1.12-3.86.76-5.82-.28-1.51-1.18-2.43-2.59-2.66-1.15-.18-2.79.08-5.31.85-3.27,1-11.88,1.19-12.24,1.2l-.03-1.44c.09,0,8.77-.19,11.85-1.14,2.78-.85,4.56-1.12,5.96-.89,2.01.32,3.39,1.71,3.78,3.81.39,2.12.56,3.85-.88,6.73-1.27,2.52-3.83,3.72-8.95,6.11-.83.39-1.72.8-2.69,1.26Z"/>
  <path class="uuid-f1d1f360-4bf7-4ede-bf36-8b98efd5b04a" d="M86.6,86.4c-3.75,0-35.44-.16-41.67-.23-6.51-.07-25.3.03-27.73.07-.06,0-.11,0-.17,0-3.38,0-5.79-1.56-6.79-4.41-1.1-3.12-.09-4.94,1.32-7.46.15-.27.31-.55.47-.85l.2-.36c2.62-4.82,9.57-17.63,25.08-24.64,6.17-2.79,14.29-4.1,21.74-3.52,13.42,1.05,23.14,9.79,26.8,13.08.33.3.61.55.85.76,2.1,1.82,3.83,1.11,5.84.29.25-.1.51-.21.76-.3,1.41-.54,4.78-2.13,7.76-3.54,1.7-.8,3.31-1.56,4.28-1.99.9-.4,3.74-1.69,7.34-3.33,6.94-3.16,16.45-7.49,21.36-9.67,6.82-3.03,7.37-3.83,7.85-4.54.04-.06.08-.11.12-.17.73-1.04,1.33-2.8.06-5.34-1.35-2.69-3.56-3.12-5.55-3.19-2.24-.08-10.12-.13-12.8.2-2.33.29-3.39,1.27-4.61,2.41l-.26.24c-1.25,1.15-7.77,7.49-9.94,9.73-2.36,2.44-4.81,2.94-6.28,3.24-1.52.31-6.32.34-10.15.23-1.47-.04-3.21-.05-4.89-.07-2.74-.02-5.32-.04-6.77-.17-2.45-.23-5.06-1.8-6.64-4.01-1.23-1.72-2.44-4.03-2.08-8.12.34-3.76,3.38-6.62,5.22-7.53.63-.31,1-.48,1.51-.7.59-.26,1.4-.61,3.07-1.41,1.48-.71,4.09-1.94,6.86-3.24,2.98-1.4,6.35-3,8.74-4.14,5.89-2.8,7.28-3.09,10.67-3.09.61,0,1.42,0,2.39,0,2.32,0,5.5.02,9.31,0,2.78-.02,41.64-.04,44.28.54,2.52.55,4.44,2.54,5.57,5.75,1.03,2.93-.38,6.37-1.9,8.43-1.13,1.53-19.27,27.59-20.51,29.93-.9,1.69-.98,4.48-.17,6.35,2.18,5.07,7.34,5.44,8.35,5.46,1.08.02,5.24.02,9.26,0,1.92,0,3.8,0,5.27,0,3.19,0,4.76-.19,6.21-1.35,1.36-1.09,1.26-3.41,1.2-4.94v-.08c-.06-1.28-.59-8.01-.98-12.93-.13-1.63-.24-3.07-.32-4.08-.05-.62-.1-1.22-.14-1.81-.27-3.39-.49-6.06-.23-7.64.3-1.84,2.07-3.55,3.24-4.68.14-.14.27-.27.39-.38.63-.63,6.15-6.52,9.8-10.42,1.57-1.68,2.85-3.04,3.36-3.58,2-2.12,3.54-2.57,5.53-2.62,2.41-.07,4.85,1.52,5.96,3.85.96,2.03.54,3.94.1,5.97-.1.44-.2.89-.28,1.36-.47,2.52-3.87,17.38-4.01,18.01-.06.27-6.08,27.71-7,32.18-.81,3.92-2.11,6.04-3.81,8-2.51,2.9-5.94,4.31-10.47,4.31h-11.96l-79.81.16s-.1,0-.16,0ZM38.46,84.09c2.61,0,4.91,0,6.49.02,6.22.07,37.9.23,41.65.23.06,0,.11,0,.16,0l79.81-.16h11.97c2.49,0,6.13-.37,8.92-3.6,1.53-1.77,2.63-3.57,3.35-7.07.93-4.48,6.95-31.94,7.01-32.21.04-.16,3.53-15.46,4-17.94.09-.49.2-.96.29-1.42.4-1.82.71-3.25.05-4.65-.86-1.81-2.69-2.72-4.05-2.68-1.55.04-2.56.35-4.1,1.98-.51.54-1.78,1.9-3.35,3.58-3.88,4.14-9.19,9.81-9.84,10.46-.12.12-.26.25-.41.4-.86.83-2.45,2.37-2.64,3.53-.22,1.34,0,4.03.25,7.15.05.59.1,1.19.14,1.82.08,1,.19,2.45.32,4.07.39,4.93.93,11.69.98,13.01v.08c.08,1.83.2,4.88-1.96,6.63-2.09,1.68-4.42,1.81-7.49,1.81-1.46,0-3.34,0-5.26,0-4.03,0-8.2.02-9.31,0-1.23-.03-7.52-.48-10.2-6.7-1.06-2.46-.95-5.87.25-8.13,1.35-2.53,19.63-28.77,20.67-30.18,1.28-1.73,2.33-4.51,1.62-6.53-.61-1.75-1.82-3.94-4.07-4.43-2.07-.45-36.01-.54-43.83-.49-3.81.03-7,.01-9.33,0-.96,0-1.76,0-2.38,0-2.95,0-3.96.11-9.78,2.89-2.39,1.14-5.77,2.73-8.75,4.14-2.76,1.3-5.37,2.53-6.85,3.24-1.7.81-2.53,1.17-3.13,1.44-.5.22-.84.37-1.42.66-1.17.58-3.82,2.88-4.09,5.88-.29,3.22.47,5.02,1.7,6.74,1.23,1.72,3.31,2.99,5.16,3.16,1.36.13,3.9.14,6.59.16,1.69.01,3.43.02,4.93.07,4.4.12,8.55.04,9.67-.19,1.33-.27,3.31-.68,5.23-2.66,2.12-2.19,8.58-8.48,10.02-9.81l.26-.24c1.3-1.21,2.77-2.57,5.76-2.94,2.92-.36,11.06-.29,13.13-.22,2.25.08,5.45.61,7.31,4.33,1.81,3.63.64,6.22-.22,7.44-.04.05-.07.1-.1.15-.73,1.07-1.36,1.99-8.72,5.26-4.91,2.18-14.41,6.5-21.35,9.66-3.6,1.64-6.45,2.94-7.36,3.34-.95.42-2.55,1.18-4.24,1.98-3.01,1.42-6.42,3.03-7.9,3.6-.24.09-.48.19-.72.29-2.07.84-4.91,2-7.96-.64-.24-.21-.54-.48-.88-.78-3.52-3.16-12.86-11.57-25.59-12.56-7.11-.56-14.86.7-20.73,3.35-14.88,6.72-21.6,19.09-24.13,23.75l-.2.37c-.17.3-.33.59-.48.87-1.31,2.35-1.97,3.53-1.18,5.78.71,2.02,2.34,3.04,4.85,3.04.05,0,.09,0,.14,0,1.85-.03,13.11-.09,21.3-.09Z"/>
  <g>
    <circle class="uuid-d42408d0-c145-4dcb-8a89-5ecfbd1573d4" cx="203.98" cy="8.61" r="3.52"/>
    <path class="uuid-93c0f3af-7e40-4de0-a5b0-6b3ed49967bc" d="M203.31,9.13c.18-.18.39-.36.65-.54.21-.15.35-.28.45-.38s.14-.22.14-.36c0-.12-.04-.23-.13-.3-.09-.08-.21-.12-.36-.12s-.29.04-.41.12c-.12.08-.23.2-.31.35l-.51-.32c.13-.24.3-.43.51-.56.21-.13.46-.2.73-.2.22,0,.42.04.58.12.17.08.29.2.38.35.09.15.14.32.14.51s-.04.36-.11.5c-.07.14-.16.26-.27.35s-.25.2-.42.33c-.18.13-.33.25-.44.35s-.2.22-.27.35h1.57v.59h-2.37v-.47c.12-.27.27-.5.45-.68Z"/>
  </g>
  <g>
    <circle class="uuid-d42408d0-c145-4dcb-8a89-5ecfbd1573d4" cx="170.03" cy="32.02" r="3.52"/>
    <path class="uuid-93c0f3af-7e40-4de0-a5b0-6b3ed49967bc" d="M169.3,33.58c-.21-.12-.38-.3-.5-.52l.47-.28c.09.15.19.25.31.33s.27.11.44.11c.19,0,.34-.05.46-.14.12-.09.18-.22.18-.38s-.05-.27-.16-.38c-.11-.1-.24-.15-.4-.15h-.4v-.51h.4c.14,0,.26-.04.34-.11s.12-.18.12-.31-.05-.23-.14-.31c-.09-.08-.23-.12-.39-.12-.3,0-.53.14-.7.42l-.47-.28c.28-.46.69-.69,1.23-.69.21,0,.4.04.57.12.17.08.29.19.39.34s.14.3.14.48c0,.17-.04.31-.12.44-.08.13-.18.22-.3.28.16.08.28.19.38.34s.14.31.14.48c0,.19-.05.37-.15.52-.1.15-.25.28-.44.37-.19.09-.41.14-.65.14-.28,0-.53-.06-.74-.19Z"/>
  </g>
  <g>
    <circle class="uuid-d42408d0-c145-4dcb-8a89-5ecfbd1573d4" cx="171.4" cy="61.26" r="3.52"/>
    <path class="uuid-93c0f3af-7e40-4de0-a5b0-6b3ed49967bc" d="M170.15,61.72l.93-2.16h.64l-.91,2.08h.86v-.78h.62v.78h.49v.58h-.49v.7h-.62v-.7h-1.53v-.51Z"/>
  </g>
  <g>
    <circle class="uuid-d42408d0-c145-4dcb-8a89-5ecfbd1573d4" cx="152.13" cy="59.71" r="3.52"/>
    <path class="uuid-93c0f3af-7e40-4de0-a5b0-6b3ed49967bc" d="M151.42,61.27c-.21-.12-.37-.29-.49-.52l.52-.32c.15.28.39.43.7.43.2,0,.35-.05.47-.16.12-.11.17-.25.17-.43s-.06-.33-.17-.44c-.11-.11-.27-.17-.48-.17-.24,0-.45.09-.62.27l-.41-.27.33-1.66h1.8v.59h-1.33l-.12.63c.13-.05.28-.08.43-.08.24,0,.45.05.63.15.18.1.31.23.41.4s.14.37.14.58-.05.42-.15.59c-.1.18-.25.32-.45.42-.19.1-.42.15-.68.15s-.51-.06-.71-.18Z"/>
  </g>
  <g>
    <circle class="uuid-d42408d0-c145-4dcb-8a89-5ecfbd1573d4" cx="173.07" cy="11.63" r="3.52"/>
    <path class="uuid-93c0f3af-7e40-4de0-a5b0-6b3ed49967bc" d="M172.49,13.21c-.2-.11-.35-.26-.46-.44s-.17-.39-.17-.61c0-.27.09-.52.28-.77l1.11-1.46h.76l-.82,1.05h.04c.21,0,.4.05.58.15.18.1.32.25.43.43s.16.39.16.62-.05.42-.16.6-.26.33-.45.43-.41.16-.64.16-.45-.05-.65-.16ZM173.59,12.6c.12-.12.18-.27.18-.45s-.06-.33-.18-.45c-.12-.12-.27-.18-.46-.18s-.34.06-.46.19-.19.27-.19.45.06.32.18.44c.12.12.28.18.47.18s.35-.06.46-.18Z"/>
  </g>
  <g>
    <circle class="uuid-d42408d0-c145-4dcb-8a89-5ecfbd1573d4" cx="102.87" cy="5.37" r="3.52"/>
    <path class="uuid-93c0f3af-7e40-4de0-a5b0-6b3ed49967bc" d="M103.4,4.26h-1.72v-.6h2.41v.51l-1.38,2.87h-.67l1.36-2.77Z"/>
  </g>
  <g>
    <circle class="uuid-d42408d0-c145-4dcb-8a89-5ecfbd1573d4" cx="66.04" cy="33.69" r="3.52"/>
    <path class="uuid-93c0f3af-7e40-4de0-a5b0-6b3ed49967bc" d="M65.48,35.3c-.18-.09-.32-.21-.42-.37s-.15-.33-.15-.52c0-.17.04-.33.13-.47.09-.14.21-.26.36-.35-.1-.05-.2-.14-.27-.28s-.12-.29-.12-.45c0-.18.05-.34.14-.48.09-.14.22-.25.39-.33.17-.08.36-.12.57-.12s.4.04.57.12c.17.08.3.19.39.33.09.14.14.3.14.48,0,.17-.04.31-.11.44-.08.13-.17.22-.28.28.15.08.27.19.36.34.09.15.13.31.13.48,0,.19-.05.36-.15.52s-.24.28-.42.37-.39.14-.62.14-.44-.05-.62-.14ZM66.52,34.75c.11-.1.16-.23.16-.39s-.05-.28-.16-.38c-.11-.1-.25-.15-.42-.15s-.3.05-.41.15-.16.23-.16.38c0,.16.05.29.16.39.11.1.25.15.42.15s.31-.05.42-.15ZM66.46,33.21c.09-.08.13-.18.13-.31s-.04-.23-.13-.31c-.09-.08-.21-.12-.36-.12s-.27.04-.36.12-.13.18-.13.31.04.24.13.31.21.12.36.12.27-.04.36-.12Z"/>
  </g>
  <g>
    <circle class="uuid-d42408d0-c145-4dcb-8a89-5ecfbd1573d4" cx="102.34" cy="34.78" r="3.52"/>
    <path class="uuid-93c0f3af-7e40-4de0-a5b0-6b3ed49967bc" d="M103.04,33.17c.19.11.35.26.46.44.11.19.17.39.17.61,0,.27-.09.52-.28.77l-1.11,1.46h-.76l.82-1.05h-.04c-.21,0-.4-.05-.58-.15s-.32-.25-.43-.43c-.11-.18-.16-.39-.16-.62s.05-.42.16-.6.26-.33.45-.43c.19-.11.41-.16.64-.16s.45.05.65.16ZM101.93,33.78c-.12.12-.18.27-.18.45s.06.33.18.45c.12.12.27.18.46.18s.34-.06.46-.19c.12-.12.19-.27.19-.45s-.06-.32-.18-.44c-.12-.12-.28-.18-.47-.18s-.35.06-.46.18Z"/>
  </g>
  <g>
    <circle class="uuid-d42408d0-c145-4dcb-8a89-5ecfbd1573d4" cx="118.04" cy="20.76" r="3.52"/>
    <g>
      <path class="uuid-93c0f3af-7e40-4de0-a5b0-6b3ed49967bc" d="M115.55,21.83h.94v-2.08l-.84.19v-.6l1.46-.33v2.82h.86v.6h-2.42v-.6Z"/>
      <path class="uuid-93c0f3af-7e40-4de0-a5b0-6b3ed49967bc" d="M118.87,22.35c-.19-.1-.34-.25-.45-.44-.11-.19-.16-.4-.16-.64v-1.05c0-.24.05-.45.16-.64s.26-.33.45-.44c.19-.1.4-.16.63-.16s.44.05.63.16c.19.1.34.25.44.43s.16.4.16.64v1.05c0,.24-.05.46-.16.64s-.26.33-.44.44c-.19.1-.4.16-.63.16s-.44-.05-.63-.16ZM119.95,21.73c.11-.12.16-.28.16-.48v-1c0-.21-.05-.37-.16-.48s-.26-.18-.45-.18-.34.06-.45.18-.16.28-.16.48v1c0,.2.05.36.16.48s.26.18.45.18.34-.06.45-.18Z"/>
    </g>
  </g>
  <g>
    <circle class="uuid-d42408d0-c145-4dcb-8a89-5ecfbd1573d4" cx="136.51" cy="32.67" r="3.52"/>
    <g>
      <path class="uuid-93c0f3af-7e40-4de0-a5b0-6b3ed49967bc" d="M134.02,33.74h.94v-2.08l-.84.19v-.6l1.46-.33v2.82h.86v.6h-2.42v-.6Z"/>
      <path class="uuid-93c0f3af-7e40-4de0-a5b0-6b3ed49967bc" d="M136.8,33.74h.94v-2.08l-.84.19v-.6l1.46-.33v2.82h.86v.6h-2.42v-.6Z"/>
    </g>
  </g>
  <g>
    <circle class="uuid-d42408d0-c145-4dcb-8a89-5ecfbd1573d4" cx="89.89" cy="54.06" r="3.52"/>
    <g>
      <path class="uuid-93c0f3af-7e40-4de0-a5b0-6b3ed49967bc" d="M87.4,55.13h.94v-2.08l-.84.19v-.6l1.46-.33v2.82h.86v.6h-2.42v-.6Z"/>
      <path class="uuid-93c0f3af-7e40-4de0-a5b0-6b3ed49967bc" d="M90.6,54.59c.18-.18.39-.36.65-.54.21-.15.35-.28.45-.38.09-.1.14-.22.14-.36,0-.12-.04-.23-.13-.3s-.21-.12-.36-.12-.29.04-.41.12c-.12.08-.23.2-.32.35l-.51-.32c.13-.24.3-.43.51-.56.21-.13.46-.2.73-.2.22,0,.42.04.58.12.17.08.29.2.38.35.09.15.14.32.14.51s-.04.36-.11.5-.16.26-.27.35c-.11.1-.25.2-.42.33-.18.13-.33.25-.44.35s-.2.22-.27.35h1.57v.59h-2.37v-.47c.12-.27.27-.5.45-.68Z"/>
    </g>
  </g>
  <g>
    <circle class="uuid-d42408d0-c145-4dcb-8a89-5ecfbd1573d4" cx="37.17" cy="42.29" r="3.52"/>
    <g>
      <path class="uuid-93c0f3af-7e40-4de0-a5b0-6b3ed49967bc" d="M34.68,43.36h.94v-2.08l-.84.19v-.6l1.46-.33v2.82h.86v.6h-2.42v-.6Z"/>
      <path class="uuid-93c0f3af-7e40-4de0-a5b0-6b3ed49967bc" d="M37.83,43.85c-.21-.12-.38-.3-.5-.52l.47-.28c.09.15.19.25.31.33.12.07.27.11.44.11.18,0,.34-.05.46-.14.12-.09.18-.22.18-.38s-.05-.27-.16-.38c-.11-.1-.24-.15-.4-.15h-.4v-.51h.4c.15,0,.26-.04.34-.11.08-.08.12-.18.12-.31s-.05-.23-.14-.31c-.09-.08-.23-.12-.39-.12-.3,0-.53.14-.7.42l-.47-.28c.27-.46.68-.69,1.23-.69.21,0,.4.04.57.12.17.08.3.19.39.34s.14.3.14.48c0,.17-.04.31-.12.44-.08.13-.18.22-.3.28.16.08.28.19.38.34.1.15.14.31.14.48,0,.19-.05.37-.15.52s-.25.28-.44.37c-.19.09-.41.14-.65.14-.28,0-.53-.06-.74-.19Z"/>
    </g>
  </g>
  <g>
    <circle class="uuid-d42408d0-c145-4dcb-8a89-5ecfbd1573d4" cx="6.02" cy="86.74" r="3.52"/>
    <g>
      <path class="uuid-93c0f3af-7e40-4de0-a5b0-6b3ed49967bc" d="M3.53,87.81h.94v-2.08l-.84.19v-.6l1.46-.33v2.82h.86v.6h-2.42v-.6Z"/>
      <path class="uuid-93c0f3af-7e40-4de0-a5b0-6b3ed49967bc" d="M6.16,87.2l.93-2.16h.65l-.91,2.08h.85v-.78h.62v.78h.49v.58h-.49v.7h-.62v-.7h-1.53v-.51Z"/>
    </g>
  </g>
  <g>
    <rect class="uuid-fa4e44b7-0771-4eed-aa5b-5329c67fe456" x="86.61" y="82.2" width=".72" height="9.4"/>
    <path class="uuid-c390949e-b636-47b9-8252-ae21b24527ab" d="M91.25,88.35h-8.62v7.89h8.62v-7.89Z"/>
    <g>
      <path class="uuid-23da3339-26c2-4618-8c13-3c9633d849b7" d="M82.39,89.57c.14-.27.34-.48.62-.62.28-.14.62-.21,1.04-.21h2.92v1.21h-2.83c-.16,0-.29.02-.39.06-.1.04-.16.11-.2.21s-.06.22-.06.39v.46h3.33v1.22h-3.33v2.33h-1.31v-4.02c0-.42.07-.77.21-1.04Z"/>
      <path class="uuid-23da3339-26c2-4618-8c13-3c9633d849b7" d="M92.18,94.63h-2.46c-.43,0-.78-.07-1.05-.2-.28-.13-.48-.34-.62-.62-.13-.27-.2-.62-.2-1.05v-4.02h1.31v4.02c0,.16.02.29.06.39.04.1.11.17.2.21.1.04.22.06.39.06h2.37v1.21Z"/>
    </g>
  </g>
  <g>
    <g>
      <rect class="uuid-2122c3c1-8bf6-49ab-9802-9017340e00c7" x="81.75" y="90.98" width=".88" height="5.26"/>
      <rect x="81.75" y="91.85" width=".88" height=".88"/>
      <rect x="81.75" y="93.61" width=".88" height=".88"/>
      <rect x="81.75" y="95.36" width=".88" height=".88"/>
      <rect class="uuid-2122c3c1-8bf6-49ab-9802-9017340e00c7" x="80.88" y="90.98" width=".88" height="5.26"/>
      <rect x="80.88" y="90.98" width=".88" height=".88"/>
      <rect x="80.88" y="92.73" width=".88" height=".88"/>
      <rect x="80.88" y="94.48" width=".88" height=".88"/>
    </g>
    <g>
      <rect class="uuid-2122c3c1-8bf6-49ab-9802-9017340e00c7" x="81.75" y="88.35" width=".88" height="2.63"/>
      <rect x="81.75" y="88.35" width=".88" height=".88"/>
      <rect x="81.75" y="90.1" width=".88" height=".88"/>
      <rect class="uuid-2122c3c1-8bf6-49ab-9802-9017340e00c7" x="80.88" y="88.35" width=".88" height="2.63"/>
      <rect x="80.88" y="89.23" width=".88" height=".88"/>
    </g>
  </g>
  <g>
    <circle class="uuid-d42408d0-c145-4dcb-8a89-5ecfbd1573d4" cx="192.55" cy="86.01" r="3.55"/>
    <path class="uuid-93c0f3af-7e40-4de0-a5b0-6b3ed49967bc" d="M191.43,87.09h.95v-2.1l-.85.19v-.6l1.48-.33v2.85h.87v.61h-2.45v-.61Z"/>
  </g>
  <g>
    <g>
      <line class="uuid-7d54719a-5d7b-4f07-b3ad-6e1ff7e6a5d6" x1="86.93" y1="90.54" x2="87.01" y2="81.78"/>
      <rect class="uuid-e7cd7d77-264d-4109-860b-edd0b79b1de3" x="82.59" y="85.8" width="8.76" height=".73" transform="translate(.04 172.36) rotate(-89.49)"/>
    </g>
    <g>
      <path class="uuid-a511862f-7635-4b3d-ba42-afac472cfb3e" d="M91.89,87.88h-10.98l-.03.03v8.7h11.02v-8.74Z"/>
      <g>
        <path class="uuid-7d54719a-5d7b-4f07-b3ad-6e1ff7e6a5d6" d="M84.12,90.65c.09-.19.23-.33.42-.42.19-.09.42-.14.71-.14h1.98v.83h-1.92c-.11,0-.2.01-.26.04-.06.03-.11.08-.14.14-.03.06-.04.15-.04.26v.32h2.26v.83h-2.26v1.58h-.89v-2.73c0-.29.05-.52.14-.71Z"/>
        <path class="uuid-7d54719a-5d7b-4f07-b3ad-6e1ff7e6a5d6" d="M90.78,94.09h-1.67c-.29,0-.53-.05-.71-.14-.19-.09-.33-.23-.42-.42s-.14-.43-.14-.71v-2.73h.89v2.73c0,.11.01.2.04.26.03.07.07.11.14.14.07.03.15.04.26.04h1.61v.83Z"/>
      </g>
      <g>
        <g>
          <rect class="uuid-2122c3c1-8bf6-49ab-9802-9017340e00c7" x="81.75" y="90.79" width=".88" height="5.83"/>
          <rect x="81.75" y="91.76" width=".88" height=".97"/>
          <rect x="81.75" y="93.7" width=".88" height=".97"/>
          <rect x="81.75" y="95.64" width=".88" height=".97"/>
          <rect class="uuid-2122c3c1-8bf6-49ab-9802-9017340e00c7" x="80.88" y="90.79" width=".88" height="5.83"/>
          <rect x="80.88" y="90.79" width=".88" height=".97"/>
          <rect x="80.88" y="92.73" width=".88" height=".97"/>
          <rect x="80.88" y="94.67" width=".88" height=".97"/>
        </g>
        <g>
          <rect class="uuid-2122c3c1-8bf6-49ab-9802-9017340e00c7" x="81.75" y="87.88" width=".88" height="2.91"/>
          <rect x="81.75" y="87.88" width=".88" height=".97"/>
          <rect x="81.75" y="89.82" width=".88" height=".97"/>
          <rect class="uuid-2122c3c1-8bf6-49ab-9802-9017340e00c7" x="80.88" y="87.88" width=".88" height="2.91"/>
          <rect x="80.88" y="88.85" width=".88" height=".97"/>
        </g>
      </g>
    </g>
  </g>
  <g>
    <rect class="uuid-e7cd7d77-264d-4109-860b-edd0b79b1de3" x="180.29" y="20.62" width=".73" height="11.53" transform="translate(41.6 144.7) rotate(-48.7)"/>
    <path class="uuid-a511862f-7635-4b3d-ba42-afac472cfb3e" d="M182.72,15.86h-10.14l-.03.03v8.76h10.17v-8.79Z"/>
    <g>
      <path class="uuid-7d54719a-5d7b-4f07-b3ad-6e1ff7e6a5d6" d="M174.24,21.37h1.17v-2.35h-1.17v-.83h3.24v.83h-1.18v2.35h1.18v.83h-3.24v-.83Z"/>
      <path class="uuid-7d54719a-5d7b-4f07-b3ad-6e1ff7e6a5d6" d="M178.1,21.37h1.49v-2.1c0-.07-.02-.13-.05-.17-.03-.04-.08-.06-.16-.06-.04,0-.08,0-.13.02-.05.01-.11.04-.17.06l-.89.29v-.83l.81-.29c.12-.04.23-.08.34-.1s.22-.04.32-.04c.17,0,.31.04.43.11.12.07.22.18.28.32s.09.29.09.47v2.33h1.32v.83h-3.7v-.83Z"/>
    </g>
  </g>
  <g>
    <rect class="uuid-e7cd7d77-264d-4109-860b-edd0b79b1de3" x="111.94" y="8.52" width="12.21" height=".73" transform="translate(108.81 126.9) rotate(-89.83)"/>
    <path class="uuid-a511862f-7635-4b3d-ba42-afac472cfb3e" d="M123.34.34h-10.14l-.03.03v7.93h10.17V.34Z"/>
    <g>
      <path class="uuid-7d54719a-5d7b-4f07-b3ad-6e1ff7e6a5d6" d="M114.47,5.39h1.17v-2.35h-1.17v-.83h3.24v.83h-1.18v2.35h1.18v.83h-3.24v-.83Z"/>
      <path class="uuid-7d54719a-5d7b-4f07-b3ad-6e1ff7e6a5d6" d="M118.81,6.09c-.18-.09-.32-.21-.42-.36-.09-.16-.14-.34-.14-.55,0-.3.09-.54.27-.73.18-.19.48-.33.9-.41l1.27-.27c.12-.02.21-.05.28-.08.07-.03.11-.07.14-.12.03-.04.05-.11.05-.18,0-.11-.04-.2-.13-.25s-.22-.08-.41-.08h-.92c-.17,0-.3.04-.39.13-.09.09-.13.21-.13.37v.15h-.89v-.24c0-.26.06-.48.17-.67.11-.18.27-.33.49-.43.21-.1.47-.15.78-.15h.88c.47,0,.83.1,1.08.3s.37.49.37.86c0,.22-.04.41-.11.56-.07.15-.18.27-.33.37-.15.09-.34.16-.58.21l-1.5.3c-.13.03-.23.07-.29.12-.07.05-.1.12-.1.2s.03.15.09.2c.06.04.15.07.27.07h2.53v.83h-2.57c-.25,0-.47-.04-.65-.13Z"/>
    </g>
  </g>
  <g>
    <rect class="uuid-e7cd7d77-264d-4109-860b-edd0b79b1de3" x="128.22" y="40.83" width=".73" height="12.82" transform="translate(-7.05 66.47) rotate(-28.24)"/>
    <g>
      <path class="uuid-a511862f-7635-4b3d-ba42-afac472cfb3e" d="M136.59,49.26h-10.94l-.03.03v8.96h10.97v-9Z"/>
      <g>
        <path class="uuid-7d54719a-5d7b-4f07-b3ad-6e1ff7e6a5d6" d="M127.3,54.78h1.17v-2.35h-1.17v-.83h3.24v.83h-1.18v2.35h1.18v.83h-3.24v-.83Z"/>
        <path class="uuid-7d54719a-5d7b-4f07-b3ad-6e1ff7e6a5d6" d="M131.74,55.45c-.21-.1-.38-.25-.49-.43-.11-.19-.17-.41-.17-.67v-.51h.9v.43c0,.16.05.28.14.37.09.09.22.13.38.13h1.03c.15,0,.26-.03.34-.1.08-.06.12-.16.12-.29,0-.12-.04-.21-.12-.28-.08-.06-.19-.09-.34-.09h-1.11v-.83h1.07c.14,0,.26-.03.34-.1.08-.06.12-.16.12-.29,0-.12-.04-.21-.12-.28-.08-.06-.19-.09-.34-.09h-1c-.16,0-.29.04-.38.13-.09.09-.14.21-.14.37v.26h-.89v-.34c0-.26.06-.48.17-.67s.27-.33.49-.43c.21-.1.47-.15.77-.15h1.01c.27,0,.5.04.7.13s.35.21.46.38c.11.17.16.36.16.59,0,.2-.04.38-.14.53-.09.15-.23.27-.42.37.21.1.37.22.46.37.09.14.14.32.14.54s-.05.42-.16.59c-.11.17-.27.29-.47.38-.2.09-.44.13-.71.13h-1.03c-.3,0-.56-.05-.77-.15Z"/>
      </g>
    </g>
  </g>
  <g>
    <rect class="uuid-7d54719a-5d7b-4f07-b3ad-6e1ff7e6a5d6" x="127.91" y="82.08" width=".73" height="9.41" transform="translate(-.84 1.25) rotate(-.56)"/>
    <g>
      <path class="uuid-61ed46e1-8cb7-4479-9aac-72ecff6d1f46" d="M133.18,88.39h-8.62l-.03.03v7.38h8.65v-7.41Z"/>
      <path class="uuid-1b899d61-37d8-4b03-a4a4-b76af981c854" d="M126.88,93.43h2.69c.14,0,.25-.03.33-.09.08-.06.12-.15.12-.27,0-.11-.03-.19-.1-.24-.07-.06-.17-.11-.31-.15l-1.69-.45c-.39-.09-.67-.25-.86-.47-.18-.22-.28-.52-.28-.88,0-.26.06-.5.19-.71.13-.21.31-.37.54-.49.23-.12.51-.18.83-.18h2.58v1.02h-2.58c-.14,0-.26.03-.33.09-.08.06-.12.15-.12.27s.03.2.1.25c.06.06.17.11.31.15l1.68.44c.39.09.68.25.86.48s.28.52.28.88c0,.27-.06.51-.19.71-.13.21-.31.37-.54.49-.23.12-.51.18-.83.18h-2.69v-1.02Z"/>
    </g>
  </g>
</svg>